<svg
  viewBox="0 0 20 20"
  xmlns="http://www.w3.org/2000/svg"
>
  <path
    d="M8.40917 16.1591C8.74108 16.0062 9.003 15.6803 9.003 15.2534L9.003 13.2539C11.2854 13.2539 17.7506 13.2539 19.0002 13.2539C19.5521 13.2539 20 12.8061 20 12.2542L20 6.25585C20 5.703 19.5521 5.25612 19.0002 5.25612L9.003 5.25612L9.003 3.25667C9.003 2.40191 7.99527 1.95103 7.34745 2.50688L0.349375 8.50523C-0.116497 8.90412 -0.116497 9.60593 0.349375 10.0048L7.34745 16.0032C7.67136 16.2811 8.07826 16.3111 8.40917 16.1591ZM7.00355 13.097L2.53578 9.25503L7.00355 5.41209L7.00355 6.25585C7.00355 6.8077 7.45143 7.25558 8.00327 7.25558L18.0005 7.25558L18.0005 11.2545C15.7181 11.2545 9.25293 11.2545 8.00327 11.2545C7.45142 11.2545 7.00355 11.7014 7.00355 12.2542L7.00355 13.097Z"
  />
</svg>
