<svg
  viewBox="0 0 15 16"
  xmlns="http://www.w3.org/2000/svg"
>
  <path
    d="M7.19053 0V2.28572C3.4034 2.28572 0.333374 5.35573 0.333374 9.14286C0.333374 12.9303 3.4034 16 7.19053 16C10.9777 16 14.0477 12.9303 14.0477 9.14286C14.0477 7.91772 13.7218 6.72747 13.1191 5.69052C12.9076 5.32671 12.4353 5.21714 12.0714 5.42857C11.7077 5.64 11.5981 6.11238 11.8096 6.47619C12.278 7.28206 12.5239 8.18896 12.5239 9.14286C12.5239 12.0884 10.1361 14.4762 7.19053 14.4762C4.245 14.4762 1.85719 12.0884 1.85719 9.14286C1.85719 6.19734 4.245 3.80953 7.19053 3.80953V6.09524L10.2381 3.04762L7.19053 0Z"
  />
</svg>
