<svg
  viewBox="0 0 16 16"
  xmlns="http://www.w3.org/2000/svg"
>
  <path
    d="M5.2 0C3.43272 0 2 1.4328 2 3.2V12.8C2 14.5672 3.43272 16 5.2 16H11.6C13.3672 16 14.8 14.5672 14.8 12.8V3.2C14.8 1.4328 13.3672 0 11.6 0H5.2ZM5.2 1.6H11.6C12.484 1.6 13.2 2.316 13.2 3.2V12.8C13.2 13.684 12.484 14.4 11.6 14.4H5.2C4.31632 14.4 3.6 13.684 3.6 12.8V3.2C3.6 2.316 4.31632 1.6 5.2 1.6ZM8.39999 4C7.95839 4 7.59999 4.3584 7.59999 4.8V8.8H5.2L8.39999 12L11.6 8.8H9.19999V4.8C9.19999 4.3584 8.84159 4 8.39999 4Z"
  />
</svg>
