<svg
  viewBox="0 0 15 16"
  xmlns="http://www.w3.org/2000/svg"
>
  <path
    d="M7.19052 0V2.28572C10.9777 2.28572 14.0477 5.35573 14.0477 9.14286C14.0477 12.9303 10.9777 16 7.19052 16C3.4034 16 0.333374 12.9303 0.333374 9.14286C0.333374 7.91772 0.659241 6.72747 1.26191 5.69052C1.47341 5.32671 1.9458 5.21714 2.30953 5.42857C2.67334 5.64 2.78298 6.11238 2.57147 6.47619C2.10305 7.28206 1.85719 8.18896 1.85719 9.14286C1.85719 12.0884 4.245 14.4762 7.19052 14.4762C10.1361 14.4762 12.5239 12.0884 12.5239 9.14286C12.5239 6.19734 10.1361 3.80953 7.19052 3.80953V6.09524L4.1429 3.04762L7.19052 0Z"
  />
</svg>
