<svg
  viewBox="0 0 16 16"
  xmlns="http://www.w3.org/2000/svg"
>
  <path
    d="m 7.999983,0 v 2.28572 c 3.78718,0 6.85718,3.07001 6.85718,6.85714 0,3.78744 -3.07,6.85714 -6.85718,6.85714 -3.78712,0 -6.857146,-3.0697 -6.857146,-6.85714 0,-1.22514 0.325867,-2.41539 0.928536,-3.45234 0.2115,-0.36381 0.68389,-0.47338 1.04762,-0.26195 0.36381,0.21143 0.47345,0.68381 0.26194,1.04762 -0.46842,0.80587 -0.71428,1.71277 -0.71428,2.66667 0,2.94554 2.38781,5.33334 5.33333,5.33334 2.94558,0 5.33338,-2.3878 5.33338,-5.33334 0,-2.94552 -2.3878,-5.33333 -5.33338,-5.33333 V 6.09524 L 4.952363,3.04762 Z"
  />
</svg>
