<svg
  viewBox="0 0 16 16"
  xmlns="http://www.w3.org/2000/svg"
>
  <path
    d="M 8,1.4545 C 6.50618,1.4545 5.07928,1.9555934 3.93164,2.86396 3.6167333,3.1126867 3.5687267,3.5715867 3.81818,3.8864934 4.0676333,4.2014067 4.52582,4.2494067 4.8407333,3.9999534 5.7330933,3.2937734 6.837067,2.9090467 8,2.9090467 c 2.811667,0 5.090933,2.2792733 5.090933,5.0909067 h -1.4546 L 13.8182,10.909034 16,7.9999534 H 14.545467 C 14.545467,4.38468 11.615267,1.4545 8,1.4545 Z M 2.18182,5.0908667 0,7.9999534 h 1.4545467 c 0,3.6152806 2.93018,6.5454806 6.5454533,6.5454806 1.494533,0 2.920733,-0.5004 4.068333,-1.409467 C 12.383267,12.887234 12.431267,12.4283 12.1818,12.113434 11.932333,11.7985 11.4742,11.7505 11.159267,11.999967 10.2662,12.706834 9.163667,13.090834 8,13.090834 c -2.8116333,0 -5.0909067,-2.279267 -5.0909067,-5.0908806 h 1.45454 z"
  />
</svg>
