<svg
  viewBox="0 0 16 16"
  xmlns="http://www.w3.org/2000/svg"
>
  <path
    d="M 4.8,16 C 3.0328,16 1.6,14.5672 1.6,12.8 V 3.2 C 1.6,1.4328 3.0328,0 4.8,0 h 6.4 c 1.7672,0 3.2,1.4328 3.2,3.2 v 9.6 c 0,1.7672 -1.4328,3.2 -3.2,3.2 z m 0,-1.6 h 6.4 c 0.884,0 1.6,-0.716 1.6,-1.6 V 3.2 C 12.8,2.316 12.084,1.6 11.2,1.6 H 4.8 C 3.916,1.6 3.2,2.316 3.2,3.2 v 9.6 c 0,0.884 0.716,1.6 1.6,1.6 z M 7.99999,12 c -0.4416,0 -0.8,-0.3584 -0.8,-0.8 v -4 H 4.8 L 7.99999,4 11.2,7.2 H 8.79999 v 4 c 0,0.4416 -0.3584,0.8 -0.8,0.8 z"
  />
</svg>
