<svg
  viewBox="0 0 16 16"
  xmlns="http://www.w3.org/2000/svg"
>
  <path
    d="M 4.8,0 C 3.03272,0 1.6,1.4328 1.6,3.2 v 9.6 c 0,1.7672 1.43272,3.2 3.2,3.2 h 6.4 c 1.7672,0 3.2,-1.4328 3.2,-3.2 V 3.2 C 14.4,1.4328 12.9672,0 11.2,0 Z m 0,1.6 h 6.4 c 0.884,0 1.6,0.716 1.6,1.6 v 9.6 c 0,0.884 -0.716,1.6 -1.6,1.6 H 4.8 C 3.91632,14.4 3.2,13.684 3.2,12.8 V 3.2 C 3.2,2.316 3.91632,1.6 4.8,1.6 Z M 7.99999,4 c -0.4416,0 -0.8,0.3584 -0.8,0.8 v 4 H 4.8 L 7.99999,12 11.2,8.8 H 8.79999 v -4 c 0,-0.4416 -0.3584,-0.8 -0.8,-0.8 z"
  />
</svg>
