<svg
  viewBox="0 0 16 16"
  xmlns="http://www.w3.org/2000/svg"
>
  <path
    d="m 6.7273494,13.522567 c 0.2655277,-0.12232 0.4750634,-0.38304 0.4750634,-0.724559 V 11.19841 c 1.8259177,0 6.9980702,0 7.9977492,0 C 15.641681,11.19841 16,10.84017 16,10.398651 V 5.5999781 C 16,5.1576987 15.641681,4.8001952 15.200162,4.8001952 H 7.2024128 V 3.2006376 c 0,-0.6838071 -0.8061829,-1.0445105 -1.3244381,-0.5998312 L 0.27952282,7.3994795 c -0.37269709,0.3191115 -0.37269709,0.8805587 0,1.1996542 L 5.8779747,13.397847 c 0.2591276,0.222319 0.5846471,0.246319 0.8493747,0.12472 z M 5.6028551,11.07289 2.0286443,7.9993186 5.6028551,4.9249711 v 0.675007 c 0,0.4414793 0.3583035,0.7997828 0.7997748,0.7997828 H 14.400403 V 9.598892 c -1.825918,0 -6.9980465,0 -7.9977731,0 -0.4414793,0 -0.7997748,0.35752 -0.7997748,0.799759 z"
  />
</svg>
