<svg
  viewBox="0 0 16 16"
  xmlns="http://www.w3.org/2000/svg"
>
  <path
    d="M5.2 16C3.4328 16 2 14.5672 2 12.8V3.2C2 1.4328 3.4328 0 5.2 0H11.6C13.3672 0 14.8 1.4328 14.8 3.2V12.8C14.8 14.5672 13.3672 16 11.6 16H5.2ZM5.2 14.4H11.6C12.484 14.4 13.2 13.684 13.2 12.8V3.2C13.2 2.316 12.484 1.6 11.6 1.6H5.2C4.316 1.6 3.6 2.316 3.6 3.2V12.8C3.6 13.684 4.316 14.4 5.2 14.4ZM8.39999 12C7.95839 12 7.59999 11.6416 7.59999 11.2V7.2H5.2L8.39999 4L11.6 7.2H9.19999V11.2C9.19999 11.6416 8.84159 12 8.39999 12Z"
  />
</svg>
