<svg
  viewBox="0 0 16 16"
  xmlns="http://www.w3.org/2000/svg"
>
  <path
    d="m 7.999993,0 v 2.28572 c -3.78713,0 -6.857156,3.07001 -6.857156,6.85714 0,3.78744 3.070026,6.85714 6.857156,6.85714 3.78717,0 6.85717,-3.0697 6.85717,-6.85714 0,-1.22514 -0.3259,-2.41539 -0.9286,-3.45234 -0.2115,-0.36381 -0.6838,-0.47338 -1.0477,-0.26195 -0.3637,0.21143 -0.4733,0.68381 -0.2618,1.04762 0.4684,0.80587 0.7143,1.71277 0.7143,2.66667 0,2.94554 -2.3878,5.33334 -5.33337,5.33334 -2.94553,0 -5.33334,-2.3878 -5.33334,-5.33334 0,-2.94552 2.38781,-5.33333 5.33334,-5.33333 v 2.28571 l 3.04757,-3.04762 z"
  />
</svg>
