<svg
  viewBox="0 0 24 20"
  xmlns="http://www.w3.org/2000/svg"
>
  <path
    d="M12 0C9.75927 0 7.61892 0.75164 5.89746 2.11419C5.4251 2.48728 5.35309 3.17563 5.72727 3.64799C6.10145 4.12036 6.78873 4.19236 7.2611 3.81818C8.59964 2.75891 10.2556 2.18182 12 2.18182C16.2175 2.18182 19.6364 5.60073 19.6364 9.81818H17.4545L20.7273 14.1818L24 9.81818H21.8182C21.8182 4.39527 17.4229 0 12 0ZM3.27273 5.45455L0 9.81818H2.18182C2.18182 15.2411 6.57709 19.6364 12 19.6364C14.2418 19.6364 16.3811 18.8858 18.1025 17.5222C18.5749 17.1491 18.6469 16.4607 18.2727 15.9884C17.8985 15.516 17.2113 15.444 16.7389 15.8182C15.3993 16.8785 13.7455 17.4545 12 17.4545C7.78255 17.4545 4.36364 14.0356 4.36364 9.81818H6.54545L3.27273 5.45455Z"
  />
</svg>
