<svg
  viewBox="0 0 16 16"
  xmlns="http://www.w3.org/2000/svg"
>
  <path
    d="m 15.706077,0.74612283 c -0.18752,-0.1873783 -0.44176,-0.2926359 -0.7068,-0.2926359 -0.26512,0 -0.51936,0.1052576 -0.70688,0.2926359 L 11.116638,3.9219021 C 10.495598,3.3645663 9.7032783,3.0353904 8.8701583,2.9885824 8.0370383,2.9417824 7.2127748,3.1801424 6.533223,3.6644062 5.7090631,4.2780621 4.7962073,4.762566 3.8260875,5.1012299 L 2.6338877,5.4505659 C 2.1350878,5.5969018 1.6731119,5.8476458 1.2786159,6.1861658 0.88412,6.5246777 0.5661337,6.9432216 0.3457513,7.4140215 0.1253698,7.8848214 0.0076347,8.3971013 3.5930039e-4,8.9168448 c -0.00728,0.51984 0.0960749996,1.0352 0.30319359961,1.5120002 0.7256311,1.79872 2.0560869,3.28792 3.7620065,4.210879 1.3446238,0.63128 2.8177835,0.94072 4.3027589,0.90384 h 0.04208 c 0.50048,1.6e-4 0.98752,-0.16224 1.38784,-0.46264 2.0996797,-1.508079 3.5349587,-3.769439 4.0057587,-6.3112782 0.10296,-0.5901124 0.06104,-1.1964163 -0.12216,-1.7667842 -0.18312,-0.5703679 -0.502,-1.0877438 -0.929199,-1.5076637 l -0.19232,-0.186256 3.149199,-3.1500313 c 0.18664,-0.18792 0.29112,-0.4422319 0.29048,-0.7071039 -6.4e-4,-0.264872 -0.10632,-0.51866787 -0.29392,-0.70568387 z M 8.5888783,13.487005 c -0.05488,0.03928 -0.12136,0.0592 -0.1888,0.05664 -0.7003756,-3.2e-4 -1.3988954,-0.0716 -2.0848633,-0.21288 0.8923278,-0.55808 1.6608717,-1.29296 2.2582233,-2.15952 l 0.3296,-0.48496 c 0.15352,-0.21624 0.21488,-0.48464 0.17056,-0.7461602 -0.0444,-0.26144 -0.1908,-0.49464 -0.40704,-0.64816 -0.21624,-0.15352 -0.48464,-0.21488 -0.7461276,-0.17056 -0.261488,0.0444 -0.4946479,0.1908 -0.6481919,0.40704 l -0.02232,0.03344 -0.3295919,0.4832802 c -0.5450559,0.79728 -1.2833117,1.44336 -2.1457916,1.878 l -0.6918079,0.34328 c -0.3885279,-0.3152 -0.7365038,-0.67728 -1.0359918,-1.078 0.9247359,-0.3772 1.7678957,-0.92952 2.4831116,-1.6265602 0.1781439,-0.18816 0.2762639,-0.43816 0.2736879,-0.69728 C 5.8009671,8.6054858 5.6979031,8.3574613 5.5160632,8.1728374 5.3342232,7.9882134 5.0878073,7.8813974 4.8287513,7.8748855 4.5697033,7.8683815 4.3182394,7.9626934 4.1273594,8.1379574 3.5399355,8.7074858 2.8376077,9.1450048 2.0673998,9.4211648 1.9433518,9.0010048 1.9912078,8.5488453 2.2004478,8.1640294 2.4096877,7.7791895 2.7631757,7.4931975 3.1832076,7.3689016 h 0.010304 L 4.3848554,7.0187096 C 5.4082472,6.6776217 6.378295,6.1936058 7.2662308,5.5810298 l 4.2237672,4.106215 C 10.913518,11.209245 9.9051983,12.529805 8.5888783,13.487005 Z"
  />
</svg>
