<svg
  viewBox="0 0 19 21"
  xmlns="http://www.w3.org/2000/svg"
>
  <path
    d="M9.99093 0.998894C6.43863 0.998894 3.99093 3.4469 3.99093 6.99891C3.99093 7.48391 3.99093 8.96892 3.99093 8.99892C3.99093 9.32092 3.82833 9.53992 3.27213 9.99892C3.20903 10.0509 2.94453 10.2779 2.86593 10.3429C1.60053 11.3889 0.977728 12.3689 0.990928 13.9989C1.00423 15.6469 2.34763 16.9799 3.99093 16.9989H7.16693C7.16693 16.9989 6.99093 17.6099 6.99093 17.9989C6.99093 19.656 8.33393 20.999 9.99093 20.999C11.6479 20.999 12.9909 19.656 12.9909 17.9989C12.9909 17.6099 12.8229 16.9989 12.8229 16.9989H15.9909C17.6309 17.0049 18.9929 15.6539 18.9909 13.9989C18.9889 12.3809 18.3649 11.3839 17.1159 10.3429C17.0339 10.2739 16.7439 10.0529 16.6779 9.99892C16.1339 9.54492 15.9909 9.31692 15.9909 8.99892C15.9909 7.74891 15.9909 6.99891 15.9909 6.99891C15.9909 3.4469 13.5429 0.998894 9.99093 0.998894ZM9.99093 2.9989C12.4389 2.9989 13.9909 4.5509 13.9909 6.99891C13.9909 6.99891 13.9909 7.74891 13.9909 8.99892C13.9909 10.0609 14.4389 10.7309 15.3969 11.5299C15.4729 11.5929 15.7939 11.8449 15.8659 11.9049C16.7039 12.6039 16.9899 13.0769 16.9909 13.9989C16.9919 14.5429 16.5259 15.0009 15.9909 14.9989C15.8019 14.9979 12.8909 14.9979 9.99093 14.9989C7.09123 14.9999 4.20343 15.0009 3.99093 14.9989C3.43273 14.9919 2.99543 14.5539 2.99093 13.9989C2.98353 13.0789 3.26943 12.6049 4.11593 11.9049C4.18503 11.8479 4.48073 11.5899 4.55343 11.5299C5.52663 10.7259 5.99093 10.0709 5.99093 8.99892C5.99093 8.96892 5.99093 7.48391 5.99093 6.99891C5.99093 4.5509 7.54323 2.9989 9.99093 2.9989ZM9.99093 16.9989C10.5429 16.9989 10.9909 17.4469 10.9909 17.9989C10.9909 18.5509 10.5429 18.9989 9.99093 18.9989C9.43893 18.9989 8.99093 18.5509 8.99093 17.9989C8.99093 17.4469 9.43893 16.9989 9.99093 16.9989Z"
  />
</svg>
