<svg
  viewBox="0 0 20 17"
  xmlns="http://www.w3.org/2000/svg"
>
  <path
    d="M16.9989 0.906324C15.5119 0.909324 14.5149 2.01134 14.4049 2.09334C13.8159 2.53634 13.1759 2.94332 12.4989 3.28132C11.0769 3.99232 9.5349 4.43133 7.9989 4.68733C7.4609 4.77733 6.97491 4.84332 6.52991 4.87532C6.26991 4.89332 6.0839 4.90632 5.9989 4.90632H3.93689C1.73189 4.90632 -0.00109863 6.69233 -0.00109863 8.90633C-0.00109863 11.1153 1.7899 12.9063 3.9989 12.9063V13.9063C3.9989 15.5633 5.3419 16.9063 6.9989 16.9063C8.6559 16.9063 9.9989 15.5633 9.9989 13.9063L10.0049 13.5653C10.8469 13.8073 11.7089 14.1353 12.4989 14.5313C13.1719 14.8683 13.8189 15.2793 14.4049 15.7183C14.5149 15.8013 15.6289 16.9153 16.9989 16.9063C18.6409 16.8953 19.9989 15.6303 19.9989 14.0313V3.78132C19.9989 2.18232 18.6609 0.903324 16.9989 0.906324ZM16.9989 2.90632C17.5659 2.90632 17.9989 3.31832 17.9989 3.78132V14.0313C17.9989 14.4943 17.5659 14.9063 16.9989 14.9063C16.4319 14.9063 15.9989 14.4943 15.9989 14.0313C15.9989 11.5033 15.9989 6.30932 15.9989 3.78132C15.9989 3.31832 16.4319 2.90632 16.9989 2.90632ZM13.9989 4.72734C13.9989 7.24234 13.9899 10.5453 13.9899 13.0603C13.7839 12.9453 13.6179 12.8563 13.4049 12.7503C11.7879 11.9393 10.0629 11.4123 8.3429 11.1253C7.3069 10.9523 6.4849 10.9063 5.9989 10.9063V6.90632C6.4849 6.90632 7.3079 6.86033 8.3429 6.68733C10.0619 6.40133 11.7889 5.87033 13.4049 5.06233C13.6189 4.95533 13.7919 4.84334 13.9989 4.72734ZM3.93689 6.90632H3.9989V10.9063C2.8939 10.9063 1.9989 10.0113 1.9989 8.90633C1.9989 7.78533 2.84789 6.90632 3.93689 6.90632ZM5.9989 12.9063C6.0839 12.9063 6.26991 12.9193 6.52991 12.9373C6.97491 12.9693 7.4609 13.0353 7.9989 13.1253V13.9063C7.9989 14.4583 7.5509 14.9063 6.9989 14.9063C6.4469 14.9063 5.9989 14.4583 5.9989 13.9063V12.9063Z"
  />
</svg>
