<svg
  viewBox="0 0 16 16"
  xmlns="http://www.w3.org/2000/svg"
>
  <path
    d="m 13.6,1.5999895 c -1.189601,0.0024 -1.987201,0.8840128 -2.075201,0.9496128 -0.4712,0.3544 -0.9832,0.6799841 -1.5247999,0.9503841 -1.1376,0.5688 -2.3711999,0.9200081 -3.6,1.1248081 -0.4304,0.072 -0.819192,0.124792 -1.1751921,0.150392 -0.208,0.0144 -0.356808,0.0248 -0.424808,0.0248 H 3.1503909 C 1.3863908,4.7999865 -2e-7,6.2287946 -2e-7,7.9999947 c 0,1.7671757 1.432799,3.1999763 3.1999991,3.1999763 v 0.8 c 0,1.3256 1.0744001,2.4 2.4000002,2.4 1.3256001,0 2.4000001,-1.0744 2.4000001,-2.4 l 0.0048,-0.2728 c 0.6736,0.1936 1.3632,0.456 1.9952,0.7728 0.5383998,0.2696 1.0559998,0.5984 1.5247998,0.9496 0.088,0.0664 0.9792,0.9576 2.075201,0.9504 1.3136,-0.0088 2.4,-1.0208 2.4,-2.3 V 3.8999864 C 16,2.6207863 14.9296,1.5975895 13.6,1.5999895 Z m 0,1.5999969 c 0.4536,0 0.8,0.3296 0.8,0.7 v 8.1999846 c 0,0.3704 -0.3464,0.7 -0.8,0.7 -0.453601,0 -0.800001,-0.3296 -0.800001,-0.7 0,-2.022401 0,-6.1775844 0,-8.1999846 0,-0.3704 0.3464,-0.7 0.800001,-0.7 z m -2.400001,1.4568161 c 0,2.0120001 -0.0072,4.6543679 -0.0072,6.6663685 -0.1648,-0.092 -0.2976,-0.1632 -0.468,-0.248 C 9.4311991,10.42637 8.0511991,10.00477 6.6751991,9.7751704 c -0.8288,-0.1384 -1.4864001,-0.1752 -1.8752001,-0.1752 V 6.3999866 c 0.3888,0 1.0472001,-0.036792 1.8752001,-0.175192 1.3752,-0.2288 2.7568,-0.6536001 4.0495999,-1.3000001 0.1712,-0.0856 0.3096,-0.175192 0.4752,-0.267992 z M 3.1503909,6.3999866 h 0.049608 v 3.1999838 c -0.8840001,0 -1.6000001,-0.7159996 -1.6000001,-1.5999757 0,-0.8968001 0.679192,-1.6000081 1.5503921,-1.6000081 z M 4.799999,11.199971 c 0.068,0 0.216808,0.0104 0.424808,0.0248 0.3560001,0.0256 0.7447921,0.0784 1.1751921,0.1504 v 0.6248 c 0,0.4416 -0.3584,0.8 -0.8,0.8 -0.4416001,0 -0.8000001,-0.3584 -0.8000001,-0.8 z"
  />
</svg>
