<svg
  viewBox="0 0 16 16"
  xmlns="http://www.w3.org/2000/svg"
>
  <path
    d="m 8.0834635,0 c -2.841837,0 -4.8,1.958403 -4.8,4.8 v 1.6 c 0,0.2576 -0.1303,0.4328 -0.57526,0.8 -0.05048,0.0416 -0.26186,0.223261 -0.32474,0.27526 -1.012316,0.8368 -1.51055997,1.620741 -1.49999997,2.92474 0.008,0.990076 0.61612997,1.837835 1.47526097,2.205208 l -1.41302097,1.4875 c -0.316989,0.333733 -0.303463,0.861192 0.03021,1.178125 C 1.3095855,15.5879 1.8370395,15.574224 2.1540385,15.240623 L 4.4725265,12.8 h 1.351563 c 0,0 -0.140626,0.4888 -0.140626,0.8 0,1.325599 1.074402,2.4 2.4,2.4 1.325599,0 2.4000005,-1.074401 2.4000005,-2.4 0,-0.3112 -0.134635,-0.8 -0.134635,-0.8 h 2.534635 c 1.311999,0.0048 2.4016,-1.076001 2.4,-2.4 -0.0016,-1.294399 -0.5008,-2.09194 -1.5,-2.92474 C 13.717864,7.42006 13.485744,7.2432 13.432944,7.2 12.997744,6.8368 12.883464,6.6544 12.883464,6.4 V 4.8 c 0,-0.274073 -0.01869,-0.539678 -0.05417,-0.796354 L 14.8207,1.907292 C 15.137767,1.573625 15.124091,1.046154 14.79049,0.729167 14.456757,0.412178 13.929298,0.425703 13.612365,0.759377 L 12.227208,2.21745 C 11.425787,0.839866 9.9441865,0 8.0834635,0 Z m 0,1.6 c 1.461032,0 2.5222225,0.691555 2.9674485,1.855729 L 3.6938805,11.2 c -0.0445,-1.03e-4 -0.395881,1.33e-4 -0.410417,0 -0.446559,-0.0056 -0.7964,-0.356 -0.8,-0.8 -0.0059,-0.735999 0.222801,-1.115261 0.9,-1.67526 0.05528,-0.0456 0.291841,-0.252 0.35,-0.3 0.77856,-0.6432 1.15,-1.167141 1.15,-2.02474 V 4.8 c 0,-1.958398 1.241842,-3.2 3.2,-3.2 z M 11.283464,5.630729 V 6.4 c 0,0.849599 0.358341,1.38554 1.12474,2.02474 0.0608,0.0504 0.317661,0.252 0.37526,0.3 0.6704,0.559199 0.8992,0.937661 0.9,1.67526 8e-4,0.4352 -0.372,0.8016 -0.8,0.8 -0.151199,-8e-4 -2.480015,-8e-4 -4.8000005,0 -1.010489,3.47e-4 -1.260125,-1.47e-4 -2.090885,0 z M 8.0834635,12.8 c 0.4416,0 0.8,0.3584 0.8,0.8 0,0.4416 -0.3584,0.8 -0.8,0.8 -0.441599,0 -0.8,-0.3584 -0.8,-0.8 0,-0.4416 0.358401,-0.8 0.8,-0.8 z"
  />
</svg>
