<svg
  viewBox="0 0 20 24"
  xmlns="http://www.w3.org/2000/svg"
>
  <path
    d="M4.80252 0C1.73815 0 0 1.73815 0 4.80252V22.812C0 23.6739 0.85857 24.2396 1.65087 23.9L9.60504 20.4857L17.522 23.9C18.3144 24.2396 19.2101 23.6739 19.2101 22.812V4.80252C19.2101 1.65279 17.6433 0 14.4076 0H4.80252ZM4.80252 2.40126H14.4076C16.2877 2.40126 16.8088 2.95103 16.8088 4.80252V21.011L10.0553 18.1221C9.75271 17.9925 9.41894 17.9925 9.11758 18.1221L2.40126 21.011V4.80252C2.40126 3.06437 3.06437 2.40126 4.80252 2.40126ZM6.00315 9.60504C5.34004 9.60504 4.80252 10.1426 4.80252 10.8057C4.80252 11.4688 5.34004 12.0063 6.00315 12.0063H13.2069C13.8697 12.0063 14.4076 11.4688 14.4076 10.8057C14.4076 10.1426 13.8697 9.60504 13.2069 9.60504H6.00315Z"
  />
</svg>
