<svg
  viewBox="0 0 120 120"
  xmlns="http://www.w3.org/2000/svg"
>
  <path
    d="m 60.251953,0 c -21.313779,0 -36,14.688021 -36,36 v 12 c 0,1.931998 -0.977256,3.246003 -4.314453,6 -0.3786,0.312 -1.963947,1.674454 -2.435547,2.064453 C 9.9095807,62.340447 6.1727532,68.22001 6.2519531,78 6.3118803,85.425567 10.872928,91.78376 17.316406,94.539062 L 6.71875,105.69531 c -2.3774176,2.503 -2.275975,6.45894 0.2265625,8.83594 2.5025375,2.378 6.4584395,2.27543 8.8359375,-0.22656 L 33.169922,96 h 10.136719 c 0,0 -1.054688,3.666002 -1.054688,6 0,9.94199 8.05801,18 18,18 9.94199,0 18,-8.05801 18,-18 0,-2.333998 -1.009765,-6 -1.009765,-6 h 19.009765 c 9.839987,0.036 18.011997,-8.07001 17.999997,-18 -0.012,-9.70799 -3.756,-15.689553 -11.25,-21.935547 -0.492,-0.413999 -2.2329,-1.740453 -2.6289,-2.064453 -3.264,-2.723997 -4.121097,-4.092002 -4.121097,-6 V 36 c 0,-2.055549 -0.14021,-4.047584 -0.40625,-5.972656 L 110.78125,14.304688 c 2.378,-2.502498 2.27543,-6.4585304 -0.22656,-8.835938 -2.503,-2.3774176 -6.45894,-2.275975 -8.83594,0.2265625 L 91.330078,16.630859 C 85.319369,6.2989964 74.207374,0 60.251953,0 Z m 0,12 c 10.95774,0 18.916665,5.186663 22.255859,13.917969 L 27.330078,84 c -0.33373,-7.74e-4 -2.969108,0.001 -3.078125,0 -3.349197,-0.042 -5.973,-2.670003 -6,-6 -0.0444,-5.519994 1.671005,-8.364457 6.75,-12.564453 0.4146,-0.342 2.188801,-1.89 2.625,-2.25 5.839194,-4.823995 8.625,-8.753553 8.625,-15.185547 V 36 c 0,-14.687985 9.313815,-24 24,-24 z m 24,30.230469 V 48 c 0,6.371994 2.687553,10.391552 8.435547,15.185547 0.456,0.377999 2.382454,1.89 2.814453,2.25 5.027997,4.193996 6.743997,7.032459 6.749997,12.564453 0.006,3.263997 -2.79,6.012 -5.999997,6 -1.133999,-0.006 -18.600117,-0.006 -36,0 -7.578668,0.0026 -9.450942,-0.0011 -15.681641,0 z M 60.251953,96 c 3.311997,0 6,2.688003 6,6 0,3.312 -2.688003,6 -6,6 -3.311997,0 -6,-2.688 -6,-6 0,-3.311997 2.688003,-6 6,-6 z"
  />
</svg>
