<svg
  viewBox="0 0 16 16"
  xmlns="http://www.w3.org/2000/svg"
>
  <path
    d="m 0.79995844,1.600327 c -0.44158,0 -0.7999639955556,0.358384 -0.7999639955556,0.799965 v 11.19952 c 0,0.4416 0.3583839955556,0.7999 0.7999639955556,0.7999 0.44157596,0 0.79996596,-0.3583 0.79996596,-0.7999 v -4.15023 l 4.35021,4.35023 c 0,0 0.11919,0.14 0.22478,0.2248 0.27359,0.2224 0.63278,0.3727 1.02476,0.3751 0.86956,0.0056 1.59353,-0.7079 1.59993,-1.5999 8e-4,-0.0912 0,-1.85589 0,-3.35023 l 4.3501896,4.35023 c 0,0 0.1192,0.14 0.2248,0.2248 0.2736,0.2224 0.6328,0.3727 1.0248,0.3751 0.8695,0.0056 1.5935,-0.7079 1.5999,-1.5999 0.0016,-0.2608 0,-9.38437 0,-9.59956 0.0096,-0.87916 -0.7064,-1.591925 -1.5999,-1.599925 -0.3432,-0.0032 -0.6448,0.100791 -0.9,0.275183 -0.116,0.078397 -0.2056,0.148798 -0.2752,0.224795 L 8.7996044,6.549712 c 0,-1.48953 0,-3.27426 0,-3.34946 0.0096,-0.87916 -0.70637,-1.591925 -1.59993,-1.599925 -0.34319,-0.0032 -0.64477,0.100791 -0.89996,0.275183 -0.116,0.078397 -0.20559,0.148798 -0.27518,0.224795 l -4.42461,4.449407 v -4.14942 c 0,-0.441581 -0.35839,-0.799965 -0.79996596,-0.799965 z M 7.1996744,3.200252 v 9.59956 l -4.79979,-4.79977 z m 7.1997196,0 v 9.59956 L 9.5995644,8.000042 Z"
  />
</svg>
