<svg
  viewBox="0 0 16 16"
  xmlns="http://www.w3.org/2000/svg"
>
  <path
    d="M 6.4218229,1.5981915 C 5.7568214,1.5909893 5.1646349,1.7862523 4.6460715,2.1231542 4.3403752,2.3216137 4.1026844,2.5416741 3.971443,2.6985212 3.888217,2.7889483 0.79206552,6.2019642 0.66962702,6.3500086 c -0.9611028,1.1619486 -0.8218589,2.3095089 0,3.3753886 0.2072652,0.2680804 0.76343238,0.8555368 1.57568838,1.7253978 0.028809,0.03041 1.5981033,1.693308 1.7005356,1.80054 0.087227,0.116035 0.3296958,0.356907 0.6505969,0.575293 0.5289666,0.361708 1.1315564,0.569771 1.825375,0.575373 H 12.798992 C 14.564348,14.402001 16,12.968771 16,11.20104 16,10.4008 16,5.5993914 16,4.7991513 16,3.031421 14.565148,1.5981915 12.798992,1.5981915 Z m 0,1.6004797 h 6.3771691 c 0.883478,0 1.600504,0.7170151 1.600504,1.6004801 0,0.8002401 0,5.6016487 0,6.4018887 0,0.883465 -0.717026,1.60048 -1.600504,1.60048 H 6.4218229 C 6.0769142,12.798319 5.780821,12.695089 5.4967315,12.50143 5.3230768,12.382995 5.1886424,12.254956 5.1462291,12.20134 4.9957817,12.038892 3.4488944,10.405602 3.4208856,10.375993 2.6550444,9.5549781 2.1068717,8.9595915 1.9452208,8.7507288 1.5354917,8.2185692 1.5050821,7.8768747 1.920413,7.3751241 2.0188441,7.2566886 2.6182328,6.5724833 3.5209171,5.574584 3.5265188,5.5681821 5.0926042,3.8628625 5.1966369,3.7492284 5.254255,3.681208 5.3622971,3.5771848 5.5215473,3.4739538 5.7920245,3.297901 6.088918,3.1954702 6.4218229,3.1986712 Z m 0.800252,2.4007202 c -0.2040642,0 -0.419324,0.068829 -0.5753732,0.2248755 -0.311298,0.3120936 -0.311298,0.8386436 0,1.1507372 L 7.6470168,8.0001116 6.6467017,9.0252272 c -0.311298,0.3120936 -0.311298,0.8386116 0,1.1507058 0.3112981,0.312093 0.8138404,0.312093 1.1259387,0 L 8.797731,9.1508489 9.822934,10.175933 c 0.311298,0.312093 0.839385,0.312093 1.150683,0 0.311298,-0.3120942 0.311298,-0.8386122 0,-1.1507058 L 9.947774,8.0001116 10.973617,6.9750041 c 0.311298,-0.3120936 0.311298,-0.8386436 0,-1.1507372 C 10.817568,5.6682201 10.6023,5.5993914 10.398235,5.5993914 c -0.204064,0 -0.420052,0.068829 -0.575301,0.2248755 L 8.797731,6.8493744 7.7726404,5.8242669 C 7.6165912,5.6682201 7.4261392,5.5993914 7.2220749,5.5993914 Z"
  />
</svg>
