<svg
  viewBox="0 0 16 16"
  xmlns="http://www.w3.org/2000/svg"
>
  <path
    d="M 4.7983131,1.3046962e-7 C 2.7553999,1.3046962e-7 1.5966331,1.1587668 1.5966331,3.2016801 V 15.208 c 0,0.5746 0.57238,0.951733 1.10058,0.725333 l 5.30278,-2.2762 5.2779739,2.2762 c 0.528266,0.2264 1.1254,-0.150733 1.1254,-0.725333 V 3.2016801 C 14.403367,1.1018601 13.358833,1.3046962e-7 11.2017,1.3046962e-7 Z m 0,1.60083996953038 H 11.2017 c 1.2534,0 1.6008,0.3665134 1.6008,1.60084 V 14.007333 L 8.3001666,12.0814 c -0.2017267,-0.0864 -0.4242401,-0.0864 -0.6251468,0 L 3.1974731,14.007333 V 3.2016801 c 0,-1.1587666 0.4420734,-1.60084 1.60084,-1.60084 z m 0.80042,4.80252 c -0.4420733,0 -0.80042,0.358373 -0.80042,0.80044 0,0.442067 0.3583467,0.8004 0.80042,0.8004 h 4.8024999 c 0.441867,0 0.800467,-0.358333 0.800467,-0.8004 0,-0.442067 -0.3586,-0.80044 -0.800467,-0.80044 z"
  />
</svg>
