<svg
  viewBox="0 0 20 19"
  xmlns="http://www.w3.org/2000/svg"
>
  <path
    d="M19.6326 0.365795C19.3982 0.131572 19.0804 0 18.7491 0C18.4177 0 18.0999 0.131572 17.8655 0.365795L13.8958 4.33552C13.1195 3.63885 12.1291 3.22738 11.0877 3.16887C10.0463 3.11037 9.01597 3.40832 8.16653 4.01365C7.13633 4.78072 5.99526 5.38635 4.78261 5.80968L3.29236 6.24635C2.66886 6.42927 2.09139 6.7427 1.59827 7.16585C1.10515 7.58899 0.707667 8.11217 0.432189 8.70067C0.156712 9.28917 0.0095432 9.92952 0.00044888 10.5792C-0.00864544 11.229 0.120543 11.8732 0.379441 12.4692C1.28648 14.7176 2.94955 16.5791 5.08195 17.7328C6.76273 18.5219 8.60418 18.9087 10.4604 18.8626H10.513C11.1386 18.8628 11.7474 18.6598 12.2478 18.2843C14.8724 16.3992 16.6665 13.5725 17.255 10.3952C17.3837 9.65756 17.3313 8.89968 17.1023 8.18672C16.8734 7.47376 16.4748 6.82704 15.9408 6.30214L15.7004 6.06932L19.6369 2.13178C19.8702 1.89688 20.0008 1.57899 20 1.2479C19.9992 0.91681 19.8671 0.599565 19.6326 0.365795ZM10.7361 16.2919C10.6675 16.341 10.5844 16.3659 10.5001 16.3627C9.62463 16.3623 8.75148 16.2732 7.89402 16.0966C9.00943 15.399 9.97011 14.4804 10.7168 13.3972L11.1288 12.791C11.3207 12.5207 11.3974 12.1852 11.342 11.8583C11.2865 11.5315 11.1035 11.24 10.8332 11.0481C10.5629 10.8562 10.2274 10.7795 9.90054 10.8349C9.57368 10.8904 9.28223 11.0734 9.0903 11.3437L9.0624 11.3855L8.65041 11.9896C7.96909 12.9862 7.04627 13.7938 5.96817 14.3371L5.10341 14.7662C4.61775 14.3722 4.18278 13.9196 3.80842 13.4187C4.96434 12.9472 6.01829 12.2568 6.91231 11.3855C7.13499 11.1503 7.25764 10.8378 7.25442 10.5139C7.25121 10.19 7.12238 9.87997 6.89508 9.64919C6.66778 9.41841 6.35976 9.28489 6.03594 9.27675C5.71213 9.26862 5.3978 9.38651 5.1592 9.60559C4.42492 10.3175 3.54701 10.8644 2.58425 11.2096C2.42919 10.6844 2.48901 10.1192 2.75056 9.63818C3.01211 9.15713 3.45397 8.79964 3.97901 8.64427H3.99189L5.48107 8.20653C6.76031 7.78017 7.97287 7.17515 9.08279 6.40943L14.3625 11.5422C13.6419 13.4447 12.3815 15.0954 10.7361 16.2919Z"
  />
</svg>
