<svg
  viewBox="0 0 16 14"
  xmlns="http://www.w3.org/2000/svg"
>
  <path
    d="M0.799964 0.333415C0.358384 0.333415 0 0.691799 0 1.13338V12.3329C0 12.7745 0.358384 13.1328 0.799964 13.1328C1.24154 13.1328 1.59993 12.7745 1.59993 12.3329V8.18267L5.95014 12.5329C5.95014 12.5329 6.06933 12.6729 6.17492 12.7577C6.44851 12.9801 6.8077 13.1304 7.19968 13.1328C8.06924 13.1384 8.79321 12.4249 8.79961 11.5329C8.80041 11.4417 8.79961 9.67701 8.79961 8.18267L13.1498 12.5329C13.1498 12.5329 13.269 12.6729 13.3746 12.7577C13.6482 12.9801 14.0074 13.1304 14.3994 13.1328C15.2689 13.1384 15.9929 12.4249 15.9993 11.5329C16.0009 11.2721 15.9993 2.14853 15.9993 1.93334C16.0089 1.05418 15.2929 0.341415 14.3994 0.333415C14.0562 0.330215 13.7546 0.434206 13.4994 0.608598C13.3834 0.686995 13.2938 0.757396 13.2242 0.833393L8.79961 5.2828C8.79961 3.79327 8.79961 2.00854 8.79961 1.93334C8.80921 1.05418 8.09324 0.341415 7.19968 0.333415C6.85649 0.330215 6.55491 0.434206 6.29972 0.608598C6.18372 0.686995 6.09413 0.757396 6.02454 0.833393L1.59993 5.2828V1.13338C1.59993 0.691799 1.24154 0.333415 0.799964 0.333415ZM7.19968 1.93334V11.5329L2.39989 6.73313L7.19968 1.93334ZM14.3994 1.93334V11.5329L9.59957 6.73313L14.3994 1.93334Z"
  />
</svg>
