<svg
  viewBox="0 0 16 16"
  xmlns="http://www.w3.org/2000/svg"
>
  <path
    d="M 8.0000945,0 C 5.1582696,0 3.20012,1.9583944 3.20012,4.7999874 c 0,0.3879979 0,1.5759996 0,1.5999995 0,0.2575986 -0.1300794,0.4327977 -0.575037,0.7999957 C 2.5746033,7.2415664 2.3630044,7.4231655 2.3001247,7.4751652 1.2878101,8.311961 0.78957106,9.095957 0.80013106,10.39995 0.81077256,11.718343 1.8854869,12.784737 3.20012,12.799937 h 2.5407865 c 0,0 -0.1407993,0.488797 -0.1407993,0.799996 0,1.325673 1.0743943,2.400067 2.3999873,2.400067 1.3255681,0 2.3999635,-1.074394 2.3999635,-2.400067 0,-0.311199 -0.134399,-0.799996 -0.134399,-0.799996 h 2.534386 c 1.311993,0.0048 2.401587,-1.075994 2.399987,-2.399987 -0.0016,-1.294393 -0.500797,-2.091989 -1.499992,-2.9247848 -0.0656,-0.0552 -0.297598,-0.2319988 -0.350398,-0.2751826 -0.435198,-0.363198 -0.549597,-0.5455971 -0.549597,-0.7999957 0,-1.0000027 0,-1.5999995 0,-1.5999995 C 12.800045,1.9583944 10.841655,0 8.0000945,0 Z m 0,1.5999963 c 1.9583651,0 3.1999595,1.2415934 3.1999595,3.1999911 0,0 0,0.5999968 0,1.5999995 0,0.8495795 0.358398,1.3855766 1.124794,2.0247731 0.0608,0.0504 0.317598,0.251999 0.375198,0.299999 0.670396,0.559197 0.899195,0.937595 0.899995,1.675191 8e-4,0.435197 -0.371998,0.801595 -0.799996,0.799995 -0.151199,-8e-4 -2.479987,-8e-4 -4.7999505,0 -2.3197477,8e-4 -4.6299754,0.0016 -4.7999745,0 C 2.7535623,11.194345 2.4037242,10.843947 2.4001242,10.39995 2.3942042,9.663954 2.622923,9.284756 3.3001194,8.724759 3.3553994,8.679159 3.5919579,8.47276 3.6501176,8.42476 4.4286734,7.7815636 4.8001115,7.2575663 4.8001115,6.3999869 c 0,-0.024 0,-1.2120016 0,-1.5999995 0,-1.9583977 1.2418334,-3.1999911 3.199983,-3.1999911 z m 0,11.1999407 c 0.4415737,0 0.7999714,0.358398 0.7999714,0.799996 0,0.441597 -0.3583977,0.799995 -0.7999714,0.799995 -0.4415976,0 -0.7999957,-0.358398 -0.7999957,-0.799995 0,-0.441598 0.3583981,-0.799996 0.7999957,-0.799996 z"
  />
</svg>
