<svg
  viewBox="0 0 24 24"
  xmlns="http://www.w3.org/2000/svg"
>
  <path
    d="M4.79997 0C2.14917 0 -3.05176e-05 2.14908 -3.05176e-05 4.8V14.4C-3.05176e-05 17.0508 2.14917 19.2 4.79997 19.2L4.81199 19.206C5.09039 21.8808 7.37756 24 10.1256 24C10.5108 24 13.5816 24 14.4 24C18.6624 24 24 18.6624 24 14.4C24 13.5816 24 10.7196 24 10.1256C24 7.37724 21.882 5.08116 19.2072 4.80264L19.2 4.8C19.2 2.14908 17.0508 0 14.4 0H4.79997ZM4.79997 2.4H14.4C15.726 2.4 16.8 3.47448 16.8 4.8H10.1256C7.19036 4.8 4.79997 7.19004 4.79997 10.1256V16.8C3.47397 16.8 2.39997 15.726 2.39997 14.4V4.8C2.39997 3.47448 3.47397 2.4 4.79997 2.4ZM10.1256 7.2H18H18.6744C20.2848 7.2 21.6 8.51556 21.6 10.1256C21.6 10.5528 21.6 12.03 21.6 13.2C20.4396 13.2 18.9096 13.2 18.5256 13.2C15.5904 13.2 13.2 15.5904 13.2 18.5256V21.6C11.982 21.6 10.4028 21.6 10.1256 21.6C8.51516 21.6 7.19998 20.2848 7.19998 18.6744V18V10.1256C7.19998 8.51544 8.51516 7.2 10.1256 7.2ZM18.5256 15.6C18.8628 15.6 20.262 15.5976 21.3852 15.5976C20.6424 17.97 17.9964 20.5776 15.6084 21.396L15.6 18.5256C15.6 16.9152 16.9152 15.6 18.5256 15.6Z"
  />
</svg>
