<svg
  viewBox="0 0 16 16"
  xmlns="http://www.w3.org/2000/svg"
>
  <path
    d="M8.00001 0C6.89681 0 6.00561 0.711205 5.72481 1.7248C5.00081 1.9256 4.3216 2.5856 4.1504 3.2H3.20001C1.4328 3.2 0 4.6328 0 6.4V12.8C0 14.5672 1.4328 16 3.20001 16H12.8C14.5672 16 16 14.5672 16 12.8V6.4C16 4.6328 14.5672 3.2 12.8 3.2H11.9C11.6 2.4784 11.024 1.9008 10.3 1.7C10.0192 0.6864 9.10321 0 8.00001 0ZM8.00001 1.6C8.44161 1.6 8.80001 1.9584 8.80001 2.4C8.80001 2.8416 9.15841 3.2 9.60002 3.2C10.0416 3.2 10.4 3.5584 10.4 4C10.4 4.4416 10.0416 4.8 9.60002 4.8H6.40001C5.95841 4.8 5.60001 4.4416 5.60001 4C5.60001 3.5584 5.95841 3.2 6.40001 3.2C6.84161 3.2 7.20001 2.8416 7.20001 2.4C7.20001 1.9584 7.55841 1.6 8.00001 1.6ZM3.20001 4.8H4.1504C4.4784 5.7864 5.38561 6.4 6.40001 6.4H9.60002C10.6144 6.4 11.468 5.8224 11.8752 4.8H12.8C13.684 4.8 14.4 5.516 14.4 6.4V12.8C14.4 13.684 13.684 14.4 12.8 14.4H3.20001C2.316 14.4 1.6 13.684 1.6 12.8V6.4C1.6 5.516 2.316 4.8 3.20001 4.8ZM10.4 8C10.1952 8 9.98162 8.0688 9.82482 8.2248L7.20001 10.8496L6.17521 9.82481C5.8624 9.5128 5.33761 9.5128 5.02481 9.82481C4.71281 10.1376 4.71281 10.6624 5.02481 10.9752L6.62481 12.5752C6.93762 12.8872 7.46241 12.8872 7.77521 12.5752L10.9752 9.3752C11.2872 9.0624 11.2872 8.53761 10.9752 8.2248C10.8184 8.0688 10.6048 8 10.4 8Z"
  />
</svg>
