<svg
  viewBox="0 0 24 24"
  xmlns="http://www.w3.org/2000/svg"
>
  <path
    d="M24 12C24 5.37188 18.6281 0 12 0C5.37188 0 0 5.37188 0 12C0 18.6281 5.37188 24 12 24C18.6281 24 24 18.6281 24 12ZM12.7031 6.32812C13.1438 5.8875 13.8562 5.8875 14.2922 6.32812C14.7281 6.76875 14.7328 7.48125 14.2922 7.91719L10.2141 11.9953L14.2922 16.0734C14.7328 16.5141 14.7328 17.2266 14.2922 17.6625C13.8516 18.0984 13.1391 18.1031 12.7031 17.6625L7.82812 12.7969C7.3875 12.3562 7.3875 11.6438 7.82812 11.2078L12.7031 6.32812Z"
  />
</svg>
