<svg
  viewBox="0 0 16 16"
  xmlns="http://www.w3.org/2000/svg"
>
  <path
    d="M 8,1.6000877 C 5.4672,1.6200877 3.133608,3.344096 2.524808,6.049688 0.972008,6.703288 0,8.15528 0,9.90008 c 0,2.408 1.900808,4.5 4.249608,4.5 H 12 c 2.1872,0 4,-1.5864 4,-3.6 0,-1.452008 -1.0008,-2.7296 -2.4,-3.3 0.0016,-0.1432 0,-0.2792 0,-0.3 C 13.624,4.13128 11.0328,1.5760878 8,1.6000877 Z M 8,3.200088 c 2.1448,-0.0168 4.0168,1.829592 4,3.999992 0,0.048 0,0.690392 0,0.875192 0,0.372 0.2368,0.691216 0.6,0.774416 1.0528,0.244 1.8,1.069592 1.8,1.950392 0,1.0792 -1.0528,2 -2.4,2 H 4.249608 C 2.820008,12.80008 1.6,11.45688 1.6,9.90008 1.6,8.705672 2.347192,7.712872 3.475192,7.375272 3.773592,7.285672 3.980808,7.03368 4.024808,6.724888 4.333608,4.560088 6.0736,3.215288 8,3.200088 Z M 8,4.80008 5.591208,7.21448 7.2,7.20008 v 3.2 c 0,0.4416 0.3584,0.8 0.8,0.8 0.4416,0 0.8,-0.3584 0.8,-0.8 v -3.2 l 1.6088,0.0208 z"
  />
</svg>
