<svg
  viewBox="0 0 24 24"
  xmlns="http://www.w3.org/2000/svg"
>
  <path
    d="M12 24C18.6281 24 24 18.6281 24 12C24 5.37188 18.6281 2.22138e-07 12 1.43099e-07C5.37188 6.4059e-08 2.22138e-07 5.37188 1.43099e-07 12C6.4059e-08 18.6281 5.37188 24 12 24ZM17.6719 12.7031C18.1125 13.1438 18.1125 13.8563 17.6719 14.2922C17.2313 14.7281 16.5188 14.7328 16.0828 14.2922L12.0047 10.2141L7.92656 14.2922C7.48594 14.7328 6.77344 14.7328 6.3375 14.2922C5.90156 13.8516 5.89688 13.1391 6.3375 12.7031L11.2031 7.82813C11.6438 7.3875 12.3563 7.3875 12.7922 7.82813L17.6719 12.7031Z"
  />
</svg>
