<svg
  viewBox="0 0 16 16"
  xmlns="http://www.w3.org/2000/svg"
>
  <path
    d="M 8.0000002,-1.5e-7 C 3.5812535,-3.5e-7 5.0000004e-8,3.5812469 -1.5e-7,8.0000002 -3.5e-7,12.418733 3.5812469,16 8.0000002,16 12.418733,16 16,12.418733 16,8.0000002 16,3.5812535 12.418733,5.0000004e-8 8.0000002,-1.5e-7 Z M 4.2187469,7.5312672 c -0.2937467,-0.2938 -0.2937467,-0.7688 0,-1.059394 0.2937533,-0.290626 0.7687533,-0.293746 1.0593799,0 L 7.9968672,9.1906002 10.7156,6.4718732 c 0.2938,-0.293746 0.7688,-0.293746 1.0594,0 0.2906,0.293727 0.293733,0.768727 0,1.059394 L 8.5312672,10.781267 c -0.2938,0.293733 -0.7688,0.293733 -1.0594,0 z"
  />
</svg>
