<svg
  viewBox="0 0 16 16"
  xmlns="http://www.w3.org/2000/svg"
>
  <path
    d="M4.2105 0C3.7454 0 3.36839 0.377263 3.36839 0.842105C1.50725 0.842105 -3.05176e-05 2.35116 -3.05176e-05 4.21053V5.89474V12.6316C-3.05176e-05 14.4909 1.5081 16 3.36839 16H11.7894C13.6497 16 15.1579 14.4918 15.1579 12.6316V5.89474V4.21053C15.1579 2.35368 13.6488 0.842105 11.7894 0.842105C11.7894 0.377263 11.4122 0 10.9473 0C10.4825 0 10.1052 0.377263 10.1052 0.842105H5.0526C5.0526 0.377263 4.67559 0 4.2105 0ZM3.36839 2.52632C3.36839 2.99116 3.7454 3.36842 4.2105 3.36842C4.67559 3.36842 5.0526 2.99116 5.0526 2.52632H10.1052C10.1052 2.99116 10.4825 3.36842 10.9473 3.36842C11.4122 3.36842 11.7894 2.99116 11.7894 2.52632C12.7166 2.52632 13.4737 3.27747 13.4737 4.21053V5.05263C11.8518 5.05263 3.30574 5.05263 1.68418 5.05263V4.21053C1.68418 3.28253 2.43567 2.52632 3.36839 2.52632ZM1.68418 6.73684C3.30481 6.73684 11.8526 6.73684 13.4737 6.73684V12.6316C13.4737 13.5604 12.72 14.3158 11.7894 14.3158H3.36839C2.4382 14.3158 1.68418 13.5621 1.68418 12.6316V6.73684ZM4.2105 8.42105C3.7454 8.42105 3.36839 8.79832 3.36839 9.26316C3.36839 9.728 3.7454 10.1053 4.2105 10.1053C4.67559 10.1053 5.0526 9.728 5.0526 9.26316C5.0526 8.79832 4.67559 8.42105 4.2105 8.42105ZM7.57892 8.42105C7.11407 8.42105 6.73681 8.79832 6.73681 9.26316C6.73681 9.728 7.11407 10.1053 7.57892 10.1053C8.04376 10.1053 8.42102 9.728 8.42102 9.26316C8.42102 8.79832 8.04376 8.42105 7.57892 8.42105ZM10.9473 8.42105C10.4825 8.42105 10.1052 8.79832 10.1052 9.26316C10.1052 9.728 10.4825 10.1053 10.9473 10.1053C11.4122 10.1053 11.7894 9.728 11.7894 9.26316C11.7894 8.79832 11.4122 8.42105 10.9473 8.42105ZM4.2105 10.9474C3.7454 10.9474 3.36839 11.3246 3.36839 11.7895C3.36839 12.2543 3.7454 12.6316 4.2105 12.6316C4.67559 12.6316 5.0526 12.2543 5.0526 11.7895C5.0526 11.3246 4.67559 10.9474 4.2105 10.9474ZM7.57892 10.9474C7.11407 10.9474 6.73681 11.3246 6.73681 11.7895C6.73681 12.2543 7.11407 12.6316 7.57892 12.6316C8.04376 12.6316 8.42102 12.2543 8.42102 11.7895C8.42102 11.3246 8.04376 10.9474 7.57892 10.9474ZM10.9473 10.9474C10.4825 10.9474 10.1052 11.3246 10.1052 11.7895C10.1052 12.2543 10.4825 12.6316 10.9473 12.6316C11.4122 12.6316 11.7894 12.2543 11.7894 11.7895C11.7894 11.3246 11.4122 10.9474 10.9473 10.9474Z"
  />
</svg>
