<svg
  viewBox="0 0 16 16"
  xmlns="http://www.w3.org/2000/svg"
>
  <path
    d="m 8,-1.90735e-5 c -4.41824,0 -8,3.5815981735 -8,7.9999981735 0,4.4184399 3.58168,8.0000399 8,8.0000399 4.4182,0 8,-3.5816 8,-8.0000399 C 16,3.5815791 12.4182,-1.90735e-5 8,-1.90735e-5 Z M 8,1.5999791 c 3.5346,0 6.4,2.8656 6.4,6.4 0,3.5344399 -2.8654,6.4000399 -6.4,6.4000399 -3.53464,0 -6.4,-2.8656 -6.4,-6.4000399 0,-3.5344 2.86536,-6.4 6.4,-6.4 z m 0,1.6 c -0.44184,0 -0.8,0.3584 -0.8,0.8 v 4 c 0,0.212 0.07496,0.4248 0.22496,0.5752 l 2.4,2.4000399 c 0.31244,0.312 0.83764,0.312 1.15004,0 0.3124,-0.3128 0.3124,-0.8376 0,-1.1504299 L 8.8,7.6495891 v -3.64961 c 0,-0.4416 -0.35816,-0.8 -0.8,-0.8 z"
  />
</svg>
