<svg
  viewBox="0 0 16 16"
  xmlns="http://www.w3.org/2000/svg"
>
  <path
    d="M5.6 0C5.388 0 5.20001 0.0752046 5.04961 0.224804L3.6752 1.6C3.4456 1.6 3.2 1.6 3.2 1.6C1.4328 1.6 0 3.0328 0 4.79999V12C0 13.7672 1.4328 15.2 3.2 15.2H12.8C14.5672 15.2 16 13.7672 16 12V4.79999C16 3.0328 14.5672 1.6 12.8 1.6H12.3504L10.9752 0.224804C10.8248 0.0752046 10.612 0 10.4 0H5.6ZM5.95039 1.6H10.0752L11.4496 2.97519C11.6 3.12479 11.788 3.2 12 3.2H12.8C13.684 3.2 14.4 3.91599 14.4 4.79999V12C14.4 12.884 13.684 13.6 12.8 13.6H3.2C2.316 13.6 1.6 12.884 1.6 12V4.79999C1.6 3.91599 2.316 3.2 3.2 3.2H4C4.212 3.2 4.4248 3.12479 4.5752 2.97519L5.95039 1.6ZM8 3.99999C5.7912 3.99999 4 5.79119 4 7.99999C4 10.2088 5.7912 12 8 12C10.2088 12 12 10.2088 12 7.99999C12 5.79119 10.2088 3.99999 8 3.99999ZM12.8 3.99999C12.3584 3.99999 12 4.35839 12 4.79999C12 5.24159 12.3584 5.59999 12.8 5.59999C13.2416 5.59999 13.6 5.24159 13.6 4.79999C13.6 4.35839 13.2416 3.99999 12.8 3.99999ZM8 5.59999C9.3256 5.59999 10.4 6.67439 10.4 7.99999C10.4 9.32559 9.3256 10.4 8 10.4C6.6744 10.4 5.6 9.32559 5.6 7.99999C5.6 6.67439 6.6744 5.59999 8 5.59999Z"
  />
</svg>
