<svg
  viewBox="0 0 16 16"
  xmlns="http://www.w3.org/2000/svg"
>
  <path
    d="m 4.6315653,3.814695e-6 c -0.46485,0 -0.84211,0.377263375305 -0.84211,0.842105375305 -1.86021,0 -3.36842056,1.50820701 -3.36842056,3.36841701 v 1.68421 6.7368598 c 0,1.8594 1.50821056,3.3684 3.36842056,3.3684 h 8.4210097 c 1.8603,0 3.3685,-1.5082 3.3685,-3.3684 v -6.7368598 -1.68421 c 0,-1.86021 -1.5082,-3.36841701 -3.3685,-3.36841701 0,-0.464842 -0.3772,-0.842105375305 -0.8421,-0.842105375305 -0.4648,0 -0.8421,0.377263375305 -0.8421,0.842105375305 H 5.4736653 c 0,-0.464842 -0.37726,-0.842105375305 -0.8421,-0.842105375305 z M 3.7894553,2.5263162 c 0,0.46485 0.37726,0.84211 0.84211,0.84211 0.46484,0 0.8421,-0.37726 0.8421,-0.84211 h 5.0525997 c 0,0.46485 0.3773,0.84211 0.8421,0.84211 0.4649,0 0.8421,-0.37726 0.8421,-0.84211 0.9306,0 1.6843,0.75369 1.6843,1.68421 v 0.84211 c -1.6203,0 -10.1693097,0 -11.7895197,0 v -0.84211 c 0,-0.93052 0.75368,-1.68421 1.68421,-1.68421 z m -1.68421,4.21053 c 1.62021,0 10.1692197,0 11.7895197,0 v 5.8947498 c 0,0.9288 -0.7537,1.6842 -1.6843,1.6842 H 3.7894553 c -0.93053,0 -1.68421,-0.7537 -1.68421,-1.6842 z m 6.73684,1.68421 c -0.46484,0 -0.8421,0.37726 -0.8421,0.84211 0,0.46484 0.37726,0.8421298 0.8421,0.8421298 h 2.5262797 c 0.4649,0 0.8421,-0.3772898 0.8421,-0.8421298 0,-0.46485 -0.3772,-0.84211 -0.8421,-0.84211 z m -4.21052,2.5263398 c -0.46485,0 -0.84211,0.3772 -0.84211,0.8421 0,0.4648 0.37726,0.8421 0.84211,0.8421 h 2.52631 c 0.46484,0 0.84211,-0.3773 0.84211,-0.8421 0,-0.4649 -0.37727,-0.8421 -0.84211,-0.8421 z"
  />
</svg>
