<svg
  viewBox="0 0 16 16"
  xmlns="http://www.w3.org/2000/svg"
>
  <path
    d="M8.00001 0C3.58177 0 0 3.5816 0 8C0 12.4184 3.58177 16 8.00001 16C12.4183 16 16 12.4184 16 8C16 3.5816 12.4183 0 8.00001 0ZM8.00001 1.6C11.5347 1.6 14.4 4.4656 14.4 8C14.4 11.5344 11.5347 14.4 8.00001 14.4C4.46537 14.4 1.6 11.5344 1.6 8C1.6 4.4656 4.46537 1.6 8.00001 1.6ZM11.2 5.6C10.9953 5.6 10.7812 5.6688 10.625 5.8248L7.65001 8.82481C7.44377 9.03121 7.23681 8.99279 7.07505 8.75039L6.27505 7.55039C6.02993 7.18239 5.51769 7.08 5.15001 7.3248C4.78241 7.5704 4.67993 8.08241 4.92497 8.44961L5.72497 9.64961C6.44689 10.7328 7.85481 10.8704 8.77505 9.95039L11.7751 6.9752C12.0875 6.6624 12.0875 6.1376 11.7751 5.8248C11.6188 5.6688 11.4047 5.6 11.2 5.6Z"
  />
</svg>
