<svg
  viewBox="0 0 16 16"
  xmlns="http://www.w3.org/2000/svg"
>
  <path
    d="M8.39997 1.48517e-05C4.85679 0.00481485 2 0.800014 2 2.40001C2 2.43841 2 2.50001 2 2.50001L3.44959 13.2248C3.76319 14.7992 5.24159 16 6.79998 16H9.99997C11.5584 16 13.02 14.7992 13.3248 13.2752L14.7999 2.50001C14.7999 2.50001 14.7999 2.43841 14.7999 2.40001C14.7999 0.800014 11.9432 -0.00398514 8.39997 1.48517e-05ZM8.39997 1.60001C9.83517 1.60001 11.1832 1.7736 12.1503 2.0504C12.5287 2.1584 12.7696 2.28081 12.9752 2.40001C12.7696 2.51921 12.5287 2.6416 12.1503 2.7504C11.1832 3.0264 9.83517 3.20001 8.39997 3.20001C6.96478 3.20001 5.61679 3.0264 4.6496 2.7504C4.2712 2.6416 4.0256 2.51921 3.8248 2.40001C4.0304 2.28081 4.2712 2.1584 4.6496 2.0504C5.61679 1.7736 6.96478 1.60001 8.39997 1.60001ZM3.8496 4.20001C5.0032 4.60081 6.61198 4.80001 8.39997 4.80001C10.188 4.80001 11.7968 4.60081 12.9503 4.20001L11.7504 13.0248C11.604 13.7488 10.7992 14.4 9.99997 14.4H6.79998C6.00078 14.4 5.17999 13.7488 5.02479 12.9752L3.8496 4.20001Z"
  />
</svg>
