<svg
  viewBox="0 0 16 16"
  xmlns="http://www.w3.org/2000/svg"
>
  <path
    d="m 4.6315653,0 c -0.4651,0 -0.84211,0.377263 -0.84211,0.842105 -1.86114,0 -3.36842056,1.509055 -3.36842056,3.368425 v 1.68421 6.73686 c 0,1.8593 1.50813056,3.3684 3.36842056,3.3684 h 8.4210097 c 1.8603,0 3.3685,-1.5082 3.3685,-3.3684 V 5.89474 4.21053 c 0,-1.85685 -1.5091,-3.368425 -3.3685,-3.368425 C 12.210465,0.377263 11.833265,0 11.368365,0 c -0.4648,0 -0.8421,0.377263 -0.8421,0.842105 H 5.4736653 C 5.4736653,0.377263 5.0966553,0 4.6315653,0 Z m -0.84211,2.52632 c 0,0.46484 0.37701,0.8421 0.84211,0.8421 0.46509,0 0.8421,-0.37726 0.8421,-0.8421 h 5.0525997 c 0,0.46484 0.3773,0.8421 0.8421,0.8421 0.4649,0 0.8421,-0.37726 0.8421,-0.8421 0.9272,0 1.6843,0.75115 1.6843,1.68421 v 0.8421 c -1.6219,0 -10.1679597,0 -11.7895197,0 v -0.8421 c 0,-0.928 0.75149,-1.68421 1.68421,-1.68421 z m -1.68421,4.21052 c 1.62063,0 10.1684197,0 11.7895197,0 v 5.89476 c 0,0.9288 -0.7537,1.6842 -1.6843,1.6842 H 3.7894553 c -0.93019,0 -1.68421,-0.7537 -1.68421,-1.6842 z m 2.52632,1.68421 c -0.4651,0 -0.84211,0.37727 -0.84211,0.84211 0,0.46484 0.37701,0.84214 0.84211,0.84214 0.46509,0 0.8421,-0.3773 0.8421,-0.84214 0,-0.46484 -0.37701,-0.84211 -0.8421,-0.84211 z m 3.36842,0 c -0.46485,0 -0.84211,0.37727 -0.84211,0.84211 0,0.46484 0.37726,0.84214 0.84211,0.84214 0.46484,0 0.8421,-0.3773 0.8421,-0.84214 0,-0.46484 -0.37726,-0.84211 -0.8421,-0.84211 z m 3.3683797,0 c -0.4648,0 -0.8421,0.37727 -0.8421,0.84211 0,0.46484 0.3773,0.84214 0.8421,0.84214 0.4649,0 0.8421,-0.3773 0.8421,-0.84214 0,-0.46484 -0.3772,-0.84211 -0.8421,-0.84211 z M 4.6315653,10.9474 c -0.4651,0 -0.84211,0.3772 -0.84211,0.8421 0,0.4648 0.37701,0.8421 0.84211,0.8421 0.46509,0 0.8421,-0.3773 0.8421,-0.8421 0,-0.4649 -0.37701,-0.8421 -0.8421,-0.8421 z m 3.36842,0 c -0.46485,0 -0.84211,0.3772 -0.84211,0.8421 0,0.4648 0.37726,0.8421 0.84211,0.8421 0.46484,0 0.8421,-0.3773 0.8421,-0.8421 0,-0.4649 -0.37726,-0.8421 -0.8421,-0.8421 z m 3.3683797,0 c -0.4648,0 -0.8421,0.3772 -0.8421,0.8421 0,0.4648 0.3773,0.8421 0.8421,0.8421 0.4649,0 0.8421,-0.3773 0.8421,-0.8421 0,-0.4649 -0.3772,-0.8421 -0.8421,-0.8421 z"
  />
</svg>
