<svg
  viewBox="0 0 16 16"
  xmlns="http://www.w3.org/2000/svg"
>
  <path
    d="M 8.8889378,1.525614e-7 C 7.3790342,1.525614e-7 5.8811252,0.57609995 4.7288936,1.7259311 L 3.0253513,3.4262728 c -0.3136631,0.3120547 -0.3136631,0.8121632 0,1.1250261 0.3128628,0.3120627 0.8145637,0.3120627 1.1274266,0 L 5.8563442,2.8509572 c 1.6779372,-1.6747286 4.3864658,-1.6739284 6.0644028,0 l 0.02481,0.024813 c 1.677937,1.6739284 1.677937,4.3768557 0,6.0515917 L 7.2102133,13.653112 c -1.0146089,1.011403 -2.6213238,0.976196 -3.6199245,0.02161 l -0.051234,-0.05761 C 2.5252508,12.604902 2.54127,10.970173 3.5550737,9.9579699 l 4.607326,-4.5817052 c 0.3504621,-0.3496703 0.9017731,-0.3496703 1.2522441,0 0.35047,0.3496702 0.35047,0.9001729 0,1.2506433 l -4.7897471,4.799357 c -0.313663,0.312863 -0.313663,0.837768 0,1.150631 0.3128629,0.312063 0.8377684,0.282457 1.1314274,8e-4 L 10.567675,7.7767309 c 0.976997,-0.9745797 0.976997,-2.5757094 0,-3.5503053 C 10.079577,3.7383275 9.4282458,3.5006957 8.7881178,3.5006957 c -0.640137,0 -1.2906598,0.2376318 -1.7787579,0.7257299 L 2.2852185,8.9777729 c -0.082417,0.08242 -0.1432448,0.173634 -0.228862,0.276055 -1.23784631,1.6419301 -1.14821871,4.0176071 0.3496863,5.5123081 1.6403297,1.637129 4.2912544,1.649131 5.9315921,0.012 l 4.7353441,-4.725747 c 2.304463,-2.2996631 2.304463,-6.0276039 0,-8.3264579 C 11.921547,0.57609995 10.398841,1.525614e-7 8.8889378,1.525614e-7 Z"
  />
</svg>
