<svg
  viewBox="0 0 16 16"
  xmlns="http://www.w3.org/2000/svg"
>
  <path
    d="M8.19999 0C6.4328 0 5 1.4328 5 3.2C3.8128 3.2 1.9 3.2 1.8 3.2C1.3584 3.2 1 3.5584 1 4V12.8C1 14.5672 2.4328 16 4.2 16H12.2C13.9672 16 15.4 14.5672 15.4 12.8V4C15.4 3.5584 15.0416 3.2 14.6 3.2C14.5 3.2 12.5872 3.2 11.4 3.2C11.4 1.4328 9.96719 0 8.19999 0ZM8.19999 1.6C9.08399 1.6 9.79999 2.316 9.79999 3.2C8.34079 3.2 8.05919 3.2 6.6 3.2C6.6 2.316 7.31599 1.6 8.19999 1.6ZM2.6 4.8C3.04 4.8 4.5928 4.8 5.8 4.8C7.61119 4.8 8.78879 4.8 10.6 4.8C11.8072 4.8 13.36 4.8 13.8 4.8V12.8C13.8 13.684 13.084 14.4 12.2 14.4H4.2C3.316 14.4 2.6 13.684 2.6 12.8V4.8Z"
  />
</svg>
