<svg
  viewBox="0 0 16 16"
  xmlns="http://www.w3.org/2000/svg"
>
  <path
    d="m 7.9953975,0.0046 c -4.41587,0 -7.99541,3.57954 -7.99541,7.9954 0,4.4159 3.57954,7.9954 7.99541,7.9954 4.0616905,0 7.4708905,-3.0447 7.9457905,-7.04556 0.0512,-0.43894 -0.2614,-0.84749 -0.7004,-0.90026 -0.4381,-0.05117 -0.8475,0.26143 -0.8986,0.70038 -0.3798,3.19814 -3.0975,5.64634 -6.3467905,5.64634 -3.53237,0 -6.39633,-2.8639 -6.39633,-6.3963 0,-3.53237 2.86396,-6.39632 6.39633,-6.39632 0.73797,0 1.46875,0.13352 2.1491905,0.37498 0.4157,0.14712 0.8515,-0.08395 0.9994,-0.49971 0.1471,-0.41656 -0.0592,-0.877084 -0.4749,-1.024999 C 9.8183375,0.152524 8.9156675,0.0046 7.9953975,0.0046 Z m 7.1958905,1.59908 c -0.2047,0 -0.419,0.07196 -0.5749,0.22468 L 7.6451875,8.6996 c -0.20548,0.20228 -0.41256,0.16311 -0.57407,-0.07515 l -0.79954,-1.17452 c -0.24466,-0.3606 -0.75796,-0.46534 -1.12415,-0.22468 -0.36698,0.24066 -0.47012,0.73878 -0.22546,1.09937 l 0.79954,1.17452 c 0.72038,1.06256 2.12996,1.20326 3.04864,0.29983 L 15.766088,2.95329 c 0.311899,-0.30702 0.311899,-0.81791 0,-1.12493 -0.1559,-0.15352 -0.3701,-0.22468 -0.5748,-0.22468 z"
  />
</svg>
