<svg
  viewBox="0 0 16 16"
  xmlns="http://www.w3.org/2000/svg"
>
  <path
    d="M 7.99999,0 C 6.2328,0 4.8,1.4328 4.8,3.2 3.6128,3.2 1.7,3.2 1.6,3.2 1.1584,3.2 0.8,3.5584 0.8,4 v 8.8 C 0.8,14.5672 2.2328,16 4,16 h 8 c 1.7672,0 3.2,-1.4328 3.2,-3.2 V 4 c 0,-0.4416 -0.3584,-0.8 -0.8,-0.8 -0.1,0 -2.0128,0 -3.2,0 C 11.2,1.4328 9.76719,0 7.99999,0 Z m 0,1.6 c 0.884,0 1.6,0.716 1.6,1.6 -1.4592,0 -1.7408,0 -3.19999,0 0,-0.884 0.71599,-1.6 1.59999,-1.6 z M 2.4,4.8 c 0.44,0 1.9928,0 3.2,0 1.81119,0 2.98879,0 4.8,0 1.2072,0 2.76,0 3.2,0 v 8 c 0,0.884 -0.716,1.6 -1.6,1.6 H 4 c -0.884,0 -1.6,-0.716 -1.6,-1.6 z"
  />
</svg>
