<svg
  viewBox="0 0 16 16"
  xmlns="http://www.w3.org/2000/svg"
>
  <path
    d="M 5.6,0.4 C 5.388,0.4 5.20001,0.4752046 5.04961,0.624804 L 3.6752,2 C 3.4456,2 3.2,2 3.2,2 1.4328,2 0,3.4328 0,5.19999 V 12.4 c 0,1.7672 1.4328,3.2 3.2,3.2 h 9.6 c 1.7672,0 3.2,-1.4328 3.2,-3.2 V 5.19999 C 16,3.4328 14.5672,2 12.8,2 H 12.3504 L 10.9752,0.624804 C 10.8248,0.4752046 10.612,0.4 10.4,0.4 Z M 5.95039,2 h 4.12481 l 1.3744,1.37519 C 11.6,3.52479 11.788,3.6 12,3.6 h 0.8 c 0.884,0 1.6,0.71599 1.6,1.59999 V 12.4 c 0,0.884 -0.716,1.6 -1.6,1.6 H 3.2 C 2.316,14 1.6,13.284 1.6,12.4 V 5.19999 C 1.6,4.31599 2.316,3.6 3.2,3.6 H 4 C 4.212,3.6 4.4248,3.52479 4.5752,3.37519 Z M 8,4.39999 c -2.2088,0 -4,1.7912 -4,4 C 4,10.6088 5.7912,12.4 8,12.4 c 2.2088,0 4,-1.7912 4,-4.00001 0,-2.2088 -1.7912,-4 -4,-4 z m 4.8,0 c -0.4416,0 -0.8,0.3584 -0.8,0.8 0,0.4416 0.3584,0.8 0.8,0.8 0.4416,0 0.8,-0.3584 0.8,-0.8 0,-0.4416 -0.3584,-0.8 -0.8,-0.8 z m -4.8,1.6 c 1.3256,0 2.4,1.0744 2.4,2.4 C 10.4,9.72559 9.3256,10.8 8,10.8 6.6744,10.8 5.6,9.72559 5.6,8.39999 c 0,-1.3256 1.0744,-2.4 2.4,-2.4 z"
  />
</svg>
