<svg
  viewBox="0 0 16 16"
  xmlns="http://www.w3.org/2000/svg"
>
  <path
    d="M4.21053 0C3.74543 0 3.36842 0.377263 3.36842 0.842105C1.50813 0.842105 0 2.35032 0 4.21053V5.89474V12.6316C0 14.4909 1.50813 16 3.36842 16H11.7895C13.6497 16 15.1579 14.4918 15.1579 12.6316V5.89474V4.21053C15.1579 2.35032 13.6497 0.842105 11.7895 0.842105C11.7895 0.377263 11.4122 0 10.9474 0C10.4825 0 10.1053 0.377263 10.1053 0.842105H5.05263C5.05263 0.377263 4.67562 0 4.21053 0ZM3.36842 2.52632C3.36842 2.99116 3.74543 3.36842 4.21053 3.36842C4.67562 3.36842 5.05263 2.99116 5.05263 2.52632H10.1053C10.1053 2.99116 10.4825 3.36842 10.9474 3.36842C11.4122 3.36842 11.7895 2.99116 11.7895 2.52632C12.72 2.52632 13.4737 3.28 13.4737 4.21053V5.05263C11.8535 5.05263 3.30467 5.05263 1.68421 5.05263V4.21053C1.68421 3.28 2.43823 2.52632 3.36842 2.52632ZM1.68421 6.73684C3.30467 6.73684 11.8535 6.73684 13.4737 6.73684V12.6316C13.4737 13.5604 12.72 14.3158 11.7895 14.3158H3.36842C2.43823 14.3158 1.68421 13.5621 1.68421 12.6316V6.73684ZM9.13179 8.42105C8.85053 8.42105 8.592 8.47327 8.36884 8.55243C8.14484 8.63243 7.94695 8.72927 7.78947 8.86822C7.632 9.008 7.53095 9.18147 7.44758 9.36842C7.36421 9.55453 7.31621 9.75663 7.31621 9.97389C7.31537 10.1768 7.34905 10.3486 7.42063 10.5263C7.49305 10.704 7.58316 10.8682 7.71031 10.9996C7.83747 11.1318 8.00758 11.2396 8.18442 11.3162C8.36042 11.392 8.55495 11.4206 8.76295 11.4206C8.816 11.4215 8.85305 11.4072 8.92126 11.3945C8.98947 11.3819 9.07789 11.3507 9.184 11.2893H9.21095L8 12.6316H9.28926L10.2897 11.4737C10.5137 11.2126 10.6813 10.9541 10.789 10.6846C10.8977 10.4143 10.9474 10.1533 10.9474 9.92085C10.9474 9.71453 10.8994 9.52505 10.816 9.34231C10.7326 9.15873 10.6307 9.00632 10.4741 8.86822C10.3166 8.73095 10.1187 8.63243 9.89474 8.55243C9.67074 8.47327 9.41642 8.42105 9.13179 8.42105ZM4.21053 8.52632V9.44757H4.8421V12.6316H5.94694V8.52632H4.21053ZM9.13179 9.26316C9.23032 9.26316 9.33558 9.27917 9.42148 9.31538C9.50653 9.35159 9.56716 9.41221 9.632 9.47368C9.696 9.53516 9.75158 9.60253 9.78947 9.68421C9.82737 9.76589 9.84253 9.85348 9.84253 9.94696C9.84169 10.0413 9.82737 10.1288 9.78947 10.2105C9.75158 10.2922 9.696 10.3596 9.632 10.4211C9.56716 10.4825 9.50653 10.5423 9.42148 10.5785C9.33558 10.6147 9.23032 10.6316 9.13179 10.6316C9.03326 10.6316 8.9541 10.6156 8.86821 10.5785C8.78316 10.5423 8.69642 10.4825 8.63158 10.4211C8.56674 10.3596 8.512 10.2922 8.47326 10.2105C8.43536 10.1288 8.42105 10.0413 8.42105 9.94696C8.42105 9.85348 8.43536 9.76589 8.47326 9.68421C8.512 9.60253 8.56674 9.53516 8.63158 9.47368C8.69642 9.41221 8.78316 9.35243 8.86821 9.31538C8.9541 9.27917 9.03326 9.26316 9.13179 9.26316Z"
  />
</svg>
