<svg
  viewBox="0 0 24 24"
  xmlns="http://www.w3.org/2000/svg"
>
  <path
    d="M12 -5.24537e-07C5.37188 -8.14261e-07 -2.34812e-07 5.37187 -5.24537e-07 12C-8.14261e-07 18.6281 5.37187 24 12 24C18.6281 24 24 18.6281 24 12C24 5.37188 18.6281 -2.34812e-07 12 -5.24537e-07ZM6.32812 11.2969C5.8875 10.8562 5.8875 10.1437 6.32812 9.70781C6.76875 9.27187 7.48125 9.26719 7.91719 9.70781L11.9953 13.7859L16.0734 9.70781C16.5141 9.26719 17.2266 9.26719 17.6625 9.70781C18.0984 10.1484 18.1031 10.8609 17.6625 11.2969L12.7969 16.1719C12.3562 16.6125 11.6437 16.6125 11.2078 16.1719L6.32812 11.2969Z"
  />
</svg>
