<svg
  viewBox="0 0 16 16"
  xmlns="http://www.w3.org/2000/svg"
>
  <path
    d="M8 -3.8147e-05C3.58176 -3.8147e-05 0 3.58156 0 7.99996C0 12.4184 3.58168 16 8 16C12.4182 16 16 12.4184 16 7.99996C16 3.58156 12.4182 -3.8147e-05 8 -3.8147e-05ZM8 1.59996C11.5346 1.59996 14.4 4.46556 14.4 7.99996C14.4 11.5344 11.5346 14.4 8 14.4C4.46536 14.4 1.6 11.5344 1.6 7.99996C1.6 4.46556 4.46536 1.59996 8 1.59996ZM8 3.19996C7.55816 3.19996 7.2 3.55836 7.2 3.99996V7.99996C7.2 8.21196 7.27496 8.42476 7.42496 8.57516L9.82496 10.9752C10.1374 11.2872 10.6626 11.2872 10.975 10.9752C11.2874 10.6624 11.2874 10.1376 10.975 9.82477L8.8 7.64957V3.99996C8.8 3.55836 8.44184 3.19996 8 3.19996Z"
  />
</svg>
