<svg
  viewBox="0 0 18 21"
  xmlns="http://www.w3.org/2000/svg"
>
  <path
    d="M10.6087 0.95314C8.7217 0.95314 6.84969 1.67312 5.40969 3.11012L3.28069 5.23512C2.88869 5.62511 2.88869 6.25012 3.28069 6.64112C3.67169 7.03112 4.29869 7.03112 4.68969 6.64112L6.81872 4.51612C8.91572 2.42313 12.3007 2.42413 14.3977 4.51612L14.4287 4.54713C16.5257 6.63912 16.5257 10.0171 14.4287 12.1101L8.51071 18.0161C7.24271 19.2801 5.23472 19.2361 3.98672 18.0431L3.92269 17.9711C2.65569 16.7061 2.67571 14.6631 3.94271 13.3981L9.70071 7.67212C10.1387 7.23512 10.8277 7.23512 11.2657 7.67212C11.7037 8.10912 11.7037 8.79711 11.2657 9.23511L5.27972 15.2331C4.88772 15.6241 4.88772 16.2801 5.27972 16.6711C5.67072 17.0611 6.32672 17.0241 6.69372 16.6721L12.7067 10.6721C13.9277 9.45412 13.9277 7.45311 12.7067 6.23511C12.0967 5.62511 11.2827 5.32813 10.4827 5.32813C9.68269 5.32813 8.8697 5.62511 8.2597 6.23511L2.35571 12.1731C2.25271 12.2761 2.17669 12.3901 2.06969 12.5181C0.522693 14.5701 0.634705 17.5391 2.50671 19.4071C4.55671 21.4531 7.8697 21.4681 9.91971 19.4221L15.8377 13.5161C18.7177 10.6421 18.7177 5.98311 15.8377 3.11012C14.3987 1.67312 12.4957 0.95314 10.6087 0.95314Z"
  />
</svg>
