<svg
  viewBox="0 0 16 16"
  xmlns="http://www.w3.org/2000/svg"
>
  <path
    d="M 3.1999977,1.01e-5 C 1.4328,1.01e-5 1.35e-6,1.4327283 1.35e-6,3.200006 v 6.3999919 c 0,1.7671981 1.43279865,3.1999961 3.19999635,3.1999961 l 0.00801,0.004 c 0.1855998,1.783198 1.7103778,3.195996 3.542403,3.195996 0.256799,0 2.303997,0 2.849596,0 2.8415963,0 6.3999923,-3.558396 6.3999923,-6.3999921 0,-0.545599 0,-2.453597 0,-2.849596 0,-1.8322381 -1.411998,-3.3629561 -3.195196,-3.5486359 l -0.0048,-0.00176 c 0,-1.7672777 -1.432798,-3.1999959 -3.1999963,-3.1999959 z m 0,1.5999979 h 6.400012 c 0.8839993,0 1.5999983,0.7163191 1.5999983,1.599998 H 6.7504137 c -1.9568248,0 -3.550416,1.593358 -3.550416,3.5503959 v 4.4495941 c -0.8839989,0 -1.5999979,-0.715999 -1.5999979,-1.5999981 V 3.200006 c 0,-0.8836789 0.715999,-1.599998 1.5999979,-1.599998 z m 3.550416,3.199996 h 5.2495933 0.449599 c 1.073599,0 1.950398,0.8770389 1.950398,1.9503979 0,0.284799 0,1.269598 0,2.049597 -0.773599,0 -1.793598,0 -2.049598,0 -1.956797,0 -3.5503953,1.5935981 -3.5503953,3.5503951 v 2.049598 c -0.811999,0 -1.864798,0 -2.049597,0 -1.0736259,0 -1.9504114,-0.876799 -1.9504114,-1.950398 V 11.999995 6.7504019 c 0,-1.073439 0.8767855,-1.9503979 1.9504114,-1.9503979 z m 5.5999923,5.599993 c 0.2248,0 1.157599,-0.0016 1.906398,-0.0016 -0.495199,1.581598 -2.259197,3.319996 -3.851195,3.865595 l -0.0056,-1.913598 c 0,-1.073598 0.876799,-1.950397 1.950397,-1.950397 z"
  />
</svg>
