<svg
  viewBox="0 0 16 16"
  xmlns="http://www.w3.org/2000/svg"
>
  <path
    d="M 5.5751911,0.36271254 C 4.440791,0.72271344 3.4623989,1.3099166 2.5999989,2.1131167 c -0.2664001,0.248 -0.3479921,0.6544 -0.175192,0.9744 0.6408,1.1848001 -0.029608,2.4528002 -1.47520805,2.5256002 -0.3536017,0.0176 -0.6663993,0.280008 -0.7495993,0.624808 C 0.05679985,6.833925 -1.5e-7,7.333117 -1.5e-7,7.9875171 c 0,0.5495682 0.059195,1.1719682 0.1751949,1.7255682 0.072,0.3455997 0.3728048,0.5943997 0.7248041,0.6247997 1.45440005,0.1256 2.17440805,1.2352 1.52480805,2.6496 -0.1440001,0.3144 -0.078408,0.6904 0.175192,0.9256 0.8496,0.7856 1.8255921,1.34 2.9751922,1.7 0.328,0.1024 0.6984,-0.0216 0.9,-0.3 0.8896001,-1.2312 2.180008,-1.2352 3.024808,0 0.1992,0.2904 0.5639999,0.4304 0.8999999,0.3248 1.1096,-0.3496 2.1432,-0.944 3.000001,-1.7248 0.264,-0.2408 0.3336,-0.6304 0.1752,-0.9504 -0.665601,-1.3432 0.1,-2.576 1.4744,-2.6 0.3648,-0.0064 0.6896,-0.2456 0.7752,-0.5999997 C 15.9632,9.1890853 16,8.6898853 16,7.9875171 16,7.384317 15.9288,6.789917 15.8,6.2131169 c -0.0816,-0.3656 -0.4008,-0.6248 -0.7752,-0.6256 -1.3528,-0.0024 -2.111201,-1.3320001 -1.4496,-2.5000002 0.184,-0.3248 0.1264,-0.7232 -0.1504,-0.9744 -0.872001,-0.7920001 -1.935201,-1.41120326 -3.049601,-1.75040416 -0.3424,-0.104 -0.7063999,0.024005 -0.8999999,0.3248049 -0.7728,1.20079916 -2.2159999,1.22159916 -2.9752,0.025598 -0.1944,-0.3072001 -0.579208,-0.4600033 -0.924808,-0.3504029 z M 10.437599,2.0619167 c 0.5464,0.2288 0.9776,0.468008 1.4728,0.843208 -0.5808,1.8376001 0.404,3.7463923 2.444001,4.2111923 0.0504,0.3304 0.0456,0.5304 0.0456,0.8712001 0,0.4071682 0.0056,0.5503682 -0.0408,0.8447682 -2.031201,0.4208 -3.036001,2.2760797 -2.470401,4.2368797 -0.4864,0.3528 -0.8344,0.59752 -1.4448,0.83352 -1.4335998,-1.4592 -3.4239918,-1.5232 -4.8879919,0.0097 -0.5712,-0.2512 -1.0104001,-0.47448 -1.454392,-0.84968 C 4.652007,11.071505 3.721607,9.3523053 1.6560069,8.8307053 1.5640069,8.4659053 1.6007989,7.435545 1.6535969,7.122745 3.789597,6.610745 4.631205,4.7203368 4.100805,2.8995367 c 0.4688,-0.3528 0.8904,-0.609592 1.4384001,-0.831992 1.3800001,1.4040001 3.4519921,1.5439921 4.8983919,-0.00561 z M 7.9999992,4.7875168 c -1.7672001,0 -3.2000002,1.4328001 -3.2000002,3.2000003 0,1.7679682 1.4328001,3.1999679 3.2000002,3.1999679 1.7671999,0 3.1999998,-1.4319997 3.1999998,-3.1999679 0,-1.7672002 -1.4327999,-3.2000003 -3.1999998,-3.2000003 z m 0,1.6000002 c 0.8839999,0 1.5999999,0.7168 1.5999999,1.6000001 0,0.8839682 -0.716,1.5999682 -1.5999999,1.5999682 -0.884,0 -1.6000001,-0.716 -1.6000001,-1.5999682 0,-0.8832001 0.7160001,-1.6000001 1.6000001,-1.6000001 z"
  />
</svg>
