<svg
  viewBox="0 0 16 16"
  xmlns="http://www.w3.org/2000/svg"
>
  <path
    d="M 8.00002,1.48517e-5 C 4.45684,0.00481485 1.60005,0.800014 1.60005,2.40001 c 0,0.0384 0,0.1 0,0.1 L 3.04964,13.2248 C 3.36324,14.7992 4.84164,16 6.40003,16 h 3.19999 c 1.55843,0 3.02003,-1.2008 3.32483,-2.7248 l 1.4751,-10.77519 c 0,0 0,-0.0616 0,-0.1 0,-1.599996 -2.8567,-2.40399514 -6.39993,-2.3999951483 z m 0,1.5999951483 c 1.4352,0 2.78323,0.17359 3.75033,0.45039 0.3784,0.108 0.6193,0.23041 0.8249,0.34961 -0.2056,0.1192 -0.4465,0.24159 -0.8249,0.35039 C 10.78325,3.0264 9.43522,3.20001 8.00002,3.20001 6.56483,3.20001 5.21684,3.0264 4.24965,2.7504 3.87125,2.6416 3.62565,2.51921 3.42485,2.40001 3.63045,2.28081 3.87125,2.1584 4.24965,2.0504 5.21684,1.7736 6.56483,1.60001 8.00002,1.60001 Z m -4.55037,2.6 c 1.1536,0.4008 2.76238,0.6 4.55037,0.6 1.78803,0 3.39683,-0.1992 4.55033,-0.6 l -1.1999,8.82479 C 11.20405,13.7488 10.39925,14.4 9.60002,14.4 H 6.40003 c -0.7992,0 -1.61999,-0.6512 -1.77519,-1.4248 z"
  />
</svg>
