<svg
  viewBox="0 0 16 16"
  xmlns="http://www.w3.org/2000/svg"
>
  <path
    d="M 4.0000697,4 C 1.6672754,4 8.05176e-5,5.3896 8.05176e-5,8 c 0,2.6104 1.6671948824,4 3.9999891824,4 h 2.3999942 c 2.3327943,0 4.0000301,-1.3896 4.0000301,-4 0,-0.0768 0,-0.7008 0,-0.8 0,-1.0664 -1.6000359,-1.0664 -1.6000359,0 0,0.1056 0,0.85039 0,0.85039 C 8.7800581,9.66639 7.8904603,10.4 6.4000639,10.4 H 4.0000697 C 2.4928734,10.4 1.6000756,9.656 1.6000756,8 c 0,-1.656 0.8927978,-2.4 2.3999941,-2.4 h 0.7999981 c 0.4415989,0 0.799998,-0.3584 0.799998,-0.8 0,-0.4416 -0.3583991,-0.8 -0.799998,-0.8 z M 9.6000561,4 C 8.4632589,4 7.5376611,4.321605 6.8496628,4.924805 6.0064649,5.6648 5.6000658,6.7608 5.6000658,8 c 0,0.1032 0,0.2368 0,0.8 0,0.4416 0.3583992,0.8 0.7999981,0.8 0.4415989,0 0.799998,-0.3584 0.799998,-0.8 0,-0.5632 0,-0.6968 0,-0.8 0,-0.8136 0.2407995,-1.472 0.6999983,-1.8752 C 8.2800593,5.7912 8.834458,5.6 9.6000561,5.6 H 12.00009 c 1.655996,0 2.399994,0.8928 2.399994,2.4 0,1.5072 -0.743998,2.4 -2.399994,2.4 h -0.799998 c -0.441599,0 -0.799998,0.3584 -0.799998,0.8 0,0.4416 0.358399,0.8 0.799998,0.8 h 0.799998 c 2.610394,0 3.999991,-1.6672 3.999991,-4 0,-2.3328 -1.389597,-4 -3.999991,-4 z"
  />
</svg>
