<svg
  viewBox="0 0 16 16"
  xmlns="http://www.w3.org/2000/svg"
>
  <path
    d="m 0,8 c 0,4.418733 3.5812533,8 8,8 4.418733,0 8,-3.581267 8,-8 C 16,3.5812533 12.418733,0 8,0 3.5812533,0 0,3.5812533 0,8 Z m 7.531267,3.781267 c -0.293734,0.293733 -0.768734,0.293733 -1.059394,0 -0.29062,-0.293734 -0.293746,-0.768734 0,-1.0594 L 9.1906,8.003133 6.471873,5.2843733 C 6.178127,4.9906267 6.178127,4.5156267 6.471873,4.225 6.7656,3.9343733 7.2406,3.9312467 7.531267,4.225 l 3.25,3.243733 c 0.293733,0.293734 0.293733,0.768734 0,1.0594 z"
  />
</svg>
