<svg
  viewBox="0 0 16 16"
  xmlns="http://www.w3.org/2000/svg"
>
  <path
    d="M4.2105 7.62939e-06C3.74565 7.62939e-06 3.36839 0.377271 3.36839 0.842113C1.50818 0.842113 -3.05176e-05 2.35032 -3.05176e-05 4.21053V5.89474V12.6316C-3.05176e-05 14.491 1.50818 16 3.36839 16H11.7894C13.6497 16 15.1579 14.4918 15.1579 12.6316V5.89474V4.21053C15.1579 2.35032 13.6497 0.842113 11.7894 0.842113C11.7894 0.377271 11.4122 7.62939e-06 10.9473 7.62939e-06C10.4825 7.62939e-06 10.1052 0.377271 10.1052 0.842113H5.0526C5.0526 0.377271 4.67534 7.62939e-06 4.2105 7.62939e-06ZM3.36839 2.52632C3.36839 2.99117 3.74565 3.36843 4.2105 3.36843C4.67534 3.36843 5.0526 2.99117 5.0526 2.52632H10.1052C10.1052 2.99117 10.4825 3.36843 10.9473 3.36843C11.4122 3.36843 11.7894 2.99117 11.7894 2.52632C12.72 2.52632 13.4737 3.28001 13.4737 4.21053V5.05264C11.8534 5.05264 3.30439 5.05264 1.68418 5.05264V4.21053C1.68418 3.28001 2.43786 2.52632 3.36839 2.52632ZM1.68418 6.73685C3.30439 6.73685 11.8534 6.73685 13.4737 6.73685V12.6316C13.4737 13.5604 12.72 14.3158 11.7894 14.3158H3.36839C2.43786 14.3158 1.68418 13.5621 1.68418 12.6316V6.73685ZM8.42102 8.42106C7.95618 8.42106 7.57892 8.79832 7.57892 9.26317C7.57892 9.72801 7.95618 10.1053 8.42102 10.1053H10.9473C11.4122 10.1053 11.7894 9.72801 11.7894 9.26317C11.7894 8.79832 11.4122 8.42106 10.9473 8.42106H8.42102ZM4.2105 10.9474C3.74565 10.9474 3.36839 11.3246 3.36839 11.7895C3.36839 12.2543 3.74565 12.6316 4.2105 12.6316H6.73681C7.20165 12.6316 7.57892 12.2543 7.57892 11.7895C7.57892 11.3246 7.20165 10.9474 6.73681 10.9474H4.2105Z"
  />
</svg>
