<svg
  viewBox="0 0 16 8"
  xmlns="http://www.w3.org/2000/svg"
>
  <path
    d="M4.00006 0C1.66726 0 6.10352e-05 1.3896 6.10352e-05 4C6.10352e-05 6.6104 1.66726 8 4.00006 8H6.40006C8.73286 8 10.4001 6.6104 10.4001 4C10.4001 3.9232 10.4001 3.2992 10.4001 3.2C10.4001 2.1336 8.80006 2.1336 8.80006 3.2C8.80006 3.3056 8.80006 4.05039 8.80006 4.05039C8.78006 5.66639 7.89046 6.4 6.40006 6.4H4.00006C2.49286 6.4 1.60006 5.656 1.60006 4C1.60006 2.344 2.49286 1.6 4.00006 1.6H4.80006C5.24166 1.6 5.60006 1.2416 5.60006 0.8C5.60006 0.3584 5.24166 0 4.80006 0H4.00006ZM9.60006 0C8.46326 0 7.53766 0.321605 6.84966 0.924805C6.00646 1.6648 5.60006 2.7608 5.60006 4C5.60006 4.1032 5.60006 4.2368 5.60006 4.8C5.60006 5.2416 5.95846 5.6 6.40006 5.6C6.84166 5.6 7.20006 5.2416 7.20006 4.8C7.20006 4.2368 7.20006 4.1032 7.20006 4C7.20006 3.1864 7.44086 2.528 7.90006 2.1248C8.28006 1.7912 8.83446 1.6 9.60006 1.6H12.0001C13.6561 1.6 14.4001 2.4928 14.4001 4C14.4001 5.5072 13.6561 6.4 12.0001 6.4H11.2001C10.7585 6.4 10.4001 6.7584 10.4001 7.2C10.4001 7.6416 10.7585 8 11.2001 8H12.0001C14.6105 8 16.0001 6.3328 16.0001 4C16.0001 1.6672 14.6105 0 12.0001 0H9.60006Z"
  />
</svg>
