<svg
  viewBox="0 0 16 16"
  xmlns="http://www.w3.org/2000/svg"
>
  <path
    d="M 16,8 C 16,3.5812533 12.418733,0 8,0 3.5812533,0 0,3.5812533 0,8 c 0,4.418733 3.5812533,8 8,8 4.418733,0 8,-3.581267 8,-8 z M 8.468733,4.2187467 c 0.2938,-0.2937467 0.768734,-0.2937467 1.0594,0 0.2906,0.2937533 0.293734,0.7687533 0,1.05938 L 6.8094,7.996867 9.528133,10.7156 c 0.293734,0.2938 0.293734,0.7688 0,1.0594 -0.293733,0.2906 -0.768733,0.293733 -1.0594,0 L 5.2187467,8.531267 C 4.925,8.237467 4.925,7.762533 5.2187467,7.471867 Z"
  />
</svg>
