<svg
  viewBox="0 0 16 16"
  xmlns="http://www.w3.org/2000/svg"
>
  <path
    d="M 4.63158,0 C 4.16648,0 3.78947,0.377263 3.78947,0.842105 1.92918,0.842105 0.42105,2.35032 0.42105,4.21053 V 5.89474 12.6316 C 0.42105,14.4909 1.92918,16 3.78947,16 h 8.42108 c 1.8602,0 3.3684,-1.5082 3.3684,-3.3684 V 5.89474 4.21053 c 0,-1.86021 -1.5082,-3.368425 -3.3684,-3.368425 C 12.21055,0.377263 11.83325,0 11.36845,0 c -0.4649,0 -0.8421,0.377263 -0.8421,0.842105 H 5.47368 C 5.47368,0.377263 5.09667,0 4.63158,0 Z M 3.78947,2.52632 c 0,0.46484 0.37701,0.8421 0.84211,0.8421 0.46509,0 0.8421,-0.37726 0.8421,-0.8421 h 5.05267 c 0,0.46484 0.3772,0.8421 0.8421,0.8421 0.4648,0 0.8421,-0.37726 0.8421,-0.8421 0.9305,0 1.6842,0.75368 1.6842,1.68421 v 0.8421 c -1.6202,0 -10.16903,0 -11.78949,0 V 4.21053 C 2.10526,3.28 2.85928,2.52632 3.78947,2.52632 Z M 2.10526,6.73684 c 1.62046,0 10.16929,0 11.78949,0 v 5.89476 c 0,0.9288 -0.7537,1.6842 -1.6842,1.6842 H 3.78947 c -0.93019,0 -1.68421,-0.7537 -1.68421,-1.6842 z m 7.44758,1.68421 c -0.28126,0 -0.53979,0.05222 -0.76295,0.13138 C 8.56589,8.63243 8.368,8.72927 8.21052,8.86822 8.05305,9.008 7.952,9.18147 7.86863,9.36842 7.78526,9.55453 7.73726,9.75663 7.73726,9.97389 7.73642,10.1768 7.7701,10.3486 7.84168,10.5263 c 0.07242,0.1777 0.16253,0.3419 0.28968,0.4733 0.12716,0.1322 0.29727,0.24 0.47411,0.3166 0.176,0.0758 0.37053,0.1044 0.57853,0.1044 0.05305,9e-4 0.0901,-0.0134 0.15831,-0.0261 0.06821,-0.0126 0.15663,-0.0438 0.26274,-0.1052 H 9.632 l -1.21095,1.3423 h 1.28926 l 1.00044,-1.1579 c 0.224,-0.2611 0.3916,-0.5196 0.4993,-0.7891 0.1087,-0.2703 0.1584,-0.5313 0.1584,-0.76375 0,-0.20632 -0.048,-0.3958 -0.1314,-0.57854 C 11.15365,9.15873 11.05175,9.00632 10.89515,8.86822 10.73765,8.73095 10.53975,8.63243 10.31579,8.55243 10.09179,8.47327 9.83747,8.42105 9.55284,8.42105 Z M 4.63158,8.52632 V 9.44757 H 5.26315 V 12.6316 H 6.36799 V 8.52632 Z m 4.92126,0.73684 c 0.09853,0 0.20379,0.01601 0.28969,0.05222 0.08505,0.03621 0.14568,0.09683 0.21052,0.1583 0.064,0.06148 0.11958,0.12885 0.15747,0.21053 0.0379,0.08168 0.05306,0.16927 0.05306,0.26275 -8.4e-4,0.09434 -0.01516,0.18184 -0.05306,0.26354 -0.03789,0.0817 -0.09347,0.1491 -0.15747,0.2106 -0.06484,0.0614 -0.12547,0.1212 -0.21052,0.1574 -0.0859,0.0362 -0.19116,0.0531 -0.28969,0.0531 -0.09853,0 -0.17769,-0.016 -0.26358,-0.0531 C 9.20421,10.5423 9.11747,10.4825 9.05263,10.4211 8.98779,10.3596 8.93305,10.2922 8.89431,10.2105 8.85641,10.1288 8.8421,10.0413 8.8421,9.94696 8.8421,9.85348 8.85641,9.76589 8.89431,9.68421 8.93305,9.60253 8.98779,9.53516 9.05263,9.47368 9.11747,9.41221 9.20421,9.35243 9.28926,9.31538 9.37515,9.27917 9.45431,9.26316 9.55284,9.26316 Z"
  />
</svg>
