<svg
  viewBox="0 0 16 16"
  xmlns="http://www.w3.org/2000/svg"
>
  <path
    d="m 8,16 c 4.418733,0 8,-3.581267 8,-8 C 16,3.5812533 12.418733,5e-8 8,5e-8 3.5812533,-4.9999999e-8 5.0000001e-8,3.5812533 5.0000001e-8,8 -4.9999999e-8,12.418733 3.5812533,16 8,16 Z m 3.781267,-7.531267 c 0.293733,0.2938 0.293733,0.7688 0,1.0594 -0.293734,0.2906 -0.768734,0.293734 -1.0594,0 L 8.003133,6.8094 5.2843733,9.528133 C 4.9906267,9.821867 4.5156267,9.821867 4.225,9.528133 3.9343733,9.2344 3.9312533,8.7594 4.225,8.468733 L 7.468733,5.2187533 c 0.2938,-0.2937534 0.7688,-0.2937534 1.0594,0 z"
  />
</svg>
