<svg
  viewBox="0 0 24 24"
  xmlns="http://www.w3.org/2000/svg"
>
  <path
    d="M0 12C0 18.6281 5.37188 24 12 24C18.6281 24 24 18.6281 24 12C24 5.37188 18.6281 0 12 0C5.37188 0 0 5.37188 0 12ZM11.2969 17.6719C10.8563 18.1125 10.1438 18.1125 9.70781 17.6719C9.27188 17.2313 9.26719 16.5188 9.70781 16.0828L13.7859 12.0047L9.70781 7.92656C9.26719 7.48594 9.26719 6.77344 9.70781 6.3375C10.1484 5.90156 10.8609 5.89687 11.2969 6.3375L16.1719 11.2031C16.6125 11.6437 16.6125 12.3562 16.1719 12.7922L11.2969 17.6719Z"
  />
</svg>
