<svg
  viewBox="0 0 20 20"
  xmlns="http://www.w3.org/2000/svg"
>
  <path
    d="M6.96789 0.455435C5.54989 0.905436 4.3269 1.63944 3.2489 2.64344C2.9159 2.95344 2.81391 3.46144 3.02991 3.86144C3.83091 5.34244 2.9929 6.92744 1.1859 7.01844C0.743898 7.04044 0.352901 7.36845 0.248901 7.79945C0.0699014 8.54445 -0.00109863 9.16844 -0.00109863 9.98644C-0.00109863 10.6734 0.0728955 11.4514 0.217895 12.1434C0.307895 12.5754 0.683901 12.8864 1.1239 12.9244C2.9419 13.0814 3.84191 14.4684 3.02991 16.2364C2.84991 16.6294 2.9319 17.0994 3.2489 17.3934C4.3109 18.3754 5.53089 19.0684 6.96789 19.5184C7.37789 19.6464 7.84089 19.4914 8.09289 19.1434C9.20489 17.6044 10.8179 17.5994 11.8739 19.1434C12.1229 19.5064 12.5789 19.6814 12.9989 19.5494C14.3859 19.1124 15.6779 18.3694 16.7489 17.3934C17.0789 17.0924 17.1659 16.6054 16.9679 16.2054C16.1359 14.5264 17.0929 12.9854 18.8109 12.9554C19.2669 12.9474 19.6729 12.6484 19.7799 12.2054C19.9529 11.4884 19.9989 10.8644 19.9989 9.98644C19.9989 9.23244 19.9099 8.48944 19.7489 7.76844C19.6469 7.31144 19.2479 6.98744 18.7799 6.98644C17.0889 6.98344 16.1409 5.32144 16.9679 3.86144C17.1979 3.45544 17.1259 2.95744 16.7799 2.64344C15.6899 1.65344 14.3609 0.879436 12.9679 0.455435C12.5399 0.325435 12.0849 0.485441 11.8429 0.861441C10.8769 2.36244 9.0729 2.38844 8.1239 0.893439C7.8809 0.509439 7.39989 0.318435 6.96789 0.455435ZM13.0459 2.57944C13.7289 2.86544 14.2679 3.16445 14.8869 3.63345C14.1609 5.93045 15.3919 8.31644 17.9419 8.89744C18.0049 9.31044 17.9989 9.56044 17.9989 9.98644C17.9989 10.4954 18.0059 10.6744 17.9479 11.0424C15.4089 11.5684 14.1529 13.8875 14.8599 16.3385C14.2519 16.7795 13.8169 17.0854 13.0539 17.3804C11.2619 15.5564 8.77391 15.4764 6.94391 17.3925C6.22991 17.0785 5.68091 16.7994 5.12592 16.3304C5.81391 13.8414 4.65091 11.6924 2.06891 11.0404C1.95391 10.5844 1.9999 9.29645 2.0659 8.90545C4.7359 8.26545 5.78791 5.90244 5.12491 3.62644C5.71091 3.18544 6.23791 2.86445 6.92291 2.58645C8.64791 4.34145 11.2379 4.51644 13.0459 2.57944ZM9.9989 5.98644C7.7899 5.98644 5.9989 7.77744 5.9989 9.98644C5.9989 12.1964 7.7899 13.9864 9.9989 13.9864C12.2079 13.9864 13.9989 12.1964 13.9989 9.98644C13.9989 7.77744 12.2079 5.98644 9.9989 5.98644ZM9.9989 7.98644C11.1039 7.98644 11.9989 8.88244 11.9989 9.98644C11.9989 11.0914 11.1039 11.9864 9.9989 11.9864C8.8939 11.9864 7.9989 11.0914 7.9989 9.98644C7.9989 8.88244 8.8939 7.98644 9.9989 7.98644Z"
  />
</svg>
