<svg
  viewBox="0 0 16 16"
  xmlns="http://www.w3.org/2000/svg"
>
  <path
    d="M7.89513 1.00011C7.28967 1.00491 6.67116 1.16729 6.19529 1.50006L0.345809 5.55089C-0.11567 5.86846 -0.11487 6.5324 0.345809 6.85158L2.29563 8.20186L0.345809 9.55212C-0.11471 9.86969 -0.11407 10.5336 0.345809 10.852L6.19529 14.9028C7.15272 15.554 8.63011 15.5652 9.59498 14.9284L15.6444 10.8776C16.1182 10.56 16.1188 9.86809 15.6444 9.55212L13.6446 8.22665L15.6444 6.87637C16.1168 6.55879 16.1176 5.84287 15.6444 5.5261L9.56994 1.47526C9.09247 1.15049 8.5006 0.995308 7.89513 1.00011ZM7.89513 2.60077C8.18447 2.59837 8.48956 2.66076 8.69506 2.80075L13.7446 6.20123L11.7448 7.55151L8.69506 9.60173C8.27206 9.8817 7.50565 9.8809 7.09521 9.60173C6.73332 9.35055 4.51416 7.80829 4.14547 7.55151L2.19564 6.20123L7.12016 2.82554C7.3267 2.68075 7.6058 2.60317 7.89513 2.60077ZM3.67047 9.15216H3.69551C4.40921 9.64811 5.88203 10.6848 6.19529 10.9024C7.15384 11.5543 8.63027 11.5647 9.59498 10.9272L12.1947 9.17696L13.7446 10.2273L8.69506 13.603C8.27086 13.8829 7.50573 13.8821 7.09521 13.603L2.19564 10.2025L3.67047 9.15216Z"
  />
</svg>
