<svg
  viewBox="0 0 13 16"
  xmlns="http://www.w3.org/2000/svg"
>
  <path
    d="M2.84962 0C1.28881 0 0 1.184 0 2.6752V13.3248C0 14.816 1.28881 16 2.84962 16H4.00001H9.95042C11.5112 16 12.8 14.816 12.8 13.3248C12.8 12.804 12.8 7.0864 12.8 5.6C12.8 5.592 12.8 5.5832 12.8 5.5752C12.8 2.7248 10.0488 0 7.20002 0C3.82881 0 3.82082 0 2.84962 0ZM2.84962 1.6C3.64242 1.6 4.53921 1.6 6.40002 1.6V3.7248C6.40002 5.216 7.68883 6.4 9.24964 6.4H11.2C11.2 6.8688 11.2 7.3352 11.2 8H4.00001H1.6V2.6752C1.6 2.104 2.13922 1.6 2.84962 1.6ZM8.00002 1.8C9.41763 2.176 10.6576 3.3864 11.0248 4.8H9.24964C8.53844 4.8 8.00002 4.296 8.00002 3.7248V1.8ZM1.6 9.6H3.20001V11.2H1.6V9.6ZM4.80001 9.6H11.2C11.2 10.2928 11.2 10.6472 11.2 11.2H4.80001V9.6ZM1.6 12.8H3.20001V14.4H2.84962C2.13922 14.4 1.6 13.896 1.6 13.3248V12.8ZM4.80001 12.8H11.2C11.2 12.8808 11.2 13.2896 11.2 13.3248C11.2 13.896 10.6608 14.4 9.95042 14.4H4.80001V12.8Z"
  />
</svg>
