<svg
  viewBox="0 0 16 16"
  xmlns="http://www.w3.org/2000/svg"
>
  <path
    d="M 7.99999,1.41013e-8 C 7.53515,1.41013e-8 7.15789,0.377011 7.15789,0.842105 V 9.26316 H 4.63157 L 7.99999,12.6316 11.36845,9.26316 H 8.8421 V 0.842105 C 8.8421,0.377011 8.46484,-8.41964e-5 7.99999,1.41013e-8 Z M 1.263155,10.1053 c -0.465095,0 -0.842105,0.3772 -0.842105,0.8421 v 1.6842 C 0.42105,14.4918 1.92918,16 3.78947,16 h 8.42108 c 1.8602,0 3.3684,-1.5082 3.3684,-3.3684 v -1.6842 c 0,-0.4649 -0.3773,-0.8421 -0.8421,-0.8421 -0.4649,0 -0.8421,0.3772 -0.8421,0.8421 v 1.6842 c 0,0.9305 -0.7537,1.6842 -1.6842,1.6842 H 3.78947 c -0.93019,0 -1.68421,-0.7537 -1.68421,-1.6842 v -1.6842 c 0,-0.4649 -0.37701,-0.8421 -0.842105,-0.8421 z"
  />
</svg>
