<svg
  viewBox="0 0 16 16"
  xmlns="http://www.w3.org/2000/svg"
>
  <path
    d="M 8,0 C 7.15628,0 6.31736,0.331398 5.67377,0.975793 L 0.970891,5.67867 c -1.287988,1.28719 -1.287988,3.36527 0,4.65243 L 5.67377,15.034 c 1.28719,1.288 3.36527,1.288 4.65243,0 l 4.7029,-4.7029 c 1.288,-1.28716 1.288,-3.36524 0,-4.65243 L 10.3262,0.975793 C 9.68263,0.331398 8.84371,0 8,0 Z m 0,1.60098 c 0.43386,0 0.86933,0.1689 1.20073,0.50031 l 4.70287,4.70288 c 0.662,0.662 0.662,1.73866 0,2.40147 L 9.20073,13.9085 c -0.662,0.662 -1.73866,0.662 -2.40147,0 L 2.09638,9.20564 c -0.662,-0.66201 -0.662,-1.73867 0,-2.40147 L 6.79926,2.10129 C 7.13066,1.76988 7.56613,1.60098 8,1.60098 Z m 0,2.40147 c -0.44187,0 -0.80049,0.35862 -0.80049,0.80049 v 4.00245 c 0,0.44187 0.35862,0.80049 0.80049,0.80049 0.44187,0 0.80049,-0.35862 0.80049,-0.80049 V 4.80294 C 8.80049,4.36107 8.44187,4.00245 8,4.00245 Z m 0,6.40395 c -0.44187,0 -0.80049,0.3586 -0.80049,0.8005 0,0.4418 0.35862,0.8004 0.80049,0.8004 0.44187,0 0.80049,-0.3586 0.80049,-0.8004 C 8.80049,10.765 8.44187,10.4064 8,10.4064 Z"
  />
</svg>
