<svg
  viewBox="0 0 16 16"
  xmlns="http://www.w3.org/2000/svg"
>
  <path
    d="M 4.44962,0 C 2.88881,0 1.6,1.184 1.6,2.6752 V 13.3248 C 1.6,14.816 2.88881,16 4.44962,16 h 1.15039 5.95041 C 13.1112,16 14.4,14.816 14.4,13.3248 c 0,-0.5208 0,-6.2384 0,-7.7248 0,-0.008 0,-0.0168 0,-0.0248 C 14.4,2.7248 11.6488,0 8.80002,0 5.42881,0 5.42082,0 4.44962,0 Z m 0,1.6 c 0.7928,0 1.68959,0 3.5504,0 V 3.7248 C 8.00002,5.216 9.28883,6.4 10.84964,6.4 H 12.8 c 0,0.4688 0,0.9352 0,1.6 H 5.60001 3.2 V 2.6752 C 3.2,2.104 3.73922,1.6 4.44962,1.6 Z m 5.1504,0.2 c 1.41761,0.376 2.65758,1.5864 3.02478,3 H 10.84964 C 10.13844,4.8 9.60002,4.296 9.60002,3.7248 Z M 3.2,9.6 h 1.60001 v 1.6 H 3.2 Z m 3.20001,0 H 12.8 c 0,0.6928 0,1.0472 0,1.6 H 6.40001 Z M 3.2,12.8 h 1.60001 v 1.6 H 4.44962 C 3.73922,14.4 3.2,13.896 3.2,13.3248 Z m 3.20001,0 H 12.8 c 0,0.0808 0,0.4896 0,0.5248 0,0.5712 -0.5392,1.0752 -1.24958,1.0752 H 6.40001 Z"
  />
</svg>
