<svg
  viewBox="0 0 16 16"
  xmlns="http://www.w3.org/2000/svg"
>
  <path
    d="m 7.8951426,0.80075975 c -0.60546,0.0048 -1.22397,0.16718 -1.69984,0.49994995 l -5.84948096,4.05083 c -0.461479,0.31757 -0.460679,0.98151 0,1.30069 l 1.94982096,1.35028 -1.94982096,1.35026 c -0.460519,0.31757 -0.459879,0.9814803 0,1.2998803 l 5.84948096,4.0508 c 0.95743,0.6512 2.43482,0.6624 3.39969,0.0256 l 6.0494204,-4.0508 c 0.4738,-0.3176 0.4744,-1.0095103 0,-1.3254803 l -1.9998,-1.32547 1.9998,-1.35028 c 0.4724,-0.31758 0.4732,-1.0335 0,-1.35027 l -6.0744604,-4.05084 c -0.47747,-0.32476995 -1.06934,-0.47995195 -1.67481,-0.47514995 z m 0,1.60065995 c 0.28934,-0.0024 0.59443,0.05999 0.79993,0.19998 l 5.0495404,3.40048 -1.9998,1.35028 -3.0497404,2.05022 c -0.423,0.27997 -1.18941,0.27917 -1.59985,0 -0.36189,-0.25118 -2.58105,-1.79344 -2.94974,-2.05022 l -1.94983,-1.35028 4.92452,-3.37569 c 0.20654,-0.14479 0.48564,-0.22237 0.77497,-0.22477 z m -4.22466,6.55139 h 0.02504 c 0.7137,0.49595 2.18652,1.5326403 2.49978,1.7502403 0.95855,0.6519 2.43498,0.6623 3.39969,0.0248 l 2.5997204,-1.7502403 1.5499,1.0503403 -5.0495404,3.3757 c -0.4242,0.2799 -1.18933,0.2791 -1.59985,0 l -4.89957,-3.4005 z"
  />
</svg>
