<svg
  viewBox="0 0 16 16"
  xmlns="http://www.w3.org/2000/svg"
>
  <path
    d="m 5.4784847,0.80060587 c -0.9901927,0 -1.8907293,0.65720043 -2.1837055,1.59856113 L 2.2765625,2.401557 C 1.0238096,2.401557 1.25e-7,3.4245817 1.25e-7,4.6773346 v 2.7272099 c 0,0.5907839 0.307388995,1.3327849 0.725240495,1.7506249 L 6.0532451,14.483173 c 0.9549767,0.954961 2.52313,0.954961 3.47729,0 l 0.9293609,-0.938161 c 0.869281,0.18096 1.679441,-0.0696 2.272562,-0.6628 l 2.551921,-2.551122 c 0.954161,-0.9549606 0.954161,-2.5223216 0,-3.4772659 L 9.9563761,1.5258464 C 9.5385351,1.1079901 8.7956551,0.80060587 8.2049351,0.80060587 Z m 0,1.60095313 h 2.7264504 c 0.16648,0 0.48272,0.1328881 0.60032,0.2497602 l 5.3536839,5.3536122 c 0.32896,0.32896 0.32896,0.84608 0,1.17512 l -2.576802,2.5767216 c -0.32976,0.32976 -0.846081,0.32976 -1.175921,0 0,0 -4.6851711,-4.6844267 -5.3535716,-5.3528272 C 4.9357724,6.2862817 4.8028843,5.9692895 4.8028843,5.8035934 V 3.0763755 c 0,-0.3682163 0.3065842,-0.6748165 0.6756004,-0.6748165 z M 2.2765625,4.0025201 h 0.9253606 v 1.8010733 c 0,0.5907524 0.3073923,1.3328009 0.7252406,1.7506492 0.6435844,0.6435688 4.8028914,4.8028514 5.1278514,5.1278914 l -0.6748,0.6756 c -0.329761,0.32976 -0.8460889,0.32976 -1.1758812,0 L 1.8507222,8.0049314 C 1.7338501,7.8872504 1.600962,7.5702426 1.600962,7.4045465 V 4.6773366 c 0,-0.3682243 0.3065762,-0.6748165 0.6756005,-0.6748165 z m 4.9277714,0 c -0.4418723,0 -0.8004885,0.3578083 -0.8004885,0.8004726 0,0.4418643 0.3586162,0.8004805 0.8004885,0.8004805 0.4418643,0 0.8004402,-0.3586162 0.8004402,-0.8004805 0,-0.4426643 -0.3585759,-0.8004726 -0.8004402,-0.8004726 z"
  />
</svg>
