<svg
  viewBox="0 0 16 16"
  xmlns="http://www.w3.org/2000/svg"
>
  <path
    d="m 8.9982093,4.4048476 c -0.255667,0 -0.522334,0.085887 -0.718068,0.2806203 L 3.5676768,9.4289195 c -0.2566469,0.257667 -0.5153072,0.209667 -0.7170274,-0.09287 l -0.998621,-1.497935 c -0.3065803,-0.4594 -0.94570769,-0.5872 -1.40407279,-0.2816 -0.4593668,0.3066 -0.5871726,0.945668 -0.2815943,1.404068 L 1.164981,10.458518 c 0.9017609,1.352135 2.6583228,1.523868 3.807744,0.375467 L 9.7162103,6.1214735 c 0.3894667,-0.390461 0.3894667,-1.0455482 0,-1.4360086 C 9.5204763,4.4907343 9.2538093,4.4048476 8.9982093,4.4048476 Z m 5.9916727,0 c -0.2556,0 -0.522267,0.085887 -0.718001,0.2806203 L 9.5594103,9.4289195 c -0.256667,0.257667 -0.515334,0.209667 -0.717001,-0.09287 l -0.437401,-0.656067 -1.466001,1.4669355 0.217733,0.3116 c 0.901735,1.352135 2.658336,1.523868 3.8077377,0.375467 l 4.743471,-4.7125115 c 0.389401,-0.390461 0.389401,-1.0455482 0,-1.4360086 -0.195733,-0.1947336 -0.4624,-0.2806203 -0.718067,-0.2806203 z"
  />
</svg>
