<svg
  viewBox="0 0 16 16"
  xmlns="http://www.w3.org/2000/svg"
>
  <path
    d="M7.57894 1.41013e-08C7.1141 1.41013e-08 6.73684 0.377011 6.73684 0.842105V9.26316H4.21052L7.57894 12.6316L10.9474 9.26316H8.42105V0.842105C8.42105 0.377011 8.04379 -8.41964e-05 7.57894 1.41013e-08ZM0.842105 10.1053C0.37701 10.1053 0 10.4825 0 10.9474V12.6316C0 14.4918 1.50813 16 3.36842 16H11.7895C13.6497 16 15.1579 14.4918 15.1579 12.6316V10.9474C15.1579 10.4825 14.7806 10.1053 14.3158 10.1053C13.8509 10.1053 13.4737 10.4825 13.4737 10.9474V12.6316C13.4737 13.5621 12.72 14.3158 11.7895 14.3158H3.36842C2.43823 14.3158 1.68421 13.5621 1.68421 12.6316V10.9474C1.68421 10.4825 1.3072 10.1053 0.842105 10.1053Z"
  />
</svg>
