<svg
  viewBox="0 0 16 16"
  xmlns="http://www.w3.org/2000/svg"
>
  <path
    d="M4.84959 0C3.28879 0 2 1.184 2 2.6752V13.3248C2 14.816 3.28879 16 4.84959 16H11.9504C13.5112 16 14.8 14.816 14.8 13.3248C14.8 12.804 14.8 7.0864 14.8 5.6C14.8 5.592 14.8 5.5832 14.8 5.5752C14.8 2.7248 12.0488 0 9.19998 0C5.82879 0 5.82079 0 4.84959 0ZM4.84959 1.6C5.64239 1.6 6.53919 1.6 8.39998 1.6V3.7248C8.39998 5.216 9.68877 6.4 11.2496 6.4H13.2C13.2 8.4296 13.2 12.8576 13.2 13.3248C13.2 13.896 12.6608 14.4 11.9504 14.4H4.84959C4.13919 14.4 3.6 13.896 3.6 13.3248V2.6752C3.6 2.104 4.13919 1.6 4.84959 1.6ZM9.99998 1.7C11.4176 2.076 12.7328 3.3864 13.1 4.8H11.2496C10.5384 4.8 9.99998 4.296 9.99998 3.7248V1.7ZM5.99999 4.8C5.55839 4.8 5.19999 5.1584 5.19999 5.6C5.19999 6.0416 5.55839 6.4 5.99999 6.4H6.79999C7.24158 6.4 7.59998 6.0416 7.59998 5.6C7.59998 5.1584 7.24158 4.8 6.79999 4.8H5.99999ZM5.99999 8C5.55839 8 5.19999 8.3584 5.19999 8.8C5.19999 9.2416 5.55839 9.6 5.99999 9.6H10.8C11.2416 9.6 11.6 9.2416 11.6 8.8C11.6 8.3584 11.2416 8 10.8 8H5.99999ZM5.99999 11.2C5.55839 11.2 5.19999 11.5584 5.19999 12C5.19999 12.4416 5.55839 12.8 5.99999 12.8H10.8C11.2416 12.8 11.6 12.4416 11.6 12C11.6 11.5584 11.2416 11.2 10.8 11.2H5.99999Z"
  />
</svg>
