<svg
  viewBox="0 0 24 24"
  xmlns="http://www.w3.org/2000/svg"
>
  <path
    d="M13.4973 7C13.1138 7 12.7138 7.12883 12.4202 7.42093L5.35151 14.5361C4.96654 14.9226 4.57855 14.8506 4.27597 14.3968L2.77804 12.1499C2.31817 11.4608 1.35948 11.2691 0.671933 11.7275C-0.0171164 12.1874 -0.208825 13.146 0.249542 13.8336L1.74747 16.0805C3.10011 18.1087 5.73495 18.3663 7.45908 16.6437L14.5743 9.57494C15.1585 8.98925 15.1585 8.00662 14.5743 7.42093C14.2807 7.12883 13.8807 7 13.4973 7ZM22.4848 7C22.1014 7 21.7014 7.12883 21.4078 7.42093L14.3391 14.5361C13.9541 14.9226 13.5661 14.8506 13.2636 14.3968L12.6075 13.4127L10.4085 15.6131L10.7351 16.0805C12.0877 18.1087 14.7226 18.3663 16.4467 16.6437L23.5619 9.57494C24.146 8.98925 24.146 8.00662 23.5619 7.42093C23.2683 7.12883 22.8683 7 22.4848 7Z"
  />
</svg>
