<svg
  viewBox="0 0 16 16"
  xmlns="http://www.w3.org/2000/svg"
>
  <path
    d="M 4.44959,0 C 2.88879,0 1.6,1.184 1.6,2.6752 V 13.3248 C 1.6,14.816 2.88879,16 4.44959,16 h 7.10081 c 1.5608,0 2.8496,-1.184 2.8496,-2.6752 0,-0.5208 0,-6.2384 0,-7.7248 0,-0.008 0,-0.0168 0,-0.0248 C 14.4,2.7248 11.6488,0 8.79998,0 5.42879,0 5.42079,0 4.44959,0 Z m 0,1.6 c 0.7928,0 1.6896,0 3.55039,0 V 3.7248 C 7.99998,5.216 9.28877,6.4 10.8496,6.4 H 12.8 c 0,2.0296 0,6.4576 0,6.9248 0,0.5712 -0.5392,1.0752 -1.2496,1.0752 H 4.44959 C 3.73919,14.4 3.2,13.896 3.2,13.3248 V 2.6752 C 3.2,2.104 3.73919,1.6 4.44959,1.6 Z M 9.59998,1.7 C 11.0176,2.076 12.3328,3.3864 12.7,4.8 H 10.8496 C 10.1384,4.8 9.59998,4.296 9.59998,3.7248 Z M 5.59999,4.8 c -0.4416,0 -0.8,0.3584 -0.8,0.8 0,0.4416 0.3584,0.8 0.8,0.8 h 0.8 c 0.44159,0 0.79999,-0.3584 0.79999,-0.8 0,-0.4416 -0.3584,-0.8 -0.79999,-0.8 z m 0,3.2 c -0.4416,0 -0.8,0.3584 -0.8,0.8 0,0.4416 0.3584,0.8 0.8,0.8 H 10.4 c 0.4416,0 0.8,-0.3584 0.8,-0.8 C 11.2,8.3584 10.8416,8 10.4,8 Z m 0,3.2 c -0.4416,0 -0.8,0.3584 -0.8,0.8 0,0.4416 0.3584,0.8 0.8,0.8 H 10.4 c 0.4416,0 0.8,-0.3584 0.8,-0.8 0,-0.4416 -0.3584,-0.8 -0.8,-0.8 z"
  />
</svg>
