<svg
  viewBox="0 0 16 16"
  xmlns="http://www.w3.org/2000/svg"
>
  <path
    d="M 2.5245649,0.426278 C 1.1688759,0.426278 0.01178093,1.50932 -6.7157064e-8,2.95086 v 9.256762 c 0,0.93746 0.381211997157064,1.78234 0.999733997157064,2.39328 0.30126397,0.29706 0.65554597,0.5428 1.05191097,0.71026 0.40646,0.17082 0.85666,0.26256 1.31446,0.26256 h 1.68304 5.8906611 c 0.88698,0 1.71672,-0.34082 2.3403,-0.94672 0.33492,-0.32484 0.71866,-1.2808 1.3944,-3.2609 0.05386,-0.159901 1.271541,-3.915621 1.288361,-3.971161 0.16662,-0.5411 -0.24908,-1.078 -0.81544,-1.078 -0.10518,0 -0.661421,0 -0.841521,0 v -0.84152 c 0,-1.394401 -1.13016,-2.524561 -2.52456,-2.524561 h -1.68306 c -0.7110801,0 -0.9029601,-0.15738 -1.3935601,-0.8937 -0.771681,-1.1571 -1.421341,-1.630882 -2.814061,-1.630882 -0.73632,0 -2.62976,0 -3.3661,0 z m 0,1.683042 c 0.73634,0 2.62978,0 3.3661,0 0.7111,0 0.90296,0.15736 1.39358,0.8937 0.77168,1.1571 1.421321,1.63088 2.8140411,1.63088 h 1.68306 c 0.46452,0 0.84152,0.377001 0.84152,0.841521 v 0.84152 c -2.9192401,0 -7.3633411,0 -8.4152411,0 -0.3484,0 -0.66396,0.22638 -0.78936,0.55206 0,0 -0.97448,2.5456 -1.735217,4.523181 V 2.95086 c 0.0042,-0.48556 0.387097,-0.84154 0.841517,-0.84154 z m 2.26202,5.890681 c 1.62752,0 9.2306811,-0.0034 9.2306811,-0.0034 l -1.4062,4.216861 c 0,0 -0.3349,0.93072 -0.50236,1.18318 -0.2045,0.308 -0.72456,0.49398 -1.1689,0.49398 H 3.3661049 c -0.27266,0 -0.52344,-0.05722 -0.75654,-0.17756 1.69398,-4.423041 2.16272,-5.676921 2.17702,-5.713101 z"
  />
</svg>
