<svg
  viewBox="0 0 16 16"
  xmlns="http://www.w3.org/2000/svg"
>
  <path
    d="m 3.2,1.60002 c -0.32,0 -0.5992,0.180794 -0.7248,0.4752 -0.3,0.7 -2.100004,4.89998 -2.400005,5.59998 C 0.025595,7.7896 0,8 0,8 c 0,0 0,2.75838 0,3.19998 0,1.7672 1.4328,3.2 3.2,3.2 h 9.6 c 1.7672,0 3.2,-1.4328 3.2,-3.2 C 16,11.01998 16,8 16,8 16,8 15.9744,7.7896 15.9248,7.6752 l -2.4,-5.59998 C 13.3992,1.780814 13.12,1.60002 12.8,1.60002 Z m 0.5248,1.6 h 8.5504 L 14,7.2 H 10.4 C 9.9584,7.2 9.6,7.5584 9.6,8 9.6,8.884 8.884,9.59998 8,9.59998 7.116,9.59998 6.4,8.884 6.4,8 6.4,7.5584 6.0416,7.2 5.6,7.2 H 2 C 2.5584,5.8976 3.344,4.08802 3.7248,3.20002 Z M 1.6,8.8 h 3.3 c 0.3608,1.37198 1.6144,2.39998 3.1,2.39998 1.4856,0 2.7144,-1.00318 3.0752,-2.37518 L 14.4,8.8 c 0,0.79678 0,2.06878 0,2.39998 0,0.884 -0.716,1.6 -1.6,1.6 H 3.2 c -0.884,0 -1.6,-0.716 -1.6,-1.6 0,-0.1496 0,-1.5464 0,-2.39998 z"
  />
</svg>
