<svg
  viewBox="0 0 16 16"
  xmlns="http://www.w3.org/2000/svg"
>
  <path
    d="m 8,1.5908579 c -2.37028,0 -4.36727,1.16473 -6.00781,3.07921 -0.56073,0.65445 -1.052574,1.35374 -1.451492,2.05225 -0.241914,0.42215 -0.389301,0.74979 -0.4758137,0.95165 -0.0865124,0.20106 -0.0865124,0.44937 0,0.65043 0.0865127,0.20186 0.2338997,0.5287 0.4758137,0.95165 0.398918,0.6985 0.890762,1.3977901 1.451492,2.0522401 0.24112,0.28117 0.50305,0.56077 0.76178,0.80747 l -0.89796,0.8907 c -0.31241,0.3124 -0.32923,0.8275 -0.01682,1.1399 0.3132,0.3132 0.81626,0.3285 1.12947,0.016 l 3.90507,-3.93066 3.40447,-3.3787701 3.905,-3.90506 c 0.3124,-0.31321 0.3124,-0.838707 0,-1.151913 -0.1562,-0.156203 -0.3708,-0.225097 -0.5759,-0.225097 -0.2051,0 -0.4181,0.098547 -0.5752,0.254749 l -1.0037,1.017311 C 10.8325,2.0666849 9.44027,1.5908579 8,1.5908579 Z m 0,1.60208 c 1.0005,0 1.98898,0.3028 2.8581,0.82348 l -1.21197,1.22959 c -0.47902,-0.27635 -1.07579,-0.451 -1.64613,-0.451 -1.7695,0 -3.20416,1.43467 -3.20416,3.20416 0,0.57434 0.18824,1.15671 0.4654,1.63493 L 3.87623,10.991868 c -0.2363,-0.22269 -0.467,-0.4638 -0.68248,-0.71453 C 2.70352,9.7053979 2.29418,9.0901979 1.94252,8.4750079 1.81836,8.2579279 1.7647,8.1457579 1.6918,7.9991679 c 0.0729,-0.14739 0.12656,-0.25873 0.25072,-0.47581 0.35166,-0.6152 0.761,-1.2304 1.25123,-1.80234 C 4.55713,4.1309579 6.16482,3.1929379 8,3.1929379 Z m 6.3587,2.27817 c -0.2019,-0.03845 -0.4182,-2e-5 -0.6008,0.12494 -0.3661,0.24913 -0.4502,0.73616 -0.2003,1.10143 0.2716,0.39892 0.5071,0.80827 0.7009,1.17675 0.0305,0.05767 0.0249,0.07608 0.0497,0.12494 -0.0729,0.14659 -0.1266,0.25876 -0.2499,0.47584 -0.3525,0.61519 -0.7618,1.23039 -1.2521,1.8023301 -1.3633,1.59002 -2.97102,2.52802 -4.8062,2.52802 -0.19866,0 -0.62001,-0.0392 -1.02614,-0.1001 -0.43737,-0.0657 -0.83548,0.2379 -0.90117,0.6761 -0.06568,0.4374 0.23791,0.8355 0.67607,0.9012 0.48544,0.0729 0.94604,0.1249 1.25124,0.1249 2.3703,0 4.3673,-1.1647 6.0078,-3.07917 0.5615,-0.65445 1.0526,-1.3537401 1.4523,-2.0522401 0.2411,-0.42295 0.3885,-0.74979 0.475,-0.95165 0.0865,-0.20106 0.0865,-0.44937 0,-0.65043 -0.1842,-0.43096 -0.5223,-1.10145 -1.051,-1.87766 -0.1249,-0.18263 -0.3244,-0.28755 -0.5254,-0.3252 z M 8,6.3970879 c 0.12336,0 0.32121,0.02645 0.43736,0.05369 l -1.97376,1.96333 c -0.06488,-0.17783 -0.06568,-0.29238 -0.06568,-0.41494 0,-0.88515 0.71773,-1.60208 1.60208,-1.60208 z"
  />
</svg>
