<svg
  viewBox="0 0 16 13"
  xmlns="http://www.w3.org/2000/svg"
>
  <path
    d="M8 0C5.62972 0 3.63273 1.16471 1.99219 3.07919C1.43066 3.73364 0.939623 4.43295 0.539903 5.13146C0.29879 5.55441 0.151397 5.88122 0.0648843 6.08308C-0.0216281 6.28414 -0.0216281 6.53247 0.0648843 6.73354C0.151397 6.9354 0.29879 7.26221 0.539903 7.68516C0.939623 8.38367 1.43066 9.08298 1.99219 9.73743C3.63273 11.6519 5.62972 12.8166 8 12.8166C10.3703 12.8166 12.3673 11.6519 14.0078 9.73743C14.5685 9.08298 15.0604 8.38367 15.4593 7.68516C15.7012 7.26221 15.8486 6.9354 15.9351 6.73354C16.0216 6.53247 16.0216 6.28414 15.9351 6.08308C15.8486 5.88122 15.7012 5.55441 15.4593 5.13146C15.0604 4.43295 14.5685 3.73364 14.0078 3.07919C12.3673 1.16471 10.3703 0 8 0ZM8 1.60208C9.83518 1.60208 11.4429 2.5401 12.8062 4.13016C13.2965 4.7021 13.7058 5.3173 14.0575 5.9325C14.1816 6.14958 14.2353 6.26172 14.3082 6.40831C14.2353 6.5549 14.1816 6.66704 14.0575 6.88412C13.7058 7.49932 13.2965 8.11452 12.8062 8.68646C11.4429 10.2765 9.83518 11.2145 8 11.2145C6.16482 11.2145 4.55713 10.2765 3.19375 8.68646C2.70352 8.11452 2.29418 7.49932 1.94172 6.88412C1.81836 6.66704 1.7647 6.5549 1.6918 6.40831C1.7647 6.26172 1.81836 6.14958 1.94172 5.9325C2.29418 5.3173 2.70352 4.7021 3.19375 4.13016C4.55713 2.5401 6.16482 1.60208 8 1.60208ZM8 3.20415C6.2305 3.20415 4.79584 4.63881 4.79584 6.40831C4.79584 8.1778 6.2305 9.61246 8 9.61246C9.7695 9.61246 11.2042 8.1778 11.2042 6.40831C11.2042 5.96614 10.8453 5.60727 10.4031 5.60727C9.96095 5.60727 9.60208 5.96614 9.60208 6.40831C9.60208 7.29346 8.88435 8.01039 8 8.01039C7.11485 8.01039 6.39792 7.29346 6.39792 6.40831C6.39792 5.52316 7.11485 4.80623 8 4.80623C8.19625 4.80623 8.39731 4.83907 8.57594 4.90636C8.98928 5.06256 9.44588 4.84469 9.60208 4.43055C9.75828 4.01721 9.54041 3.56062 9.12627 3.40441C8.7674 3.26904 8.39011 3.20415 8 3.20415Z"
  />
</svg>
