<svg
  viewBox="0 0 80 80"
  xmlns="http://www.w3.org/2000/svg"
>
  <path
    d="M16 8C14.4 8 13.004 8.90397 12.376 10.376C10.876 13.876 1.87598 34.8759 0.375977 38.3759C0.127977 38.9479 0 39.9999 0 39.9999C0 39.9999 0 53.7918 0 55.9998C0 64.8358 7.164 71.9998 16 71.9998H64C72.836 71.9998 80 64.8358 80 55.9998C80 55.0998 80 39.9999 80 39.9999C80 39.9999 79.872 38.9479 79.624 38.3759L67.624 10.376C66.996 8.90397 65.6 8 64 8H16ZM18.624 16H61.376L70 35.9999H52C49.792 35.9999 48 37.7919 48 39.9999C48 44.4199 44.42 47.9998 40 47.9998C35.58 47.9998 32 44.4199 32 39.9999C32 37.7919 30.208 35.9999 28 35.9999H10C12.792 29.4879 16.72 20.44 18.624 16ZM8 43.9999H24.5C26.304 50.8598 32.572 55.9998 40 55.9998C47.428 55.9998 53.572 50.9839 55.376 44.1239L72 43.9999C72 47.9838 72 54.3438 72 55.9998C72 60.4198 68.42 63.9998 64 63.9998H16C11.58 63.9998 8 60.4198 8 55.9998C8 55.2518 8 48.2678 8 43.9999Z"
  />
</svg>
