<svg
  viewBox="0 0 16 13"
  xmlns="http://www.w3.org/2000/svg"
>
  <path
    d="M8 0C5.62972 0 3.63273 1.16473 1.99219 3.07921C1.43146 3.73366 0.939616 4.43295 0.540698 5.13146C0.298784 5.55361 0.151397 5.88125 0.0648843 6.08311C-0.0216281 6.28417 -0.0216281 6.53248 0.0648843 6.73354C0.151397 6.9354 0.298784 7.26224 0.540698 7.68519C0.939616 8.38369 1.43146 9.08298 1.99219 9.73743C2.23331 10.0186 2.49524 10.2982 2.75397 10.5449L1.85601 11.4356C1.5436 11.748 1.52678 12.2631 1.83919 12.5755C2.15239 12.8887 2.65545 12.904 2.96866 12.5915L6.87373 8.66084L10.2782 5.28207L14.1832 1.37701C14.4956 1.0638 14.4956 0.538303 14.1832 0.225097C14.027 0.068894 13.8124 0 13.6073 0C13.4022 0 13.1892 0.0985467 13.0321 0.254749L12.0284 1.27206C10.8325 0.475827 9.44027 0 8 0ZM8 1.60208C9.0005 1.60208 9.98898 1.90488 10.8581 2.42556L9.64613 3.65515C9.16711 3.3788 8.57034 3.20415 8 3.20415C6.2305 3.20415 4.79584 4.63882 4.79584 6.40831C4.79584 6.98265 4.98408 7.56502 5.26124 8.04324L3.87623 9.40101C3.63993 9.17832 3.40923 8.93721 3.19375 8.68648C2.70352 8.11454 2.29418 7.49934 1.94252 6.88415C1.81836 6.66707 1.7647 6.5549 1.6918 6.40831C1.7647 6.26092 1.81836 6.14958 1.94252 5.9325C2.29418 5.3173 2.70352 4.7021 3.19375 4.13016C4.55713 2.5401 6.16482 1.60208 8 1.60208ZM14.3587 3.88025C14.1568 3.8418 13.9405 3.88023 13.7579 4.00519C13.3918 4.25432 13.3077 4.74135 13.5576 5.10662C13.8292 5.50554 14.0647 5.91489 14.2585 6.28337C14.289 6.34104 14.2834 6.35945 14.3082 6.40831C14.2353 6.5549 14.1816 6.66707 14.0583 6.88415C13.7058 7.49934 13.2965 8.11454 12.8062 8.68648C11.4429 10.2765 9.83518 11.2145 8 11.2145C7.80134 11.2145 7.37999 11.1753 6.97386 11.1144C6.53649 11.0487 6.13838 11.3523 6.07269 11.7905C6.00701 12.2279 6.3106 12.626 6.74876 12.6917C7.2342 12.7646 7.6948 12.8166 8 12.8166C10.3703 12.8166 12.3673 11.6519 14.0078 9.73743C14.5693 9.08298 15.0604 8.38369 15.4601 7.68519C15.7012 7.26224 15.8486 6.9354 15.9351 6.73354C16.0216 6.53248 16.0216 6.28417 15.9351 6.08311C15.7509 5.65215 15.4128 4.98166 14.8841 4.20545C14.7592 4.02282 14.5597 3.9179 14.3587 3.88025ZM8 4.80623C8.12336 4.80623 8.32121 4.83268 8.43736 4.85992L6.4636 6.82325C6.39872 6.64542 6.39792 6.53087 6.39792 6.40831C6.39792 5.52316 7.11565 4.80623 8 4.80623Z"
  />
</svg>
