<svg
  viewBox="0 0 16 16"
  xmlns="http://www.w3.org/2000/svg"
>
  <path
    d="M 8,1.5917 C 5.62972,1.5917 3.63273,2.75641 1.99219,4.67089 1.43066,5.32534 0.939623,6.02465 0.539903,6.72316 0.29879,7.14611 0.151397,7.47292 0.0648843,7.67478 c -0.0865124,0.20106 -0.0865124,0.44939 0,0.65046 C 0.151397,8.5271 0.29879,8.85391 0.539903,9.27686 0.939623,9.97537 1.43066,10.67468 1.99219,11.32913 3.63273,13.2436 5.62972,14.4083 8,14.4083 c 2.3703,0 4.3673,-1.1647 6.0078,-3.07917 0.5607,-0.65445 1.0526,-1.35376 1.4515,-2.05227 0.2419,-0.42295 0.3893,-0.74976 0.4758,-0.95162 0.0865,-0.20107 0.0865,-0.4494 0,-0.65046 C 15.8486,7.47292 15.7012,7.14611 15.4593,6.72316 15.0604,6.02465 14.5685,5.32534 14.0078,4.67089 12.3673,2.75641 10.3703,1.5917 8,1.5917 Z m 0,1.60208 c 1.83518,0 3.4429,0.93802 4.8062,2.52808 0.4903,0.57194 0.8996,1.18714 1.2513,1.80234 0.1241,0.21708 0.1778,0.32922 0.2507,0.47581 -0.0729,0.14659 -0.1266,0.25873 -0.2507,0.47581 -0.3517,0.6152 -0.761,1.2304 -1.2513,1.80234 C 11.4429,11.8682 9.83518,12.8062 8,12.8062 6.16482,12.8062 4.55713,11.8682 3.19375,10.27816 2.70352,9.70622 2.29418,9.09102 1.94172,8.47582 1.81836,8.25874 1.7647,8.1466 1.6918,8.00001 1.7647,7.85342 1.81836,7.74128 1.94172,7.5242 2.29418,6.909 2.70352,6.2938 3.19375,5.72186 4.55713,4.1318 6.16482,3.19378 8,3.19378 Z m 0,1.60207 c -1.7695,0 -3.20416,1.43466 -3.20416,3.20416 0,1.76949 1.43466,3.20415 3.20416,3.20415 1.7695,0 3.2042,-1.43466 3.2042,-3.20415 0,-0.44217 -0.3589,-0.80104 -0.8011,-0.80104 -0.44215,0 -0.80102,0.35887 -0.80102,0.80104 0,0.88515 -0.71773,1.60208 -1.60208,1.60208 -0.88515,0 -1.60208,-0.71693 -1.60208,-1.60208 0,-0.88515 0.71693,-1.60208 1.60208,-1.60208 0.19625,0 0.39731,0.03284 0.57594,0.10013 C 8.98928,6.65426 9.44588,6.43639 9.60208,6.02225 9.75828,5.60891 9.54041,5.15232 9.12627,4.99611 8.7674,4.86074 8.39011,4.79585 8,4.79585 Z"
  />
</svg>
