<svg
  viewBox="0 0 16 16"
  xmlns="http://www.w3.org/2000/svg"
>
  <path
    d="M1.62986 1.31837L10.8361 0.00371085C10.8881 -0.0037425 10.941 6.03864e-05 10.9914 0.0148618C11.0418 0.0296631 11.0883 0.0551171 11.128 0.0894986C11.1677 0.12388 11.1995 0.166386 11.2213 0.214135C11.2431 0.261884 11.2543 0.31376 11.2543 0.366249V15.6339C11.2543 15.6863 11.2431 15.7381 11.2213 15.7858C11.1996 15.8335 11.1678 15.8759 11.1282 15.9103C11.0887 15.9447 11.0422 15.9701 10.9919 15.985C10.9416 15.9998 10.8888 16.0037 10.8369 15.9964L1.62913 14.6817C1.45454 14.6569 1.29479 14.5698 1.17921 14.4366C1.06363 14.3034 1 14.133 1 13.9567V2.04344C1 1.86709 1.06363 1.69666 1.17921 1.56346C1.29479 1.43026 1.45527 1.34323 1.62986 1.31837ZM2.46553 2.67917V13.3209L9.78953 14.3675V1.63257L2.46553 2.67917ZM11.9867 13.1269H14.1839V2.87325H11.9867V1.40845H14.9163C15.1106 1.40845 15.2969 1.48562 15.4342 1.62297C15.5716 1.76032 15.6487 1.94661 15.6487 2.14085V13.8593C15.6487 14.0535 15.5716 14.2398 15.4342 14.3771C15.2969 14.5145 15.1106 14.5917 14.9163 14.5917H11.9867V13.1269ZM7.00641 8.00005L9.05713 10.9297H7.29937L6.12753 9.25539L4.95569 10.9297H3.19793L5.24865 8.00005L3.19793 5.07045H4.95569L6.12753 6.74472L7.29937 5.07045H9.05713L7.00641 8.00005Z"
  />
</svg>
