<svg
  viewBox="0 0 16 16"
  xmlns="http://www.w3.org/2000/svg"
>
  <path
    d="m 1.30551,1.3183805 9.20624,-1.31465914 c 0.052,-0.00745335 0.1049,-0.0036504636 0.1553,0.01115095 0.0504,0.0148013 0.0969,0.0402553 0.1366,0.0746368 0.0397,0.0343814 0.0715,0.0768874 0.0933,0.1246364 0.0218,0.047749 0.033,0.099625 0.033,0.152114 V 15.633911 c 0,0.0524 -0.0112,0.1042 -0.033,0.1519 -0.0217,0.0477 -0.0535,0.0901 -0.0931,0.1245 -0.0395,0.0344 -0.086,0.0598 -0.1363,0.0747 -0.0503,0.0148 -0.1031,0.0187 -0.155,0.0114 l -9.20777,-1.3147 c -0.17459,-0.0248 -0.33434,-0.1119 -0.44992,-0.2451 -0.11558,-0.1332 -0.17921,-0.3036 -0.17921,-0.4799 V 2.0434505 c 0,-0.17635 0.06363,-0.34678 0.17921,-0.47998 0.11558,-0.1332 0.27606,-0.22023 0.45065,-0.24509 z m 0.83567,1.3608 V 13.320911 l 7.324,1.0466 V 1.6325805 Z m 9.52117,10.4477305 h 2.1972 V 2.8732605 h -2.1972 v -1.4648 h 2.9296 c 0.1943,0 0.3806,0.07717 0.5179,0.21452 0.1374,0.13735 0.2145,0.32364 0.2145,0.51788 V 13.859311 c 0,0.1942 -0.0771,0.3805 -0.2145,0.5178 -0.1373,0.1374 -0.3236,0.2146 -0.5179,0.2146 h -2.9296 z M 6.68206,8.0000605 8.73278,10.929711 H 6.97502 L 5.80318,9.2554005 4.63134,10.929711 H 2.87358 L 4.9243,8.0000605 2.87358,5.0704605 h 1.75776 l 1.17184,1.67427 1.17184,-1.67427 h 1.75776 z"
  />
</svg>
