<svg
  viewBox="0 0 80 80"
  xmlns="http://www.w3.org/2000/svg"
>
  <path
    d="M12.6227 1.99999C5.84426 1.99999 0.0587846 7.4152 -0.00012207 14.6229V60.9067C-0.00012207 65.594 1.90594 69.8184 4.99855 72.8731C6.50487 74.3584 8.27628 75.5871 10.2581 76.4244C12.2904 77.2785 14.5414 77.7372 16.8304 77.7372H25.2456H54.6989C59.1338 77.7372 63.2825 76.0331 66.4004 73.0036C68.075 71.3794 69.9937 66.5996 73.3724 56.6991C73.6417 55.8996 79.7301 37.121 79.8142 36.8433C80.6473 34.1378 78.5688 31.4533 75.737 31.4533C75.2111 31.4533 72.4299 31.4533 71.5294 31.4533V27.2457C71.5294 20.2737 65.8786 14.6229 58.9066 14.6229H50.4913C46.9359 14.6229 45.9765 13.836 43.5235 10.1544C39.6651 4.3689 36.4168 1.99999 29.4532 1.99999C25.7716 1.99999 16.3044 1.99999 12.6227 1.99999ZM12.6227 10.4152C16.3044 10.4152 25.7716 10.4152 29.4532 10.4152C33.0087 10.4152 33.968 11.202 36.4211 14.8837C40.2795 20.6692 43.5277 23.0381 50.4913 23.0381H58.9066C61.2292 23.0381 63.1142 24.9231 63.1142 27.2457V31.4533C48.518 31.4533 26.2975 31.4533 21.038 31.4533C19.296 31.4533 17.7182 32.5852 17.0912 34.2136C17.0912 34.2136 12.2188 46.9416 8.41512 56.8295V14.6229C8.43616 12.1951 10.3506 10.4152 12.6227 10.4152ZM23.9328 39.8686C32.0704 39.8686 70.0862 39.8518 70.0862 39.8518L63.0552 60.9361C63.0552 60.9361 61.3807 65.5897 60.5434 66.852C59.5209 68.392 56.9206 69.3219 54.6989 69.3219H16.8304C15.4671 69.3219 14.2132 69.0358 13.0477 68.4341C21.5176 46.3189 23.8613 40.0495 23.9328 39.8686Z"
  />
</svg>
