<svg
  viewBox="0 0 120 120"
  xmlns="http://www.w3.org/2000/svg"
>
  <path
    d="M26.6667 0C11.94 0 0 11.94 0 26.6667V46.6667C0 50.3467 2.98667 53.3333 6.66667 53.3333C10.3467 53.3333 13.3333 50.3467 13.3333 46.6667V26.6667C13.3333 19.3 19.3 13.3333 26.6667 13.3333H46.6667C50.3467 13.3333 53.3333 10.3467 53.3333 6.66667C53.3333 2.98667 50.3467 0 46.6667 0H26.6667ZM73.3333 0C69.6533 0 66.6667 2.98667 66.6667 6.66667C66.6667 10.3467 69.6533 13.3333 73.3333 13.3333H93.3333C100.7 13.3333 106.667 19.3 106.667 26.6667V46.6667C106.667 50.3467 109.653 53.3333 113.333 53.3333C117.013 53.3333 120 50.3467 120 46.6667V26.6667C120 11.94 108.06 0 93.3333 0H73.3333ZM6.66667 66.6667C2.98667 66.6667 0 69.6533 0 73.3333V93.3333C0 108.06 11.94 120 26.6667 120H46.6667C50.3467 120 53.3333 117.013 53.3333 113.333C53.3333 109.653 50.3467 106.667 46.6667 106.667H26.6667C19.3 106.667 13.3333 100.7 13.3333 93.3333V73.3333C13.3333 69.6533 10.3467 66.6667 6.66667 66.6667ZM113.333 66.6667C109.653 66.6667 106.667 69.6533 106.667 73.3333V93.3333C106.667 100.7 100.7 106.667 93.3333 106.667H73.3333C69.6533 106.667 66.6667 109.653 66.6667 113.333C66.6667 117.013 69.6533 120 73.3333 120H93.3333C108.06 120 120 108.06 120 93.3333V73.3333C120 69.6533 117.013 66.6667 113.333 66.6667Z"
  />
</svg>
