<svg
  viewBox="0 0 16 16"
  xmlns="http://www.w3.org/2000/svg"
>
  <path
    d="M 3.55556,0 C 1.592,0 0,1.592 0,3.55556 v 2.666667 c 0,0.490666 0.398223,0.88888 0.888889,0.88888 0.490671,0 0.888884,-0.398214 0.888884,-0.88888 V 3.55556 c 0,-0.982227 0.79556,-1.777787 1.777787,-1.777787 h 2.666667 c 0.490666,0 0.88888,-0.398213 0.88888,-0.888884 C 7.111107,0.398223 6.712893,0 6.222227,0 Z m 6.222213,0 c -0.490666,0 -0.88888,0.398223 -0.88888,0.888889 0,0.490671 0.398214,0.888884 0.88888,0.888884 h 2.666667 c 0.982227,0 1.777827,0.79556 1.777827,1.777787 v 2.666667 c 0,0.490666 0.398133,0.88888 0.8888,0.88888 C 15.601733,7.111107 16,6.712893 16,6.222227 V 3.55556 C 16,1.592 14.408,0 12.44444,0 Z M 0.888889,8.888893 C 0.398223,8.888893 0,9.287107 0,9.777773 V 12.44444 C 0,14.408 1.592,16 3.55556,16 h 2.666667 c 0.490666,0 0.88888,-0.398267 0.88888,-0.888933 0,-0.490667 -0.398214,-0.8888 -0.88888,-0.8888 H 3.55556 c -0.982227,0 -1.777787,-0.7956 -1.777787,-1.777827 V 9.777773 c 0,-0.490666 -0.398213,-0.88888 -0.888884,-0.88888 z m 14.222178,0 c -0.490667,0 -0.8888,0.398214 -0.8888,0.88888 v 2.666667 c 0,0.982227 -0.7956,1.777827 -1.777827,1.777827 H 9.777773 c -0.490666,0 -0.88888,0.398133 -0.88888,0.8888 C 8.888893,15.601733 9.287107,16 9.777773,16 H 12.44444 C 14.408,16 16,14.408 16,12.44444 V 9.777773 c 0,-0.490666 -0.398267,-0.88888 -0.888933,-0.88888 z"
  />
</svg>
