<svg
  viewBox="0 0 16 16"
  xmlns="http://www.w3.org/2000/svg"
>
  <path
    d="M 9.2688159,-2.2535467e-8 C 9.6444532,9.5977464e-5 10.008091,0.13235198 10.295984,0.37359998 l 0.104,0.0952 L 13.931184,4 c 0.2656,0.2656214 0.429333,0.616224 0.4624,0.9904 l 0.0064,0.1408 V 14.4 c 2.13e-4,0.403627 -0.15232,0.792427 -0.426773,1.088427 -0.274454,0.296 -0.650667,0.477333 -1.053227,0.507626 L 12.799984,16 H 3.2000159 C 2.7963573,16.000107 2.4075679,15.84768 2.1115786,15.573227 1.8155893,15.298773 1.6342879,14.92256 1.6040159,14.52 l -0.004,-0.12 V 1.6 C 1.5998879,1.1963414 1.7523466,0.80755201 2.0268106,0.51156265 2.3012853,0.21557331 2.6774879,0.03427198 3.0800159,0.00399998 L 3.2000159,-2.25355e-8 Z M 8.0000159,1.6 h -4.8 v 12.8 h 9.5999681 v -8 H 9.2000159 C 8.9017119,6.3999893 8.6141066,6.288864 8.3932852,6.0883093 8.1724639,5.887744 8.0342559,5.612128 8.0056159,5.3152 L 8.0000159,5.2 Z m 0.7904,6.2784 c 0.1917227,1.218368 0.8288746,2.32224 1.7880211,3.0976 0.709547,0.573653 0.0608,1.696747 -0.7904211,1.3696 -1.1508587,-0.44288 -2.4251413,-0.44288 -3.576,0 -0.852,0.328 -1.5008,-0.795947 -0.7912,-1.3696 0.9591893,-0.77536 1.596352,-1.8792107 1.788,-3.0976 0.1424,-0.9016 1.44,-0.9008 1.5816,0 z m -0.792,1.8432 -0.5504,0.9568 h 1.104 z m 1.6016,-7.7904 V 4.8 h 2.8687681 z"
  />
</svg>
