<svg
  viewBox="0 0 16 14"
  xmlns="http://www.w3.org/2000/svg"
>
  <path
    d="M15.2 0.333415C15.6416 0.333415 16 0.691794 16 1.13337V12.3327C16 12.7743 15.6416 13.1327 15.2 13.1327C14.7585 13.1327 14.4001 12.7743 14.4001 12.3327V8.18256L10.0508 12.5327C10.0508 12.5327 9.93076 12.6727 9.82516 12.7575C9.55158 12.9799 9.1924 13.1303 8.80043 13.1327C7.93088 13.1383 7.20692 12.4247 7.20052 11.5327C7.19972 11.4416 7.20052 9.67687 7.20052 8.18256L2.85078 12.5327C2.85078 12.5327 2.73087 12.6727 2.62584 12.7575C2.35217 12.9799 1.99283 13.1303 1.60085 13.1327C0.731226 13.1383 0.00750893 12.4247 0.000949314 11.5327C-0.000970572 11.272 0.000549338 2.14851 0.000949314 1.93332C-0.0088901 1.05417 0.707307 0.341415 1.60085 0.333415C1.94387 0.330215 2.24522 0.434205 2.5008 0.608594C2.61655 0.686989 2.70607 0.75739 2.77583 0.833385L7.20052 5.28273C7.20052 3.79322 7.20052 2.00852 7.20052 1.93332C7.19092 1.05417 7.90688 0.341415 8.80043 0.333415C9.14361 0.330215 9.44519 0.434205 9.70037 0.608594C9.81637 0.686989 9.90596 0.75739 9.97556 0.833385L14.4001 5.28273V1.13337C14.4001 0.691794 14.7585 0.333415 15.2 0.333415ZM8.80043 1.93332V11.5327L13.6001 6.73303L8.80043 1.93332ZM1.60085 1.93332V11.5327L6.40057 6.73303L1.60085 1.93332Z"
  />
</svg>
