<svg
  viewBox="0 0 16 16"
  xmlns="http://www.w3.org/2000/svg"
>
  <path
    d="M 3.6248312,2.3496635e-7 C 2.5024391,2.3496635e-7 1.60004,0.90239303 1.60004,2.0239784 v 0.024807 c 0,1.217592 0.6007928,2.174371 2.0999846,3.6727561 -0.0952,-0.0952 0.3175996,0.2879995 0.4247994,0.3999995 0.1719998,0.1776 0.3079864,0.368006 0.4503862,0.549606 0.6519993,0.833599 1.0247989,1.760798 1.0247989,2.923197 0,0.735132 0,4.572728 0,5.596727 0,0.658399 0.7471926,1.044799 1.2751859,0.649599 0.399972,-0.299999 2.79997,-2.099197 3.199969,-2.399197 0.2016,-0.1504 0.3248,-0.3976 0.3248,-0.649599 0,-0.0992 0,-1.598399 0,-3.19753 0,-1.161599 0.3736,-2.089598 1.024799,-2.923197 0.1424,-0.1824 0.2784,-0.371206 0.4504,-0.549606 0.107199,-0.112 0.520799,-0.4959994 0.424799,-0.3999995 C 13.79996,4.2223561 14.39996,3.2671771 14.39996,2.0487851 V 2.0239781 C 14.39996,0.90239273 13.497561,-6.5033651e-8 12.375162,-6.5033651e-8 Z m 0,1.59917866503365 h 8.7503308 c 0.2384,0 0.4248,0.1864065 0.4248,0.4247995 v 0.024807 c 0,0.6687926 -0.404,1.3279786 -1.624799,2.5487706 0.1104,-0.1103999 -0.326399,0.2959997 -0.450399,0.4247996 -0.2072,0.2151997 -0.396,0.4199928 -0.5744,0.6495926 C 9.2911649,6.770347 8.7999659,8.048745 8.7999659,9.594344 c 0,1.399132 0,2.42233 0,2.79833 -0.384,0.288 -0.920799,0.690399 -1.599998,1.199199 0,-1.535199 0,-3.471997 0,-3.997529 0,-1.546399 -0.491173,-2.823997 -1.3503657,-3.9223958 C 5.6712024,5.4431481 5.4824026,5.237555 5.2752095,5.0223553 5.1512096,4.8935554 4.7152234,4.4879558 4.8248166,4.5975557 3.6040312,3.3775637 3.200025,2.7167777 3.200025,2.0487851 v -0.024807 c 0,-0.238393 0.1864066,-0.4247995 0.4248062,-0.4247992 z"
  />
</svg>
