<svg
  viewBox="0 0 16 16"
  xmlns="http://www.w3.org/2000/svg"
>
  <path
    d="M9.18953 1C9.54169 1.00009 9.8826 1.12408 10.1525 1.35025L10.25 1.4395L13.5605 4.75C13.8095 4.99902 13.963 5.32771 13.994 5.6785L14 5.8105V14.5C14.0002 14.8784 13.8572 15.2429 13.5999 15.5204C13.3426 15.7979 12.9899 15.9679 12.6125 15.9963L12.5 16H3.50003C3.1216 16.0001 2.75711 15.8572 2.47962 15.5999C2.20213 15.3426 2.03216 14.9899 2.00378 14.6125L2.00003 14.5V2.5C1.99991 2.12157 2.14284 1.75708 2.40015 1.47959C2.65747 1.2021 3.01016 1.03213 3.38753 1.00375L3.50003 1H9.18953ZM8.00003 2.5H3.50003V14.5H12.5V7H9.12503C8.84537 6.99999 8.57574 6.89581 8.36872 6.70779C8.1617 6.51976 8.03213 6.26137 8.00528 5.983L8.00003 5.875V2.5ZM8.74103 8.386C8.92077 9.52822 9.5181 10.5631 10.4173 11.29C11.0825 11.8278 10.4743 12.8807 9.67628 12.574C8.59735 12.1588 7.40271 12.1588 6.32378 12.574C5.52503 12.8815 4.91678 11.8278 5.58203 11.29C6.48127 10.5631 7.07861 9.52824 7.25828 8.386C7.39178 7.54075 8.60828 7.5415 8.74103 8.386ZM7.99853 10.114L7.48253 11.011H8.51753L7.99853 10.114ZM9.50003 2.8105V5.5H12.1895L9.50003 2.8105Z"
  />
</svg>
