<svg
  viewBox="0 0 16 16"
  xmlns="http://www.w3.org/2000/svg"
>
  <path
    d="m 15.2,1.600377 c 0.4416,0 0.8,0.358379 0.8,0.799955 v 11.19933 c 0,0.4416 -0.3584,0.8 -0.8,0.8 -0.4415,0 -0.7999,-0.3584 -0.7999,-0.8 v -4.15014 l -4.3493,4.35014 c 0,0 -0.12004,0.14 -0.22564,0.2248 -0.27358,0.2224 -0.63276,0.3728 -1.02473,0.3752 -0.86955,0.0056 -1.59351,-0.708 -1.59991,-1.6 -8e-4,-0.0911 0,-1.85583 0,-3.35014 l -4.34974,4.35014 c 0,0 -0.11991,0.14 -0.22494,0.2248 -0.27367,0.2224 -0.63301,0.3728 -1.02499,0.3752 -0.869624,0.0056 -1.59334107,-0.708 -1.599900686,-1.6 -0.001919886,-0.2607 -3.99976e-4,-9.38419 0,-9.59938 C -0.0088901,2.321132 0.707307,1.608377 1.60085,1.600377 1.94387,1.597177 2.24522,1.701167 2.5008,1.875556 2.61655,1.953951 2.70607,2.024352 2.77583,2.100347 l 4.42469,4.449345 c 0,-1.48951 0,-3.27421 0,-3.34941 -0.0096,-0.87915 0.70636,-1.591905 1.59991,-1.599905 0.34318,-0.0032 0.64476,0.10079 0.89994,0.275179 0.116,0.078395 0.20559,0.148796 0.27519,0.224791 l 4.42454,4.449345 v -4.14936 c 0,-0.441576 0.3584,-0.799955 0.7999,-0.799955 z M 8.80043,3.200282 v 9.59938 l 4.79967,-4.79967 z m -7.19958,0 v 9.59938 l 4.79972,-4.79967 z"
  />
</svg>
