<svg
  viewBox="0 0 24 24"
  xmlns="http://www.w3.org/2000/svg"
>
  <path
    d="M5.03719 -3.05176e-05C3.3536 -3.05176e-05 2 1.35356 2 3.03594V3.07315C2 4.89954 2.90119 6.33471 5.14998 8.58229C5.00718 8.43949 5.62638 9.01429 5.78718 9.18229C6.04518 9.44869 6.24916 9.7343 6.46276 10.0067C7.44076 11.2571 7.99996 12.6479 7.99996 14.3915C7.99996 15.4942 7.99996 21.2506 7.99996 22.7866C7.99996 23.7742 9.12075 24.3538 9.91274 23.761C10.5127 23.311 14.1127 20.6122 14.7127 20.1622C15.0151 19.9366 15.1999 19.5658 15.1999 19.1878C15.1999 19.039 15.1999 16.7902 15.1999 14.3915C15.1999 12.6491 15.7603 11.2571 16.7371 10.0067C16.9507 9.7331 17.1547 9.44989 17.4127 9.18229C17.5735 9.01429 18.1939 8.43829 18.0499 8.58229C20.2999 6.33351 21.1999 4.90074 21.1999 3.07315V3.03594C21.1999 1.35356 19.8463 -3.05176e-05 18.1627 -3.05176e-05H5.03719ZM5.03719 2.39874H18.1627C18.5203 2.39874 18.7999 2.67835 18.7999 3.03594V3.07315C18.7999 4.07634 18.1939 5.06512 16.3627 6.89631C16.5283 6.73071 15.8731 7.34031 15.6871 7.53351C15.3763 7.85631 15.0931 8.1635 14.8255 8.5079C13.5367 10.1555 12.7999 12.0731 12.7999 14.3915C12.7999 16.4902 12.7999 18.025 12.7999 18.589C12.2239 19.021 11.4187 19.6246 10.3999 20.3878C10.3999 18.085 10.3999 15.1798 10.3999 14.3915C10.3999 12.0719 9.66314 10.1555 8.37435 8.5079C8.10675 8.1647 7.82355 7.85631 7.51276 7.53351C7.32676 7.34031 6.67278 6.73191 6.83717 6.89631C5.00599 5.06632 4.39998 4.07514 4.39998 3.07315V3.03594C4.39998 2.67835 4.67959 2.39874 5.03719 2.39874Z"
  />
</svg>
