<svg
  viewBox="0 0 16 16"
  xmlns="http://www.w3.org/2000/svg"
>
  <path
    d="M 6.8,0.934375 7.3,0.26875 C 7.425,0.1 7.625,0 7.83437,0 8.2,0 8.5,0.3 8.5,0.665625 V 1.35938 c 0,0.40937 0.16875,0.80312 0.46562,1.08437 l 2.64688,2.525 C 13.1375,6.425 14,8.44375 14,10.5531 14,13.5625 11.5625,16 8.55312,16 H 8 C 4.6875,16 2,13.3125 2,10 V 9.88125 C 2,8.35625 2.60625,6.89375 3.68438,5.81563 L 3.79375,5.70625 C 3.925,5.575 4.10625,5.5 4.29375,5.5 4.68438,5.5 5,5.81563 5,6.20625 V 9 c 0,1.1031 0.89687,2 2,2 1.10313,0 2,-0.8969 2,-2 V 8.87813 C 9,8.31563 8.775,7.775 8.37813,7.37813 L 7.17188,6.17188 C 6.42188,5.42188 6,4.4 6,3.3375 6,2.47188 6.28125,1.625 6.8,0.934375 Z"
  />
</svg>
