<svg
  viewBox="0 0 12 16"
  xmlns="http://www.w3.org/2000/svg"
>
  <path
    d="M4.8 0.934375L5.3 0.26875C5.425 0.1 5.625 0 5.83437 0C6.2 0 6.5 0.3 6.5 0.665625V1.35938C6.5 1.76875 6.66875 2.1625 6.96562 2.44375L9.6125 4.96875C11.1375 6.425 12 8.44375 12 10.5531C12 13.5625 9.5625 16 6.55312 16H6C2.6875 16 0 13.3125 0 10V9.88125C0 8.35625 0.60625 6.89375 1.68438 5.81563L1.79375 5.70625C1.925 5.575 2.10625 5.5 2.29375 5.5C2.68438 5.5 3 5.81563 3 6.20625V9C3 10.1031 3.89687 11 5 11C6.10313 11 7 10.1031 7 9V8.87813C7 8.31563 6.775 7.775 6.37813 7.37813L5.17188 6.17188C4.42188 5.42188 4 4.4 4 3.3375C4 2.47188 4.28125 1.625 4.8 0.934375Z"
  />
</svg>
