<svg
  viewBox="0 0 16 16"
  xmlns="http://www.w3.org/2000/svg"
>
  <path
    d="M 8.0000159,-1.88e-5 C 3.5816138,-1.88e-5 -2.5e-7,3.5815845 -2.5e-7,7.9999746 -2.5e-7,12.418377 3.5816138,16.000019 8.0000159,16.000019 12.418478,16.000019 16,12.418377 16,7.9999746 16,3.5815845 12.418478,-1.88e-5 8.0000159,-1.88e-5 Z m 0,1.5999944 c 3.5344091,0 6.4000231,2.8656013 6.4000231,6.399999 0,3.5343974 -2.865614,6.3999634 -6.4000231,6.3999634 -3.5344097,0 -6.400011,-2.865566 -6.400011,-6.3999634 0,-3.5343977 2.8656013,-6.399999 6.400011,-6.399999 z M 4.5503983,4.8495771 C 4.3559982,4.9143771 4.1736101,5.0527732 4.07521,5.2495733 3.8776059,5.6447815 4.055218,6.1271817 4.4496222,6.3247858 l 0.3503882,0.1751881 v 0.7000083 c 0,0.4416002 0.3584042,0.7999924 0.8000044,0.7999924 0.4416002,0 0.8000043,-0.3583922 0.8000043,-0.7999924 C 6.6936113,7.1943782 6.9848154,7.0295821 7.1248195,6.750378 7.3224236,6.3551818 7.1448115,5.8727696 6.7504073,5.6751775 L 5.1503985,4.8751731 C 4.9528065,4.7759691 4.7440064,4.7855811 4.5503983,4.8495771 Z m 6.8992347,0 c -0.193596,-0.063996 -0.401604,-0.073608 -0.6,0.025596 L 9.2496246,5.6751775 C 8.8552324,5.8727696 8.6776082,6.3551818 8.8752123,6.750378 c 0.1400041,0.2792041 0.4312082,0.4440002 0.7248124,0.4496042 0,0.4416002 0.3583921,0.7999924 0.7999923,0.7999924 0.4416,0 0.800004,-0.3583922 0.800004,-0.7999924 V 6.4999739 L 11.550409,6.3247858 C 11.944838,6.1271817 12.122438,5.6447815 11.924798,5.2495733 11.826398,5.0527732 11.643997,4.9143771 11.449633,4.8495771 Z M 8.0000159,9.4751713 c -1.0736045,0 -2.080009,0.4056122 -2.8248133,1.1496127 -0.3127922,0.312792 -0.3127922,0.837588 0,1.150393 0.3120001,0.312 0.8120163,0.312 1.1248085,0 0.4480082,-0.447205 1.0544045,-0.700009 1.7000049,-0.700009 0.6432003,0 1.2528006,0.230412 1.7000048,0.675169 0.3135962,0.31128 0.8136122,0.31284 1.1248082,0 0.312,-0.313561 0.313596,-0.813553 0,-1.125553 -0.744,-0.7392005 -1.7544125,-1.1496127 -2.8248131,-1.1496127 z"
  />
</svg>
