<svg
  viewBox="0 0 16 16"
  xmlns="http://www.w3.org/2000/svg"
>
  <path
    d="M 8,0 C 5.79088,0 4,1.7912 4,4 4,4.7488 4.35368,5.6696 5,6.7752 5.21528,7.1432 5.4828,7.5064 5.75,7.9 6.11032,8.4312 6.4904,8.9784 6.8752,9.4752 6.9632,9.588 7.0816,9.7456 7.2,9.9 V 12 c 0,0.4416 0.3584,0.8 0.8,0.8 0.4416,0 0.8,-0.3584 0.8,-0.8 V 9.9 C 8.9184,9.7456 9.0368,9.588 9.1248,9.4752 9.5096,8.9792 9.8896,8.4312 10.2496,7.9 10.5168,7.5064 10.7848,7.1432 11,6.7752 11.6464,5.6696 12,4.7488 12,4 12,1.7912 10.2088,0 8,0 Z m 0,1.6 c 1.3256,0 2.4,1.0744 2.4,2.4 0,0.3808 -0.2888,1.07599 -0.8,1.95039 C 9.404,6.28479 9.1984,6.6592 8.9504,7.0248 8.6512,7.4656 8.3216,7.88 8,8.3 7.6784,7.88 7.3496,7.4656 7.0496,7.0248 6.8016,6.6592 6.596,6.28479 6.4,5.95039 5.88896,5.07599 5.6,4.3808 5.6,4 5.6,2.6744 6.6744,1.6 8,1.6 Z M 8,3.2 C 7.5584,3.2 7.2,3.5584 7.2,4 7.2,4.4416 7.5584,4.8 8,4.8 8.4416,4.8 8.8,4.4416 8.8,4 8.8,3.5584 8.4416,3.2 8,3.2 Z M 4.52496,9.35039 C 2.7524,9.97039 1.6,11.0552 1.6,12.4 1.6,14.5392 4.52208,16 8,16 c 3.4776,0 6.4,-1.4608 6.4,-3.6 0,-1.348 -1.172,-2.43041 -2.9504,-3.04961 -0.4168,-0.1456 -0.8544,0.08242 -1,0.49922 -0.1448,0.41759 0.0584,0.85519 0.4752,0.99999 1.2088,0.4216 1.8752,1.0432 1.8752,1.5504 0,0.9536 -2.092,2 -4.8,2 -2.70768,0 -4.8,-1.0464 -4.8,-2 0,-0.5056 0.6464,-1.1288 1.85,-1.5504 C 5.46704,10.704 5.69592,10.2672 5.55,9.84961 5.40408,9.43281 4.942,9.20399 4.52496,9.35039 Z"
  />
</svg>
