<svg
  viewBox="0 0 16 16"
  xmlns="http://www.w3.org/2000/svg"
>
  <path
    d="M8.4 0C6.19088 0 4.4 1.7912 4.4 4C4.4 4.7488 4.75368 5.6696 5.4 6.7752C5.61528 7.1432 5.8828 7.5064 6.15 7.9C6.51032 8.4312 6.8904 8.9784 7.2752 9.4752C7.3632 9.588 7.4816 9.7456 7.6 9.9V12C7.6 12.4416 7.9584 12.8 8.4 12.8C8.8416 12.8 9.2 12.4416 9.2 12V9.9C9.3184 9.7456 9.4368 9.588 9.5248 9.4752C9.9096 8.9792 10.2896 8.4312 10.6496 7.9C10.9168 7.5064 11.1848 7.1432 11.4 6.7752C12.0464 5.6696 12.4 4.7488 12.4 4C12.4 1.7912 10.6088 0 8.4 0ZM8.4 1.6C9.7256 1.6 10.8 2.6744 10.8 4C10.8 4.3808 10.5112 5.07599 10 5.95039C9.804 6.28479 9.5984 6.6592 9.3504 7.0248C9.0512 7.4656 8.7216 7.88 8.4 8.3C8.0784 7.88 7.7496 7.4656 7.4496 7.0248C7.2016 6.6592 6.996 6.28479 6.8 5.95039C6.28896 5.07599 6 4.3808 6 4C6 2.6744 7.0744 1.6 8.4 1.6ZM8.4 3.2C7.9584 3.2 7.6 3.5584 7.6 4C7.6 4.4416 7.9584 4.8 8.4 4.8C8.8416 4.8 9.2 4.4416 9.2 4C9.2 3.5584 8.8416 3.2 8.4 3.2ZM4.92496 9.35039C3.1524 9.97039 2 11.0552 2 12.4C2 14.5392 4.92208 16 8.4 16C11.8776 16 14.8 14.5392 14.8 12.4C14.8 11.052 13.628 9.96959 11.8496 9.35039C11.4328 9.20479 10.9952 9.43281 10.8496 9.84961C10.7048 10.2672 10.908 10.7048 11.3248 10.8496C12.5336 11.2712 13.2 11.8928 13.2 12.4C13.2 13.3536 11.108 14.4 8.4 14.4C5.69232 14.4 3.6 13.3536 3.6 12.4C3.6 11.8944 4.2464 11.2712 5.45 10.8496C5.86704 10.704 6.09592 10.2672 5.95 9.84961C5.80408 9.43281 5.342 9.20399 4.92496 9.35039Z"
  />
</svg>
