<svg
  viewBox="0 0 16 16"
  xmlns="http://www.w3.org/2000/svg"
>
  <path
    d="m 8.0004,0.40895 c -0.69918,0 -1.38957,0.266087 -1.92334,0.79906 L 0.23432495,7.02597 c -0.3124332,0.31243 -0.3124332,0.83661 0,1.14904 L 1.60791,9.54859 v 2.84626 c 0,1.7651 1.43111,3.1962 3.19624,3.1962 h 6.39245 c 1.7652,0 3.1963,-1.4311 3.1963,-3.1962 V 9.54859 l 1.3728,-1.37358 c 0.3124,-0.31243 0.3124,-0.83661 0,-1.14904 -0.2709,-0.27088 -1.2633,-1.2681 -2.1719,-2.17264 v -2.0472 c 0,-0.44108 -0.358,-0.79906 -0.799,-0.79906 -0.4419,0 -0.7991,0.35798 -0.7991,0.79906 V 3.28077 C 11.1407,2.42977 10.1818,1.46691 9.92294,1.20801 9.38917,0.675037 8.69878,0.40895 8.0004,0.40895 Z m 0,1.59812 c 0.29006,0 0.57772,0.10308 0.79906,0.32442 0.4267,0.4275 2.03684,2.0296 3.42074,3.42156 0.0056,0.0056 -0.0056,0.01919 0,0.02478 0.0048,0.00479 0.02,-0.00559 0.0248,0 0.7312,0.73433 1.3712,1.39596 1.7979,1.82266 l -1.0236,1.0236 c -0.1494,0.15022 -0.2245,0.36277 -0.2245,0.57452 v 3.19624 c 0,0.883 -0.716,1.5981 -1.5982,1.5981 H 4.80415 c -0.88296,0 -1.59812,-0.7151 -1.59812,-1.5981 V 9.19861 c 0,-0.21175 -0.07511,-0.4243 -0.22533,-0.57452 L 1.95711,7.60049 7.20134,2.33149 C 7.42268,2.11015 7.71034,2.00707 8.0004,2.00707 Z"
  />
</svg>
