<svg
  viewBox="0 0 16 16"
  xmlns="http://www.w3.org/2000/svg"
>
  <path
    d="m 7.9494283,0.48324792 c -0.81274,-0.00959 -1.60822,0.25893108 -2.17291,0.82393508 L 0.23237127,6.97562 c -0.23846868,0.24374 -0.3023213,0.59455 -0.1498422,0.89983 l 0.7241932,1.44808 -0.024931,4.57037 c -8e-5,0.9038 0.72419703,1.6231 1.62324703,1.6231 h 3.34647 c 0.797,0 1.44831,-0.6513 1.44831,-1.4481 v -3.4467 c 0,-0.38683 0.31247,-0.6993 0.69926,-0.6993 h 0.19979 c 0.38679,0 0.69926,0.31247 0.69926,0.6993 v 3.4467 c 0,0.7968 0.65132,1.4481 1.4488697,1.4481 h 3.3461 c 0.899,0 1.6231,-0.724 1.6231,-1.6231 l -0.0248,-4.57037 0.724,-1.44808 c 0.1543,-0.30768 0.0935,-0.68087 -0.1494,-0.92461 -0.2078,-0.20778 -5.0946,-5.09463 -5.5941,-5.5941 C 9.5924983,0.777352 8.7613783,0.49203864 7.9494283,0.48324792 Z m 0,1.59831208 c 0.40198,0.00799 0.80315,0.15424 1.07327,0.42436 0.46431,0.46351 4.4240997,4.42333 5.1944997,5.19452 l -0.549,1.07328 c -0.0559,0.11268 -0.0759,0.22455 -0.0751,0.35002 l 0.0247,4.77016 c 0,0.0112 -0.0079,0.0248 -0.0247,0.0248 h -3.1967 v -3.2965 c 0,-1.2699 -1.0276697,-2.29762 -2.2975297,-2.29762 h -0.19979 c -1.26986,0 -2.29741,1.02772 -2.29741,2.29762 v 3.2965 h -3.19663 c -0.0163,0 -0.02493,-0.0088 -0.02493,-0.0248 l 0.02493,-4.77016 c 8e-4,-0.12547 -0.0187,-0.23734 -0.07488,-0.35002 l -0.54942,-1.09806 5.1194,-5.24486 c 0.24694,-0.24694 0.64652,-0.35803 1.04929,-0.34924 z"
  />
</svg>
