<svg
  viewBox="0 0 16 16"
  xmlns="http://www.w3.org/2000/svg"
>
  <path
    d="M5.6 0C4.5456 0 3.65272 0.661597 3.33048 1.6064C3.24808 1.6104 3.30464 1.6 3.2 1.6C1.43272 1.6 0 3.0328 0 4.8V8.8C0 13.4048 2.85432 16 6.4 16C8.84016 16 10.709 15.2144 12.1795 13.744C13.2619 12.6616 13.8858 11.6288 15.125 9.15039C15.1806 9.03919 15.2 8.924 15.2 8.8C15.2 7.4056 14.1012 6.4 12.8 6.4C12.2035 6.4 11.6875 6.56641 11.2078 6.84561L11.2 4C11.2 2.2328 9.76728 0.8 8 0.8L7.4004 0.812012C6.96144 0.330412 6.30296 0 5.6 0ZM5.6 1.6C6.04184 1.6 6.4 1.9584 6.4 2.4V6.4C6.4 6.8416 6.75816 7.2 7.2 7.2C7.64184 7.2 8 6.8416 8 6.4V2.4C8.88368 2.4 9.6 3.116 9.6 4V8.8C9.59752 9.3168 10.0468 9.6 10.4 9.6C10.7532 9.6 10.9953 9.38879 11.125 9.15039C11.1941 9.02319 11.3438 8.78079 11.5748 8.55039C11.9362 8.18879 12.3356 8 12.8 8C13.199 8 13.5262 8.2512 13.5918 8.6448C11.4946 12.9192 9.78912 14.4072 6.4 14.4C3.7944 14.3944 1.6 12.4856 1.6 8.8V4.8C1.6 3.916 2.31632 3.2 3.2 3.2V6.4C3.2 6.8416 3.55816 7.2 4 7.2C4.44184 7.2 4.8 6.8416 4.8 6.4V2.4C4.8 1.9584 5.15816 1.6 5.6 1.6Z"
  />
</svg>
