<svg
  viewBox="0 0 16 16"
  xmlns="http://www.w3.org/2000/svg"
>
  <path
    d="M 6,0 C 4.9456,0 4.05272,0.661597 3.73048,1.6064 3.64808,1.6104 3.70464,1.6 3.6,1.6 1.83272,1.6 0.4,3.0328 0.4,4.8 v 4 c 0,4.6048 2.85432,7.2 6.4,7.2 2.44016,0 4.309,-0.7856 5.7795,-2.256 1.0824,-1.0824 1.7063,-2.1152 2.9455,-4.59361 C 15.5806,9.03919 15.6,8.924 15.6,8.8 15.6,7.4056 14.5012,6.4 13.2,6.4 12.6035,6.4 12.0875,6.56641 11.6078,6.84561 L 11.6,4 C 11.6,2.2328 10.16728,0.8 8.4,0.8 L 7.8004,0.812012 C 7.36144,0.330412 6.70296,0 6,0 Z m 0,1.6 c 0.44184,0 0.8,0.3584 0.8,0.8 v 4 c 0,0.4416 0.35816,0.8 0.8,0.8 0.44184,0 0.8,-0.3584 0.8,-0.8 v -4 C 9.28368,2.4 10,3.116 10,4 v 4.8 c -0.00248,0.5168 0.4468,0.8 0.8,0.8 0.3532,0 0.5953,-0.21121 0.725,-0.44961 0.0691,-0.1272 0.2188,-0.3696 0.4498,-0.6 C 12.3362,8.18879 12.7356,8 13.2,8 13.599,8 13.9262,8.2512 13.9918,8.6448 11.8946,12.9192 10.18912,14.4072 6.8,14.4 4.1944,14.3944 2,12.4856 2,8.8 v -4 C 2,3.916 2.71632,3.2 3.6,3.2 v 3.2 c 0,0.4416 0.35816,0.8 0.8,0.8 0.44184,0 0.8,-0.3584 0.8,-0.8 v -4 C 5.2,1.9584 5.55816,1.6 6,1.6 Z"
  />
</svg>
