<svg
  viewBox="0 0 16 16"
  xmlns="http://www.w3.org/2000/svg"
>
  <path
    d="m 4.8250342,0 c -1.84864,0 -3.21768,1.2432 -3.22504,3.2 -0.00192,0.52 0.15552,1.06001 0.45,1.64961 0.23056,0.4624 0.53424,0.93839 0.9,1.42559 0.27808,0.3696 0.57872,0.7216 0.87504,1.0496 0.07888,0.088 0.11248,0.1336 0.17496,0.2 v 0.9504 c -0.06256,0.0664 -0.09608,0.112 -0.17496,0.2 -0.29632,0.328 -0.59696,0.68 -0.87504,1.0496 -0.36576,0.4872 -0.66944,0.9632 -0.9,1.4256 -0.2944,0.5896 -0.45192,1.1296 -0.45,1.6496 0.00736,1.9568 1.3764,3.2 3.22504,3.2 h 6.3997598 c 1.8464,0 3.1824,-1.2392 3.1752,-3.2 -0.0016,-0.5176 -0.1552,-1.0616 -0.4496,-1.6496 -0.2304,-0.4592 -0.5376,-0.9408 -0.9,-1.4256 -0.2784,-0.3712 -0.5792,-0.72 -0.8752,-1.0496 -0.0792,-0.088 -0.1128,-0.1336 -0.1752,-0.2 V 7.5248 c 0.0624,-0.0664 0.096,-0.112 0.1752,-0.2 0.296,-0.3296 0.5968,-0.6784 0.8752,-1.0496 0.3624,-0.4848 0.6696,-0.96639 0.9,-1.42559 0.2944,-0.588 0.448,-1.13201 0.4496,-1.64961 0.0072,-1.9608 -1.3288,-3.2 -3.1752,-3.2 z m 0,1.6 h 6.3997598 c 0.9872,0 1.5792,0.5536 1.5752,1.6 -8e-4,0.232 -0.1064,0.56319 -0.3,0.95039 -0.1824,0.364 -0.44,0.76081 -0.7496,1.17441 -0.2472,0.3304 -0.5088,0.6536 -0.7752,0.9504 -0.1592,0.1768 -0.2848,0.284 -0.3504,0.3496 -0.1496,0.1504 -0.2248,0.3632 -0.2248,0.5752 v 1.6 c 0,0.212 0.0752,0.4248 0.2248,0.5752 0.0656,0.0656 0.1912,0.1728 0.3504,0.3496 0.2664,0.2968 0.528,0.62 0.7752,0.9504 0.3096,0.4136 0.5672,0.8104 0.7496,1.1744 0.1936,0.3872 0.2992,0.7184 0.3,0.9504 0.004,1.0464 -0.588,1.6 -1.5752,1.6 H 4.8250342 c -0.9992,0 -1.62112,-0.56 -1.62504,-1.6 -8.8e-4,-0.2304 0.1076,-0.5648 0.3,-0.9504 0.1824,-0.3648 0.438,-0.7592 0.75,-1.1744 0.24696,-0.3288 0.5088,-0.6552 0.77504,-0.9504 0.15872,-0.176 0.2844,-0.2848 0.35,-0.3496 0.1504,-0.1504 0.22496,-0.3624 0.22496,-0.5752 V 7.2 c 0,-0.2128 -0.07448,-0.4248 -0.22496,-0.5752 -0.0656,-0.0648 -0.19128,-0.1736 -0.35,-0.3496 -0.26624,-0.2952 -0.52808,-0.6216 -0.77504,-0.9504 -0.312,-0.4152 -0.56768,-0.80961 -0.75,-1.17441 -0.1924,-0.3856 -0.3008,-0.71999 -0.3,-0.95039 0.00392,-1.04 0.62592,-1.6 1.62504,-1.6 z m 3.17496,8 c -0.8,0 -2.4,1.6 -3.2,3.2 h 6.3999998 c -0.8,-1.6 -2.3999998,-3.2 -3.1999998,-3.2 z"
  />
</svg>
