<svg
  viewBox="0 0 16 16"
  xmlns="http://www.w3.org/2000/svg"
>
  <path
    d="M7.94943 0.000247916C7.13669 -0.00934197 6.34121 0.259179 5.77652 0.824183L0.232373 6.49262C-0.00609568 6.73636 -0.0699483 7.08717 0.0825308 7.39245L0.806724 8.84053L0.781793 13.4109C0.781713 14.3147 1.50599 15.034 2.40504 15.034H5.75151C6.54851 15.034 7.19982 14.3827 7.19982 13.5859V10.1392C7.19982 9.75237 7.51229 9.4399 7.89908 9.4399H8.09887C8.48566 9.4399 8.79813 9.75237 8.79813 10.1392V13.5859C8.79813 14.3827 9.44945 15.034 10.247 15.034H13.5931C14.4921 15.034 15.2162 14.31 15.2162 13.4109L15.1914 8.84053L15.9154 7.39245C16.0697 7.08477 16.0089 6.71158 15.766 6.46784C15.5582 6.26006 10.6714 1.37321 10.1719 0.87374C9.5925 0.294352 8.76138 0.00903864 7.94943 0.000247916ZM7.94943 1.59856C8.35141 1.60655 8.75258 1.7528 9.0227 2.02292C9.48701 2.48643 13.4468 6.44625 14.2172 7.21744L13.6682 8.29072C13.6123 8.4034 13.5923 8.51527 13.5931 8.64074L13.6178 13.4109C13.6178 13.4221 13.6099 13.4357 13.5931 13.4357H10.3964V10.1392C10.3964 8.8693 9.36873 7.84158 8.09887 7.84158H7.89908C6.62922 7.84158 5.60167 8.8693 5.60167 10.1392V13.4357H2.40504C2.38874 13.4357 2.38011 13.4269 2.38011 13.4109L2.40504 8.64074C2.40584 8.51527 2.38634 8.4034 2.33016 8.29072L1.78074 7.19266L6.90014 1.9478C7.14708 1.70086 7.54666 1.58977 7.94943 1.59856Z"
  />
</svg>
