<svg
  viewBox="0 0 16 16"
  xmlns="http://www.w3.org/2000/svg"
>
  <path
    d="M5.22494 0C3.3763 0 2.00726 1.2432 1.9999 3.2C1.99798 3.72 2.15542 4.26001 2.4499 4.84961C2.68046 5.31201 2.98414 5.788 3.3499 6.2752C3.62798 6.6448 3.92862 6.9968 4.22494 7.3248C4.30382 7.4128 4.33742 7.4584 4.3999 7.5248V8.4752C4.33734 8.5416 4.30382 8.5872 4.22494 8.6752C3.92862 9.0032 3.62798 9.3552 3.3499 9.7248C2.98414 10.212 2.68046 10.688 2.4499 11.1504C2.1555 11.74 1.99798 12.28 1.9999 12.8C2.00726 14.7568 3.3763 16 5.22494 16H11.6247C13.4711 16 14.8071 14.7608 14.7999 12.8C14.7983 12.2824 14.6447 11.7384 14.3503 11.1504C14.1199 10.6912 13.8127 10.2096 13.4503 9.7248C13.1719 9.3536 12.8711 9.0048 12.5751 8.6752C12.4959 8.5872 12.4623 8.5416 12.3999 8.4752V7.5248C12.4623 7.4584 12.4959 7.4128 12.5751 7.3248C12.8711 6.9952 13.1719 6.6464 13.4503 6.2752C13.8127 5.7904 14.1199 5.30881 14.3503 4.84961C14.6447 4.26161 14.7983 3.7176 14.7999 3.2C14.8071 1.2392 13.4711 0 11.6247 0H5.22494ZM5.22494 1.6H11.6247C12.6119 1.6 13.2039 2.1536 13.1999 3.2C13.1991 3.432 13.0935 3.76319 12.8999 4.15039C12.7175 4.51439 12.4599 4.9112 12.1503 5.3248C11.9031 5.6552 11.6415 5.9784 11.3751 6.2752C11.2159 6.452 11.0903 6.5592 11.0247 6.6248C10.8751 6.7752 10.7999 6.988 10.7999 7.2V8.8C10.7999 9.012 10.8751 9.2248 11.0247 9.3752C11.0903 9.4408 11.2159 9.548 11.3751 9.7248C11.6415 10.0216 11.9031 10.3448 12.1503 10.6752C12.4599 11.0888 12.7175 11.4856 12.8999 11.8496C13.0935 12.2368 13.1991 12.568 13.1999 12.8C13.2039 13.8464 12.6119 14.4 11.6247 14.4H5.22494C4.22574 14.4 3.60382 13.84 3.5999 12.8C3.59902 12.5696 3.7075 12.2352 3.8999 11.8496C4.0823 11.4848 4.3379 11.0904 4.6499 10.6752C4.89686 10.3464 5.1587 10.02 5.42494 9.7248C5.58366 9.5488 5.70934 9.44 5.77494 9.3752C5.92534 9.2248 5.9999 9.0128 5.9999 8.8V7.2C5.9999 6.9872 5.92542 6.7752 5.77494 6.6248C5.70934 6.56 5.58366 6.4512 5.42494 6.2752C5.1587 5.98 4.89686 5.6536 4.6499 5.3248C4.3379 4.9096 4.08222 4.51519 3.8999 4.15039C3.7075 3.76479 3.5991 3.4304 3.5999 3.2C3.60382 2.16 4.22582 1.6 5.22494 1.6ZM8.3999 9.6C7.5999 9.6 5.9999 11.2 5.1999 12.8H11.5999C10.7999 11.2 9.1999 9.6 8.3999 9.6Z"
  />
</svg>
