<svg
  viewBox="0 0 24 24"
  xmlns="http://www.w3.org/2000/svg"
>
  <path
    d="M12 0C5.3724 0 0 5.3724 0 12C0 18.6276 5.3724 24 12 24C18.6276 24 24 18.6276 24 12C24 5.3724 18.6276 0 12 0ZM12 2.4C17.3016 2.4 21.6 6.6984 21.6 12C21.6 17.3016 17.3016 21.6 12 21.6C6.6984 21.6 2.4 17.3016 2.4 12C2.4 6.6984 6.6984 2.4 12 2.4ZM12 6C11.3376 6 10.8 6.5376 10.8 7.2C10.8 7.8624 11.3376 8.4 12 8.4C12.6624 8.4 13.2 7.8624 13.2 7.2C13.2 6.5376 12.6624 6 12 6ZM10.8 9.6C10.1376 9.6 9.6 10.1376 9.6 10.8C9.6 11.3784 10.0308 11.8104 10.5744 11.9256L9.86279 15.3744C9.58439 16.7676 10.5804 18 12 18H13.2C13.8624 18 14.4 17.4624 14.4 16.8C14.4 16.1376 13.8624 15.6 13.2 15.6H12.2628L13.1628 11.0256C13.3116 10.2828 12.7572 9.6 12 9.6C11.8488 9.6 10.9944 9.6 10.8 9.6Z"
  />
</svg>
