<svg
  viewBox="0 0 120 120"
  xmlns="http://www.w3.org/2000/svg"
>
  <path
    d="M103.636 72.9545V89.3182H120V100.227H103.636V116.591H92.7273V100.227H76.3636V89.3182H92.7273V72.9545H103.636ZM103.68 7.5C106.669 7.5 109.091 9.92727 109.091 12.9164V62.0454H98.1818V18.4091H10.9091V94.7673L65.4545 40.2273L81.8182 56.5909V72.0218L65.4545 55.6582L26.3291 94.7727H65.4545V105.682H5.41091C3.97535 105.68 2.59907 105.109 1.58449 104.093C0.569902 103.078 -7.27937e-07 101.701 0 100.265V12.9164C0.00998206 11.4839 0.583092 10.1128 1.59552 9.09937C2.60796 8.08592 3.97844 7.51143 5.41091 7.5H103.68ZM32.7273 29.3182C35.6205 29.3182 38.3953 30.4675 40.4412 32.5134C42.487 34.5592 43.6364 37.334 43.6364 40.2273C43.6364 43.1205 42.487 45.8953 40.4412 47.9412C38.3953 49.987 35.6205 51.1364 32.7273 51.1364C29.834 51.1364 27.0592 49.987 25.0134 47.9412C22.9675 45.8953 21.8182 43.1205 21.8182 40.2273C21.8182 37.334 22.9675 34.5592 25.0134 32.5134C27.0592 30.4675 29.834 29.3182 32.7273 29.3182Z"
  />
</svg>
