<svg
  viewBox="0 0 24 24"
  xmlns="http://www.w3.org/2000/svg"
>
  <path
    d="M5.33333 0C2.388 0 0 2.388 0 5.33333V17.3333V18.6667C0 21.612 2.388 24 5.33333 24H18.6667C21.612 24 24 21.612 24 18.6667V17.3333V5.33333C24 2.388 21.612 0 18.6667 0H5.33333ZM5.33333 2.66667H18.6667C20.14 2.66667 21.3333 3.86 21.3333 5.33333L21.3387 13.5946C20.3013 12.632 19.244 12.0293 18.0827 12C18.0413 11.9987 18.0427 12 18 12C16.484 12 14.7987 13.1653 13.6667 14.6253C13.3773 13.972 13.0853 13.3267 12.7493 12.708C11.176 9.80268 9.45733 8.004 7.33333 8C5.528 7.996 3.97867 9.47199 2.65601 11.4933L2.66667 5.33333C2.66667 3.86 3.86 2.66667 5.33333 2.66667ZM17.3333 5.33333C16.5973 5.33333 16 5.93067 16 6.66667C16 7.40267 16.5973 8 17.3333 8C18.0693 8 18.6667 7.40267 18.6667 6.66667C18.6667 5.93067 18.0693 5.33333 17.3333 5.33333ZM7.33333 10.6667C8.10933 10.668 9.28802 11.876 10.416 13.9587C10.864 14.7827 11.2653 15.6907 11.6253 16.584C11.8413 17.1173 12.008 17.5253 12.0827 17.7493C12.4467 18.8387 13.924 18.9933 14.5 18C14.5573 17.9013 14.6613 17.712 14.8333 17.4587C15.1213 17.032 15.4493 16.6 15.792 16.208C16.648 15.2267 17.4733 14.6667 18 14.6667C18.532 14.68 19.3533 15.2387 20.208 16.208C20.5547 16.6013 20.8747 17.032 21.1667 17.4587C21.2587 17.592 21.272 17.6547 21.3333 17.7493V18.6667C21.3333 20.14 20.14 21.3333 18.6667 21.3333H5.33333C3.86 21.3333 2.66667 20.14 2.66667 18.6667V17.5413C2.75067 17.304 2.86267 17.0227 3.04134 16.584C3.40534 15.6907 3.79998 14.784 4.25065 13.9587C5.38798 11.872 6.55867 10.6653 7.33333 10.6667Z"
  />
</svg>
