<svg
  viewBox="0 0 16 16"
  xmlns="http://www.w3.org/2000/svg"
>
  <path
    d="M 3.5555533,0 C 1.5919133,0 0,1.592 0,3.5555533 V 8.888867 c 0,0 0,3.064933 0,3.5556 C 0,14.408 1.5919133,16 3.5555533,16 H 12.444467 C 14.408,16 16,14.408 16,12.444467 c 0,-0.237334 0,-3.5556 0,-3.5556 V 3.5555533 C 16,1.592 14.408,0 12.444467,0 11.333333,0 4.6666667,0 3.5555533,0 Z m 0,1.77778 c 1.1111134,0 7.7777797,0 8.8889137,0 0.9822,0 1.777733,0.7955533 1.777733,1.7777733 V 8 H 10.666667 C 10.176,8 9.7778,8.3982 9.7778,8.888867 c 0,0.982266 -0.7956,1.7778 -1.7778,1.7778 -0.9822,0 -1.77778,-0.795534 -1.77778,-1.7778 C 6.22222,8.3982 5.8242667,8 5.3333333,8 H 1.77778 V 3.5555533 c 0,-0.98222 0.7959067,-1.7777733 1.7777733,-1.7777733 z M 1.77778,9.7778 H 4.5832867 C 4.9842667,11.3022 6.349333,12.444467 8,12.444467 c 1.650667,0 3.043533,-1.142267 3.444467,-2.666667 H 14.2222 c 0,0.885333 0,2.298667 0,2.666667 0,0.9822 -0.795533,1.777733 -1.777733,1.777733 H 3.5555533 c -0.9818666,0 -1.7777733,-0.795533 -1.7777733,-1.777733 0,-0.09867 0,-1.6978 0,-2.666667 z"
  />
</svg>
