<svg
  viewBox="0 0 16 16"
  xmlns="http://www.w3.org/2000/svg"
>
  <path
    d="M 13.818133,9.454533 V 11.63636 H 16 v 1.454507 h -2.181867 v 2.181866 H 12.36364 V 13.090867 H 10.181813 V 11.63636 H 12.36364 V 9.454533 Z m 0.0059,-8.727266 c 0.398533,0 0.721467,0.323636 0.721467,0.722186 V 7.999987 H 13.09094 V 2.181813 H 1.45458 v 10.181094 l 7.27272,-7.272 2.181826,2.181813 V 9.330173 L 8.7273,7.14836 3.51058,12.363627 H 8.7273 V 13.8182 H 0.721455 C 0.530047,13.817933 0.346543,13.7418 0.211265,13.606333 0.075987,13.471 0,13.2874 0,13.095933 V 1.449453 C 0.0013,1.258453 0.07775,1.07564 0.212736,0.940516 0.347728,0.805389 0.530459,0.728791 0.721455,0.727267 Z M 4.363673,3.63636 c 0.38576,0 0.755733,0.15324 1.02852,0.426027 0.272773,0.272773 0.426027,0.642746 0.426027,1.02852 0,0.38576 -0.153254,0.755733 -0.426027,1.02852 C 5.119406,6.3922 4.749433,6.545453 4.363673,6.545453 3.9779,6.545453 3.607926,6.3922 3.335153,6.119427 3.062366,5.84664 2.909126,5.476667 2.909126,5.090907 c 0,-0.385774 0.15324,-0.755747 0.426027,-1.02852 C 3.607926,3.7896 3.9779,3.63636 4.363673,3.63636 Z"
  />
</svg>
