<svg
  viewBox="0 0 24 24"
  xmlns="http://www.w3.org/2000/svg"
>
  <path
    d="M5.33333 0C2.38787 0 0 2.388 0 5.33333V13.3333C0 13.3333 0 17.9307 0 18.6667C0 21.612 2.38787 24 5.33333 24H18.6667C21.612 24 24 21.612 24 18.6667C24 18.3107 24 13.3333 24 13.3333V5.33333C24 2.388 21.612 0 18.6667 0C17 0 7 0 5.33333 0ZM5.33333 2.66667C7 2.66667 17 2.66667 18.6667 2.66667C20.14 2.66667 21.3333 3.86 21.3333 5.33333V12H16C15.264 12 14.6667 12.5973 14.6667 13.3333C14.6667 14.8067 13.4733 16 12 16C10.5267 16 9.33333 14.8067 9.33333 13.3333C9.33333 12.5973 8.7364 12 8 12H2.66667V5.33333C2.66667 3.86 3.86053 2.66667 5.33333 2.66667ZM2.66667 14.6667H6.87493C7.4764 16.9533 9.524 18.6667 12 18.6667C14.476 18.6667 16.5653 16.9533 17.1667 14.6667H21.3333C21.3333 15.9947 21.3333 18.1147 21.3333 18.6667C21.3333 20.14 20.14 21.3333 18.6667 21.3333H5.33333C3.86053 21.3333 2.66667 20.14 2.66667 18.6667C2.66667 18.5187 2.66667 16.12 2.66667 14.6667Z"
  />
</svg>
