<svg
  viewBox="0 0 16 16"
  xmlns="http://www.w3.org/2000/svg"
>
  <path
    d="M 8,0 C 3.5816,0 0,3.5816 0,8 c 0,4.4184 3.5816,8 8,8 4.4184,0 8,-3.5816 8,-8 C 16,3.5816 12.4184,0 8,0 Z m 0,1.6 c 3.5344,0 6.4,2.8656 6.4,6.4 0,3.5344 -2.8656,6.4 -6.4,6.4 C 4.4656,14.4 1.6,11.5344 1.6,8 1.6,4.4656 4.4656,1.6 8,1.6 Z M 8,4 C 7.5584,4 7.2,4.3584 7.2,4.8 7.2,5.2416 7.5584,5.6 8,5.6 8.4416,5.6 8.8,5.2416 8.8,4.8 8.8,4.3584 8.4416,4 8,4 Z M 7.2,6.4 c -0.4416,0 -0.8,0.3584 -0.8,0.8 0,0.3856 0.2872,0.6736 0.6496,0.7504 L 6.575193,10.2496 C 6.389593,11.1784 7.0536,12 8,12 h 0.8 c 0.4416,0 0.8,-0.3584 0.8,-0.8 0,-0.4416 -0.3584,-0.8 -0.8,-0.8 H 8.1752 l 0.6,-3.0496 C 8.8744,6.8552 8.5048,6.4 8,6.4 c -0.1008,0 -0.6704,0 -0.8,0 z"
  />
</svg>
