<svg
  viewBox="0 0 16 16"
  xmlns="http://www.w3.org/2000/svg"
>
  <path
    d="M 6.222227,0 C 4.74942,0 3.5555533,1.19378 3.5555533,2.6666667 V 3.5555533 H 2.6666667 C 1.1938667,3.5555533 0,4.7493333 0,6.22222 v 6.222247 0.888866 C 0,14.8062 1.1938667,16 2.6666667,16 H 9.7778 c 1.4728,0 2.666667,-1.1938 2.666667,-2.666667 v -0.888866 h 0.888866 C 14.8064,12.444467 16,11.250667 16,9.7778 V 2.6666667 C 16,1.19378 14.806133,0 13.333333,0 Z m 0,1.77778 h 7.111106 c 0.490934,0 0.888867,0.39822 0.888867,0.8888867 V 9.7778 c 0,0.490667 -0.397933,0.888867 -0.888867,0.888867 H 12.444467 V 6.22222 C 12.444467,4.7493333 11.2506,3.5555533 9.7778,3.5555533 H 5.3333333 V 2.6666667 c 0,-0.488 0.39796,-0.8888867 0.8888937,-0.8888867 z M 2.6666667,5.3333333 H 4.4444467 9.7778 c 0.490933,0 0.888867,0.39822 0.888867,0.8888867 V 10.2498 C 10.2654,9.9902 9.8408,9.8178 9.388867,9.805333 c -0.0268,0 -0.02853,0 -0.05553,0 -0.796733,0 -1.495533,0.4258 -2.166666,1.138667 -0.01067,0.01153 -0.01727,0.01687 -0.0278,0.02847 C 7.0248,10.824867 6.928733,10.669333 6.805533,10.528 5.92196,9.514667 5.0103133,8.8898 4,8.888867 3.2034667,8.8898 2.4856867,9.367133 1.77778,10.027533 V 6.22222 c 0,-0.4906667 0.3979533,-0.8888867 0.8888867,-0.8888867 z M 8,7.111133 C 7.509067,7.111133 7.111133,7.509333 7.111133,8 7.111133,8.490667 7.509067,8.888867 8,8.888867 8.490933,8.888867 8.888867,8.490667 8.888867,8 8.888867,7.509333 8.490933,7.111133 8,7.111133 Z m -4,3.555534 c 0.3498667,0 0.8984,0.3698 1.47218,1.027533 0.2295133,0.263133 0.4451533,0.5476 0.638933,0.8338 0.115287,0.1698 0.18338,0.2942 0.22222,0.360867 0.336334,0.578666 1.173067,0.5956 1.5278,0.0276 C 7.884803,12.879137 7.950733,12.8 8.027733,12.6942 8.1582,12.515533 8.2906,12.330667 8.444467,12.167133 c 0.364333,-0.3876 0.7134,-0.584 0.888866,-0.584 0.1818,0.0053 0.5238,0.2 0.888867,0.584 0.1562,0.163534 0.283933,0.3484 0.416733,0.527067 0.01093,0.01513 0.01767,0.01427 0.02773,0.0276 v 0.611533 c 0,0.490667 -0.397934,0.888867 -0.888867,0.888867 H 2.6666667 C 2.1757333,14.2222 1.77778,13.824 1.77778,13.333333 V 12.7218 C 1.81822,12.658667 1.828,12.6178 1.8888867,12.528 2.0827533,12.240867 2.2981333,11.9582 2.52782,11.6942 3.1016867,11.034667 3.65022,10.666667 4,10.666667 Z"
  />
</svg>
