<svg
  viewBox="0 0 24 24"
  xmlns="http://www.w3.org/2000/svg"
>
  <path
    d="M9.33334 0C7.12413 0 5.33333 1.79067 5.33333 4V5.33333H4C1.7908 5.33333 0 7.124 0 9.33333V18.6667V20C0 22.2093 1.7908 24 4 24H14.6667C16.8759 24 18.6667 22.2093 18.6667 20V18.6667H20C22.2096 18.6667 24 16.876 24 14.6667V4C24 1.79067 22.2092 0 20 0H9.33334ZM9.33334 2.66667H20C20.7364 2.66667 21.3333 3.264 21.3333 4V14.6667C21.3333 15.4027 20.7364 16 20 16H18.6667V9.33333C18.6667 7.124 16.8759 5.33333 14.6667 5.33333H8V4C8 3.268 8.59694 2.66667 9.33334 2.66667ZM4 8H6.66667H14.6667C15.4031 8 16 8.59733 16 9.33333V15.3747C15.3981 14.9853 14.7612 14.7267 14.0833 14.708C14.0431 14.708 14.0405 14.708 14 14.708C12.8049 14.708 11.7567 15.3467 10.75 16.416C10.734 16.4333 10.7241 16.4413 10.7083 16.4587C10.5372 16.2373 10.3931 16.004 10.2083 15.792C8.88294 14.272 7.51547 13.3347 6 13.3333C4.8052 13.3347 3.72853 14.0507 2.66667 15.0413V9.33333C2.66667 8.59733 3.2636 8 4 8ZM12 10.6667C11.2636 10.6667 10.6667 11.264 10.6667 12C10.6667 12.736 11.2636 13.3333 12 13.3333C12.7364 13.3333 13.3333 12.736 13.3333 12C13.3333 11.264 12.7364 10.6667 12 10.6667ZM6 16C6.5248 16 7.3476 16.5547 8.20827 17.5413C8.55254 17.936 8.876 18.3627 9.16667 18.792C9.3396 19.0467 9.44174 19.2333 9.5 19.3333C10.0045 20.2013 11.2596 20.2267 11.7917 19.3747C11.8272 19.3187 11.9261 19.2 12.0416 19.0413C12.2373 18.7733 12.4359 18.496 12.6667 18.2507C13.2132 17.6693 13.7368 17.3747 14 17.3747C14.2727 17.3827 14.7857 17.6747 15.3333 18.2507C15.5676 18.496 15.7592 18.7733 15.9584 19.0413C15.9748 19.064 15.9849 19.0627 16 19.0827V20C16 20.736 15.4031 21.3333 14.6667 21.3333H4C3.2636 21.3333 2.66667 20.736 2.66667 20V19.0827C2.72733 18.988 2.742 18.9267 2.83333 18.792C3.12413 18.3613 3.4472 17.9373 3.79173 17.5413C4.65253 16.552 5.47533 16 6 16Z"
  />
</svg>
