<svg
  viewBox="0 0 16 16"
  xmlns="http://www.w3.org/2000/svg"
>
  <path
    d="M 3.5555533,0 C 1.592,0 0,1.592 0,3.5555533 v 7.9999797 0.888934 C 0,14.408 1.592,16 3.5555533,16 H 12.444467 C 14.408,16 16,14.408 16,12.444467 V 11.555533 3.5555533 C 16,1.592 14.408,0 12.444467,0 Z m 0,1.77778 h 8.8889137 c 0.9822,0 1.777733,0.7955533 1.777733,1.7777733 L 14.2258,9.063067 C 13.5342,8.421333 12.829333,8.019533 12.055133,8 12.027533,7.999133 12.028467,8 12,8 10.989333,8 9.8658,8.776867 9.111133,9.7502 8.9182,9.314667 8.723533,8.884467 8.499533,8.472 7.450667,6.53512 6.304887,5.336 4.8888867,5.3333333 3.6853333,5.3306667 2.6524467,6.31466 1.7706733,7.6622 L 1.77778,3.5555533 c 0,-0.98222 0.7955533,-1.7777733 1.7777733,-1.7777733 z m 7.9999797,1.7777733 c -0.490666,0 -0.888866,0.3982267 -0.888866,0.8888934 0,0.4906666 0.3982,0.8888866 0.888866,0.8888866 0.490667,0 0.888934,-0.39822 0.888934,-0.8888866 0,-0.4906667 -0.398267,-0.8888934 -0.888934,-0.8888934 z M 4.8888867,7.111133 C 5.40622,7.112 6.192013,7.917333 6.944,9.3058 c 0.298667,0.549333 0.5662,1.154667 0.8062,1.7502 0.144,0.355533 0.255133,0.627533 0.304933,0.776867 C 8.2978,12.559133 9.282667,12.6622 9.666667,12 c 0.0382,-0.0658 0.107533,-0.192 0.2222,-0.360867 0.192,-0.284466 0.410666,-0.572466 0.639133,-0.8338 C 11.098667,10.151133 11.648867,9.7778 12,9.7778 c 0.354667,0.0089 0.9022,0.381333 1.472,1.027533 0.231133,0.2622 0.444467,0.549334 0.639133,0.8338 0.06133,0.08887 0.0702,0.130667 0.111067,0.193734 v 0.6116 c 0,0.9822 -0.795533,1.777733 -1.777733,1.777733 H 3.5555533 c -0.98222,0 -1.7777733,-0.795533 -1.7777733,-1.777733 V 11.6942 c 0.056,-0.1582 0.1306667,-0.345733 0.24978,-0.6382 0.2426667,-0.595533 0.50576,-1.2 0.8062067,-1.7502 0.75822,-1.391133 1.53868,-2.1956 2.05512,-2.194667 z"
  />
</svg>
