<svg
  viewBox="0 0 16 16"
  xmlns="http://www.w3.org/2000/svg"
>
  <path
    d="m 11.54479,0.00105649 c -1.030405,0.0264 -2.0248098,0.50239 -2.8960138,1.37439091 l -1.223206,1.2239993 c -0.312002,0.3120015 -0.312002,0.8119973 0,1.1239988 0.312001,0.3120015 0.836804,0.3120015 1.148805,0 l 1.197606,-1.2239993 c 1.1592058,-1.1599989 2.4448118,-1.2759995 3.7192178,0 1.275206,1.2751995 1.159206,2.5616058 0,3.721605 l -2.420812,2.423225 c -1.1592048,1.160005 -2.4448108,1.275139 -3.7192178,0 l -0.349601,-0.349602 c -0.752771,-0.753604 -1.8767693,0.370402 -1.1231657,1.124006 l 0.3495947,0.349535 c 1.948776,1.9504088 4.2231868,1.7432078 5.9655958,0 l 2.420812,-2.423146 c 1.742408,-1.7432146 1.949609,-4.019219 0,-5.9696218 C 13.64,0.40024599 12.574395,-0.02454361 11.54479,0.00105649 Z M 6.5519992,4.8474443 c -0.9608047,0.0624 -1.8960093,0.5232092 -2.7456067,1.3736069 l -2.4208051,2.423225 c -1.94959881,1.9503428 -1.74239841,4.2263538 0,5.9695618 1.7416018,1.743208 4.0168062,1.950409 5.9655818,0 l 1.223206,-1.224006 c 0.312002,-0.312001 0.312002,-0.812004 0,-1.124005 -0.312001,-0.312002 -0.836804,-0.312002 -1.148805,0 l -1.197573,1.224006 c -1.2751992,1.276006 -2.5599987,1.160005 -3.7192043,0 -1.159199,-1.160006 -1.2751995,-2.445612 0,-3.7216178 l 2.420805,-2.423146 c 0.5880029,-0.588002 1.1687993,-0.86321 1.7224013,-0.899211 0.66957,-0.044 1.371974,0.273608 1.996777,0.899211 l 0.349601,0.349602 c 0.312002,0.312002 0.811204,0.312002 1.1232058,0 0.312001,-0.312001 0.312001,-0.812004 0,-1.124005 L 9.7719812,6.2210512 C 8.8463772,5.2946531 7.7311712,4.7698439 6.5519992,4.8474443 Z"
  />
</svg>
