<svg
  viewBox="0 0 24 24"
  xmlns="http://www.w3.org/2000/svg"
>
  <path
    d="M17.3171 0.00163355C15.7715 0.0412334 14.2799 0.755215 12.9731 2.06321L11.1383 3.8992C10.6703 4.3672 10.6703 5.11719 11.1383 5.58519C11.6063 6.05319 12.3935 6.05319 12.8615 5.58519L14.6579 3.7492C16.3967 2.00921 18.3251 1.83521 20.2367 3.7492C22.1495 5.66199 21.9755 7.59159 20.2367 9.33158L16.6055 12.9664C14.8667 14.7064 12.9383 14.8791 11.0267 12.9664L10.5023 12.442C9.37315 11.3116 7.68716 12.9976 8.81756 14.128L9.34195 14.6523C12.2651 17.5779 15.6767 17.2671 18.2903 14.6523L21.9215 11.0176C24.5351 8.40279 24.8459 4.9888 21.9215 2.06321C20.4599 0.600415 18.8615 -0.0367663 17.3171 0.00163355ZM9.82795 7.27118C8.38675 7.36478 6.98395 8.05599 5.70956 9.33158L2.07837 12.9664C-0.846014 15.8919 -0.535215 19.3059 2.07837 21.9207C4.69076 24.5355 8.10355 24.8463 11.0267 21.9207L12.8615 20.0847C13.3295 19.6167 13.3295 18.8667 12.8615 18.3987C12.3935 17.9307 11.6063 17.9307 11.1383 18.3987L9.34195 20.2347C7.42916 22.1487 5.50197 21.9747 3.76317 20.2347C2.02438 18.4947 1.85038 16.5663 3.76317 14.6523L7.39436 11.0176C8.27636 10.1356 9.14755 9.72279 9.97795 9.66879C10.9823 9.60279 12.0359 10.0792 12.9731 11.0176L13.4975 11.542C13.9655 12.01 14.7143 12.01 15.1823 11.542C15.6503 11.074 15.6503 10.324 15.1823 9.856L14.6579 9.33158C13.2695 7.94199 11.5967 7.15478 9.82795 7.27118Z"
  />
</svg>
