<svg
  viewBox="0 0 16 16"
  xmlns="http://www.w3.org/2000/svg"
>
  <path
    d="M 8,0 C 5.7912,0 4,1.7912 4,4 V 5.6 C 2.6744,5.6 1.6,6.6744 1.6,8 v 5.6 C 1.6,14.9256 2.6744,16 4,16 h 8 c 1.3256,0 2.4,-1.0744 2.4,-2.4 V 8 C 14.4,6.6744 13.3256,5.6 12,5.6 V 4 C 12,1.7912 10.2088,0 8,0 Z m 0,1.6 c 1.3256,0 2.4,1.0744 2.4,2.4 V 5.6 H 5.6 V 4 C 5.6,2.6744 6.6744,1.6 8,1.6 Z M 4,7.2 h 0.8 6.4 0.8 c 0.4416,0 0.8,0.3584 0.8,0.8 v 5.6 c 0,0.4416 -0.3584,0.8 -0.8,0.8 H 4 C 3.5584,14.4 3.2,14.0416 3.2,13.6 V 8 C 3.2,7.5584 3.5584,7.2 4,7.2 Z M 8,8 C 6.6744,8 5.6,9.0744 5.6,10.4 v 0.8 c 0,1.3256 1.0744,2.4 2.4,2.4 1.3256,0 2.4,-1.0744 2.4,-2.4 V 10.4 C 10.4,9.0744 9.3256,8 8,8 Z m 0,1.6 c 0.4416,0 0.8,0.3584 0.8,0.8 v 0.8 C 8.8,11.6416 8.4416,12 8,12 7.5584,12 7.2,11.6416 7.2,11.2 V 10.4 C 7.2,9.9584 7.5584,9.6 8,9.6 Z"
  />
</svg>
