<svg
  viewBox="0 0 16 16"
  xmlns="http://www.w3.org/2000/svg"
>
  <path
    d="M 7.69992,0.06481941 C 7.65671,0.08322491 2.14705,2.39112 2.14866,2.39032 c 0.0072,-0.0032 0.01281,0.0112 0.04962,0 0.03121,-0.0088 0.03441,-0.01121 0.12484,-0.02481 0.01441,-0.0016 0.0392,8e-4 0.05041,0 -0.39212,0.0104 -0.77543,0.27768 -0.77543,0.80024 0,3.61148 0.12243,5.08074 0.75062,6.87645 0.82424,2.3599 2.46234,4.2589 5.25117,5.8522 0.24568,0.1408 0.55377,0.1408 0.80024,0 2.78727,-1.5925 4.42697,-3.4707 5.25117,-5.8266 0.6274,-1.79252 0.7506,-3.28336 0.7506,-6.87724 0,-0.31929 -0.1816,-0.59858 -0.4753,-0.72502 L 8.35051,0.06481941 c -0.20166,-0.0864259 -0.44892,-0.0864259 -0.65059,0 z M 8.00001,4.79104 c 0.88427,0 1.60049,0.71622 1.60049,1.60048 0,0.56817 -0.35451,0.9667 -0.80025,1.24998 v 1.95098 c 0,0.44172 -0.3585,0.80022 -0.80024,0.80022 -0.44173,0 -0.80023,-0.3585 -0.80023,-0.80022 V 7.6415 C 6.75404,7.35742 6.39954,6.95969 6.39954,6.39152 c 0,-0.88426 0.71621,-1.60048 1.60047,-1.60048 z"
  />
</svg>
