<svg
  viewBox="0 0 16 16"
  xmlns="http://www.w3.org/2000/svg"
>
  <path
    d="M8.4 0C6.1912 0 4.4 1.7912 4.4 4V5.6C3.0744 5.6 2 6.6744 2 8V13.6C2 14.9256 3.0744 16 4.4 16H12.4C13.7256 16 14.8 14.9256 14.8 13.6V8C14.8 6.6744 13.7256 5.6 12.4 5.6V4C12.4 1.7912 10.6088 0 8.4 0ZM8.4 1.6C9.7256 1.6 10.8 2.6744 10.8 4V5.6H6V4C6 2.6744 7.0744 1.6 8.4 1.6ZM4.4 7.2H5.2H11.6H12.4C12.8416 7.2 13.2 7.5584 13.2 8V13.6C13.2 14.0416 12.8416 14.4 12.4 14.4H4.4C3.9584 14.4 3.6 14.0416 3.6 13.6V8C3.6 7.5584 3.9584 7.2 4.4 7.2ZM8.4 8C7.0744 8 6 9.0744 6 10.4V11.2C6 12.5256 7.0744 13.6 8.4 13.6C9.7256 13.6 10.8 12.5256 10.8 11.2V10.4C10.8 9.0744 9.7256 8 8.4 8ZM8.4 9.6C8.8416 9.6 9.2 9.9584 9.2 10.4V11.2C9.2 11.6416 8.8416 12 8.4 12C7.9584 12 7.6 11.6416 7.6 11.2V10.4C7.6 9.9584 7.9584 9.6 8.4 9.6Z"
  />
</svg>
