<svg
  viewBox="0 0 16 16"
  xmlns="http://www.w3.org/2000/svg"
>
  <path
    d="M8.10182 0.0648194C8.05861 0.0832249 2.54895 2.39112 2.55056 2.39032C2.55776 2.38712 2.56337 2.40152 2.60018 2.39032C2.63139 2.38152 2.63459 2.37911 2.72502 2.36551C2.73943 2.36391 2.76422 2.36631 2.77543 2.36551C2.38331 2.37591 2 2.64319 2 3.16575C2 6.77723 2.12243 8.24649 2.75062 10.0422C3.57486 12.4021 5.21296 14.3011 8.00179 15.8944C8.24747 16.0352 8.55556 16.0352 8.80203 15.8944C11.5893 14.3019 13.229 12.4237 14.0532 10.0678C14.6806 8.27528 14.8038 6.78444 14.8038 3.19056C14.8038 2.87127 14.6222 2.59198 14.3285 2.46554L8.75241 0.0648194C8.55075 -0.0216065 8.30349 -0.0216065 8.10182 0.0648194ZM8.40191 4.79104C9.28618 4.79104 10.0024 5.50726 10.0024 6.39152C10.0024 6.95969 9.64789 7.35822 9.20215 7.6415V9.59248C9.20215 10.0342 8.84365 10.3927 8.40191 10.3927C7.96018 10.3927 7.60168 10.0342 7.60168 9.59248V7.6415C7.15594 7.35742 6.80144 6.95969 6.80144 6.39152C6.80144 5.50726 7.51765 4.79104 8.40191 4.79104Z"
  />
</svg>
