<svg
  viewBox="0 0 16 16"
  xmlns="http://www.w3.org/2000/svg"
>
  <path
    d="M3.55556 0C1.592 0 0 1.592 0 3.55556V12.4444C0 14.408 1.592 16 3.55556 16H12.4444C14.408 16 16 14.408 16 12.4444V3.55556C16 1.592 14.408 0 12.4444 0H3.55556ZM3.55556 1.77778H12.4444C13.4267 1.77778 14.2222 2.57333 14.2222 3.55556V12.4444C14.2222 13.4267 13.4267 14.2222 12.4444 14.2222H3.55556C2.57333 14.2222 1.77778 13.4267 1.77778 12.4444V3.55556C1.77778 2.57333 2.57333 1.77778 3.55556 1.77778ZM4.44444 3.55556C3.95378 3.55556 3.55556 3.95378 3.55556 4.44444C3.55556 4.93511 3.95378 5.33333 4.44444 5.33333C4.93511 5.33333 5.33333 4.93511 5.33333 4.44444C5.33333 3.95378 4.93511 3.55556 4.44444 3.55556ZM7.11111 3.55556C6.62044 3.55556 6.22222 3.95378 6.22222 4.44444C6.22222 4.93511 6.62044 5.33333 7.11111 5.33333H11.5556C12.0462 5.33333 12.4444 4.93511 12.4444 4.44444C12.4444 3.95378 12.0462 3.55556 11.5556 3.55556H7.11111ZM4.44444 7.11111C3.95378 7.11111 3.55556 7.50933 3.55556 8C3.55556 8.49067 3.95378 8.88889 4.44444 8.88889C4.93511 8.88889 5.33333 8.49067 5.33333 8C5.33333 7.50933 4.93511 7.11111 4.44444 7.11111ZM7.11111 7.11111C6.62044 7.11111 6.22222 7.50933 6.22222 8C6.22222 8.49067 6.62044 8.88889 7.11111 8.88889H11.5556C12.0462 8.88889 12.4444 8.49067 12.4444 8C12.4444 7.50933 12.0462 7.11111 11.5556 7.11111H7.11111ZM4.44444 10.6667C3.95378 10.6667 3.55556 11.0649 3.55556 11.5556C3.55556 12.0462 3.95378 12.4444 4.44444 12.4444C4.93511 12.4444 5.33333 12.0462 5.33333 11.5556C5.33333 11.0649 4.93511 10.6667 4.44444 10.6667ZM7.11111 10.6667C6.62044 10.6667 6.22222 11.0649 6.22222 11.5556C6.22222 12.0462 6.62044 12.4444 7.11111 12.4444H11.5556C12.0462 12.4444 12.4444 12.0462 12.4444 11.5556C12.4444 11.0649 12.0462 10.6667 11.5556 10.6667H7.11111Z"
  />
</svg>
