<svg
  viewBox="0 0 16 16"
  xmlns="http://www.w3.org/2000/svg"
>
  <path
    d="M7.273 0A7.306 7.306 0 0 0 6.2.08 7.267 7.267 0 0 0 4.82.426a7.23 7.23 0 0 0-3.597 2.812 7.294 7.294 0 0 0-.366.61 7.332 7.332 0 0 0-.716 2A7.267 7.267 0 0 0 .01 6.912a7.306 7.306 0 0 0 .025 1.08 7.285 7.285 0 0 0 .28 1.397 7.23 7.23 0 0 0 .908 1.92 7.237 7.237 0 0 0 .908 1.107 7.22 7.22 0 0 0 4.068 2.049 7.286 7.286 0 0 0 1.074.08 7.226 7.226 0 0 0 2.002-.281 7.304 7.304 0 0 0 .813-.286 7.34 7.34 0 0 0 1.5-.851l2.549 2.553c.026.026.055.05.084.074a1.08 1.08 0 0 0 .687.246 1.104 1.104 0 0 0 .41-.08 1.08 1.08 0 0 0 .436-.322c.023-.029.046-.058.066-.088a1.08 1.08 0 0 0 .18-.6 1.104 1.104 0 0 0-.08-.41 1.08 1.08 0 0 0-.238-.361l-2.551-2.555a7.271 7.271 0 0 0 .732-1.236 7.274 7.274 0 0 0 .223-.53c.033-.09.064-.18.094-.271.03-.091.06-.181.086-.274a7.327 7.327 0 0 0 .134-.56 7.246 7.246 0 0 0 .094-.57 7.191 7.191 0 0 0 .045-.579 7.227 7.227 0 0 0-.309-2.406 7.308 7.308 0 0 0-.716-1.619 7.25 7.25 0 0 0-1.631-1.893 7.267 7.267 0 0 0-.574-.423A7.36 7.36 0 0 0 9.725.426 7.23 7.23 0 0 0 7.273 0Zm0 2.182a5.077 5.077 0 0 1 1.48.22 5.033 5.033 0 0 1 .694.268 5.111 5.111 0 0 1 .65.367c.07.046.137.095.204.145.067.05.134.099.199.152a5.054 5.054 0 0 1 .71.713 5.086 5.086 0 0 1 .554.828 5.112 5.112 0 0 1 .302.682 5.117 5.117 0 0 1 .274 2.214 5.102 5.102 0 0 1-.194.971 5.087 5.087 0 0 1-.494 1.127 5.062 5.062 0 0 1-.757.98l-.02.02-.02.022a5.113 5.113 0 0 1-.773.627 5.08 5.08 0 0 1-.426.253 5.062 5.062 0 0 1-.677.297 5.109 5.109 0 0 1-.473.143 5.041 5.041 0 0 1-1.486.146 5.116 5.116 0 0 1-.499-.048A5.089 5.089 0 0 1 3.334 10.5c-.053-.065-.103-.132-.152-.2a5.07 5.07 0 0 1-.278-.413 5.112 5.112 0 0 1-.424-.899 5.033 5.033 0 0 1-.199-2.713 5.13 5.13 0 0 1 .5-1.4 5.112 5.112 0 0 1 .717-1.02c.056-.062.116-.122.176-.181.06-.06.12-.12.181-.176a5.116 5.116 0 0 1 3.418-1.316z"
  />
</svg>
