<svg
  viewBox="0 0 17 21"
  xmlns="http://www.w3.org/2000/svg"
>
  <path
    d="M8.9978 0.0141678C4.5795 0.0141678 0.997803 3.59616 0.997803 8.01416C0.997803 11.4812 3.2456 15.4261 6.279 18.7021C6.377 18.8071 6.4563 18.8891 6.5603 18.9831C7.4183 19.7521 8.3084 20.0241 8.9978 20.0141C9.0065 20.0141 9.022 20.0141 9.029 20.0141C9.7465 20.0141 10.7583 19.6911 11.7166 18.7331C14.6266 15.8231 16.9978 11.5322 16.9978 8.01416C16.9978 3.59616 13.4161 0.0141678 8.9978 0.0141678ZM8.9978 2.01417C12.3115 2.01417 14.9978 4.70016 14.9978 8.01416C14.9978 10.9002 12.8501 14.7242 10.279 17.2952C9.7373 17.8372 9.2528 18.0141 8.9978 18.0141C8.9766 18.0141 8.9615 18.0141 8.9666 18.0141C8.7392 18.0171 8.3423 17.9071 7.904 17.5141C7.846 17.4621 7.7726 17.3872 7.7166 17.3262C4.9958 14.3892 2.9978 10.8472 2.9978 8.01416C2.9978 4.70016 5.6841 2.01417 8.9978 2.01417ZM8.9978 5.01416C7.3409 5.01416 5.9978 6.35716 5.9978 8.01416C5.9978 9.67116 7.3409 11.0142 8.9978 11.0142C10.6547 11.0142 11.9978 9.67116 11.9978 8.01416C11.9978 6.35716 10.6547 5.01416 8.9978 5.01416ZM8.9978 7.01416C9.5501 7.01416 9.9978 7.46216 9.9978 8.01416C9.9978 8.56616 9.5501 9.01416 8.9978 9.01416C8.4455 9.01416 7.9978 8.56616 7.9978 8.01416C7.9978 7.46216 8.4455 7.01416 8.9978 7.01416Z"
  />
</svg>
