<svg
  viewBox="0 0 16 16"
  xmlns="http://www.w3.org/2000/svg"
>
  <path
    d="M 7.9999989,2.401894e-7 C 4.4653938,2.401894e-7 1.6000644,2.8655657 1.6000644,6.3999309 c 0,2.773605 1.7982199,5.9294941 4.224916,8.5502681 0.078399,0.084 0.1418386,0.149598 0.2250378,0.224798 0.6863932,0.615194 1.3984662,0.832791 1.9499807,0.824791 0.00696,0 0.01936,0 0.02496,0 0.5739943,0 1.3834257,-0.258397 2.150059,-1.024789 2.327977,-2.327978 4.224918,-5.7606641 4.224918,-8.5750681 C 14.399936,2.8655657 11.534604,2.401894e-7 7.9999989,2.401894e-7 Z m 0,1.5999859598106 c 2.6509341,0 4.7999531,2.1487708 4.7999531,4.7999447 0,2.308809 -1.718143,5.3679791 -3.7750033,7.4247591 -0.4333555,0.433596 -0.8209517,0.575114 -1.0249498,0.575114 -0.01696,0 -0.02904,0 -0.02496,0 -0.1819182,0.0024 -0.499435,-0.0856 -0.8500715,-0.399996 C 7.0785681,13.958209 7.0198486,13.898289 6.975049,13.84949 4.7984305,11.499913 3.2000463,8.6663409 3.2000463,6.3999309 c 0,-2.6511739 2.1490187,-4.7999447 4.7999526,-4.7999447 z m 0,2.3999684 c -1.3255068,0 -2.3999764,1.0743894 -2.3999764,2.3999763 0,1.325587 1.0744696,2.400008 2.3999764,2.400008 1.3255068,0 2.3999771,-1.074421 2.3999771,-2.400008 0,-1.3255869 -1.0744703,-2.3999763 -2.3999771,-2.3999763 z m 0,1.5999842 c 0.4418356,0 0.7999922,0.3583965 0.7999922,0.7999921 0,0.4415957 -0.3581565,0.7999921 -0.7999922,0.7999921 -0.4418355,0 -0.7999921,-0.3583964 -0.7999921,-0.7999921 0,-0.4415956 0.3581565,-0.7999921 0.7999921,-0.7999921 z"
  />
</svg>
