<svg
  viewBox="0 0 16 16"
  xmlns="http://www.w3.org/2000/svg"
>
  <path
    d="M 7.999997,-3.1e-6 4.8000035,3.1999982 h 2.400001 v 2.4000009 c 0,0.4416002 0.3584005,0.8000004 0.7999925,0.8000004 0.4416,0 0.8,-0.3584002 0.8,-0.8000004 V 3.1999982 h 2.400001 z M 3.2000029,4.7999988 0,8.0000001 3.2000029,11.200001 V 8.8000001 h 2.4000009 c 0.4416002,0 0.8000004,-0.3584 0.8000004,-0.8 0,-0.4416002 -0.3584002,-0.8000003 -0.8000004,-0.8000003 H 3.2000029 Z m 9.5999961,0 v 2.400001 h -2.400001 c -0.4416,0 -0.800001,0.3584001 -0.800001,0.8000003 0,0.4416 0.358401,0.8 0.800001,0.8 h 2.400001 V 11.200001 L 16,8.0000001 Z M 7.999997,9.6000011 c -0.441592,0 -0.7999925,0.3584 -0.7999925,0.7999999 v 2.400001 h -2.400001 l 3.1999935,3.200001 3.200001,-3.200001 H 8.799997 v -2.400001 c 0,-0.4415999 -0.3584,-0.7999999 -0.8,-0.7999999 z"
  />
</svg>
