<svg
  viewBox="0 0 16 16"
  xmlns="http://www.w3.org/2000/svg"
>
  <path
    d="M3.2 2C1.4328 2 0 3.4328 0 5.19999V11.6C0 13.3672 1.4328 14.8 3.2 14.8H12.8C14.5672 14.8 16 13.3672 16 11.6V5.19999C16 3.4328 14.5672 2 12.8 2H3.2ZM3.2 3.6H12.8C13.6064 3.6 14.2728 4.192 14.3832 4.968C13.6168 5.6824 12.4776 6.55919 11.7248 7.09999C9.9928 8.34398 8.4688 9.19998 8 9.19998C7.5312 9.19998 6.0072 8.34478 4.2752 7.09999C3.5224 6.55919 2.7824 5.97439 2.2248 5.49999C1.9872 5.29759 1.8112 5.13439 1.6752 4.99999C1.7856 4.22399 2.3936 3.6 3.2 3.6ZM1.60801 7.08319C3.63841 8.72559 6.6136 10.7904 8 10.8C8.9032 10.8064 10.448 9.94398 12.024 8.85518C12.8392 8.29118 13.7464 7.62158 14.4008 7.07198L14.4 11.6C14.4 12.484 13.684 13.2 12.8 13.2H3.2C2.316 13.2 1.6 12.484 1.6 11.6L1.60801 7.08319Z"
  />
</svg>
