<svg
  viewBox="0 0 16 16"
  xmlns="http://www.w3.org/2000/svg"
>
  <path
    d="M 7.2734375,0 C 7.1528845,0 7.0319458,0.0038206 6.9121094,0.00976563 6.7922729,0.01571065 6.6736087,0.0233485 6.5546875,0.03515625 6.4357663,0.046964 6.317026,0.06248996 6.1992187,0.08007812 6.0814115,0.09766629 5.9641509,0.11733873 5.8476562,0.140625 5.7311616,0.16391127 5.6149832,0.18984794 5.5,0.21875 5.3850168,0.24765206 5.2714763,0.28001757 5.1582031,0.31445313 5.0449299,0.34888868 4.9316769,0.38589451 4.8203125,0.42578125 4.7089481,0.46566799 4.5994913,0.50747876 4.4902344,0.55273437 4.3809775,0.59798999 4.2729664,0.64672345 4.1660156,0.69726562 4.0590649,0.7478078 3.9521021,0.80167544 3.8476563,0.85742188 3.7432104,0.91316831 3.6408047,0.97038161 3.5390625,1.03125 3.4373203,1.0921184 3.3371212,1.1567482 3.2382813,1.2226562 3.1394413,1.2885643 3.0410514,1.356869 2.9453125,1.4277344 c -0.095739,0.070865 -0.1888108,0.1430096 -0.28125,0.21875 -0.092439,0.07574 -0.1844967,0.1538418 -0.2734375,0.234375 -0.088941,0.080533 -0.174522,0.1647564 -0.2597656,0.25 -0.085244,0.085244 -0.1694669,0.1708248 -0.25,0.2597656 -0.080533,0.088941 -0.1586346,0.1809983 -0.234375,0.2734375 -0.07574,0.092439 -0.1478847,0.1855111 -0.21875,0.28125 C 1.356869,3.0410514 1.2885643,3.1394413 1.2226562,3.2382813 1.1567482,3.3371212 1.0921184,3.4373203 1.03125,3.5390625 0.97038161,3.6408047 0.91316831,3.7432104 0.85742188,3.8476563 0.80167544,3.9521021 0.7478078,4.0590649 0.69726562,4.1660156 0.64672345,4.2729664 0.59798999,4.3809775 0.55273437,4.4902344 0.50747876,4.5994913 0.46566799,4.7089481 0.42578125,4.8203125 0.38589451,4.9316769 0.34888868,5.0449299 0.31445313,5.1582031 0.28001757,5.2714763 0.24765206,5.3850168 0.21875,5.5 0.18984794,5.6149832 0.16391127,5.7311616 0.140625,5.8476562 0.11733873,5.9641509 0.09766629,6.0814115 0.08007812,6.1992187 0.06248996,6.317026 0.046964,6.4357663 0.03515625,6.5546875 0.0233485,6.6736087 0.01571065,6.7922729 0.00976563,6.9121094 0.0038206,7.0319458 0,7.1528845 0,7.2734375 0,7.3939905 0.0038206,7.5129763 0.00976563,7.6328125 0.01571065,7.7526487 0.0233485,7.8732667 0.03515625,7.9921875 0.046964,8.1111083 0.06248996,8.2298496 0.08007812,8.3476563 0.09766629,8.4654629 0.11733873,8.5807717 0.140625,8.6972656 c 0.0232863,0.1164939 0.0492229,0.2326738 0.078125,0.3476563 0.0289021,0.1149824 0.0612676,0.2304777 0.0957031,0.34375 0.0344355,0.1132723 0.0714414,0.224574 0.11132812,0.3359375 0.0398867,0.1113635 0.0816975,0.2227752 0.12695312,0.3320316 0.0452556,0.109256 0.0939891,0.217269 0.14453125,0.324218 0.0505422,0.10695 0.10440982,0.211962 0.16015626,0.316407 0.0557464,0.104445 0.11295973,0.206852 0.17382812,0.308593 0.060868,0.101742 0.1254982,0.203896 0.1914062,0.302735 0.065908,0.09884 0.1342128,0.195277 0.2050782,0.291015 0.070865,0.09574 0.1430096,0.190765 0.21875,0.283204 0.07574,0.09244 0.1538418,0.182543 0.234375,0.271484 0.080533,0.08894 0.1647564,0.176475 0.25,0.261719 0.085244,0.08524 0.1708248,0.167513 0.2597656,0.248047 0.088941,0.08053 0.1809983,0.158633 0.2734375,0.234375 0.092439,0.07574 0.1855111,0.149836 0.28125,0.220703 0.095739,0.07087 0.1941288,0.139168 0.2929688,0.205078 0.09884,0.06591 0.199039,0.128583 0.3007812,0.189453 0.1017422,0.06087 0.2041479,0.120033 0.3085938,0.175781 0.1044458,0.05575 0.2114086,0.107659 0.3183593,0.158203 0.1069508,0.05054 0.2149619,0.09927 0.3242188,0.144532 0.1092569,0.04526 0.2187137,0.08706 0.3300781,0.126953 0.1113644,0.03989 0.2246174,0.07689 0.3378906,0.111328 0.1132732,0.03444 0.2268137,0.0668 0.3417969,0.0957 0.1149832,0.0289 0.2311616,0.05484 0.3476562,0.07813 0.1164947,0.02329 0.2337553,0.04296 0.3515625,0.06055 0.1178073,0.01759 0.2365476,0.03311 0.3554688,0.04492 0.1189212,0.01181 0.2375854,0.0214 0.3574219,0.02734 0.1198364,0.0059 0.2407751,0.0078 0.3613281,0.0078 0.097656,0 0.1938172,-0.002 0.2910156,-0.0059 0.097198,-0.0039 0.1943806,-0.0098 0.2910156,-0.01758 0.096635,-0.0078 0.1930965,-0.01771 0.2890626,-0.0293 0.095966,-0.01159 0.1919179,-0.0237 0.2871093,-0.03906 0.095191,-0.01536 0.188892,-0.03364 0.2832032,-0.05273 0.094311,-0.0191 0.1898779,-0.03972 0.2832031,-0.0625 0.093325,-0.02279 0.1851101,-0.04779 0.2773437,-0.07422 0.092234,-0.02643 0.1843542,-0.05396 0.2753907,-0.08398 0.091036,-0.03003 0.1817507,-0.06212 0.2714843,-0.0957 0.089734,-0.03358 0.1772998,-0.06837 0.2656254,-0.105468 0.08832,-0.0371 0.17686,-0.07662 0.263672,-0.117188 0.08681,-0.04057 0.172621,-0.08296 0.257812,-0.126953 0.08519,-0.04399 0.17044,-0.08935 0.253906,-0.136719 0.08347,-0.04737 0.164459,-0.09578 0.246094,-0.146484 0.08164,-0.05071 0.162489,-0.104203 0.242188,-0.158203 0.0797,-0.054 0.158671,-0.108766 0.236328,-0.166016 l 2.548828,2.552735 c 0.02661,0.02665 0.05544,0.05089 0.08398,0.07422 0.02855,0.02332 0.05766,0.04641 0.08789,0.06641 0.06046,0.03999 0.123813,0.07292 0.189453,0.09961 0.06564,0.02668 0.13242,0.04717 0.201172,0.06055 0.06875,0.01337 0.139187,0.01947 0.208984,0.01953 0.0698,6.2e-5 0.140211,-0.0063 0.208985,-0.01953 0.06877,-0.01325 0.135488,-0.03398 0.201171,-0.06055 0.06568,-0.02657 0.128928,-0.05973 0.189454,-0.09961 0.03026,-0.01994 0.06126,-0.04118 0.08984,-0.06445 0.02859,-0.02327 0.05538,-0.04762 0.08203,-0.07422 0.02665,-0.02661 0.05089,-0.05544 0.07422,-0.08399 0.02332,-0.02855 0.04641,-0.05766 0.06641,-0.08789 0.03999,-0.06046 0.07292,-0.123814 0.09961,-0.189453 0.02668,-0.06564 0.04717,-0.13242 0.06055,-0.201172 0.01337,-0.06875 0.01947,-0.139188 0.01953,-0.208985 6.2e-5,-0.0698 -0.0063,-0.14021 -0.01953,-0.208984 -0.01325,-0.06877 -0.03398,-0.135488 -0.06055,-0.201172 -0.02657,-0.06568 -0.05973,-0.128928 -0.09961,-0.189453 -0.01994,-0.03026 -0.04118,-0.06126 -0.06445,-0.08984 -0.02327,-0.02858 -0.04762,-0.05538 -0.07422,-0.08203 l -2.550782,-2.554688 c 0.0571,-0.07759 0.112158,-0.1567 0.166016,-0.236328 0.05386,-0.07963 0.105678,-0.16063 0.15625,-0.242187 0.05057,-0.08156 0.09924,-0.164665 0.146484,-0.248047 0.04724,-0.08338 0.09285,-0.166853 0.136719,-0.251953 0.04387,-0.0851 0.0865,-0.171099 0.126953,-0.257813 0.04045,-0.08671 0.08019,-0.173496 0.117188,-0.261718 0.03699,-0.088223 0.07198,-0.1779528 0.105469,-0.2675786 0.03349,-0.089626 0.06381,-0.1805606 0.09375,-0.2714844 0.02994,-0.090924 0.05958,-0.1813209 0.08594,-0.2734375 0.02635,-0.092117 0.04955,-0.1860928 0.07227,-0.2792969 0.02272,-0.093204 0.04346,-0.1870636 0.0625,-0.28125 0.01904,-0.094186 0.03741,-0.1881397 0.05273,-0.2832031 0.01532,-0.095063 0.02946,-0.1912742 0.04102,-0.2871094 0.01155,-0.095835 0.0196,-0.1906076 0.02734,-0.2871094 0.0077,-0.096502 0.01368,-0.1939524 0.01758,-0.2910156 0.0039,-0.097063 0.0059,-0.1934963 0.0059,-0.2910156 0,-0.120553 -0.0019,-0.2414917 -0.0078,-0.3613281 -0.0059,-0.1198365 -0.01553,-0.2385007 -0.02734,-0.3574219 C 14.497957,6.4357663 14.482433,6.317026 14.464844,6.1992187 14.447254,6.0814115 14.427585,5.9641509 14.404297,5.8476562 14.381009,5.7311616 14.355076,5.6149832 14.326172,5.5 14.297268,5.3850168 14.264906,5.2714763 14.230469,5.1582031 14.196031,5.0449299 14.159029,4.9316769 14.119141,4.8203125 14.079252,4.7089481 14.037445,4.5994913 13.992188,4.4902344 13.94693,4.3809775 13.898201,4.2729664 13.847656,4.1660156 13.797112,4.0590649 13.745202,3.9521021 13.689453,3.8476563 13.633705,3.7432104 13.574542,3.6408047 13.513672,3.5390625 13.452802,3.4373203 13.390128,3.3371212 13.324219,3.2382813 13.258309,3.1394413 13.190007,3.0410514 13.119141,2.9453125 13.048274,2.8495736 12.974179,2.7565017 12.898438,2.6640625 12.822696,2.5716233 12.744596,2.4795658 12.664063,2.390625 12.583529,2.3016842 12.501259,2.216103 12.416016,2.1308594 c -0.08524,-0.085244 -0.172779,-0.1694669 -0.261719,-0.25 -0.08894,-0.080533 -0.179046,-0.1586346 -0.271484,-0.234375 -0.09244,-0.07574 -0.187465,-0.1478847 -0.283204,-0.21875 C 11.503871,1.356869 11.407433,1.2885643 11.308594,1.2226562 11.209755,1.1567482 11.107601,1.0921184 11.005859,1.03125 10.904118,0.97038161 10.801711,0.91316831 10.697266,0.85742188 10.592821,0.80167544 10.487809,0.7478078 10.380859,0.69726562 10.27391,0.64672345 10.165897,0.59798999 10.056641,0.55273437 9.9473846,0.50747876 9.8359729,0.46566799 9.7246094,0.42578125 9.6132459,0.38589451 9.5019442,0.34888868 9.3886719,0.31445313 9.2753996,0.28001757 9.1599043,0.24765206 9.0449219,0.21875 8.9299394,0.18984794 8.8137595,0.16391127 8.6972656,0.140625 8.5807717,0.11733873 8.4654629,0.09766629 8.3476563,0.08007812 8.2298496,0.06248996 8.1111083,0.046964 7.9921875,0.03515625 7.8732667,0.0233485 7.7526487,0.01571065 7.6328125,0.00976563 7.5129763,0.0038206 7.3939905,0 7.2734375,0 Z m 0,2.1816406 c 0.084387,0 0.1680679,0.0017 0.2519531,0.00586 0.083885,0.00416 0.1667555,0.011266 0.25,0.019531 0.083245,0.00827 0.1675353,0.018938 0.25,0.03125 0.082465,0.012312 0.164548,0.026668 0.2460938,0.042969 0.081546,0.0163 0.1616997,0.034456 0.2421875,0.054687 0.080488,0.020231 0.1609437,0.042301 0.2402344,0.066406 0.079291,0.024105 0.1564206,0.050204 0.234375,0.078125 0.077954,0.027921 0.1559428,0.058165 0.2324218,0.089844 0.076479,0.031679 0.151698,0.06423 0.2265625,0.099609 0.074865,0.03538 0.1495454,0.072306 0.2226563,0.1113281 0.073111,0.039023 0.1455786,0.080439 0.2167969,0.1230469 0.071218,0.042608 0.1417512,0.086677 0.2109372,0.1328125 0.06919,0.046136 0.13611,0.094925 0.203125,0.1445312 0.06702,0.049606 0.134514,0.099325 0.199219,0.1523438 0.06471,0.053018 0.127197,0.1076892 0.189453,0.1640625 0.06226,0.056373 0.123926,0.1161107 0.183594,0.1757812 0.05968,0.059671 0.117451,0.1193821 0.173828,0.1816407 0.05638,0.062258 0.111042,0.1266988 0.164063,0.1914062 0.05302,0.064707 0.104689,0.1302485 0.154296,0.1972656 0.04961,0.067017 0.09644,0.1358903 0.142579,0.2050781 0.04614,0.069188 0.0902,0.137765 0.132812,0.2089844 0.04261,0.07122 0.08402,0.1436849 0.123047,0.2167969 0.03902,0.073112 0.07595,0.1477908 0.111328,0.2226562 0.03538,0.074865 0.06988,0.1500828 0.101563,0.2265625 0.03168,0.07648 0.06192,0.1544669 0.08984,0.2324219 0.02792,0.077955 0.05402,0.1570369 0.07813,0.2363281 0.0241,0.079291 0.04618,0.157793 0.06641,0.2382813 0.02023,0.080488 0.03839,0.1625943 0.05469,0.2441406 0.0163,0.081546 0.03066,0.1636286 0.04297,0.2460938 0.01231,0.082465 0.02103,0.1648018 0.0293,0.2480468 0.0083,0.083245 0.01537,0.1661143 0.01953,0.25 0.0042,0.083886 0.0059,0.1695189 0.0059,0.2539063 0,0.08374 -0.0018,0.1667534 -0.0059,0.25 -0.0041,0.083247 -0.0094,0.1654295 -0.01758,0.2480469 -0.0081,0.082617 -0.01913,0.1661947 -0.03125,0.2480469 -0.01212,0.081852 -0.02692,0.1631895 -0.04297,0.2441406 -0.01605,0.080951 -0.03281,0.1603204 -0.05273,0.2402344 -0.01993,0.079914 -0.04266,0.1595403 -0.06641,0.2382812 -0.02374,0.078741 -0.04867,0.1569431 -0.07617,0.234375 -0.0275,0.077432 -0.05668,0.1544818 -0.08789,0.2304688 -0.03121,0.075987 -0.06475,0.1502033 -0.09961,0.2246093 -0.03486,0.074406 -0.07093,0.148014 -0.109375,0.2207032 -0.03845,0.072689 -0.07911,0.1459604 -0.121094,0.2167968 -0.04198,0.070836 -0.0854,0.1401364 -0.13086,0.2089844 -0.04546,0.06885 -0.09369,0.136402 -0.142578,0.203125 -0.04889,0.06672 -0.09814,0.132803 -0.15039,0.197266 -0.05225,0.06446 -0.106546,0.127387 -0.16211,0.189453 -0.05556,0.06207 -0.113056,0.122107 -0.171875,0.18164 -0.0062,0.006 -0.01333,0.01333 -0.01953,0.01953 -0.0069,0.0069 -0.01283,0.01438 -0.01953,0.02148 -0.05956,0.059 -0.121485,0.116138 -0.183594,0.171875 -0.06211,0.05574 -0.124937,0.109693 -0.189453,0.162109 -0.06452,0.05242 -0.130478,0.103304 -0.197266,0.152344 -0.06679,0.04904 -0.134203,0.09502 -0.203125,0.140625 -0.06892,0.04561 -0.1380642,0.0907 -0.2089841,0.132813 -0.07092,0.04212 -0.1440157,0.08252 -0.2167969,0.121093 -0.072781,0.03857 -0.1461972,0.07441 -0.2207031,0.109375 -0.074506,0.03497 -0.1504685,0.0683 -0.2265625,0.09961 -0.076094,0.03131 -0.1529233,0.0603 -0.2304688,0.08789 -0.077545,0.02759 -0.1555147,0.0543 -0.234375,0.07813 -0.07886,0.02382 -0.1582427,0.04446 -0.2382812,0.06445 -0.080039,0.01999 -0.1591542,0.03858 -0.2402344,0.05469 -0.08108,0.01611 -0.1641086,0.0308 -0.2460937,0.04297 -0.081985,0.01217 -0.1633402,0.02308 -0.2460938,0.03125 -0.082754,0.0082 -0.1666146,0.01347 -0.25,0.01758 -0.083385,0.0041 -0.1661195,0.0059 -0.25,0.0059 -0.084387,0 -0.1700205,-0.0017 -0.2539063,-0.0059 -0.083886,-0.0042 -0.1667549,-0.01127 -0.25,-0.01953 -0.083245,-0.0083 -0.1655816,-0.01699 -0.2480468,-0.0293 -0.082465,-0.01231 -0.1645475,-0.02667 -0.2460938,-0.04297 -0.081546,-0.0163 -0.1636523,-0.03446 -0.2441406,-0.05469 -0.080488,-0.02023 -0.15899,-0.0423 -0.2382813,-0.06641 -0.079291,-0.0241 -0.158373,-0.05021 -0.2363281,-0.07813 -0.077955,-0.02792 -0.1559421,-0.05817 -0.2324219,-0.08984 C 5.247739,11.944884 5.1725217,11.910379 5.0976562,11.875 5.0227908,11.839621 4.948112,11.802694 4.875,11.763672 4.801888,11.724649 4.7294226,11.683233 4.6582031,11.640625 4.5869837,11.598017 4.5184066,11.553949 4.4492187,11.507813 4.3800309,11.461676 4.3111578,11.414842 4.2441406,11.365234 4.1771235,11.315627 4.1115824,11.263958 4.046875,11.210938 3.9821676,11.157917 3.9177273,11.103252 3.8554688,11.046875 3.7932102,10.990498 3.7334987,10.932722 3.6738281,10.873047 3.6141576,10.813379 3.5544201,10.751709 3.4980469,10.689453 3.4416736,10.627197 3.3870027,10.564705 3.3339844,10.5 3.2809661,10.435295 3.2312464,10.367797 3.1816406,10.300781 3.1320349,10.233766 3.083245,10.166843 3.0371094,10.097656 2.9909738,10.02847 2.9469047,9.957937 2.9042969,9.8867188 2.861689,9.8155005 2.8202725,9.7430328 2.78125,9.6699219 2.7422275,9.596811 2.7053014,9.5221301 2.6699219,9.4472656 2.6345424,9.3724011 2.6019914,9.2971821 2.5703125,9.2207031 2.5386336,9.1442241 2.5083894,9.0662356 2.4804688,8.9882813 2.4525481,8.9103269 2.4264486,8.8331969 2.4023438,8.7539063 2.3782389,8.6746156 2.3561689,8.5941596 2.3359375,8.5136719 2.3157061,8.4331841 2.2975503,8.3530302 2.28125,8.2714844 c -0.0163,-0.081546 -0.030657,-0.1636291 -0.042969,-0.2460938 -0.012312,-0.082465 -0.022985,-0.1667555 -0.03125,-0.25 -0.00827,-0.083244 -0.01537,-0.1661148 -0.019531,-0.25 -0.00416,-0.083885 -0.00586,-0.1675663 -0.00586,-0.2519531 0,-0.084387 0.0017,-0.1700205 0.00586,-0.2539063 0.00416,-0.083886 0.011266,-0.1667549 0.019531,-0.25 0.00827,-0.083245 0.018938,-0.1655816 0.03125,-0.2480468 0.012312,-0.082465 0.026668,-0.1645475 0.042969,-0.2460938 0.0163,-0.081546 0.034456,-0.1636523 0.054687,-0.2441406 0.020231,-0.080488 0.042301,-0.15899 0.066406,-0.2382813 0.024105,-0.079291 0.050204,-0.158373 0.078125,-0.2363281 0.027921,-0.077955 0.058165,-0.1559421 0.089844,-0.2324219 0.031679,-0.07648 0.06423,-0.151697 0.099609,-0.2265625 C 2.7053014,5.0227908 2.7422275,4.948112 2.78125,4.875 2.8202725,4.801888 2.861689,4.7294226 2.9042969,4.6582031 2.9469047,4.5869837 2.9909738,4.5184066 3.0371094,4.4492187 3.083245,4.3800309 3.1320349,4.3111578 3.1816406,4.2441406 3.2312464,4.1771235 3.2809661,4.1115824 3.3339844,4.046875 3.3870027,3.9821676 3.4416736,3.9177273 3.4980469,3.8554688 3.5544201,3.7932102 3.6141576,3.7334987 3.6738281,3.6738281 3.7334987,3.6141576 3.7932102,3.5544201 3.8554688,3.4980469 3.9177273,3.4416736 3.9821676,3.3870027 4.046875,3.3339844 4.1115824,3.2809661 4.1771235,3.2312464 4.2441406,3.1816406 4.3111578,3.1320349 4.3800309,3.083245 4.4492187,3.0371094 4.5184066,2.9909738 4.5869837,2.9469047 4.6582031,2.9042969 4.7294226,2.861689 4.801888,2.8202725 4.875,2.78125 4.948112,2.7422275 5.0227908,2.7053014 5.0976562,2.6699219 c 0.074865,-0.035379 0.1500828,-0.06793 0.2265625,-0.099609 0.07648,-0.031679 0.1544669,-0.061923 0.2324219,-0.089844 0.077955,-0.027921 0.1570369,-0.05402 0.2363281,-0.078125 0.079291,-0.024105 0.157793,-0.046175 0.2382813,-0.066406 0.080488,-0.020231 0.1625943,-0.038387 0.2441406,-0.054687 0.081546,-0.0163 0.1636286,-0.030657 0.2460938,-0.042969 0.082465,-0.012312 0.1648018,-0.022985 0.2480468,-0.03125 0.083245,-0.00827 0.1661143,-0.01537 0.25,-0.019531 0.083886,-0.00416 0.1695189,-0.00586 0.2539063,-0.00586 z"
  />
</svg>
