<svg
  viewBox="0 0 16 16"
  xmlns="http://www.w3.org/2000/svg"
>
  <path
    d="M 3.2,1.6 C 1.4328,1.6 0,3.0328 0,4.79999 V 11.2 c 0,1.7672 1.4328,3.2 3.2,3.2 h 9.6 c 1.7672,0 3.2,-1.4328 3.2,-3.2 V 4.79999 C 16,3.0328 14.5672,1.6 12.8,1.6 Z m 0,1.6 h 9.6 c 0.8064,0 1.4728,0.592 1.5832,1.368 C 13.6168,5.2824 12.4776,6.15919 11.7248,6.69999 9.9928,7.94398 8.4688,8.79998 8,8.79998 7.5312,8.79998 6.0072,7.94478 4.2752,6.69999 3.5224,6.15919 2.7824,5.57439 2.2248,5.09999 1.9872,4.89759 1.8112,4.73439 1.6752,4.59999 1.7856,3.82399 2.3936,3.2 3.2,3.2 Z M 1.60801,6.68319 C 3.63841,8.32559 6.6136,10.3904 8,10.4 c 0.9032,0.0064 2.448,-0.85602 4.024,-1.94482 0.8152,-0.564 1.7224,-1.2336 2.3768,-1.7832 L 14.4,11.2 c 0,0.884 -0.716,1.6 -1.6,1.6 H 3.2 c -0.884,0 -1.6,-0.716 -1.6,-1.6 z"
  />
</svg>
