<svg
  viewBox="0 0 16 16"
  xmlns="http://www.w3.org/2000/svg"
>
  <path
    fill-rule="evenodd"
    clip-rule="evenodd"
    d="M7.27273 2.18182C5.92253 2.18182 4.62764 2.71818 3.67291 3.67291C2.71818 4.62764 2.18182 5.92253 2.18182 7.27273C2.18182 8.62292 2.71818 9.91781 3.67291 10.8725C4.62764 11.8273 5.92253 12.3636 7.27273 12.3636C8.61482 12.3636 9.90227 11.8337 10.8553 10.8897C10.862 10.8826 10.8689 10.8756 10.8758 10.8687C10.882 10.8625 10.8882 10.8565 10.8944 10.8505C11.8355 9.89797 12.3636 8.61257 12.3636 7.27273C12.3636 5.92253 11.8273 4.62764 10.8725 3.67291C9.91781 2.71818 8.62292 2.18182 7.27273 2.18182ZM13.1305 11.5832C14.0441 10.3417 14.5455 8.83304 14.5455 7.27273C14.5455 5.34388 13.7792 3.49403 12.4153 2.13013C11.0514 0.766232 9.20158 0 7.27273 0C5.34388 0 3.49403 0.766232 2.13013 2.13013C0.766232 3.49403 0 5.34388 0 7.27273C0 9.20158 0.766232 11.0514 2.13013 12.4153C3.49403 13.7792 5.34388 14.5455 7.27273 14.5455C8.83523 14.5455 10.3459 14.0426 11.5884 13.1266L14.137 15.6798C14.5627 16.1062 15.2534 16.1068 15.6798 15.6812C16.1062 15.2555 16.1068 14.5648 15.6812 14.1384L13.1305 11.5832Z"
  />
</svg>
