<svg
  viewBox="0 0 21 20"
  xmlns="http://www.w3.org/2000/svg"
>
  <path
    d="M10.5 0L6.50001 4H9.50001V7C9.50001 7.552 9.94801 8 10.5 8C11.052 8 11.5 7.552 11.5 7V4H14.5L10.5 0ZM4.50001 6L0.500008 10L4.50001 14V11H7.50001C8.05201 11 8.50001 10.552 8.50001 10C8.50001 9.448 8.05201 9 7.50001 9H4.50001V6ZM16.5 6V9H13.5C12.948 9 12.5 9.448 12.5 10C12.5 10.552 12.948 11 13.5 11H16.5V14L20.5 10L16.5 6ZM10.5 12C9.94801 12 9.50001 12.448 9.50001 13V16H6.50001L10.5 20L14.5 16H11.5V13C11.5 12.448 11.052 12 10.5 12Z"
  />
</svg>
