<svg
  viewBox="0 0 24 22"
  xmlns="http://www.w3.org/2000/svg"
>
  <path
    d="M8.4 0C7.07448 0 6 1.074 6 2.4V3.6H3.6C1.61184 3.6 0 5.2116 0 7.2V14.4C0 16.3884 1.61172 18 3.6 18H6V19.2C6 20.526 7.07448 21.6 8.4 21.6H15.6C16.9255 21.6 18 20.526 18 19.2V18H20.4C22.3882 18 24 16.3884 24 14.4V8.4C24 6.4116 22.3883 4.8 20.4 4.8H18V2.4C18 1.074 16.9255 0 15.6 0H8.4ZM8.4 2.4H15.6V4.8H8.7L8.4 4.65V2.4ZM3.6 6H5.7L7.875 7.08721C8.04168 7.17121 8.21376 7.2 8.4 7.2H20.4C21.0628 7.2 21.6 7.7376 21.6 8.4V14.4C21.6 15.0624 21.0628 15.6 20.4 15.6H18V13.2C18.6628 13.2 19.2 12.6624 19.2 12C19.2 11.3376 18.6628 10.8 18 10.8H16.8H7.2H6C5.33724 10.8 4.8 11.3376 4.8 12C4.8 12.6624 5.33724 13.2 6 13.2V15.6H3.6C2.93724 15.6 2.4 15.0624 2.4 14.4V7.2C2.4 6.5376 2.93724 6 3.6 6ZM4.8 7.2C4.13724 7.2 3.6 7.7376 3.6 8.4C3.6 9.0624 4.13724 9.6 4.8 9.6C5.46276 9.6 6 9.0624 6 8.4C6 7.7376 5.46276 7.2 4.8 7.2ZM8.4 13.2H15.6V19.2H8.4V13.2Z"
  />
</svg>
