<svg
  viewBox="0 0 16 16"
  xmlns="http://www.w3.org/2000/svg"
>
  <path
    d="m 8,-3.814695e-6 c -4.41824,0 -8,3.581597614695 -8,7.999997614695 0,4.4184102 3.58176,8.0000102 8,8.0000102 4.4182,0 8,-3.5816 8,-8.0000102 C 16,3.5815938 12.4182,-3.814695e-6 8,-3.814695e-6 Z M 8,1.5999938 c 3.5346,0 6.4,2.8656 6.4,6.4 0,3.5344102 -2.8654,6.4000102 -6.4,6.4000102 -3.53464,0 -6.4,-2.8656 -6.4,-6.4000102 0,-3.5344 2.86536,-6.4 6.4,-6.4 z m -1.9,3.32481 c -0.29496,0.1584 -0.5,0.45519 -0.5,0.87519 v 4.4000102 c 0,0.8392 0.83512,1.2416 1.52496,0.8496 L 10.375,9.1999938 c 1.1028,-0.684 1.0629,-1.74 0,-2.4 l -3.25004,-1.84959 c -0.34488,-0.196 -0.73,-0.184 -1.02496,-0.0256 z"
  />
</svg>
