<svg
  viewBox="0 0 16 16"
  xmlns="http://www.w3.org/2000/svg"
>
  <path
    d="m 14.775348,1.2446911 c -0.2904,-0.071198 -0.620479,-0.059988 -1.024959,0.049616 C 11.406951,1.9295225 2.0916463,4.9567761 1.3250709,5.2959838 0.48961002,5.6655915 0.00751962,6.3168069 7.9422238e-5,7.1712222 -0.00984058,8.3136453 0.91097532,9.2104849 2.0001264,9.1720849 c 0.03504,-8e-4 1.3826628,0.0176 2.1500462,0.0256 0,0 0.6849755,3.4248771 0.7015354,3.4656771 0.1999199,0.491199 0.6688875,0.637599 1.0734632,0.460799 l 2.2750616,-1.000799 c 0.25752,0.2536 1.9891192,1.926399 2.1750392,2.075999 0.554079,0.444799 1.032879,0.584879 1.625038,0.600079 0.95344,0.0248 1.786239,-0.53608 2.225039,-1.450479 0.275439,-0.573599 1.559198,-8.6065768 1.675038,-9.4034001 0.184,-1.264831 0.1424,-1.7616386 -0.37504,-2.2760541 C 15.317428,1.4631069 15.065828,1.315099 14.775348,1.2446911 Z m -0.37504,1.5512387 c 0,0 0.03888,0.1415999 -0.07496,0.9240153 -0.407279,2.8016697 -1.372478,8.5338169 -1.574958,9.0034169 -0.13832,0.321599 -0.4156,0.483999 -0.72512,0.475199 -0.272399,-0.0072 -0.407999,-0.0552 -0.649999,-0.249599 -0.12448,-0.1 -0.68456,-0.632 -1.4749592,-1.400799 -0.0099,-0.0096 -1.576559,-1.538479 -1.576559,-1.538479 -0.152719,-0.1520001 -0.296239,-0.2424001 -0.5969431,-0.2456001 -0.1748879,0 -0.4056877,0.1328 -0.4056877,0.1328 L 6.118051,10.915363 5.7002033,8.8720849 10.725271,6.7216306 c 0.40592,-0.1744079 0.5996,-0.6448315 0.42504,-1.0504391 C 10.975831,5.2647758 10.506232,5.071192 10.100312,5.2455918 L 4.6501802,7.5968459 C 4.3398525,7.5952459 2.0274064,7.5688379 1.9501184,7.5720379 1.7721186,7.5776379 1.5981107,7.40323 1.6001107,7.1712222 1.6017107,6.9856224 1.6835586,6.8752385 1.9750784,6.7464306 2.6507738,6.4472228 11.85359,3.4623373 14.125029,2.8471218 c 0.214239,-0.0584 0.275279,-0.051192 0.275279,-0.051192 z"
  />
</svg>
