<svg
  viewBox="0 0 16 16"
  xmlns="http://www.w3.org/2000/svg"
>
  <path
    d="M4.84961 0C3.28881 0 2 1.184 2 2.6752V13.3248C2 14.816 3.28881 16 4.84961 16H11.9504C13.5112 16 14.8 14.816 14.8 13.3248C14.8 12.804 14.8 7.0864 14.8 5.6C14.8 5.592 14.8 5.5832 14.8 5.5752C14.8 2.7248 12.0488 0 9.2 0C5.8288 0 5.82081 0 4.84961 0ZM4.84961 1.6C5.64241 1.6 6.5392 1.6 8.4 1.6V3.7248C8.4 5.216 9.68881 6.4 11.2496 6.4H13.2C13.2 8.4296 13.2 12.8576 13.2 13.3248C13.2 13.896 12.6608 14.4 11.9504 14.4H4.84961C4.13921 14.4 3.6 13.896 3.6 13.3248V2.6752C3.6 2.104 4.13921 1.6 4.84961 1.6ZM10 1.8C11.4176 2.176 12.6576 3.3864 13.0248 4.8H11.2496C10.5384 4.8 10 4.296 10 3.7248V1.8ZM6.8 4.8C6.3584 4.8 6 5.1584 6 5.6C5.5584 5.6 5.2 5.9584 5.2 6.4C5.2 6.8416 5.5584 7.2 6 7.2C6 7.6416 6.3584 8 6.8 8C7.2416 8 7.6 7.6416 7.6 7.2C8.0416 7.2 8.4 6.8416 8.4 6.4C8.4 5.9584 8.0416 5.6 7.6 5.6C7.6 5.1584 7.2416 4.8 6.8 4.8ZM6 8.8C5.5584 8.8 5.2 9.1584 5.2 9.6C5.2 10.0416 5.5584 10.4 6 10.4H10.8C11.2416 10.4 11.6 10.0416 11.6 9.6C11.6 9.1584 11.2416 8.8 10.8 8.8H6ZM6 11.2C5.5584 11.2 5.2 11.5584 5.2 12C5.2 12.4416 5.5584 12.8 6 12.8H10.8C11.2416 12.8 11.6 12.4416 11.6 12C11.6 11.5584 11.2416 11.2 10.8 11.2H6Z"
  />
</svg>
