<svg
  viewBox="0 0 16 16"
  xmlns="http://www.w3.org/2000/svg"
>
  <path
    d="M 11.997387,1.0372443e-7 C 11.78539,1.0372443e-7 11.572593,0.07520361 11.422195,0.22480115 10.9774,0.66959541 9.3766216,2.2703905 9.0214263,2.6263858 L 1.8174882,9.8303317 1.0166906,10.630321 c -0.11119851,0.111998 -0.1687978,0.270396 -0.19999737,0.425595 l -0.79998628,4.002347 c -0.11199859,0.559993 0.36479991,1.036707 0.92479265,0.925507 0.5007934,-0.100798 3.5023463,-0.70071 4.0023397,-0.800709 0.1551979,-0.0312 0.3136039,-0.0888 0.4256024,-0.199997 l 0.7999896,-0.80079 7.2039377,-7.203929 c 0.355995,-0.3552034 1.956774,-1.9568145 2.401568,-2.4008087 0.149598,-0.150398 0.224798,-0.3631872 0.224798,-0.5751844 0,-1.3095909 -0.333596,-2.2455787 -1.025587,-2.9519695 C 14.275757,0.33758371 13.342969,1.0372443e-7 11.997387,1.0372443e-7 Z M 12.312583,1.6151671 c 0.72239,0.0424 1.190385,0.2080372 1.51118,0.5360329 0.327996,0.3343957 0.535193,0.7983816 0.579993,1.5063803 C 13.965361,4.0951746 13.32377,4.7271344 12.798176,5.2527276 12.163785,4.6183358 11.381395,3.83597 10.747003,3.2015783 11.273397,2.6759852 11.874989,2.0527613 12.312583,1.6151671 Z M 9.5966183,4.3519553 11.647791,6.4031524 5.5942308,12.456617 3.5430656,10.405523 Z m -7.2039377,7.2039537 2.0511653,2.051093 -0.075192,0.07528 C 3.8406613,13.787878 2.7742752,14.011076 1.791888,14.207873 l 0.5255931,-2.576766 z"
  />
</svg>
