<svg
  viewBox="0 0 16 16"
  xmlns="http://www.w3.org/2000/svg"
>
  <path
    d="M 3.5555666,-2.61e-5 C 1.5919996,-2.61e-5 2.5e-7,1.5919724 2.5e-7,3.5555304 v 8.8889356 c 0,1.963558 1.59199935,3.55556 3.55556635,3.55556 H 12.44444 C 14.407998,16.000026 16,14.408024 16,12.444466 V 3.5555304 C 16,1.5919724 14.407998,-2.61e-5 12.44444,-2.61e-5 Z m 0,1.7777765 H 12.44444 c 0.982224,0 1.77778,0.7955565 1.77778,1.77778 v 8.8889356 c 0,0.982224 -0.795556,1.77778 -1.77778,1.77778 H 3.5555666 c -0.9822235,0 -1.777789,-0.795556 -1.777789,-1.77778 V 3.5555304 c 0,-0.9822235 0.7955655,-1.77778 1.777789,-1.77778 z m 4.44445,1.77778 c -0.4906672,0 -0.88889,0.3982228 -0.88889,0.88889 V 7.1110905 H 4.4444565 c -0.4906671,0 -0.8888899,0.3982228 -0.8888899,0.88889 0,0.4907026 0.3982228,0.8889256 0.8888899,0.8889256 h 2.6666701 v 2.6666699 c 0,0.490667 0.3982228,0.88889 0.88889,0.88889 0.4906411,0 0.8888631,-0.398223 0.8888631,-0.88889 V 8.8889061 H 11.55555 c 0.490668,0 0.88889,-0.398223 0.88889,-0.8889256 0,-0.4906672 -0.398222,-0.88889 -0.88889,-0.88889 H 8.8888797 V 4.4444204 c 0,-0.4906672 -0.398222,-0.88889 -0.8888631,-0.88889 z"
  />
</svg>
