<svg
  viewBox="0 0 16 16"
  xmlns="http://www.w3.org/2000/svg"
>
  <path
    d="M 7.99998,0 C 6.23271,0 4.79999,1.4328 4.79999,3.2 3.61247,3.2 1.7,3.2 1.6,3.2 1.15816,3.2 0.8,3.5584 0.8,4 v 8.8 c 0,1.7672 1.43272,3.2 3.19999,3.2 H 12 c 1.7672,0 3.2,-1.4328 3.2,-3.2 V 4 c 0,-0.4416 -0.3584,-0.8 -0.8,-0.8 -0.1,0 -2.0128,0 -3.2,0 C 11.2,1.4328 9.76718,0 7.99998,0 Z m 0,1.6 c 0.884,0 1.6,0.716 1.6,1.6 -1.4592,0 -1.7408,0 -3.19999,0 0,-0.884 0.71599,-1.6 1.59999,-1.6 z M 2.4,4.8 c 0.43983,0 1.99263,0 3.19999,0 1.81119,0 2.98879,0 4.80001,0 1.2072,0 2.76,0 3.2,0 v 8 c 0,0.884 -0.716,1.6 -1.6,1.6 H 3.99999 C 3.11631,14.4 2.4,13.684 2.4,12.8 Z m 5.59998,2.4 c -0.4416,0 -0.8,0.3584 -0.8,0.8 V 8.8 H 6.39999 c -0.44184,0 -0.8,0.3584 -0.8,0.8 0,0.4416 0.35816,0.8 0.8,0.8 h 0.79999 v 0.8 c 0,0.4416 0.3584,0.8 0.8,0.8 0.4416,0 0.8,-0.3584 0.8,-0.8 v -0.8 h 0.8 C 10.0416,10.4 10.4,10.0416 10.4,9.6 10.4,9.1584 10.0416,8.8 9.59998,8.8 h -0.8 V 8 c 0,-0.4416 -0.3584,-0.8 -0.8,-0.8 z"
  />
</svg>
