<svg
  viewBox="0 0 19 19"
  xmlns="http://www.w3.org/2000/svg"
>
  <path
    d="M4.99073 0.929764C2.78172 0.929764 0.990723 2.72076 0.990723 4.92976V14.9298C0.990723 17.1388 2.78172 18.9298 4.99073 18.9298H14.9907C17.1997 18.9298 18.9907 17.1388 18.9907 14.9298V4.92976C18.9907 2.72076 17.1997 0.929764 14.9907 0.929764H4.99073ZM4.99073 2.92976H14.9907C16.0957 2.92976 16.9907 3.82476 16.9907 4.92976V14.9298C16.9907 16.0348 16.0957 16.9298 14.9907 16.9298H4.99073C3.88573 16.9298 2.99072 16.0348 2.99072 14.9298V4.92976C2.99072 3.82476 3.88573 2.92976 4.99073 2.92976ZM9.99073 4.92976C9.43873 4.92976 8.99073 5.37776 8.99073 5.92976V8.92976H5.99073C5.43873 8.92976 4.99073 9.37776 4.99073 9.92976C4.99073 10.4818 5.43873 10.9298 5.99073 10.9298H8.99073V13.9298C8.99073 14.4818 9.43873 14.9298 9.99073 14.9298C10.5427 14.9298 10.9907 14.4818 10.9907 13.9298V10.9298H13.9907C14.5427 10.9298 14.9907 10.4818 14.9907 9.92976C14.9907 9.37776 14.5427 8.92976 13.9907 8.92976H10.9907V5.92976C10.9907 5.37776 10.5427 4.92976 9.99073 4.92976Z"
  />
</svg>
