<svg
  viewBox="0 0 16 16"
  xmlns="http://www.w3.org/2000/svg"
>
  <path
    d="M 5.6,0.8 C 4.71632,0.8 4,1.516 4,2.4 V 3.2 H 2.4 C 1.07456,3.2 0,4.2744 0,5.6 v 4.8 c 0,1.3256 1.07448,2.4 2.4,2.4 H 4 v 0.8 c 0,0.884 0.71632,1.6 1.6,1.6 h 4.8 c 0.883667,0 1.6,-0.716 1.6,-1.6 v -0.8 h 1.6 c 1.325467,0 2.4,-1.0744 2.4,-2.4 v -4 C 16,5.0744 14.925533,4 13.6,4 H 12 V 2.4 C 12,1.516 11.283667,0.8 10.4,0.8 Z m 0,1.6 h 4.8 V 4 H 5.8 L 5.6,3.9 Z M 2.4,4.8 H 3.8 L 5.25,5.5248067 C 5.36112,5.5808067 5.47584,5.6 5.6,5.6 h 8 c 0.441867,0 0.8,0.3584 0.8,0.8 v 4 c 0,0.4416 -0.358133,0.8 -0.8,0.8 H 12 V 9.6 c 0.441867,0 0.8,-0.3584 0.8,-0.8 C 12.8,8.3584 12.441867,8 12,8 H 11.2 4.8 4 C 3.55816,8 3.2,8.3584 3.2,8.8 3.2,9.2416 3.55816,9.6 4,9.6 v 1.6 H 2.4 C 1.95816,11.2 1.6,10.8416 1.6,10.4 V 5.6 C 1.6,5.1584 1.95816,4.8 2.4,4.8 Z M 3.2,5.6 C 2.75816,5.6 2.4,5.9584 2.4,6.4 2.4,6.8416 2.75816,7.2 3.2,7.2 3.64184,7.2 4,6.8416 4,6.4 4,5.9584 3.64184,5.6 3.2,5.6 Z m 2.4,4 h 4.8 v 4 H 5.6 Z"
  />
</svg>
