<svg
  viewBox="0 0 16 16"
  xmlns="http://www.w3.org/2000/svg"
>
  <path
    d="M 8,3.814695e-6 C 3.5816,3.814695e-6 0,3.5816062 0,8.0000062 c 0,4.4183898 3.5816,7.9999898 8,7.9999898 4.4184,0 8,-3.5816 8,-7.9999898 C 16,3.5816062 12.4184,3.814695e-6 8,3.814695e-6 Z M 8,1.6000062 c 3.5344,0 6.4,2.8656 6.4,6.4 0,3.5343898 -2.8656,6.3999898 -6.4,6.3999898 -3.5344,0 -6.4,-2.8656 -6.4,-6.3999898 0,-3.5344 2.8656,-6.4 6.4,-6.4 z m -1.6,3.2 c -0.4416,0 -0.8,0.3584 -0.8,0.8 v 4.7999898 c 0,0.4416 0.3584,0.8 0.8,0.8 0.4416,0 0.8,-0.3584 0.8,-0.8 V 5.6000062 c 0,-0.4416 -0.3584,-0.8 -0.8,-0.8 z m 3.2,0 c -0.4416,0 -0.8,0.3584 -0.8,0.8 v 4.7999898 c 0,0.4416 0.3584,0.8 0.8,0.8 0.4416,0 0.8,-0.3584 0.8,-0.8 V 5.6000062 c 0,-0.4416 -0.3584,-0.8 -0.8,-0.8 z"
  />
</svg>
