<svg
  viewBox="0 0 21 21"
  xmlns="http://www.w3.org/2000/svg"
>
  <path
    d="M10.0142 0.953171C4.49136 0.953171 0.0141602 5.43017 0.0141602 10.9532C0.0141602 16.4762 4.49136 20.9532 10.0142 20.9532C15.5372 20.9532 20.0142 16.4762 20.0142 10.9532C20.0142 5.43017 15.5372 0.953171 10.0142 0.953171ZM10.0142 2.95317C14.4322 2.95317 18.0142 6.53517 18.0142 10.9532C18.0142 15.3712 14.4322 18.9532 10.0142 18.9532C5.59586 18.9532 2.01416 15.3712 2.01416 10.9532C2.01416 6.53517 5.59586 2.95317 10.0142 2.95317ZM10.0142 5.95317C9.46216 5.95317 9.01416 6.40117 9.01416 6.95317V9.95317H6.01416C5.46186 9.95317 5.01416 10.4012 5.01416 10.9532C5.01416 11.5052 5.46186 11.9532 6.01416 11.9532H9.01416V14.9532C9.01416 15.5052 9.46216 15.9532 10.0142 15.9532C10.5662 15.9532 11.0142 15.5052 11.0142 14.9532V11.9532H14.0142C14.5662 11.9532 15.0142 11.5052 15.0142 10.9532C15.0142 10.4012 14.5662 9.95317 14.0142 9.95317H11.0142V6.95317C11.0142 6.40117 10.5662 5.95317 10.0142 5.95317Z"
  />
</svg>
