<svg
  viewBox="0 0 16 16"
  xmlns="http://www.w3.org/2000/svg"
>
  <path
    d="M 10.399,0 C 10.1868,0 9.96868,0.110799 9.81548,0.257437 8.57661,1.44366 8.19726,2.43565 8.65021,3.79451 7.59335,4.60458 6.92584,4.80338 5.60649,4.80338 c -1.80357,0 -2.98116,0.21744 -3.78243,1.01815 v 0.02495 c -0.74975,0.74944 -0.74975,1.94942 0,2.69821 l 2.24013,2.25761 -3.81682799,3.8151 c -0.3123964,0.312 -0.3356757,0.836 -0.02328,1.148 0.312476,0.3128 0.83758799,0.3128 1.15006799,0 l 3.83099,-3.8319 2.24389,2.2327 c 0.74983,0.7496 1.95013,0.7496 2.69997,0 h 0.025 c 0.8016,-0.8008 1.025,-1.8272 1.025,-3.7727 0,-1.23682 0.2538,-2.1096 1.0224,-3.02799 1.4791,0.43359 2.3396,0.0184 3.5526,-1.19415 0.15,-0.14999 0.2249,-0.36263 0.2249,-0.57471 0,-0.28135 -0.071,-0.71263 -0.25,-1.24926 C 15.4607,3.48332 14.9645,2.61397 14.174,1.8239 13.3834,1.03391 12.5135,0.537915 11.649,0.249838 11.112,0.0709604 10.6805,0 10.399,0 Z m 0.3098,1.64366 c 0.8499,0.15776 1.7057,0.72039 2.3151,1.32958 0.6095,0.60911 1.1286,1.35518 1.3434,2.33301 -0.7635,0.73247 -1.2306,0.79039 -1.9943,0.3884 -0.3046,-0.1604 -0.6906,-0.10368 -0.934,0.13968 -1.4568,1.45598 -1.84,2.77676 -1.84,4.55917 0,1.5519 -0.09128,2.1287 -0.57503,2.6487 -0.13656,0.1472 -0.32496,0.1248 -0.44992,0 L 2.94909,7.42071 C 2.82413,7.29591 2.82797,7.13591 2.92869,7.01351 3.21444,6.66552 3.85044,6.3952 5.59905,6.39616 7.68943,6.39736 8.80069,5.85905 10.174,4.57226 10.4175,4.32891 10.478,3.95563 10.324,3.64779 9.9126,2.82548 9.97676,2.39205 10.7088,1.64366 Z"
  />
</svg>
