<svg
  viewBox="0 0 20 20"
  xmlns="http://www.w3.org/2000/svg"
>
  <path
    d="M18.4692 1.05615C18.1062 0.967153 17.6936 0.981165 17.188 1.11817C14.2587 1.91219 2.61456 5.69626 1.65634 6.12027C0.612013 6.58228 0.00939948 7.3963 9.92702e-05 8.46432C-0.012301 9.89235 1.13872 11.0134 2.50016 10.9654C2.54396 10.9644 4.22849 10.9874 5.18772 10.9974C5.18772 10.9974 6.04394 15.2785 6.06464 15.3295C6.31454 15.9435 6.90075 16.1265 7.40647 15.9055L10.2503 14.6545C10.5722 14.9715 12.7367 17.0625 12.9691 17.2495C13.6617 17.8055 14.2602 17.9806 15.0004 17.9996C16.1922 18.0306 17.2332 17.3295 17.7817 16.1865C18.126 15.4695 19.7307 5.42827 19.8755 4.43224C20.1055 2.8512 20.0535 2.23019 19.4067 1.58717C19.1468 1.32917 18.8323 1.14416 18.4692 1.05615ZM18.0004 2.9952C18.0004 2.9952 18.049 3.1722 17.9067 4.15022C17.3976 7.65231 16.1911 14.8175 15.938 15.4045C15.7651 15.8065 15.4185 16.0095 15.0316 15.9985C14.6911 15.9895 14.5216 15.9295 14.2191 15.6865C14.0635 15.5615 13.3634 14.8965 12.3754 13.9355C12.363 13.9235 10.4047 12.0124 10.4047 12.0124C10.2138 11.8224 10.0344 11.7094 9.65852 11.7054C9.43991 11.7054 9.15141 11.8714 9.15141 11.8714L7.64757 13.1445L7.12526 10.5904L13.4066 7.90233C13.914 7.68432 14.1561 7.09629 13.9379 6.58928C13.7198 6.08126 13.1328 5.83928 12.6254 6.05728L5.81273 8.99635C5.42482 8.99435 2.53426 8.96134 2.43765 8.96534C2.21515 8.97234 1.99764 8.75433 2.00014 8.46432C2.00214 8.23232 2.10445 8.09434 2.46885 7.93333C3.31347 7.55932 14.817 3.82821 17.6563 3.05919C17.9241 2.98619 18.0004 2.9952 18.0004 2.9952Z"
  />
</svg>
