<svg
  viewBox="0 0 16 16"
  xmlns="http://www.w3.org/2000/svg"
>
  <path
    d="M8 -7.62939e-06C3.58176 -7.62939e-06 0 3.58159 0 7.99999C0 12.4184 3.58176 16 8 16C12.4182 16 16 12.4184 16 7.99999C16 3.58159 12.4182 -7.62939e-06 8 -7.62939e-06ZM8 1.59999C11.5346 1.59999 14.4 4.46559 14.4 7.99999C14.4 11.5344 11.5346 14.4 8 14.4C4.46536 14.4 1.6 11.5344 1.6 7.99999C1.6 4.46559 4.46536 1.59999 8 1.59999ZM6.1 4.9248C5.80504 5.0832 5.6 5.37999 5.6 5.79999V10.2C5.6 11.0392 6.43512 11.4416 7.12496 11.0496L10.375 9.19999C11.4778 8.51599 11.4379 7.45999 10.375 6.79999L7.12496 4.9504C6.78008 4.7544 6.39496 4.7664 6.1 4.9248Z"
  />
</svg>
