<svg
  viewBox="0 0 16 16"
  xmlns="http://www.w3.org/2000/svg"
>
  <path
    d="M 8.000016,4.4e-6 C 3.5817527,4.4e-6 5.0000001e-8,3.5815965 5.0000001e-8,8.0000116 5.0000001e-8,12.418403 3.5817528,15.999996 8.000016,15.999996 12.418407,15.999996 16,12.418403 16,8.0000116 16,3.5815965 12.418407,4.4e-6 8.000016,4.4e-6 Z m 0,1.599996 c 3.534393,0 6.399987,2.8655943 6.399987,6.4000112 0,3.5343934 -2.865594,6.3999874 -6.399987,6.3999874 -3.5346649,0 -6.4000192,-2.865594 -6.4000192,-6.3999874 0,-3.5344169 2.8653543,-6.4000112 6.4000192,-6.4000112 z m 0,2.3999953 c -0.4416312,0 -0.8000305,0.3583992 -0.8000305,0.7999984 V 7.1999896 H 4.7999903 c -0.4418391,0 -0.7999983,0.358423 -0.7999983,0.800022 0,0.441599 0.3581592,0.799999 0.7999983,0.799999 h 2.3999953 v 2.3999954 c 0,0.441599 0.3583993,0.799998 0.8000304,0.799998 0.441599,0 0.799998,-0.358399 0.799998,-0.799998 V 8.8000106 h 2.399996 c 0.441599,0 0.799998,-0.3584 0.799998,-0.799999 0,-0.441599 -0.358399,-0.800022 -0.799998,-0.800022 H 8.800014 V 4.7999941 c 0,-0.4415992 -0.358399,-0.7999984 -0.799998,-0.7999984 z"
  />
</svg>
