<svg
  viewBox="0 0 16 16"
  xmlns="http://www.w3.org/2000/svg"
>
  <path
    d="M 8,0 C 7.4114,0 6.933594,0.4767 6.933594,1.0625 v 7.230468 c 0,0.5856 0.477806,1.0625 1.066406,1.0625 0.588398,0 1.066406,-0.4769 1.066406,-1.0625 V 1.0625 C 9.066406,0.4767 8.588398,0 8,0 Z M 4.214844,1.75 C 4.009566,1.75149 3.803118,1.813076 3.621094,1.9375 1.514296,3.376898 0.257812,5.751972 0.257812,8.292968 0.257812,12.542164 3.731004,16 8,16 12.268796,16 15.742188,12.542164 15.742188,8.292968 15.742186,5.754372 14.48741,3.379298 12.382812,1.9375 12.204612,1.8157 11.993344,1.75 11.777344,1.75 h -0.0039 c -0.588998,0 -1.0625,0.4767 -1.0625,1.0625 0,0.3704 0.19107,0.696918 0.48047,0.886718 1.515598,1.0468 2.417968,2.761352 2.417968,4.59375 0,3.078998 -2.515978,5.585938 -5.609374,5.585938 -3.093398,0 -5.609376,-2.50634 -5.609376,-5.585938 0,-1.842198 0.910702,-3.56227 2.4375,-4.605468 C 5.313524,3.3559 5.438868,2.693938 5.105468,2.210938 4.897344,1.909188 4.556972,1.747522 4.214844,1.75 Z"
  />
</svg>
