<svg
  viewBox="0 0 20 21"
  xmlns="http://www.w3.org/2000/svg"
>
  <path
    d="M14.9955 0.953125C14.7305 0.953125 14.4645 1.04713 14.2765 1.23413C13.7205 1.79013 11.7195 3.79115 11.2755 4.23615L2.27046 13.2412L1.26945 14.2412C1.13045 14.3812 1.05845 14.5792 1.01945 14.7732L0.0194541 19.7762C-0.120546 20.4762 0.47546 21.0721 1.17546 20.9331C1.80146 20.8071 5.55345 20.0572 6.17845 19.9322C6.37245 19.8932 6.57046 19.8212 6.71046 19.6822L7.71046 18.6812L16.7155 9.67617C17.1605 9.23216 19.1615 7.23012 19.7175 6.67512C19.9045 6.48712 19.9985 6.22113 19.9985 5.95613C19.9985 4.31912 19.5815 3.14912 18.7165 2.26612C17.8435 1.37511 16.6775 0.953125 14.9955 0.953125ZM15.3895 2.97211C16.2925 3.02511 16.8775 3.23216 17.2785 3.64216C17.6885 4.06016 17.9475 4.64015 18.0035 5.52516C17.4555 6.07216 16.6535 6.86212 15.9965 7.51912C15.2035 6.72612 14.2255 5.74815 13.4325 4.95515C14.0905 4.29815 14.8425 3.51911 15.3895 2.97211ZM11.9945 6.39314L14.5585 8.95717L6.99145 16.5241L4.42746 13.9602L11.9945 6.39314ZM2.98946 15.3982L5.55345 17.9621L5.45946 18.0562C4.79946 18.1882 3.46646 18.4672 2.23846 18.7132L2.89546 15.4922L2.98946 15.3982Z"
  />
</svg>
