<svg
  viewBox="0 0 16 16"
  xmlns="http://www.w3.org/2000/svg"
>
  <path
    d="M8.19998 0C6.43271 0 4.99999 1.4328 4.99999 3.2C3.81247 3.2 1.9 3.2 1.8 3.2C1.35816 3.2 1 3.5584 1 4V12.8C1 14.5672 2.43272 16 4.19999 16H12.2C13.9672 16 15.4 14.5672 15.4 12.8V4C15.4 3.5584 15.0416 3.2 14.6 3.2C14.5 3.2 12.5872 3.2 11.4 3.2C11.4 1.4328 9.96718 0 8.19998 0ZM8.19998 1.6C9.08398 1.6 9.79998 2.316 9.79998 3.2C8.34078 3.2 8.05918 3.2 6.59999 3.2C6.59999 2.316 7.31598 1.6 8.19998 1.6ZM2.6 4.8C3.03983 4.8 4.59263 4.8 5.79999 4.8C7.61118 4.8 8.78878 4.8 10.6 4.8C11.8072 4.8 13.36 4.8 13.8 4.8V12.8C13.8 13.684 13.084 14.4 12.2 14.4H4.19999C3.31631 14.4 2.6 13.684 2.6 12.8V4.8ZM8.19998 7.2C7.75838 7.2 7.39998 7.5584 7.39998 8V8.8H6.59999C6.15815 8.8 5.79999 9.1584 5.79999 9.6C5.79999 10.0416 6.15815 10.4 6.59999 10.4H7.39998V11.2C7.39998 11.6416 7.75838 12 8.19998 12C8.64158 12 8.99998 11.6416 8.99998 11.2V10.4H9.79998C10.2416 10.4 10.6 10.0416 10.6 9.6C10.6 9.1584 10.2416 8.8 9.79998 8.8H8.99998V8C8.99998 7.5584 8.64158 7.2 8.19998 7.2Z"
  />
</svg>
