<svg
  viewBox="0 0 16 16"
  xmlns="http://www.w3.org/2000/svg"
>
  <path
    d="M 4.44961,0 C 2.88881,0 1.6,1.184 1.6,2.6752 V 13.3248 C 1.6,14.816 2.88881,16 4.44961,16 h 7.10079 c 1.5608,0 2.8496,-1.184 2.8496,-2.6752 0,-0.5208 0,-6.2384 0,-7.7248 0,-0.008 0,-0.0168 0,-0.0248 C 14.4,2.7248 11.6488,0 8.8,0 5.4288,0 5.42081,0 4.44961,0 Z m 0,1.6 C 5.24241,1.6 6.1392,1.6 8,1.6 V 3.7248 C 8,5.216 9.28881,6.4 10.8496,6.4 H 12.8 c 0,2.0296 0,6.4576 0,6.9248 0,0.5712 -0.5392,1.0752 -1.2496,1.0752 H 4.44961 C 3.73921,14.4 3.2,13.896 3.2,13.3248 V 2.6752 C 3.2,2.104 3.73921,1.6 4.44961,1.6 Z M 9.6,1.8 c 1.4176,0.376 2.6576,1.5864 3.0248,3 H 10.8496 C 10.1384,4.8 9.6,4.296 9.6,3.7248 Z m -3.2,3 C 5.9584,4.8 5.6,5.1584 5.6,5.6 5.1584,5.6 4.8,5.9584 4.8,6.4 4.8,6.8416 5.1584,7.2 5.6,7.2 5.6,7.6416 5.9584,8 6.4,8 6.8416,8 7.2,7.6416 7.2,7.2 7.6416,7.2 8,6.8416 8,6.4 8,5.9584 7.6416,5.6 7.2,5.6 7.2,5.1584 6.8416,4.8 6.4,4.8 Z m -0.8,4 c -0.4416,0 -0.8,0.3584 -0.8,0.8 0,0.4416 0.3584,0.8 0.8,0.8 h 4.8 c 0.4416,0 0.8,-0.3584 0.8,-0.8 0,-0.4416 -0.3584,-0.8 -0.8,-0.8 z m 0,2.4 c -0.4416,0 -0.8,0.3584 -0.8,0.8 0,0.4416 0.3584,0.8 0.8,0.8 h 4.8 c 0.4416,0 0.8,-0.3584 0.8,-0.8 0,-0.4416 -0.3584,-0.8 -0.8,-0.8 z"
  />
</svg>
