<svg
  viewBox="0 0 30.968752 32"
  xmlns="http://www.w3.org/2000/svg"
>
  <path
    d="m 15.484376,0 c -1.1772,0 -2.132812,0.9534 -2.132812,2.125 v 14.460936 c 0,1.1712 0.955612,2.125 2.132812,2.125 1.176796,0 2.132812,-0.9538 2.132812,-2.125 V 2.125 C 17.617188,0.9534 16.661172,0 15.484376,0 Z M 7.914064,3.5 C 7.503508,3.502976 7.090612,3.626152 6.726564,3.875 2.512968,6.753796 1.4305115e-8,11.503944 1.4305115e-8,16.585936 1.4305115e-8,25.084328 6.946384,32 15.484376,32 24.021968,32 30.968752,25.084328 30.968752,16.585936 30.968748,11.508744 28.459196,6.758596 24.25,3.875 23.8936,3.6314 23.471064,3.5 23.039064,3.5 h -0.0078 c -1.177996,0 -2.125,0.9534 -2.125,2.125 0,0.7408 0.38214,1.393836 0.96094,1.773436 3.031196,2.0936 4.835936,5.522704 4.835936,9.1875 0,6.157996 -5.031956,11.171876 -11.218748,11.171876 -6.186796,0 -11.218752,-5.01268 -11.218752,-11.171876 0,-3.684396 1.821404,-7.12454 4.875,-9.210936 C 10.111424,6.7118 10.362112,5.387876 9.695312,4.421876 9.279064,3.818376 8.59832,3.495044 7.914064,3.5 Z"
  />
</svg>
