<svg
  viewBox="0 0 16 16"
  xmlns="http://www.w3.org/2000/svg"
>
  <path
    d="M 7.1961097,0.8039 C 3.2217797,0.8039 7.556781e-7,4.02568 7.556781e-7,8.00001 7.556781e-7,11.9747 3.2217797,15.1961 7.1961097,15.1961 c 1.28547,0 2.53487,-0.3422 3.6230303,-0.9747 0.3818,-0.2214 0.4967,-0.7172 0.2749,-1.0994 -0.2219,-0.3814 -0.7176,-0.4965 -1.0994403,-0.275 -0.84571,0.4917 -1.79719,0.75 -2.79849,0.75 -3.09113,0 -5.59697,-2.5059 -5.59697,-5.59699 0,-3.09113 2.50584,-5.59697 5.59697,-5.59697 3.0911303,0 5.5969303,2.50584 5.5969303,5.59697 h -0.7995 c -0.7124,0 -1.0784,0.87073 -0.5748,1.37446 0.2,0.19989 1.3993,1.39924 1.5992,1.59913 0.3123,0.3118 0.8371,0.3118 1.1494,0 l 1.5992,-1.59913 c 0.5036,-0.50373 0.1376,-1.37446 -0.5748,-1.37446 h -0.7995 c 0,-3.97433 -3.2218,-7.19611 -7.1961303,-7.19611 z m -1.59914,3.99784 c -0.4416,0 -0.79956,0.35796 -0.79956,0.79957 0,0.39978 0,2.79848 0,3.19827 v 1.59913 c 0,0.44139 0.35796,0.79959 0.79956,0.79959 0.44161,0 0.79957,-0.3582 0.79957,-0.79959 V 9.59914 h 0.47479 l 1.39924,1.37446 c 0.31223,0.3118 0.78709,0.287 1.0994,-0.0248 0.31224,-0.31261 0.31224,-0.81235 0,-1.12498 l -0.72464,-0.72441 c 0.58648,-0.43736 0.94948,-1.11139 0.94948,-1.89897 0,-1.3248 -1.0739,-2.3987 -2.3987,-2.3987 z m 0.79957,1.59913 h 0.79957 c 0.4416,0 0.79957,0.35821 0.79957,0.79957 0,0.44136 -0.35797,0.79957 -0.79957,0.79957 h -0.79957 c 0,-0.57489 0,-1.02425 0,-1.59914 z"
  />
</svg>
