<svg
  viewBox="0 0 23 22"
  xmlns="http://www.w3.org/2000/svg"
>
  <path
    d="M13.6 0.5L13.9917 1.125L16.65 5.37917L18.7542 4.16667L19.2542 5.03333L17.9125 10.0417L12.9042 8.7L12.4042 7.83333L14.3417 6.71667L12.125 3.16667H10.65L9.25417 5.4L6.94167 4.06667L8.77917 1.125L9.17083 0.5H9.90833H12.8583H13.5958H13.6ZM17.7333 12.1458L20.0458 10.8125L21.85 13.7L22.275 14.3792L21.875 15.075L20.5417 17.3833L19.8958 18.5L19.5125 19.1667H18.7417H14.0542V21.5H13.0542L9.3875 17.8333L13.0542 14.1667H14.0542V16.5H17.9708L18.2333 16.0458L19.1667 14.4292L17.7375 12.1458H17.7333ZM3.41667 9.7125L1.3875 8.54167L1.8875 7.675L6.89583 6.33333L8.2375 11.3417L7.7375 12.2083L5.725 11.0458L3.60833 14.4333L4.80417 16.5H7.3875V19.1667H4.03333H3.2625L2.87917 18.5L0.9 15.0708L0.5 14.375L0.925 13.6958L3.41667 9.70833V9.7125Z"
  />
</svg>
