<svg
  viewBox="0 0 16 15"
  xmlns="http://www.w3.org/2000/svg"
>
  <path
    d="M7.19617 0C3.22184 0 6.10352e-05 3.22178 6.10352e-05 7.19611C6.10352e-05 11.1708 3.22184 14.3922 7.19617 14.3922C8.48164 14.3922 9.73104 14.05 10.8192 13.4175C11.201 13.1961 11.3159 12.7003 11.0941 12.3181C10.8722 11.9367 10.3765 11.8216 9.99466 12.0431C9.14895 12.5348 8.19747 12.7931 7.19617 12.7931C4.10504 12.7931 1.5992 10.2872 1.5992 7.19611C1.5992 4.10498 4.10504 1.59914 7.19617 1.59914C10.2873 1.59914 12.7931 4.10498 12.7931 7.19611H11.9936C11.2812 7.19611 10.9152 8.06684 11.4188 8.57057C11.6188 8.77046 12.8181 9.96981 13.018 10.1697C13.3303 10.4815 13.8551 10.4815 14.1674 10.1697L15.7666 8.57057C16.2702 8.06684 15.9042 7.19611 15.1918 7.19611H14.3923C14.3923 3.22178 11.1705 0 7.19617 0ZM5.59703 3.99784C5.15543 3.99784 4.79747 4.3558 4.79747 4.79741C4.79747 5.19719 4.79747 7.59589 4.79747 7.99568V9.59481C4.79747 10.0362 5.15543 10.3944 5.59703 10.3944C6.03864 10.3944 6.3966 10.0362 6.3966 9.59481V8.79524H6.87139L8.27063 10.1697C8.58286 10.4815 9.05772 10.4567 9.37003 10.1449C9.68227 9.83229 9.68227 9.33255 9.37003 9.01992L8.64539 8.29551C9.23187 7.85815 9.59487 7.18412 9.59487 6.39654C9.59487 5.07174 8.52097 3.99784 7.19617 3.99784H5.59703ZM6.3966 5.59697H7.19617C7.63777 5.59697 7.99574 5.95518 7.99574 6.39654C7.99574 6.8379 7.63777 7.19611 7.19617 7.19611H6.3966C6.3966 6.62122 6.3966 6.17186 6.3966 5.59697Z"
  />
</svg>
