<svg
  viewBox="0 0 16 16"
  xmlns="http://www.w3.org/2000/svg"
>
  <path
    fill-opacity="0.5"
    d="m 4.8945315,1.5514861 c -0.148862,0.0018 -0.297432,0.0105 -0.446023,0.02699 -0.582509,0.06476 -1.16204,0.252494 -1.77912,0.620028 -0.14376,0.08578 -0.305915,0.176425 -0.421875,0.25 -0.02814,0.02916 -0.056,0.05786 -0.08381,0.08736 -0.464505,0.496716 -0.01165,1.18836 0.559659,1.304687 1.533543,0.312255 3.360777,-0.774247 5.279829,-1.556108 -1.020249,-0.415637 -2.066634,-0.745376 -3.108664,-0.732954 z m 6.2173295,7.1e-4 c -1.042031,-0.01242 -2.0884165,0.317314 -3.1086655,0.732955 1.919016,0.781857 3.7463045,1.867688 5.2798305,1.555397 0.571308,-0.116291 1.024495,-0.807261 0.559659,-1.303977 -0.02745,-0.0295 -0.0557,-0.0582 -0.08381,-0.08736 -0.115636,-0.07357 -0.27813,-0.164932 -0.421875,-0.25071 -0.616845,-0.367391 -1.195809,-0.554486 -1.778409,-0.619318 h -7.1e-4 c -0.148357,-0.01644 -0.297397,-0.02522 -0.446023,-0.02699 z m 2.475852,3.290483 c -1.505872,0.0248 -3.546112,0.764895 -5.5873585,1.519176 3.6115975,1.334508 7.2248435,2.714014 7.8785515,0.259943 -0.08884,-0.457708 -0.228161,-0.883424 -0.441761,-1.128551 -0.418412,-0.479949 -1.060641,-0.663559 -1.849432,-0.650568 z m -11.1598015,7.1e-4 c -1.156853,-0.02305 -2.05345,0.681222 -2.304687,1.785512 0.658783,2.444615 4.267842,1.066116 7.87642,-0.267046 -2.033998,-0.751672 -4.067342,-1.488648 -5.571733,-1.518466 z m 11.3948865,3.211648 c -1.522805,0.01512 -3.66616,0.817263 -5.8110795,1.602273 3.6127665,1.2991879 7.2169215,2.5332759 7.8373575,-0.105114 0.01084,-0.05458 0.02105,-0.109827 0.03054,-0.164773 -0.262673,-0.984571 -1.014759,-1.342732 -2.056818,-1.332386 z m -11.6434665,0.01633 c -1.045736,-0.01167 -1.798894,0.341111 -2.058948,1.316051 0.0095,0.05491 0.02003,0.110191 0.03054,0.164773 0.103412,0.440436 0.266303,0.8400119 0.520597,1.0752839 1.30129,1.204326 4.322219,0.13412 7.339489,-0.9701699 -2.150043,-0.773256 -4.303293,-1.568884 -5.831677,-1.585938 z m 1.132813,4.0340909 c -0.200474,-0.0013 -0.397086,0.01566 -0.588778,0.05469 -0.572662,0.116654 -1.023826,0.808651 -0.559659,1.304687 0.02441,0.02611 0.04982,0.05163 0.07457,0.07742 1.156177,0.973781 2.877925,1.055241 4.281961,0.684659 0.497864,-0.131509 0.992844,-0.312117 1.482244,-0.511364 -1.678662,-0.684097 -3.287192,-1.600718 -4.690338,-1.610087 z m 9.3821025,0 c -1.403227,0.0094 -3.0120995,0.92599 -4.6910515,1.610085 1.16617,0.474896 2.3661705,0.837834 3.5546885,0.705966 0.582472,-0.06476 1.162029,-0.251791 1.779119,-0.619318 0.143745,-0.08578 0.305911,-0.177146 0.421875,-0.25071 0.02815,-0.02916 0.05599,-0.05787 0.08381,-0.08736 0.464508,-0.496727 0.01165,-1.187686 -0.559659,-1.303977 -0.191696,-0.03903 -0.388293,-0.05603 -0.588779,-0.05469 z"/>
  <path
    d="M 8.003551,3.73e-4 C 5.743081,0.001373 3.702072,0.940784 2.247869,2.449237 2.363826,2.375667 2.525646,2.284305 2.669744,2.198527 3.286578,1.831136 3.865553,1.644041 4.448153,1.579209 h 7.28e-4 C 5.637376,1.447536 6.8378,1.810251 8.003568,2.285175 9.169603,1.810157 10.36953,1.447314 11.558256,1.579209 c 0.582472,0.06476 1.162029,0.25178 1.779119,0.619318 0.143745,0.08578 0.306239,0.177136 0.421875,0.25071 C 12.305016,0.940784 10.264385,0.001391 8.003551,3.73e-4 Z M 8,6.361879 C 4.391458,7.695041 0.782363,9.07354 0.12358,6.628925 0.11608,6.661145 0.10942,6.693355 0.10298,6.726225 0.09378,6.782875 0.08521,6.838987 0.07741,6.895969 0.07231,6.932229 0.06724,6.968019 0.06249,7.004634 0.05329,7.077874 0.04546,7.151587 0.03834,7.225515 0.03494,7.262135 0.03144,7.298655 0.02844,7.3356 0.02204,7.41291 0.01688,7.490882 0.01281,7.568554 0.01111,7.601424 0.00851,7.634754 0.00711,7.667984 0.002695,7.778532 0,7.888846 0,8.000373 c 0,0.111564 0.0027,0.21712 0.0071,0.324574 6.78e-4,0.01458 7.43e-4,0.02945 0.0014,0.04403 0.0047,0.101382 0.01175,0.201811 0.01989,0.301847 0.0017,0.02 0.0033,0.04037 0.005,0.06037 0.0088,0.09731 0.01975,0.194191 0.03196,0.290482 0.0027,0.02171 0.0055,0.04325 0.0085,0.06463 0.01322,0.09593 0.02776,0.191276 0.04403,0.286222 0.001,0.0051 0.0011,0.01015 0.0021,0.01492 0.640137,-2.399854 4.269538,-1.032441 7.890625,0.269885 3.612979,-1.322326 7.222027,-2.693448 7.868608,-0.269887 10e-4,-0.0048 0.0011,-0.01019 0.0021,-0.01492 0.01662,-0.09527 0.0308,-0.190641 0.04403,-0.286932 h 7.27e-4 c 0.0031,-0.02135 0.0058,-0.04254 0.0085,-0.06392 0.01218,-0.09629 0.0228,-0.192811 0.03196,-0.290483 0.0017,-0.02 0.0033,-0.04037 0.005,-0.06037 0.0085,-0.100363 0.01549,-0.201502 0.01989,-0.302557 6.91e-4,-0.01458 7.64e-4,-0.02874 0.0014,-0.04332 C 15.997334,8.217129 16,8.108883 16,8.000373 16,7.891864 15.9973,7.777822 15.9929,7.667277 15.9916,7.634367 15.9893,7.601427 15.9872,7.568557 15.9831,7.490557 15.9788,7.412912 15.97228,7.335603 15.96918,7.298983 15.96538,7.262133 15.96163,7.225518 15.95453,7.151588 15.94664,7.077873 15.93748,7.004637 15.93308,6.968377 15.92798,6.932607 15.92328,6.896682 15.91378,6.827192 15.90319,6.758132 15.89203,6.689296 15.88793,6.666936 15.88373,6.644186 15.87924,6.621826 15.225226,9.075893 11.611633,7.696387 8,6.361879 Z m -5.761364,7.179688 c 0.01187,0.01222 0.02294,0.02471 0.0348,0.03693 0.01967,0.02033 0.03966,0.04108 0.05966,0.06108 0.02611,0.02611 0.05239,0.05205 0.07884,0.07813 0.02136,0.02106 0.04293,0.04181 0.06463,0.0625 0.02611,0.02509 0.05239,0.04981 0.07884,0.07457 0.02204,0.02069 0.04438,0.04075 0.06676,0.06108 0.02679,0.0244 0.05384,0.04908 0.08097,0.07315 0.02204,0.01967 0.04402,0.03893 0.06605,0.05824 0.02848,0.02476 0.05712,0.04908 0.08594,0.07315 0.02136,0.01796 0.04256,0.03563 0.06392,0.05327 0.03085,0.02545 0.06256,0.05123 0.09375,0.07599 0.01966,0.01556 0.03895,0.03128 0.05895,0.04687 0.03424,0.0268 0.0684,0.05311 0.102983,0.07955 0.01729,0.01324 0.03456,0.02615 0.05185,0.03906 0.03797,0.02847 0.07641,0.05599 0.115057,0.08381 0.01424,0.01018 0.02837,0.02036 0.04261,0.03054 0.04272,0.03018 0.08515,0.06 0.128551,0.08949 0.01051,0.0071 0.02145,0.01418 0.03196,0.02131 0.04815,0.03222 0.09609,0.06397 0.144887,0.09517 0.0058,0.0037 0.01201,0.0084 0.01776,0.01207 0.05393,0.03425 0.107697,0.06794 0.162642,0.100852 0.001,6.55e-4 0.0025,0.0015 0.0036,0.0021 1.205344,0.728945 2.618446,1.148457 4.129971,1.149148 2.260471,-10e-4 4.301138,-0.940393 5.755682,-2.448864 -0.1156,0.07356 -0.27813,0.164928 -0.421875,0.25071 -0.61709,0.367527 -1.196283,0.554555 -1.779119,0.619318 l 7.27e-4,7.28e-4 C 10.369979,14.553409 9.16996,14.190534 8.003634,13.715553 7.514035,13.914898 7.018716,14.095353 6.52068,14.226916 5.116645,14.597498 3.394897,14.515328 2.23872,13.541547 Z"
  />
</svg>
