<svg
  viewBox="0 0 16 16"
  xmlns="http://www.w3.org/2000/svg"
>
  <path
    d="m 15.14642,10.7595 -0.6599,-1.18814 -1.4186,0.78884 0.659,1.1858 c 0.0389,0.069 0.0665,0.1404 0.0844,0.2142 0.0298,0.1342 0.0259,0.2736 -0.0114,0.4058 -0.0197,0.067 -0.0481,0.1311 -0.0844,0.1908 -0.0685,0.1172 -0.1653,0.2155 -0.2816,0.2856 -0.1259,0.0748 -0.27,0.1133 -0.4164,0.1112 H 9.2834197 V 11.1304 L 6.0370397,13.5652 9.2834197,16 V 14.3768 H 13.01752 c 0.2257,0 0.448,-0.03 0.6582,-0.0885 0.4061,-0.112 0.7754,-0.3292 1.0705,-0.6297 0.1445,-0.1453 0.2695,-0.3085 0.3701,-0.4813 0.3203,-0.5413 0.4181,-1.1858 0.2727,-1.7977 -0.0536,-0.2163 -0.1352,-0.4248 -0.2426,-0.6201 z M 2.6786697,7.10412 0.8038897,10.8537 c -0.09708,0.1941 -0.1683,0.4001 -0.21183,0.6127 -0.079303,0.3983 -0.057648,0.81 0.06299,1.1977 0.12064,0.3878 0.33643,0.7391 0.62768,1.022 0.14446,0.1413 0.30516,0.2646 0.4829,0.3677 0.37052,0.2117 0.78985,0.323 1.21658,0.323 h 1.43165 v -1.6232 h -1.43165 c -0.1421,4e-4 -0.28189,-0.0359 -0.4058,-0.1055 -0.11836,-0.0681 -0.21706,-0.1657 -0.28649,-0.2832 -0.07126,-0.1146 -0.11282,-0.2452 -0.12093,-0.3799 -0.00392,-0.0666 9.9e-4,-0.1334 0.01461,-0.1988 0.01461,-0.0706 0.03895,-0.1404 0.07223,-0.2078 l 1.83095,-3.66188 1.29774,0.74911 -0.48533,-4.02794 -3.73171,1.59397 z M 13.01512,8.66644 13.50042,4.63769 12.17112,5.40464 9.8637197,1.25172 c -0.1611,-0.295384 -0.38259,-0.553501 -0.6501,-0.757529 -0.26752,-0.204027 -0.57503,-0.349383 -0.90249,-0.4265903 -0.20538,-0.0475895 -0.41575,-0.07020725 -0.62655,-0.067362198 -0.42913,0.008045428 -0.84852,0.129272498 -1.21577,0.351420498 -0.39201,0.237934 -0.70793,0.582856 -0.91061,0.994201 l -0.59408,1.18817 1.45194,0.72638 0.59409,-1.18898 c 0.03652,-0.07305 0.08197,-0.13879 0.13472,-0.19641 0.09672,-0.10556 0.22138,-0.18155 0.35954,-0.21913 0.14027,-0.03961 0.28834,-0.04268 0.43014,-0.00893 0.10834,0.02543 0.20999,0.0737 0.29817,0.14158 0.08818,0.06789 0.16084,0.15382 0.21314,0.25205 L 10.76542,6.21705 9.2834197,7.07247 Z"
  />
</svg>
