<svg
  viewBox="0 0 16 16"
  xmlns="http://www.w3.org/2000/svg"
>
  <path
    d="M15.6012 10.7595L14.9413 9.57136L13.5227 10.3602L14.1817 11.546C14.2206 11.615 14.2482 11.6864 14.2661 11.7602C14.2959 11.8944 14.292 12.0338 14.2547 12.166C14.235 12.233 14.2066 12.2971 14.1703 12.3568C14.1018 12.474 14.005 12.5723 13.8887 12.6424C13.7628 12.7172 13.6187 12.7557 13.4723 12.7536H9.7382V11.1304L6.49182 13.5652L9.7382 16V14.3768H13.4723C13.698 14.3768 13.9203 14.3468 14.1305 14.2883C14.5366 14.1763 14.9059 13.9591 15.201 13.6586C15.3455 13.5133 15.4705 13.3501 15.5711 13.1773C15.8914 12.636 15.9892 11.9915 15.8438 11.3796C15.7902 11.1633 15.7086 10.9548 15.6012 10.7595ZM3.13345 7.10412L1.25867 10.8537C1.16159 11.0478 1.09037 11.2538 1.04684 11.4664C0.967537 11.8647 0.989192 12.2764 1.10983 12.6641C1.23047 13.0519 1.44626 13.4032 1.73751 13.6861C1.88197 13.8274 2.04267 13.9507 2.22041 14.0538C2.59093 14.2655 3.01026 14.3768 3.43699 14.3768H4.86864V12.7536H3.43699C3.29489 12.754 3.1551 12.7177 3.03119 12.6481C2.91283 12.58 2.81413 12.4824 2.7447 12.3649C2.67344 12.2503 2.63188 12.1197 2.62377 11.985C2.61985 11.9184 2.62476 11.8516 2.63838 11.7862C2.65299 11.7156 2.67733 11.6458 2.71061 11.5784L4.54156 7.91652L5.8393 8.66563L5.35397 4.63769L1.62226 6.23166L3.13345 7.10412ZM13.4699 8.66644L13.9552 4.63769L12.6259 5.40464L10.3185 1.25172C10.1574 0.956336 9.93591 0.698219 9.6684 0.494191C9.40088 0.290164 9.09337 0.144808 8.76591 0.0676007C8.56053 0.0200112 8.35016 -0.00260655 8.13936 0.000238502C7.71023 0.00828393 7.29084 0.129511 6.92359 0.351659C6.53158 0.589593 6.21566 0.934515 6.01298 1.34586L5.4189 2.53403L6.87084 3.26041L7.46493 2.07143C7.50145 1.99838 7.5469 1.93264 7.59965 1.87502C7.69637 1.76946 7.82103 1.69347 7.95919 1.65589C8.09946 1.61628 8.24753 1.61321 8.38933 1.64696C8.49767 1.67239 8.59932 1.72066 8.6875 1.78854C8.77568 1.85643 8.84834 1.94236 8.90064 2.04059L11.2202 6.21705L9.7382 7.07247L13.4699 8.66644Z"
  />
</svg>
