<svg
  viewBox="0 0 16 16"
  xmlns="http://www.w3.org/2000/svg"
>
  <path
    d="m 9.625718,0.2847301 0.287816,0.4592422 1.953286,3.1259114 1.54614,-0.89093 0.367394,0.6368111 L 12.794489,7.2958529 9.114452,6.3099884 8.747059,5.67317 10.17071,4.8526621 8.541906,2.2441661 H 7.458094 L 6.4324556,3.8851893 4.7332592,2.905475 6.0834315,0.7439723 6.3712184,0.2847301 H 6.913124 9.080726 9.622631 Z m 3.037097,8.5571898 1.699196,-0.979693 1.325704,2.1217 L 16,10.482994 l -0.293915,0.511265 -0.979692,1.696111 -0.4746,0.820537 -0.281644,0.489883 H 13.403775 9.959458 v 1.71448 H 9.22467 L 6.5304248,13.021024 9.22467,10.326852 h 0.734788 v 1.71448 h 2.877869 L 13.030209,11.707591 13.71606,10.519734 12.665901,8.8419199 Z M 2.143133,7.0539609 0.652124,6.1936495 1.0195178,5.5568311 4.6995766,4.5709886 5.6854191,8.2510769 5.3180253,8.8878439 3.8392652,8.0336529 2.2839623,10.522746 3.1626507,12.041332 H 5.0608496 V 14.00079 H 2.5962471 2.0298507 L 1.7481846,13.510907 0.293915,10.991173 0,10.479908 0.3122847,9.9808399 2.143133,7.0508969 Z"
  />
</svg>
