<svg
  viewBox="0 0 80 80"
  xmlns="http://www.w3.org/2000/svg"
>
  <path
    d="M40 0C17.9088 0 0 17.908 0 40C0 62.092 17.9088 80 40 80C62.092 80 80 62.092 80 40C80 17.908 62.092 0 40 0ZM40 8C57.672 8 72 22.328 72 40C72 57.672 57.672 72 40 72C22.3268 72 8 57.672 8 40C8 22.328 22.3268 8 40 8ZM28 28C25.7908 28 24 29.792 24 32V36C24 38.208 25.7908 40 28 40C30.2092 40 32 38.208 32 36V32C32 29.792 30.2092 28 28 28ZM52 28C49.792 28 48 29.792 48 32V36C48 38.208 49.792 40 52 40C54.208 40 56 38.208 56 36V32C56 29.792 54.208 28 52 28ZM40 47.376C34.632 47.376 29.5984 49.404 25.8752 53.124C24.312 54.688 24.3136 57.312 25.8752 58.876C27.4364 60.436 29.9372 60.436 31.5 58.876C33.74 56.64 36.772 55.376 40 55.376C43.216 55.376 46.264 56.528 48.5 58.752C50.068 60.308 52.568 60.316 54.124 58.752C55.684 57.184 55.692 54.684 54.124 53.124C50.404 49.428 45.352 47.376 40 47.376Z"
  />
</svg>
