<svg
  viewBox="0 0 16 16"
  xmlns="http://www.w3.org/2000/svg"
>
  <path
    d="M3.55556 0C1.59191 0 0 1.592 0 3.55556V12.4444C0 14.408 1.59191 16 3.55556 16H12.4445C14.4081 16 16 14.408 16 12.4444V3.55556C16 1.592 14.4081 0 12.4445 0H3.55556ZM11.5556 5.16623C11.783 5.16712 12.0209 5.24266 12.1945 5.41688C12.5416 5.76355 12.5416 6.31911 12.1945 6.66667L8.86117 10C7.83868 11.0222 6.27432 10.8693 5.47219 9.66667L4.5833 8.33333C4.31103 7.92533 4.4249 7.35555 4.83334 7.08355C5.24188 6.81066 5.81103 6.92444 6.08339 7.33333L6.97228 8.66667C7.15201 8.936 7.38197 8.95112 7.61112 8.72179L10.9166 5.41688C11.0902 5.24355 11.3281 5.16623 11.5556 5.16623Z"
  />
</svg>
