<svg
  viewBox="0 0 16 16"
  xmlns="http://www.w3.org/2000/svg"
>
  <path
    d="M 7.6998796,0.06481949 C 6.9964681,0.3649097 2.7763234,2.165451 2.0732361,2.4655412 1.7783434,2.591171 1.5980492,2.8696667 1.5980492,3.1905592 c 3.241e-4,3.5042614 0.1399621,5.0711285 0.7752771,6.8772758 0.8319341,2.364723 2.4641008,4.247729 5.2265272,5.826564 0.2456779,0.140802 0.5545667,0.140802 0.8002446,0 2.7872859,-1.593239 4.4269789,-3.469883 5.2511469,-5.826564 0.627429,-1.7933515 0.750706,-3.2825912 0.750706,-6.8772758 0,-0.3201003 -0.181735,-0.598584 -0.475343,-0.725018 L 8.3504872,0.06481949 c -0.2016607,-0.08642599 -0.448947,-0.08642599 -0.6506076,0 z M 7.9999698,1.6397049 12.801389,3.715525 C 12.87101,9.4580513 11.734749,11.979662 7.9999698,14.26911 4.1673016,11.885193 3.1591545,9.3300208 3.1985264,3.715525 4.2893423,3.249785 7.0773004,2.0342275 7.9999698,1.6397049 Z m 0,2.3510988 c -0.4417328,0 -0.8002326,0.3585118 -0.8002326,0.8002446 v 3.2009543 c 0,0.4417328 0.3584998,0.8002446 0.8002326,0.8002446 0.4417328,0 0.8002446,-0.3585118 0.8002446,-0.8002446 V 4.7910483 c 0,-0.4417328 -0.3585118,-0.8002446 -0.8002446,-0.8002446 z m 0,5.601688 c -0.4417328,0 -0.8002326,0.3585118 -0.8002326,0.8002453 0,0.441781 0.3584998,0.800208 0.8002326,0.800208 0.4417328,0 0.8002446,-0.358427 0.8002446,-0.800208 0,-0.4417335 -0.3585118,-0.8002453 -0.8002446,-0.8002453 z"
  />
</svg>
