<svg
  viewBox="0 0 16 16"
  xmlns="http://www.w3.org/2000/svg"
>
  <path
    d="M12.6316 0C10.7714 0 9.26316 1.50813 9.26316 3.36842C9.26316 5.22872 10.7714 6.73684 12.6316 6.73684C14.4918 6.73684 16 5.22872 16 3.36842C16 1.50813 14.4918 0 12.6316 0ZM3.36842 1.68421C1.50821 1.68421 0 3.19234 0 5.05263V12.6316C0 14.4918 1.50821 16 3.36842 16H10.9474C12.8076 16 14.3158 14.4918 14.3158 12.6316V9.26316C14.3158 8.79832 13.9385 8.42105 13.4737 8.42105C13.0088 8.42105 12.6316 8.79832 12.6316 9.26316V12.6316C12.6316 13.5621 11.8779 14.3158 10.9474 14.3158H3.36842C2.4379 14.3158 1.68421 13.5621 1.68421 12.6316V5.05263C1.68421 4.12244 2.4379 3.36842 3.36842 3.36842H6.73684C7.20169 3.36842 7.57895 2.99141 7.57895 2.52632C7.57895 2.06122 7.20169 1.68421 6.73684 1.68421H3.36842ZM12.6316 1.68421C13.5621 1.68421 14.3158 2.43823 14.3158 3.36842C14.3158 4.29861 13.5621 5.05263 12.6316 5.05263C11.7011 5.05263 10.9474 4.29861 10.9474 3.36842C10.9474 2.43823 11.7011 1.68421 12.6316 1.68421Z"
  />
</svg>
