<svg
  viewBox="0 0 16 16"
  xmlns="http://www.w3.org/2000/svg"
>
  <path
    d="m 13.600019,1.5999804 c -1.1896,0.0024 -1.9872,0.88401 -2.0752,0.94961 -0.4712,0.3544 -0.9832,0.67999 -1.5248,0.95039 -1.1376395,0.5688 -2.3712395,0.92001 -3.6000395,1.12481 -0.4304,0.072 -0.81919,0.12479 -1.17519,0.15039 -0.208,0.0144 -0.35681,0.0248 -0.42481,0.0248 h -1.64961 c -1.764,0 -3.1503889824,1.42881 -3.1503889824,3.20001 0,1.76719 1.4327989824,3.1999896 3.1999989824,3.1999896 v 0.8 c 0,1.3256 1.0744,2.4 2.4,2.4 1.3256,0 2.4,-1.0744 2.4,-2.4 l 0.00481,-0.2728 c 0.6736,0.1936 1.36319,0.456 1.9952295,0.7728 0.5384,0.2696 1.056,0.5984 1.5248,0.9496 0.088,0.0664 0.9792,0.9576 2.0752,0.9504 1.3136,-0.0088 2.4,-1.0208 2.4,-2.3 V 3.8999804 c 0,-1.2792 -1.0704,-2.3024 -2.4,-2.3 z m 0,1.6 c 0.4536,0 0.8,0.3296 0.8,0.7 V 12.09998 c 0,0.3704 -0.3464,0.7 -0.8,0.7 -0.4536,0 -0.8,-0.3296 -0.8,-0.7 0,-2.0224 0,-6.1775996 0,-8.1999996 0,-0.3704 0.3464,-0.7 0.8,-0.7 z m -2.4,1.45682 c 0,2.012 -0.0072,4.65438 -0.0072,6.6663796 -0.1648,-0.092 -0.2976,-0.1632 -0.468,-0.248 -1.2936295,-0.6488 -2.6736395,-1.0704 -4.0496395,-1.2999996 -0.8288,-0.1384 -1.4864,-0.1752 -1.8752,-0.1752 v -3.2 c 0.3888,0 1.0472,-0.03679 1.8752,-0.17519 1.3752,-0.2288 2.75681,-0.6536 4.0496395,-1.3 0.1712,-0.0856 0.3096,-0.17519 0.4752,-0.26799 z m -8.0496495,1.74318 h 0.04961 v 3.2 c -0.884,0 -1.6,-0.71599 -1.6,-1.59999 0,-0.89681 0.67919,-1.60001 1.55039,-1.60001 z m 1.64961,4.7999996 c 0.068,0 0.21681,0.0104 0.42481,0.0248 0.356,0.0256 0.74479,0.0784 1.17519,0.1504 v 0.6248 c 0,0.4416 -0.3584,0.8 -0.8,0.8 -0.4416,0 -0.8,-0.3584 -0.8,-0.8 z"
  />
</svg>
