<svg
  viewBox="0 0 16 16"
  xmlns="http://www.w3.org/2000/svg"
>
  <path
    d="M8.40933 0C7.52693 0 6.79974 0.716 6.79974 1.6H5.20453C4.32213 1.6 3.60694 2.316 3.60694 3.2L3.59973 4.8C3.59973 4.9296 3.68213 5.19922 3.68213 5.19922L2.23334 6.64961C1.92214 6.96241 1.92214 7.4624 2.23334 7.7752L3.83173 9.3752C3.98133 9.5248 4.19334 9.6 4.40534 9.6H6.79974V14.4C6.79974 15.284 7.51734 16 8.39974 16C9.28214 16 9.99974 15.284 9.99974 14.4V9.6H11.5949C12.4773 9.6 13.1997 8.884 13.1997 8V6.4C13.1997 6.2744 13.1429 6 13.1429 6L14.5661 4.5752C14.8773 4.2624 14.8773 3.76241 14.5661 3.44961L12.9677 1.84961C12.8181 1.70001 12.6061 1.6 12.3941 1.6H10.0069C10.0069 0.716 9.29173 0 8.40933 0ZM5.19974 3.2H12.0445L12.8685 4.0248L12.0693 4.8C12.0285 4.8 11.6861 4.8 11.5949 4.8H5.19974V3.2ZM4.75494 6.4H11.5997V8H4.73013L3.95653 7.2248L4.75494 6.4Z"
  />
</svg>
