<svg
  viewBox="0 0 16 16"
  xmlns="http://www.w3.org/2000/svg"
>
  <path
    d="M 8,0 C 3.58176,0 0,3.5816 0,8 c 0,4.4184 3.58176,8 8,8 4.4184,0 8,-3.5816 8,-8 C 16,3.5816 12.4184,0 8,0 Z m 0,1.6 c 3.5344,0 6.4,2.8656 6.4,6.4 0,3.5344 -2.8656,6.4 -6.4,6.4 C 4.46536,14.4 1.6,11.5344 1.6,8 1.6,4.4656 4.46536,1.6 8,1.6 Z m -2.4,4 C 5.15816,5.6 4.8,5.9584 4.8,6.4 V 7.2 C 4.8,7.6416 5.15816,8 5.6,8 6.04184,8 6.4,7.6416 6.4,7.2 V 6.4 C 6.4,5.9584 6.04184,5.6 5.6,5.6 Z m 4.8,0 C 9.9584,5.6 9.6,5.9584 9.6,6.4 V 7.2 C 9.6,7.6416 9.9584,8 10.4,8 10.8416,8 11.2,7.6416 11.2,7.2 V 6.4 C 11.2,5.9584 10.8416,5.6 10.4,5.6 Z M 8,9.4752 c -1.0736,0 -2.08032,0.4056 -2.82496,1.1496 -0.31264,0.3128 -0.31232,0.8376 0,1.1504 0.31224,0.312 0.8124,0.312 1.12496,0 0.448,-0.4472 1.0544,-0.7 1.7,-0.7 0.6432,0 1.2528,0.2304 1.7,0.6752 0.3136,0.3112 0.8136,0.3128 1.1248,0 0.312,-0.3136 0.3136,-0.8136 0,-1.1256 C 10.0808,9.8856 9.0704,9.4752 8,9.4752 Z"
  />
</svg>
