<svg
  viewBox="0 0 24 24"
  xmlns="http://www.w3.org/2000/svg"
>
  <path
    d="M19.3037 3.03367C18.8307 2.98767 18.2817 3.06668 17.6787 3.31468C17.6787 3.31468 4.96373 8.55267 4.55373 8.72167C3.54273 9.11467 2.99072 9.54268 2.99072 10.5337V10.6587C2.99072 11.6687 3.80873 12.3647 4.77173 12.5027L10.1787 13.8147L11.4597 19.1907C11.5827 20.1727 12.3097 21.0027 13.3347 21.0027H13.4597C14.4507 21.0027 14.8717 20.4377 15.2717 19.4087L20.6787 6.31468C21.4237 4.50468 20.7197 3.17267 19.3037 3.03367ZM18.9907 5.00267C19.0317 5.04367 18.9927 5.18068 18.8347 5.56468L13.4287 18.6907C13.4197 18.7127 13.4047 18.7017 13.3967 18.7217L11.9597 12.7527C11.8717 12.3887 11.6047 12.1217 11.2407 12.0337L5.30373 10.5967C5.73173 10.4207 18.4287 5.15868 18.4287 5.15868C18.8127 5.00068 18.9497 4.96167 18.9907 5.00267Z"
  />
</svg>
