<svg
  viewBox="0 0 16 16"
  xmlns="http://www.w3.org/2000/svg"
>
  <path
    d="M 3.5555395,0 C 1.5918895,0 -1.94824e-5,1.592 -1.94824e-5,3.55556 V 12.4444 C -1.94824e-5,14.408 1.5918895,16 3.5555395,16 h 8.8888795 c 1.9636,0 3.5556,-1.592 3.5556,-3.5556 V 3.55556 C 16.000019,1.592 14.408019,0 12.444419,0 Z m 0,1.77778 h 8.8888795 c 0.9823,0 1.7778,0.79555 1.7778,1.77778 v 8.88884 c 0,0.9823 -0.7955,1.7778 -1.7778,1.7778 H 3.5555395 c -0.98187,0 -1.77778,-0.7955 -1.77778,-1.7778 V 3.55556 c 0,-0.98223 0.79591,-1.77778 1.77778,-1.77778 z"
  />
</svg>
