<svg
  viewBox="0 0 16 16"
  xmlns="http://www.w3.org/2000/svg"
>
  <path
    d="M 8.00961,0 C 7.12721,0 6.40002,0.716 6.40002,1.6 H 4.80481 C 3.92241,1.6 3.20722,2.316 3.20722,3.2 L 3.20001,4.8 c 0,0.1296 0.0824,0.39922 0.0824,0.39922 L 1.83362,6.64961 c -0.3112,0.3128 -0.3112,0.81279 0,1.12559 l 1.59839,1.6 C 3.58161,9.5248 3.79362,9.6 4.00562,9.6 h 2.3944 v 4.8 c 0,0.884 0.7176,1.6 1.6,1.6 0.8824,0 1.6,-0.716 1.6,-1.6 V 9.6 h 1.59516 c 0.8824,0 1.6048,-0.716 1.6048,-1.6 V 6.4 c 0,-0.1256 -0.0568,-0.4 -0.0568,-0.4 l 1.4232,-1.4248 c 0.3112,-0.3128 0.3112,-0.81279 0,-1.12559 l -1.5984,-1.6 C 12.41838,1.70001 12.20638,1.6 11.99438,1.6 H 9.60718 C 9.60718,0.716 8.89201,0 8.00961,0 Z M 4.80002,3.2 h 6.84476 l 0.824,0.8248 -0.7992,0.7752 c -0.0408,0 -0.3832,0 -0.4744,0 H 4.80002 Z m -0.4448,3.2 h 6.84476 V 8 H 4.33041 L 3.55681,7.2248 Z"
  />
</svg>
