<svg
  viewBox="0 0 16 16"
  xmlns="http://www.w3.org/2000/svg"
>
  <path
    d="m 14.509132,0.01449895 c -0.420696,-0.040914 -0.908989,0.02936 -1.445311,0.2499366 0,0 -11.3089814,4.65878655 -11.6736447,4.80909905 C 0.49097009,5.4230776 -1.0559025e-7,5.8037594 -1.0559025e-7,6.6851949 v 0.111178 c 0,0.898317 0.72755659559025,1.517355 1.58407060559025,1.640095 l 4.8090809,1.166923 1.139351,4.7815351 c 0.109399,0.873413 0.756009,1.611634 1.667667,1.611634 h 0.111178 c 0.8814176,0 1.2558646,-0.502524 1.6116336,-1.417739 L 15.732088,2.9327033 c 0.66262,-1.6098549 0.03647,-2.79457465 -1.222956,-2.91820435 z M 14.230743,1.7657719 c 0.03647,0.036466 0.0018,0.1583262 -0.13875,0.4998644 L 9.2837754,13.940215 c -0.008,0.01957 -0.02135,0.0098 -0.02846,0.02757 l -1.2781,-5.3089631 c -0.07827,-0.32375 -0.315745,-0.561226 -0.639495,-0.639495 l -5.2804751,-1.2781 C 2.4379161,6.5846899 13.730888,1.9045308 13.730888,1.9045308 14.072426,1.764002 14.194277,1.7293056 14.230743,1.7657719 Z"
  />
</svg>
