<svg
  viewBox="0 0 16 16"
  xmlns="http://www.w3.org/2000/svg"
>
  <path
    d="M 4.79961,0 C 3.05536,0 1.5996,1.61038 1.5996,3.37998 V 4.0064 c 0,0.4424 0.35816,0.80078 0.80008,0.80078 L 2.3996,12.8 c 0,1.7544 1.44377,3.2 3.20001,3.2 h 4.79999 c 1.756,0 3.2,-1.4408 3.2,-3.2 l 8e-4,-7.99282 c 0.4416,0 0.8,-0.35838 0.8,-0.80078 V 3.20479 C 14.4004,1.44799 12.954,0 11.1996,0 Z m 0,1.6 6.42559,0.0272 c 0.8704,0 1.5744,0.7008 1.5744,1.5728 -1.4432,0 -8.05887,0 -9.59999,0 0.0992,-0.8312 0.82776,-1.6 1.6,-1.6 z m -0.8,3.2 h 7.99999 v 8 c 0,0.8792 -0.7368,1.6 -1.6,1.6 H 5.59961 c -0.88144,0 -1.6,-0.7352 -1.6,-1.6 z m 2.39993,1.5896 c -0.44185,0 -0.80009,0.35921 -0.80001,0.80161 v 4.80719 c 0,0.4432 0.35816,0.8016 0.80001,0.8016 0.44168,0 0.80008,-0.3584 0.80008,-0.8016 V 7.19121 c 0,-0.4424 -0.3584,-0.80161 -0.80008,-0.80161 z m 3.20006,0 c -0.44158,0 -0.79998,0.35921 -0.79998,0.80161 v 4.80719 c 0,0.4432 0.3584,0.8016 0.79998,0.8016 0.4416,0 0.8,-0.3584 0.8,-0.8016 V 7.19121 c 0,-0.4424 -0.3584,-0.80161 -0.8,-0.80161 z"
  />
</svg>
