<svg
  viewBox="0 0 17 21"
  xmlns="http://www.w3.org/2000/svg"
>
  <path
    d="M8.9978 0.953247C7.8928 0.953247 6.9978 1.84824 6.9978 2.95324H1.9978C1.4458 2.95324 0.997803 3.40124 0.997803 3.95324C0.997803 4.50524 1.4458 4.95323 1.9978 4.95323V16.9532C1.9978 19.1432 3.8028 20.9532 5.9978 20.9532H11.9978C14.1928 20.9532 15.9978 19.1482 15.9978 16.9532V4.95323C16.5498 4.95323 16.9978 4.50524 16.9978 3.95324C16.9978 3.40124 16.5498 2.95324 15.9978 2.95324H10.9978C10.9978 1.84824 10.1028 0.953247 8.9978 0.953247ZM3.9978 4.95323H13.9978V16.9532C13.9978 18.0502 13.1078 18.9532 12.0288 18.9532L5.9978 18.9222C4.8958 18.9222 3.9978 18.0322 3.9978 16.9532V4.95323ZM6.9978 6.95323C6.4458 6.95323 5.9978 7.40123 5.9978 7.95323V15.9532C5.9978 16.5052 6.4458 16.9532 6.9978 16.9532C7.5498 16.9532 7.9978 16.5052 7.9978 15.9532V7.95323C7.9978 7.40123 7.5498 6.95323 6.9978 6.95323ZM10.9978 6.95323C10.4458 6.95323 9.99779 7.40123 9.99779 7.95323V15.9532C9.99779 16.5052 10.4458 16.9532 10.9978 16.9532C11.5498 16.9532 11.9978 16.5052 11.9978 15.9532V7.95323C11.9978 7.40123 11.5498 6.95323 10.9978 6.95323Z"
  />
</svg>
