<svg
  viewBox="0 0 16 16"
  xmlns="http://www.w3.org/2000/svg"
>
  <path
    d="M3.2 2C1.43272 2 0 3.4328 0 5.2V10C0 11.2128 0.60152 12.1968 1.64128 12.7816C1.8188 13.932 2.8 14.8 4 14.8C5.01424 14.8 5.91936 14.1648 6.2552 13.1992L8.94104 13.1984C9.30376 14.1536 10.1858 14.8 11.2 14.8C12.2426 14.8 13.1206 14.1504 13.479 13.156C15.02 12.94 16 11.8536 16 10C16 10 16 10 16 9.2C16 7.1584 14.0418 5.2 12 5.2C12 3.4328 10.5673 2 8.8 2C8.1 2 3.9 2 3.2 2ZM3.2 3.6C3.9 3.6 8.1 3.6 8.8 3.6C9.68368 3.6 10.4001 4.316 10.4 5.2C10.4 5.2 10.4 5.824 10.4 6C10.4 6.9536 10.4042 9.35759 10.4042 10.136C9.77928 10.3456 9.1788 10.8832 8.93448 11.5952C8.93448 11.5952 6.4448 11.5976 6.2604 11.6064C5.86096 10.4608 4.79416 9.9904 4 10C3.20584 10.0096 2.47632 10.3856 2.00656 11.0704C1.78272 10.8992 1.6 10.4592 1.6 10V5.2C1.6 4.316 2.31632 3.6 3.2 3.6ZM12 6.8C13.1582 6.8 14.4 8.0416 14.4 9.2C14.4 10 14.4 10 14.4 10C14.4 10.9576 14.1153 11.3736 13.4402 11.5336C13.2358 10.9408 12.6221 10.3368 12.005 10.1464L12 6.8ZM4 11.6C4.42664 11.5936 4.79936 11.9552 4.8 12.4C4.8 12.8416 4.44184 13.2 4 13.2C3.55816 13.2 3.2 12.8416 3.2 12.4C3.26616 11.9592 3.58496 11.6064 4 11.6ZM11.2 11.6C11.6418 11.6 12 11.9584 12 12.4C12 12.8416 11.6418 13.2 11.2 13.2C10.7582 13.2 10.4 12.8416 10.4 12.4C10.4 12.1792 10.4802 11.9696 10.625 11.8248C10.7698 11.68 10.9791 11.6 11.2 11.6Z"
  />
</svg>
