<svg
  xmlns="http://www.w3.org/2000/svg"
  viewBox="0 0 24 24"
>
  <path
    fill-rule="evenodd"
    d=" M 0 12 C 0 8.82 1.27 5.76 3.51 3.51 C 5.76 1.27 8.82 0 12 0 C 15.18 0 18.24 1.27 20.49 3.51 C 22.73 5.76 24 8.82 24 12 C 24 15.18 22.73 18.24 20.49 20.49 C 18.24 22.73 15.18 24 12 24 C 8.82 24 5.76 22.73 3.51 20.49 C 1.27 18.24 0 15.18 0 12 Z  M 5 12 C 5 10.14 5.74 8.36 7.05 7.05 C 8.36 5.74 10.14 5 12 5 C 13.86 5 15.64 5.74 16.95 7.05 C 18.26 8.36 19 10.14 19 12 C 19 13.86 18.26 15.64 16.95 16.95 C 15.64 18.26 13.86 19 12 19 C 10.14 19 8.36 18.26 7.05 16.95 C 5.74 15.64 5 13.86 5 12 Z  M 8 12 C 8 9.792 9.792 8 12 8 C 14.208 8 16 9.792 16 12 C 16 14.208 14.208 16 12 16 C 9.792 16 8 14.208 8 12 Z "
  />
</svg>
