<svg
  viewBox="0 0 16 16"
  xmlns="http://www.w3.org/2000/svg"
>
  <path
    d="m 7.9999989,2.5e-7 c -0.8840021,0 -1.6000037,0.7159961 -1.6000037,1.59999815 H 2.3999858 c -0.441601,0 -0.7999994,0.3584008 -0.7999994,0.8000018 0,0.4416011 0.3583984,0.799994 0.7999994,0.799994 V 12.799993 C 2.3999858,14.551997 3.8439892,16 5.5999933,16 h 4.8000117 c 1.756004,0 3.200007,-1.444003 3.200007,-3.200007 V 3.1999941 c 0.441601,0 0.800002,-0.3583928 0.800002,-0.7999939 0,-0.441601 -0.358401,-0.8000018 -0.800002,-0.8000018 H 9.6000026 C 9.6000026,0.71599635 8.884001,2.5e-7 7.9999989,2.5e-7 Z M 3.9999896,3.1999941 h 8.0000194 v 9.5999989 c 0,0.877602 -0.712002,1.600004 -1.575204,1.600004 l -4.8248117,-0.0248 c -0.8816021,0 -1.6000037,-0.712002 -1.6000037,-1.575204 z m 2.4000056,1.6000038 c -0.4416011,0 -0.8000019,0.3584008 -0.8000019,0.8000019 v 6.3999912 c 0,0.441601 0.3584008,0.800002 0.8000019,0.800002 0.441601,0 0.8000019,-0.358401 0.8000019,-0.800002 V 5.5999998 c 0,-0.4416011 -0.3584009,-0.8000019 -0.8000019,-0.8000019 z m 3.2000075,0 c -0.441601,0 -0.8000098,0.3584008 -0.8000098,0.8000019 v 6.3999912 c 0,0.441601 0.3584088,0.800002 0.8000098,0.800002 0.4416013,0 0.8000023,-0.358401 0.8000023,-0.800002 V 5.5999998 c 0,-0.4416011 -0.358401,-0.8000019 -0.8000023,-0.8000019 z"
  />
</svg>
