<svg
  width="16"
  height="16"
  xmlns="http://www.w3.org/2000/svg"
>
  <path
    d="M 12.721639,3.6061969 C 12.161919,1.4952524 10.250875,0 8.027986,0 5.805097,0 3.902049,1.4792604 3.3343328,3.5822089 1.6391804,4.3738131 0.51974005,6.092954 0.51974005,7.988006 c 0,2.686657 2.18290865,4.869565 4.86956515,4.869565 0.6236887,0 1.2393807,-0.127936 1.8150927,-0.35982 V 15.2004 c 0,0.43978 0.35982,0.7996 0.7996,0.7996 0.4397801,0 0.7996,-0.35982 0.7996,-0.7996 v -2.702649 c 0.575712,0.231884 1.183408,0.35982 1.8070971,0.35982 2.686656,0 4.869565,-2.182908 4.869565,-4.869565 0,-1.871064 -1.087456,-3.5742129 -2.758621,-4.3818091 z m -2.110944,7.6441781 c -0.6476771,0 -1.279361,-0.207896 -1.8070971,-0.55972 V 7.676162 c 0,-0.43978 -0.3598199,-0.7996 -0.7996,-0.7996 -0.43978,0 -0.7996,0.35982 -0.7996,0.7996 v 3.014493 c -0.535732,0.35982 -1.15942,0.55972 -1.8150927,0.55972 -1.7991004,0 -3.2703647,-1.463269 -3.2703647,-3.270365 0,-1.375312 0.8715642,-2.6066967 2.1669166,-3.0704648 l 0.4397801,-0.15992 0.07996,-0.4557721 C 5.0774613,2.7266367 6.4287859,1.5992004 8.01999,1.5992004 c 1.591204,0 2.950525,1.1434283 3.214393,2.7106447 l 0.07996,0.4557721 0.431784,0.15992 c 1.271364,0.4717641 2.126936,1.7031488 2.126936,3.0544728 0,1.7991 -1.463268,3.270365 -3.270364,3.270365 z"
  />
</svg>
