<svg
  viewBox="0 0 16 16"
  xmlns="http://www.w3.org/2000/svg"
>
  <path
    d="M8.121.004a8.117 8.117 0 0 0-1.717.152 7.657 7.657 0 0 0-1.646.531 7.187 7.187 0 0 0-.524.249 7.404 7.404 0 0 0-.976.61 7.8 7.8 0 0 0-1.63 1.62A8.265 8.265 0 0 0 1 4.133a8.186 8.186 0 0 0-.484 1.045A8.017 8.017 0 0 0 .182 6.28 7.683 7.683 0 0 0 0 8a7.86 7.86 0 0 0 .355 2.355 8.067 8.067 0 0 0 .543 1.327 7.189 7.189 0 0 0 1.184 1.713 7.788 7.788 0 0 0 1.104.994 8.196 8.196 0 0 0 1.537.904 8.211 8.211 0 0 0 2.28.65 7.764 7.764 0 0 0 .595.053 7.532 7.532 0 0 0 .894-.008c.1-.007.2-.016.299-.027a7.352 7.352 0 0 0 1.113-.186 7.728 7.728 0 0 0 1.586-.576 8.143 8.143 0 0 0 2.27-1.648 8.055 8.055 0 0 0 .726-.86 7.781 7.781 0 0 0 .84-1.464c.075-.173.144-.35.205-.53a7.229 7.229 0 0 0 .373-1.426 7.656 7.656 0 0 0 .094-1.466 8.108 8.108 0 0 0-.244-1.748 8.27 8.27 0 0 0-.365-1.12 8.116 8.116 0 0 0-.244-.535 7.99 7.99 0 0 0-.598-1.013 7.739 7.739 0 0 0-1.174-1.32 7.362 7.362 0 0 0-.441-.378 7.506 7.506 0 0 0-.957-.64A7.887 7.887 0 0 0 10.39.369 8.233 8.233 0 0 0 8.12.004zm.022 3.324a4.39 4.39 0 0 1 1.22.21 4.794 4.794 0 0 1 1.125.523 4.902 4.902 0 0 1 .957.79 4.653 4.653 0 0 1 .713 1.014 4.247 4.247 0 0 1 .307.776 4.14 4.14 0 0 1 .178.816 4.387 4.387 0 0 1-.028 1.24 4.724 4.724 0 0 1-.203.803c-.045.13-.094.26-.15.387a4.883 4.883 0 0 1-.4.726 4.74 4.74 0 0 1-.817.932 4.397 4.397 0 0 1-.676.482c-.12.07-.245.134-.373.192a4.162 4.162 0 0 1-.781.295 4.363 4.363 0 0 1-1.23.152 4.759 4.759 0 0 1-1.23-.176 4.876 4.876 0 0 1-1.144-.48 4.639 4.639 0 0 1-.976-.764 4.26 4.26 0 0 1-.518-.656 4.531 4.531 0 0 1-.584-1.236c-.033-.11-.06-.22-.086-.333a4.699 4.699 0 0 1-.101-.677A4.578 4.578 0 0 1 3.334 8a4.14 4.14 0 0 1 .158-1.234 4.67 4.67 0 0 1 .977-1.807 4.92 4.92 0 0 1 1.273-1.047 4.56 4.56 0 0 1 .756-.34 4.26 4.26 0 0 1 .813-.187 4.145 4.145 0 0 1 .832-.057zM7.97 5.324C6.575 5.33 5.288 6.571 5.334 8a2.675 2.675 0 0 0 1.51 2.404c1.394.726 3.282-.098 3.703-1.611.515-1.488-.58-3.239-2.14-3.43a2.327 2.327 0 0 0-.436-.039z"
  />
</svg>
