<svg
  viewBox="0 0 16 16"
  xmlns="http://www.w3.org/2000/svg"
>
  <path
    d="M 4.8,0 C 6.96752,0 8.30904,0.573595 8.77504,2.1752 8.88,2.536 8.9264,2.9376 8.95,3.3752 8.97504,3.84 8.95448,4.3072 8.90896,4.7864 L 12,4.8 c 1.3255,0 2.4,1.0744 2.4,2.4 0,0.5856 -0.2558,1.15119 -0.6447,1.58159 C 14.1666,9.21279 14.4,9.7576 14.4,10.4 c 0,0.6544 -0.3385,1.2904 -0.8157,1.7384 0,0.196 0.0157,0.5368 0.0157,0.6616 0,1.4712 -0.7438,2.4144 -2.05,2.8496 C 10.6853,15.9384 9.896,16 8,16 4.35816,16 1.6,13.2416 1.6,9.6 1.6,7.7816 1.92424,6.75121 2.87504,4.84961 3.72424,3.15121 4,2.3152 4,0.8 4,0.3584 4.35816,0 4.8,0 Z M 5.5716,1.63279 C 5.45992,2.91039 5.09376,4.01279 4.32496,5.55039 3.47576,7.24879 3.2,8.0848 3.2,9.6 c 0,2.7584 2.04184,4.8 4.8,4.8 3.1602,0 4,-0.28 4,-1.6 -0.1229,0 -0.6994,0 -0.8,0 -0.4418,0 -0.8,-0.3584 -0.8,-0.8 0,-0.4416 0.3582,-0.8 0.8,-0.8 0.1006,0 0.6771,0 0.8,0 0.3649,0 0.8,-0.432 0.8,-0.8 0,-0.4416 -0.3582,-0.8 -0.8,-0.8 -0.1182,0 -0.6997,0 -0.8,0 C 10.7582,9.6 10.4,9.2416 10.4,8.8 10.4,8.3584 10.7582,8 11.2,8 11.3003,8 11.8818,8 12,8 12.3712,8 12.8,7.5768 12.8,7.2 12.8,6.7584 12.4418,6.4 12,6.4 H 8 C 7.96344,6.4 7.63912,6.3976 7.37504,6.0752 7.11088,5.752 7.2216,5.46721 7.22496,5.44961 7.24216,5.36161 7.27184,5.2016 7.3,4.9752 7.36336,4.4656 7.37544,3.9472 7.35,3.4752 7.33256,3.1512 7.2924,2.8568 7.22496,2.6248 7.05608,2.044 6.56488,1.68639 5.5716,1.63279 Z"
  />
</svg>
