<svg
  viewBox="0 0 16 16"
  xmlns="http://www.w3.org/2000/svg"
>
  <path
    d="M 3.2,1.6 C 1.43272,1.6 0,3.0328 0,4.8 v 4.8 c 0,1.2128 0.60152,2.1968 1.64128,2.7816 C 1.8188,13.532 2.8,14.4 4,14.4 c 1.01424,0 1.91936,-0.6352 2.2552,-1.6008 l 2.68584,-8e-4 C 9.30376,13.7536 10.1858,14.4 11.2,14.4 c 1.0426,0 1.9206,-0.6496 2.279,-1.644 C 15.02,12.54 16,11.4536 16,9.6 c 0,0 0,0 0,-0.8 0,-2.0416 -1.9582,-4 -4,-4 0,-1.7672 -1.4327,-3.2 -3.2,-3.2 -0.7,0 -4.9,0 -5.6,0 z m 0,1.6 c 0.7,0 4.9,0 5.6,0 0.88368,0 1.6001,0.716 1.6,1.6 0,0 0,0.624 0,0.8 0,0.9536 0.0042,3.35759 0.0042,4.136 -0.62492,0.2096 -1.2254,0.7472 -1.46972,1.4592 0,0 -2.48968,0.0024 -2.67408,0.0112 C 5.86096,10.0608 4.79416,9.5904 4,9.6 3.20584,9.6096 2.47632,9.9856 2.00656,10.6704 1.78272,10.4992 1.6,10.0592 1.6,9.6 V 4.8 C 1.6,3.916 2.31632,3.2 3.2,3.2 Z M 12,6.4 c 1.1582,0 2.4,1.2416 2.4,2.4 0,0.8 0,0.8 0,0.8 0,0.9576 -0.2847,1.3736 -0.9598,1.5336 C 13.2358,10.5408 12.6221,9.9368 12.005,9.7464 Z M 4,11.2 C 4.42664,11.1936 4.79936,11.5552 4.8,12 4.8,12.4416 4.44184,12.8 4,12.8 3.55816,12.8 3.2,12.4416 3.2,12 3.26616,11.5592 3.58496,11.2064 4,11.2 Z m 7.2,0 c 0.4418,0 0.8,0.3584 0.8,0.8 0,0.4416 -0.3582,0.8 -0.8,0.8 -0.4418,0 -0.8,-0.3584 -0.8,-0.8 0,-0.2208 0.0802,-0.4304 0.225,-0.5752 C 10.7698,11.28 10.9791,11.2 11.2,11.2 Z"
  />
</svg>
