<svg
  viewBox="0 0 16 16"
  xmlns="http://www.w3.org/2000/svg"
>
  <path
    d="M5.4 0C7.56752 0 8.90904 0.573595 9.37504 2.1752C9.48 2.536 9.5264 2.9376 9.55 3.3752C9.57504 3.84 9.55448 4.3072 9.50896 4.7864L12.6 4.8C13.9255 4.8 15 5.8744 15 7.2C15 7.7856 14.7442 8.35119 14.3553 8.78159C14.7666 9.21279 15 9.7576 15 10.4C15 11.0544 14.6615 11.6904 14.1843 12.1384C14.1843 12.3344 14.2 12.6752 14.2 12.8C14.2 14.2712 13.4562 15.2144 12.15 15.6496C11.2853 15.9384 10.496 16 8.6 16C4.95816 16 2.2 13.2416 2.2 9.6C2.2 7.7816 2.52424 6.75121 3.47504 4.84961C4.32424 3.15121 4.6 2.3152 4.6 0.8C4.6 0.3584 4.95816 0 5.4 0ZM6.1716 1.63279C6.05992 2.91039 5.69376 4.01279 4.92496 5.55039C4.07576 7.24879 3.8 8.0848 3.8 9.6C3.8 12.3584 5.84184 14.4 8.6 14.4C11.7602 14.4 12.6 14.12 12.6 12.8C12.4771 12.8 11.9006 12.8 11.8 12.8C11.3582 12.8 11 12.4416 11 12C11 11.5584 11.3582 11.2 11.8 11.2C11.9006 11.2 12.4771 11.2 12.6 11.2C12.9649 11.2 13.4 10.768 13.4 10.4C13.4 9.9584 13.0418 9.6 12.6 9.6C12.4818 9.6 11.9003 9.6 11.8 9.6C11.3582 9.6 11 9.2416 11 8.8C11 8.3584 11.3582 8 11.8 8C11.9003 8 12.4818 8 12.6 8C12.9712 8 13.4 7.5768 13.4 7.2C13.4 6.7584 13.0418 6.4 12.6 6.4H8.6C8.56344 6.4 8.23912 6.3976 7.97504 6.0752C7.71088 5.752 7.8216 5.46721 7.82496 5.44961C7.84216 5.36161 7.87184 5.2016 7.9 4.9752C7.96336 4.4656 7.97544 3.9472 7.95 3.4752C7.93256 3.1512 7.8924 2.8568 7.82496 2.6248C7.65608 2.044 7.16488 1.68639 6.1716 1.63279Z"
  />
</svg>
