<svg
  viewBox="0 0 16 16"
  xmlns="http://www.w3.org/2000/svg"
>
  <path
    d="M5.20001 0C3.45576 0 2 1.61038 2 3.37998V4.0064C2 4.4488 2.35816 4.80718 2.80008 4.80718L2.8 12.8C2.8 14.5544 4.24377 16 6.00001 16H10.8C12.556 16 14 14.5592 14 12.8L14.0008 4.80718C14.4424 4.80718 14.8008 4.4488 14.8008 4.0064V3.20479C14.8008 1.44799 13.3544 0 11.6 0H5.20001ZM5.20001 1.6L11.6256 1.6272C12.496 1.6272 13.2 2.328 13.2 3.2C11.7568 3.2 5.14113 3.2 3.60001 3.2C3.69921 2.3688 4.42777 1.6 5.20001 1.6ZM4.40001 4.8H12.4V12.8C12.4 13.6792 11.6632 14.4 10.8 14.4H6.00001C5.11857 14.4 4.40001 13.6648 4.40001 12.8V4.8ZM6.79994 6.3896C6.35809 6.3896 5.99985 6.74881 5.99993 7.19121V11.9984C5.99993 12.4416 6.35809 12.8 6.79994 12.8C7.24162 12.8 7.60002 12.4416 7.60002 11.9984V7.19121C7.60002 6.74881 7.24162 6.3896 6.79994 6.3896ZM10 6.3896C9.55842 6.3896 9.20002 6.74881 9.20002 7.19121V11.9984C9.20002 12.4416 9.55842 12.8 10 12.8C10.4416 12.8 10.8 12.4416 10.8 11.9984V7.19121C10.8 6.74881 10.4416 6.3896 10 6.3896Z"
  />
</svg>
