<svg
  viewBox="0 0 16 16"
  xmlns="http://www.w3.org/2000/svg"
>
  <path
    d="M 8.1210938 0.00390625 C 7.9290855 0.00019020215 7.7366492 0.0037492149 7.5449219 0.013671875 C 7.3531946 0.023594525 7.1631443 0.040728779 6.9726562 0.064453125 C 6.7821683 0.088177481 6.592587 0.11856094 6.4042969 0.15625 C 6.2160067 0.19393906 6.0288838 0.23919885 5.84375 0.29101562 C 5.6586162 0.34283239 5.4739877 0.40068939 5.2929688 0.46679688 C 5.2024593 0.49985061 5.1127385 0.53560865 5.0234375 0.57226562 C 4.9341365 0.60892261 4.8457853 0.6472194 4.7578125 0.6875 C 4.6687404 0.72546283 4.5814037 0.76523383 4.4941406 0.80664062 C 4.4068775 0.84804741 4.3197641 0.89079993 4.234375 0.93554688 C 4.0635968 1.0250407 3.8972675 1.1204248 3.734375 1.2226562 C 3.5714825 1.3248878 3.4122997 1.4327363 3.2578125 1.546875 C 3.1033253 1.6610137 2.952203 1.7810348 2.8066406 1.90625 C 2.6610783 2.0314652 2.5208835 2.163367 2.3847656 2.2988281 C 2.2486479 2.4342894 2.116388 2.5738733 1.9902344 2.71875 C 1.8640807 2.8636267 1.7445761 3.0125541 1.6289062 3.1660156 C 1.5132365 3.3194772 1.4015415 3.477456 1.296875 3.6386719 C 1.1922085 3.7998877 1.0931434 3.9646729 1 4.1328125 C 0.90685654 4.3009521 0.82133518 4.4722515 0.74023438 4.6464844 C 0.65913358 4.8207172 0.58416353 4.9982389 0.515625 5.1777344 C 0.44708647 5.3572299 0.38358163 5.5387287 0.328125 5.7226562 C 0.27266837 5.9065839 0.22349574 6.0937208 0.18164062 6.28125 C 0.13978552 6.4687792 0.10585896 6.6573561 0.078125 6.8476562 C 0.050391038 7.0379565 0.030671322 7.2296344 0.017578125 7.421875 C 0.011031522 7.5179953 0.0047421022 7.6144878 0.001953125 7.7109375 C -0.00083585932 7.8073872 -0.001033599 7.9033248 0 8 C -0.00014213097 8.1594986 0.0041000846 8.319359 0.013671875 8.4785156 C 0.023243665 8.6376724 0.037504854 8.7968055 0.056640625 8.9550781 C 0.075776406 9.1133509 0.10035642 9.2708876 0.12890625 9.4277344 C 0.15745612 9.5845811 0.19070166 9.7396524 0.22851562 9.8945312 C 0.26632959 10.04941 0.30854058 10.2031 0.35546875 10.355469 C 0.4023969 10.507838 0.45387321 10.659277 0.50976562 10.808594 C 0.56565807 10.957911 0.62669947 11.10623 0.69140625 11.251953 C 0.75611299 11.397677 0.82506631 11.540053 0.8984375 11.681641 C 0.94313676 11.771161 0.98884904 11.859922 1.0371094 11.947266 C 1.0853693 12.034606 1.1357985 12.121924 1.1875 12.207031 C 1.2392019 12.292141 1.2926327 12.376176 1.3476562 12.458984 C 1.4026802 12.541794 1.4593524 12.622679 1.5175781 12.703125 C 1.5758041 12.783575 1.6359574 12.863384 1.6972656 12.941406 C 1.7585736 13.019426 1.8204946 13.096339 1.8847656 13.171875 C 1.9490366 13.247415 2.014917 13.321544 2.0820312 13.394531 C 2.1491452 13.467521 2.2172716 13.539 2.2871094 13.609375 C 2.4267847 13.750126 2.5728048 13.885695 2.7226562 14.015625 C 2.8725076 14.145555 3.0264766 14.270064 3.1855469 14.388672 C 3.344617 14.50728 3.5084495 14.619776 3.6757812 14.726562 C 3.8431129 14.833348 4.0148173 14.934832 4.1894531 15.029297 C 4.364089 15.123757 4.5416735 15.211325 4.7226562 15.292969 C 4.9036391 15.374609 5.0870651 15.449256 5.2734375 15.517578 C 5.4598099 15.585898 5.649039 15.648625 5.8398438 15.703125 C 6.0306486 15.757625 6.2236889 15.803572 6.4179688 15.84375 C 6.5151087 15.86384 6.6131083 15.882018 6.7109375 15.898438 C 6.8087664 15.914847 6.9055074 15.930679 7.0039062 15.943359 C 7.1023052 15.956039 7.2019325 15.965729 7.3007812 15.974609 C 7.3996302 15.983509 7.4984772 15.991074 7.5976562 15.996094 C 7.6968352 16.001094 7.7951415 16.004759 7.8945312 16.005859 C 7.9939212 16.006959 8.0938787 16.004853 8.1933594 16.001953 C 8.2928403 15.999053 8.3927355 15.995251 8.4921875 15.988281 C 8.5916394 15.981381 8.6917119 15.971987 8.7910156 15.960938 C 8.9793219 15.944228 9.1657203 15.919672 9.3515625 15.888672 C 9.5374047 15.857682 9.7216473 15.820112 9.9042969 15.775391 C 10.086947 15.730661 10.268537 15.679001 10.447266 15.621094 C 10.625993 15.563184 10.802484 15.498271 10.976562 15.427734 C 11.15064 15.357194 11.321535 15.281832 11.490234 15.199219 C 11.658934 15.116609 11.825688 15.027732 11.988281 14.933594 C 12.150874 14.839454 12.309086 14.739876 12.464844 14.634766 C 12.620601 14.529655 12.773682 14.418265 12.921875 14.302734 C 13.070068 14.187204 13.213616 14.066804 13.353516 13.941406 C 13.493415 13.816008 13.628887 13.685494 13.759766 13.550781 C 13.890643 13.416068 14.017543 13.278241 14.138672 13.134766 C 14.2598 12.99129 14.375678 12.843093 14.486328 12.691406 C 14.596978 12.53972 14.701339 12.383954 14.800781 12.224609 C 14.900221 12.065266 14.994525 11.902779 15.082031 11.736328 C 15.169541 11.569878 15.25133 11.399565 15.326172 11.226562 C 15.401012 11.053559 15.469801 10.87627 15.53125 10.697266 C 15.56581 10.604566 15.598236 10.511776 15.628906 10.417969 C 15.659576 10.324159 15.688034 10.229554 15.714844 10.134766 C 15.741654 10.039976 15.766083 9.945253 15.789062 9.8496094 C 15.812042 9.7539655 15.832383 9.6588726 15.851562 9.5625 C 15.870742 9.4661271 15.888887 9.3684599 15.904297 9.2714844 C 15.919717 9.1745085 15.933623 9.077921 15.945312 8.9804688 C 15.968682 8.7855641 15.983558 8.5886327 15.992188 8.3925781 C 16.000787 8.1965235 16.003847 8.0008831 15.998047 7.8046875 C 15.992247 7.6084919 15.979034 7.4121244 15.958984 7.2167969 C 15.938884 7.0214214 15.910966 6.8262627 15.876953 6.6328125 C 15.84294 6.4393623 15.801619 6.2472045 15.753906 6.0566406 C 15.706193 5.8660767 15.652952 5.6769028 15.591797 5.4902344 C 15.530642 5.303566 15.463011 5.1192638 15.388672 4.9375 C 15.314333 4.7557362 15.231796 4.5781939 15.144531 4.4023438 C 15.057266 4.2264937 14.965167 4.0536929 14.865234 3.8847656 C 14.765302 3.7158384 14.659217 3.5496671 14.546875 3.3886719 C 14.490704 3.3081742 14.432272 3.2287161 14.373047 3.1503906 C 14.313822 3.0720652 14.253653 2.995949 14.191406 2.9199219 C 14.12916 2.8438948 14.065236 2.7689151 14 2.6953125 C 13.934764 2.6217099 13.867021 2.5495677 13.798828 2.4785156 C 13.730635 2.4074636 13.660961 2.3379065 13.589844 2.2695312 C 13.518726 2.2011559 13.447057 2.1339317 13.373047 2.0683594 C 13.301998 2.0027904 13.229685 1.9375769 13.15625 1.875 C 13.082815 1.8124231 13.007342 1.7509709 12.931641 1.6914062 C 12.780238 1.5722771 12.624592 1.4604732 12.464844 1.3535156 C 12.305095 1.2465581 12.141745 1.1454042 11.974609 1.0507812 C 11.807475 0.95615844 11.636454 0.86728143 11.462891 0.78515625 C 11.289326 0.70303107 11.112628 0.62805825 10.933594 0.55859375 C 10.754559 0.48912925 10.574171 0.42578144 10.390625 0.36914062 C 10.207079 0.3124998 10.021084 0.26240413 9.8339844 0.21875 C 9.6468849 0.17509587 9.4572723 0.13792631 9.2675781 0.10742188 C 9.0778839 0.076917446 8.888596 0.052347993 8.6972656 0.03515625 C 8.5059352 0.017964507 8.3131019 0.0076222963 8.1210938 0.00390625 z M 8.1425781 3.328125 C 8.2810053 3.332295 8.4195534 3.34217 8.5566406 3.359375 C 8.693728 3.37658 8.8280392 3.4000165 8.9628906 3.4296875 C 9.0977421 3.4593585 9.2315617 3.4955375 9.3632812 3.5371094 C 9.4950007 3.5786813 9.6262147 3.6267805 9.7539062 3.6796875 C 9.8815977 3.7325944 10.006139 3.7898397 10.128906 3.8535156 C 10.251674 3.9171916 10.371334 3.9866673 10.488281 4.0605469 C 10.605229 4.1344258 10.719847 4.2133577 10.830078 4.296875 C 10.940309 4.3803919 11.047772 4.4679573 11.150391 4.5605469 C 11.253009 4.6531368 11.351202 4.7504664 11.445312 4.8515625 C 11.539422 4.9526586 11.628185 5.058932 11.712891 5.1679688 C 11.797591 5.2770056 11.876767 5.3894473 11.951172 5.5058594 C 12.025582 5.6222714 12.094995 5.7420128 12.158203 5.8652344 C 12.221413 5.9884559 12.278963 6.1146754 12.330078 6.2441406 C 12.381198 6.373606 12.426718 6.5054815 12.464844 6.640625 C 12.508464 6.7741488 12.544554 6.9088732 12.574219 7.0449219 C 12.603889 7.1809705 12.626438 7.3194283 12.642578 7.4570312 C 12.658718 7.5946343 12.668825 7.732907 12.671875 7.8710938 C 12.674875 8.0092806 12.671768 8.1473562 12.662109 8.2851562 C 12.652509 8.4229562 12.637094 8.560823 12.615234 8.6972656 C 12.593374 8.8337083 12.56492 8.9674477 12.53125 9.1015625 C 12.49757 9.2356773 12.45717 9.3691837 12.412109 9.5 C 12.367049 9.6308163 12.317729 9.7601715 12.261719 9.8867188 C 12.205709 10.013265 12.142706 10.136505 12.076172 10.257812 C 12.009632 10.379119 11.937958 10.498184 11.861328 10.613281 C 11.784698 10.728379 11.703483 10.839349 11.617188 10.947266 C 11.530888 11.055182 11.441237 11.16 11.345703 11.259766 C 11.250173 11.359526 11.149264 11.454278 11.044922 11.544922 C 10.940579 11.635562 10.831472 11.722183 10.71875 11.802734 C 10.606028 11.883284 10.489814 11.957856 10.369141 12.027344 C 10.248467 12.096834 10.124289 12.161296 9.9960938 12.21875 C 9.8703755 12.28137 9.7415791 12.337534 9.6113281 12.386719 C 9.4810773 12.435909 9.348605 12.477639 9.2148438 12.513672 C 9.0810824 12.549712 8.9467961 12.580356 8.8105469 12.603516 C 8.6742976 12.626686 8.5361525 12.641754 8.3984375 12.652344 C 8.2607225 12.662924 8.1225333 12.667736 7.984375 12.666016 C 7.8462167 12.664316 7.7078918 12.656318 7.5703125 12.642578 C 7.4327332 12.628838 7.2961342 12.609454 7.1601562 12.583984 C 7.0241784 12.558504 6.8892136 12.527174 6.7558594 12.490234 C 6.6225261 12.453302 6.4910364 12.411388 6.3613281 12.363281 C 6.2316199 12.315174 6.1035556 12.262123 5.9785156 12.203125 C 5.8534758 12.144127 5.7306774 12.079372 5.6113281 12.009766 C 5.4919789 11.94016 5.3763081 11.865088 5.2636719 11.785156 C 5.1510357 11.705224 5.0424008 11.619272 4.9375 11.529297 C 4.8325992 11.439322 4.7309087 11.34583 4.6347656 11.246094 C 4.5386225 11.146357 4.4476912 11.040855 4.3613281 10.931641 C 4.2749651 10.822426 4.1927482 10.708255 4.1171875 10.589844 C 4.0534948 10.494701 3.9938288 10.398431 3.9375 10.298828 C 3.8811712 10.199226 3.8280839 10.09762 3.7792969 9.9941406 C 3.7305097 9.8906616 3.6855986 9.7845072 3.6445312 9.6777344 C 3.6034638 9.5709615 3.5663729 9.4629994 3.5332031 9.3535156 C 3.5000335 9.2440319 3.4723598 9.1330962 3.4472656 9.0214844 C 3.4221715 8.9098725 3.3996532 8.7967507 3.3828125 8.6835938 C 3.3659718 8.5704367 3.3541124 8.4578695 3.3457031 8.34375 C 3.3372939 8.2296305 3.3337842 8.114499 3.3339844 8 C 3.3311283 7.8597601 3.3345136 7.7206293 3.3457031 7.5820312 C 3.3568926 7.4434333 3.3758452 7.3060775 3.4003906 7.1699219 C 3.4249361 7.0337661 3.4549756 6.8985379 3.4921875 6.765625 C 3.5293994 6.6327121 3.5738583 6.5019164 3.6230469 6.3730469 C 3.6722354 6.2441772 3.7266336 6.1162134 3.7871094 5.9921875 C 3.8475851 5.8681616 3.9133018 5.747288 3.984375 5.6289062 C 4.0554482 5.5105246 4.1319094 5.3951402 4.2128906 5.2832031 C 4.2938718 5.1712661 4.3785505 5.0636763 4.46875 4.9589844 C 4.5589495 4.8542925 4.655178 4.7528963 4.7539062 4.65625 C 4.8526346 4.5596037 4.9539795 4.4667066 5.0605469 4.3789062 C 5.1671142 4.291106 5.2788613 4.2090131 5.3925781 4.1308594 C 5.506295 4.0527057 5.6220107 3.9798161 5.7421875 3.9121094 C 5.8623643 3.8444026 5.9873343 3.7810686 6.1132812 3.7246094 C 6.2392283 3.66815 6.3670191 3.616677 6.4980469 3.5722656 C 6.6290745 3.5278543 6.7630187 3.4905473 6.8984375 3.4589844 C 7.0338563 3.4274214 7.1714266 3.4026797 7.3105469 3.3847656 C 7.4489652 3.3611776 7.5876917 3.3453622 7.7265625 3.3359375 C 7.8654333 3.3265128 8.0041511 3.323952 8.1425781 3.328125 z M 7.9707031 5.3242188 C 6.5748251 5.3288688 5.2881223 6.5714828 5.3339844 8 C 5.3224259 9.0063669 5.9347334 9.9760222 6.84375 10.404297 C 8.2381813 11.130242 10.125878 10.305972 10.546875 8.7929688 C 11.062045 7.3053897 9.9676461 5.5542834 8.40625 5.3632812 C 8.2608793 5.336111 8.1151043 5.3237377 7.9707031 5.3242188 z "
  />
</svg>
