<svg
  viewBox="0 0 16 16"
  xmlns="http://www.w3.org/2000/svg"
>
  <path
    d="M0.888889 0C0.398222 0 0 0.398222 0 0.888889V5.33333C0 5.824 0.398222 6.22222 0.888889 6.22222C1.37956 6.22222 1.77778 5.824 1.77778 5.33333V1.77778H5.33333C5.824 1.77778 6.22222 1.37956 6.22222 0.888889C6.22222 0.398222 5.824 0 5.33333 0H0.888889ZM10.6667 0C10.176 0 9.77778 0.398222 9.77778 0.888889C9.77778 1.37956 10.176 1.77778 10.6667 1.77778H14.2222V5.33333C14.2222 5.824 14.6204 6.22222 15.1111 6.22222C15.6018 6.22222 16 5.824 16 5.33333V0.888889C16 0.398222 15.6018 0 15.1111 0H10.6667ZM8 2.66667C6.52711 2.66667 5.33333 3.86044 5.33333 5.33333C5.33333 6.80622 6.52711 8 8 8C9.47289 8 10.6667 6.80622 10.6667 5.33333C10.6667 3.86044 9.47289 2.66667 8 2.66667ZM7.11111 8.88889C5.57511 8.88889 4.02312 9.88266 3.58312 11.2782C3.40267 11.8507 3.84356 12.4444 4.44444 12.4444C5.34667 12.4444 11.1058 12.4444 11.5556 12.4444C12.1644 12.4444 12.5849 11.8542 12.3893 11.2782C11.9262 9.91555 10.3893 8.88889 8.88889 8.88889H7.11111ZM0.888889 9.77778C0.398222 9.77778 0 10.176 0 10.6667V15.1111C0 15.6018 0.398222 16 0.888889 16H5.33333C5.824 16 6.22222 15.6018 6.22222 15.1111C6.22222 14.6204 5.824 14.2222 5.33333 14.2222H1.77778V10.6667C1.77778 10.176 1.37956 9.77778 0.888889 9.77778ZM15.1111 9.77778C14.6204 9.77778 14.2222 10.176 14.2222 10.6667V14.2222H10.6667C10.176 14.2222 9.77778 14.6204 9.77778 15.1111C9.77778 15.6018 10.176 16 10.6667 16H15.1111C15.6018 16 16 15.6018 16 15.1111V10.6667C16 10.176 15.6018 9.77778 15.1111 9.77778Z"
  />
</svg>
