<svg
  viewBox="0 0 16 16"
  xmlns="http://www.w3.org/2000/svg"
>
  <path
    d="M 4.8,-2.5648855e-6 C 3.0328,-2.5648855e-6 1.6,1.4327974 1.6,3.1999974 v 9.5999996 c 0,1.7088 1.3568,3.2032 3.2,3.2 h 6.4 c 1.772,-0.008 3.2,-1.432 3.2,-3.2 V 3.1999974 C 14.4,1.4327974 12.9672,-2.5648855e-6 11.2,-2.5648855e-6 Z M 4.8,1.5999974 h 6.4 c 0.884,0 1.6,0.716 1.6,1.6 v 9.5999996 c 0,0.5192 -0.2352,0.8888 -0.4824,1.1456 -0.6656,-1.2216 -1.8272,-1.9456 -3.168,-1.9456 -0.2872,0 -2.012,0 -2.3,0 -1.34,0 -2.55759,0.7984 -3.17119,1.9376 C 3.43441,13.711997 3.2,13.319197 3.2,12.799997 V 3.1999974 c 0,-0.884 0.716,-1.6 1.6,-1.6 z m 1.6,1.6 c -0.4416,0 -0.8,0.3584 -0.8,0.8 0,0.4416 0.3584,0.8 0.8,0.8 h 3.2 c 0.4416,0 0.8,-0.3584 0.8,-0.8 0,-0.4416 -0.3584,-0.8 -0.8,-0.8 z m 1.6,3.2 c -1.3256,0 -2.4,1.0744 -2.4,2.4 0,1.3255996 1.0744,2.3999996 2.4,2.3999996 1.3256,0 2.4,-1.0744 2.4,-2.3999996 0,-1.3256 -1.0744,-2.4 -2.4,-2.4 z"
  />
</svg>
