<svg
  viewBox="0 0 16 16"
  xmlns="http://www.w3.org/2000/svg"
>
  <path
    d="M5.2 0C3.4328 0 2 1.4328 2 3.2V12.8C2 14.5088 3.3568 16.0032 5.2 16H11.6C13.372 15.992 14.8 14.568 14.8 12.8V3.2C14.8 1.4328 13.3672 0 11.6 0H5.2ZM5.2 1.6H11.6C12.484 1.6 13.2 2.316 13.2 3.2V12.8C13.2 13.3192 12.9648 13.6888 12.7176 13.9456C12.052 12.724 10.8904 12 9.5496 12C9.2624 12 7.5376 12 7.2496 12C5.9096 12 4.69201 12.7984 4.07841 13.9376C3.83441 13.712 3.6 13.3192 3.6 12.8V3.2C3.6 2.316 4.316 1.6 5.2 1.6ZM6.8 3.2C6.3584 3.2 6 3.5584 6 4C6 4.4416 6.3584 4.8 6.8 4.8H10C10.4416 4.8 10.8 4.4416 10.8 4C10.8 3.5584 10.4416 3.2 10 3.2H6.8ZM8.4 6.4C7.0744 6.4 6 7.4744 6 8.8C6 10.1256 7.0744 11.2 8.4 11.2C9.7256 11.2 10.8 10.1256 10.8 8.8C10.8 7.4744 9.7256 6.4 8.4 6.4Z"
  />
</svg>
