<svg
  viewBox="0 0 21 19"
  xmlns="http://www.w3.org/2000/svg"
>
  <path
    d="M6.51413 0.929749C4.02883 0.929749 2.01413 2.94445 2.01413 5.42975C2.01413 7.91505 4.02883 9.92975 6.51413 9.92975C8.99913 9.92975 11.0141 7.91505 11.0141 5.42975C11.0141 2.94445 8.99913 0.929749 6.51413 0.929749ZM6.51413 2.92975C7.89483 2.92975 9.01413 4.04905 9.01413 5.42975C9.01413 6.81045 7.89483 7.92965 6.51413 7.92975C5.13343 7.92975 4.01413 6.81045 4.01413 5.42975C4.01413 4.04905 5.13343 2.92985 6.51413 2.92975ZM14.0141 4.92975C13.4621 4.92975 13.0141 5.37745 13.0141 5.92975C13.0141 6.48205 13.4621 6.92975 14.0141 6.92975H19.0141C19.5661 6.92975 20.0141 6.48205 20.0141 5.92975C20.0141 5.37745 19.5661 4.92975 19.0141 4.92975H14.0141ZM13.0141 8.92975C12.4621 8.92975 12.0141 9.37745 12.0141 9.92975C12.0141 10.4821 12.4621 10.9298 13.0141 10.9298H19.0141C19.5661 10.9298 20.0141 10.4821 20.0141 9.92975C20.0141 9.37745 19.5661 8.92975 19.0141 8.92975H13.0141ZM3.07663 11.2736C1.24253 12.0304 0.0141296 13.8859 0.0141296 15.9298V17.9298C0.0141296 18.4821 0.46183 18.9298 1.01413 18.9298H12.0141C12.5661 18.9298 13.0141 18.4821 13.0141 17.9298V15.9298C13.0141 13.934 11.7791 12.1235 9.95213 11.336C9.69413 11.2252 9.39513 11.2218 9.13913 11.336C8.25413 11.7326 7.39233 11.9296 6.51413 11.9298C5.63893 11.9298 4.77393 11.7218 3.85793 11.3048C3.60603 11.1902 3.33243 11.1683 3.07663 11.2736ZM16.0141 12.9298C15.4621 12.9298 15.0141 13.3775 15.0141 13.9298C15.0141 14.4821 15.4621 14.9298 16.0141 14.9298H19.0141C19.5661 14.9298 20.0141 14.4821 20.0141 13.9298C20.0141 13.3775 19.5661 12.9298 19.0141 12.9298H16.0141ZM3.45163 13.3048C4.39643 13.6633 5.54503 13.93 6.51413 13.9298C7.47563 13.9298 8.55713 13.7094 9.48313 13.3673C10.3851 13.8821 11.0141 14.8292 11.0141 15.9298V16.9298H2.01413V15.9298C2.01413 14.7651 2.66063 13.7683 3.45163 13.3048Z"
  />
</svg>
