<svg
  viewBox="0 0 17 21"
  xmlns="http://www.w3.org/2000/svg"
>
  <path
    d="M8.9978 0.953173C6.2364 0.953173 3.9978 3.19177 3.9978 5.95317C3.9978 8.71457 6.2364 10.9532 8.9978 10.9532C11.7592 10.9532 13.9978 8.71457 13.9978 5.95317C13.9978 3.19177 11.7592 0.953173 8.9978 0.953173ZM8.9978 2.95317C10.6547 2.95317 11.9978 4.29627 11.9978 5.95317C11.9978 7.61007 10.6547 8.95317 8.9978 8.95317C7.3409 8.95317 5.9978 7.61007 5.9978 5.95317C5.9978 4.29627 7.3409 2.95317 8.9978 2.95317ZM5.4666 12.2657C2.8523 12.9802 0.997803 15.2534 0.997803 17.9532V19.9532C0.997803 20.5055 1.4455 20.9532 1.9978 20.9532H15.9978C16.5501 20.9532 16.9978 20.5055 16.9978 19.9532V17.9532C16.9978 15.2534 15.1433 12.9802 12.529 12.2657C12.3049 12.2044 12.0847 12.2327 11.8728 12.3282C10.9573 12.7408 9.9827 12.9532 8.9978 12.9532C8.0129 12.9532 7.0383 12.7408 6.1228 12.3282C5.9109 12.2327 5.6907 12.2044 5.4666 12.2657ZM5.8728 14.2657C6.8826 14.6476 7.9175 14.9532 8.9978 14.9532C10.0781 14.9532 11.113 14.6476 12.1228 14.2657C13.8262 14.7817 14.9978 16.2196 14.9978 17.9532V18.9532H2.9978V17.9532C2.9978 16.2196 4.1694 14.7817 5.8728 14.2657Z"
  />
</svg>
