<svg
  viewBox="0 0 16 16"
  xmlns="http://www.w3.org/2000/svg"
>
  <path
    d="m 7.9999986,2.5e-7 c -2.209117,0 -3.9999946,1.79087515 -3.9999946,3.99999225 0,2.209117 1.7908776,4.0000183 3.9999946,4.0000183 2.2091164,0 3.9999944,-1.7909014 3.9999944,-4.0000184 C 11.999993,1.7908754 10.209115,2.5e-7 7.9999986,2.5e-7 Z m 0,1.59999545 c 1.3255188,0 2.3999964,1.0744786 2.3999964,2.3999968 0,1.3255181 -1.0744776,2.3999968 -2.3999963,2.3999968 -1.3255182,0 -2.3999968,-1.0744787 -2.3999968,-2.3999968 0,-1.3255182 1.0744786,-2.3999968 2.3999967,-2.3999968 z M 5.1750424,9.0500098 C 3.0836053,9.6216088 1.6000097,11.440167 1.6000097,13.600004 v 1.599998 C 1.6000097,15.641841 1.9581669,16 2.4000063,16 H 13.599991 c 0.441839,0 0.799999,-0.358159 0.799999,-0.799998 v -1.599998 c 0,-2.159837 -1.483598,-3.9783952 -3.575036,-4.5499942 -0.179279,-0.04904 -0.355439,-0.0264 -0.524959,0.05 -0.7323987,0.330079 -1.5120774,0.499999 -2.2999964,0.499999 -0.7879188,0 -1.5675979,-0.16992 -2.2999969,-0.499999 -0.1695197,-0.0764 -0.3456795,-0.09904 -0.5249593,-0.05 z M 5.500002,10.650008 c 0.8078389,0.305519 1.6357578,0.549999 2.4999966,0.549999 0.8642389,0 1.6921578,-0.24448 2.4999964,-0.549999 1.362718,0.412799 2.299997,1.563118 2.299997,2.949996 v 0.799999 H 3.2000052 v -0.799999 c 0,-1.386878 0.9372787,-2.537197 2.2999968,-2.949996 z"
  />
</svg>
