<svg
  viewBox="0 0 16 16"
  xmlns="http://www.w3.org/2000/svg"
>
  <path
    d="m 5.2000079,0.7999687 c -1.9882429,0 -3.6000053,1.6117632 -3.6000053,3.6000062 0,1.9882429 1.6117624,3.6000053 3.6000053,3.6000053 1.988003,0 3.5999812,-1.6117624 3.5999812,-3.6000053 0,-1.988243 -1.6119782,-3.6000062 -3.5999812,-3.6000062 z m 0,1.6000032 c 1.1045617,0 2.000003,0.8954413 2.000003,2.000003 0,1.1045616 -0.8954413,1.9999229 -2.000003,2.0000029 -1.1045616,0 -2.0000029,-0.8954413 -2.0000029,-2.0000029 0,-1.1045617 0.8954413,-1.999923 2.0000029,-2.000003 z m 5.9999851,1.6000024 c -0.441601,0 -0.800001,0.3581605 -0.800001,0.8000012 0,0.4418406 0.3584,0.8000011 0.800001,0.8000011 h 4.000006 C 15.641599,5.5999766 16,5.2418161 16,4.7999755 16,4.3581348 15.641599,3.9999743 15.199999,3.9999743 Z M 10.399992,7.199979 c -0.4416009,0 -0.8000019,0.3581605 -0.8000019,0.8000012 0,0.4418811 0.358401,0.8000411 0.8000019,0.8000411 h 4.800007 C 15.641599,8.8000213 16,8.4418613 16,7.9999802 16,7.5581395 15.641599,7.199979 15.199999,7.199979 Z M 2.4500038,9.0750613 C 0.9827217,9.6805023 -9.9999999e-8,11.164905 -9.9999999e-8,12.800027 v 1.600002 C -9.9999999e-8,14.84187 0.3581608,15.200031 0.8000014,15.200031 h 8.7999887 c 0.4416009,0 0.8000019,-0.358161 0.8000019,-0.800002 v -1.600002 c 0,-1.596642 -0.9880019,-3.0450447 -2.44958,-3.6750447 -0.2064003,-0.08864 -0.4456007,-0.09136 -0.650401,0 -0.708001,0.31728 -1.397442,0.47488 -2.1000031,0.47504 -0.700161,0 -1.392162,-0.1664 -2.1249631,-0.5 -0.2015203,-0.09168 -0.4204007,-0.109201 -0.625041,-0.024961 z M 12.799995,10.400023 c -0.441601,0 -0.800001,0.358161 -0.800001,0.800002 0,0.44184 0.3584,0.800001 0.800001,0.800001 h 2.400004 C 15.641599,12.000026 16,11.641865 16,11.200025 16,10.758184 15.641599,10.400023 15.199999,10.400023 Z M 2.7500043,10.700024 c 0.7558411,0.2868 1.6747225,0.500161 2.4500036,0.500001 0.7692012,0 1.6344024,-0.176321 2.3752035,-0.450001 0.7215767,0.411841 1.2247777,1.169522 1.2247777,2.050003 v 0.800001 H 1.6000026 v -0.800001 c 0,-0.931761 0.5172008,-1.729203 1.1500017,-2.100003 z"
  />
</svg>
