<svg
  viewBox="0 0 16 16"
  xmlns="http://www.w3.org/2000/svg"
>
  <path
    d="m 8.0000033,-7.9456621e-6 c -4.41156,0 -7.97243568,3.5760500456621 -7.9876121,7.9876100456621 -0.01517648,4.4051899 3.5800521,8.0035899 7.9876121,8.0123899 4.4075397,0.0088 7.9956397,-3.6384 7.9876397,-8.0123899 -0.008,-4.41156 -3.5761,-7.9876100456621 -7.9876397,-7.9876100456621 z m 0,1.5975200456621 c 3.5289397,0 6.3900397,2.86116 6.3900397,6.39009 0,1.79721 -0.7484,3.4170899 -1.9425,4.5784899 -0.5887,-1.2724 -1.8516,-2.1822 -3.2997097,-2.1822 -0.28676,0 -2.00889,0 -2.29644,0 -1.44576,0 -2.7062,0.8986 -3.29489,2.1718 -1.19335,-1.1614 -1.94659,-2.7708799 -1.94659,-4.5680899 0,-3.52893 2.86116,-6.39009 6.39009,-6.39009 z m 0,1.59752 c -1.76446,0 -3.19505,1.43058 -3.19505,3.19505 0,1.76446 1.43059,3.19504 3.19505,3.19504 1.76446,0 3.1950397,-1.43058 3.1950397,-3.19504 0,-1.76447 -1.4305797,-3.19505 -3.1950397,-3.19505 z m 0,1.59753 c 0.88263,0 1.59752,0.71489 1.59752,1.59752 0,0.88263 -0.71489,1.59752 -1.59752,1.59752 -0.88263,0 -1.59752,-0.71489 -1.59752,-1.59752 0,-0.88263 0.71489,-1.59752 1.59752,-1.59752 z m -1.14861,7.1888299 c 0.28755,0 2.00968,0 2.29644,0 0.8914097,0 1.6981097,0.6502 1.9809097,1.5664 -1.1406297,0.6733 -2.4146497,0.8299 -3.1287397,0.8299 -0.73326,0 -1.94978,-0.1645 -3.11916,-0.8091 0.28036,-0.9242 1.08712,-1.5872 1.97055,-1.5872 z"
  />
</svg>
