<svg
  viewBox="0 0 16 16"
  xmlns="http://www.w3.org/2000/svg"
>
  <path
    d="M3.55556 0C1.592 0 0 1.59191 0 3.55556V12.4444C0 14.4081 1.592 16 3.55556 16H12.4445C14.408 16 16 14.4081 16 12.4444V3.55556C16 1.59191 14.408 0 12.4445 0H3.55556ZM3.55556 1.77778H12.4445C13.4267 1.77778 14.2222 2.57369 14.2222 3.55556V12.4444C14.2222 13.0977 13.8533 13.6732 13.3289 13.9821C13.1582 11.8829 10.9031 10.6667 8.00001 10.6667C5.09689 10.6667 2.79734 11.9156 2.65778 13.9881C2.13245 13.6791 1.77778 13.0977 1.77778 12.4444V3.55556C1.77778 2.57369 2.57334 1.77778 3.55556 1.77778ZM8.00001 3.55556C6.28178 3.55556 4.88889 4.94844 4.88889 6.66667C4.88889 8.38489 6.28178 9.77778 8.00001 9.77778C9.71823 9.77778 11.1111 8.38489 11.1111 6.66667C11.1111 4.94844 9.71823 3.55556 8.00001 3.55556ZM8.00001 5.33333C8.73601 5.33333 9.33334 5.93031 9.33334 6.66667C9.33334 7.40302 8.73601 8 8.00001 8C7.26401 8 6.66667 7.40302 6.66667 6.66667C6.66667 5.93031 7.26401 5.33333 8.00001 5.33333ZM8.00001 12.4444C10.1671 12.4444 11.5556 13.2532 11.5556 14.0834V14.2222H4.44445V14.0834C4.44445 13.2532 5.83289 12.4444 8.00001 12.4444Z"
  />
</svg>
