<svg
  viewBox="0 0 16 16"
  xmlns="http://www.w3.org/2000/svg"
>
  <path
    d="M 6,0.8 C 4.4536,0.8 3.2,2.0536 3.2,3.6 v 8.8 c 0,1.5464 1.2536,2.8 2.8,2.8 h 4 c 1.5464,0 2.8,-1.2536 2.8,-2.8 V 3.6 C 12.8,2.0536 11.5464,0.8 10,0.8 Z m 0,1.6 h 4 c 0.6624,0 1.2,0.53728 1.2,1.2 v 8.8 c 0,0.662733 -0.5376,1.2 -1.2,1.2 H 6 C 5.3376,13.6 4.8,13.062733 4.8,12.4 V 3.6 C 4.8,2.93728 5.3376,2.4 6,2.4 Z M 1.4751933,4.85 C 1.0583933,4.70352 0.5967973,4.9332 0.4495973,5.35 0.1527973,6.1952 0,7.08656 0,8 c 0,0.920733 0.1487973,1.823933 0.4495973,2.675067 0.148,0.4164 0.608796,0.622466 1.025596,0.474933 0.416,-0.147533 0.6472,-0.583533 0.5,-1 C 1.7343933,9.469933 1.6,8.738067 1.6,8 1.6,7.26776 1.7128,6.5504 1.9504,5.87504 2.0968,5.45816 1.8919933,4.99648 1.4751933,4.85 Z M 14.5504,4.9 C 14.1328,5.04448 13.9056,5.48248 14.0496,5.9 14.2808,6.56704 14.4,7.27808 14.4,8 c 0,0.741867 -0.132,1.466867 -0.3752,2.15 -0.148,0.416267 0.084,0.876733 0.5,1.025067 0.4168,0.1482 0.8768,-0.08387 1.0256,-0.5 C 15.8544,9.820067 16,8.925467 16,8 16,7.09944 15.8384,6.20976 15.5504,5.37504 15.4056,4.95744 14.9672,4.75552 14.5504,4.9 Z M 8,11.2 c -0.4416,0 -0.8,0.358133 -0.8,0.8 0,0.441867 0.3584,0.8 0.8,0.8 0.4416,0 0.8,-0.358133 0.8,-0.8 0,-0.441867 -0.3584,-0.8 -0.8,-0.8 z"
  />
</svg>
