<svg
  viewBox="0 0 16 16"
  xmlns="http://www.w3.org/2000/svg"
>
  <path
    d="M3.2 2C1.4328 2 0 3.4328 0 5.2V10C0 11.7672 1.4328 13.2 3.2 13.2H8.8C10.5672 13.2 12 11.7672 12 10V9.55039L14.6248 12.1752C15.1288 12.6792 16 12.3128 16 11.6V3.6C16 3.244 15.7784 2.96561 15.5 2.84961C15.2216 2.73441 14.8768 2.7728 14.6248 3.0248C14.2968 3.3528 13.068 4.58161 12 5.64961V5.2C12 3.4328 10.5672 2 8.8 2H3.2ZM3.2 3.6H8.8C9.684 3.6 10.4 4.316 10.4 5.2V7.6V10C10.4 10.884 9.684 11.6 8.8 11.6H3.2C2.316 11.6 1.6 10.884 1.6 10V5.2C1.6 4.316 2.316 3.6 3.2 3.6ZM14.4 5.55039V9.64961L12.3504 7.6C12.9216 7.028 13.5656 6.38399 14.4 5.55039Z"
  />
</svg>
