<svg
  viewBox="0 0 16 16"
  xmlns="http://www.w3.org/2000/svg"
>
  <path
    d="M 3.2,2.4 C 1.4328,2.4 0,3.8328 0,5.6 v 4.8 c 0,1.7672 1.4328,3.2 3.2,3.2 h 5.6 c 1.7672,0 3.2,-1.4328 3.2,-3.2 V 9.95039 l 2.6248,2.62481 C 15.1288,13.0792 16,12.7128 16,12 V 4 C 16,3.644 15.7784,3.36561 15.5,3.24961 15.2216,3.13441 14.8768,3.1728 14.6248,3.4248 14.2968,3.7528 13.068,4.98161 12,6.04961 V 5.6 C 12,3.8328 10.5672,2.4 8.8,2.4 Z m 0,1.6 h 5.6 c 0.884,0 1.6,0.716 1.6,1.6 V 8 10.4 C 10.4,11.284 9.684,12 8.8,12 H 3.2 C 2.316,12 1.6,11.284 1.6,10.4 V 5.6 C 1.6,4.716 2.316,4 3.2,4 Z m 11.2,1.95039 v 4.09922 L 12.3504,8 C 12.9216,7.428 13.5656,6.78399 14.4,5.95039 Z"
  />
</svg>
