<svg
  viewBox="0 0 24 22"
  xmlns="http://www.w3.org/2000/svg"
>
  <path
    d="M9 0C6.6804 0 4.8 1.8804 4.8 4.2V17.4C4.8 19.7196 6.6804 21.6 9 21.6H15C17.3196 21.6 19.2 19.7196 19.2 17.4V4.2C19.2 1.8804 17.3196 0 15 0H9ZM9 2.4H15C15.9936 2.4 16.8 3.20592 16.8 4.2V17.4C16.8 18.3941 15.9936 19.2 15 19.2H9C8.0064 19.2 7.2 18.3941 7.2 17.4V4.2C7.2 3.20592 8.0064 2.4 9 2.4ZM2.21279 6.075C1.58759 5.85528 0.895196 6.1998 0.674396 6.825C0.229196 8.0928 0 9.42984 0 10.8C0 12.1811 0.223196 13.5359 0.674396 14.8126C0.896396 15.4372 1.58759 15.7463 2.21279 15.525C2.83679 15.3037 3.18359 14.6497 2.96279 14.025C2.60159 13.0049 2.4 11.9071 2.4 10.8C2.4 9.70164 2.5692 8.6256 2.9256 7.61256C3.1452 6.98724 2.83799 6.29472 2.21279 6.075ZM21.8256 6.15C21.1992 6.36672 20.8584 7.02372 21.0744 7.65C21.4212 8.65056 21.6 9.71712 21.6 10.8C21.6 11.9128 21.402 13.0003 21.0372 14.025C20.8152 14.6494 21.1632 15.3401 21.7872 15.5626C22.4124 15.7849 23.1024 15.4368 23.3256 14.8126C23.7816 13.5301 24 12.1882 24 10.8C24 9.44916 23.7576 8.11464 23.3256 6.86256C23.1084 6.23616 22.4508 5.93328 21.8256 6.15ZM12 15.6C11.3376 15.6 10.8 16.1372 10.8 16.8C10.8 17.4628 11.3376 18 12 18C12.6624 18 13.2 17.4628 13.2 16.8C13.2 16.1372 12.6624 15.6 12 15.6Z"
  />
</svg>
