<svg
  viewBox="0 0 16 16"
  xmlns="http://www.w3.org/2000/svg"
>
  <path
    d="M 8.00002,0.40006209 C 6.67155,0.40086208 5.67172,1.0944576 4.87508,2.5000486 l -3.97501398,7.27515 C 0.28487002,10.848039 -0.00560827,11.602439 7.1692053e-5,12.399939 0.01287162,14.185539 1.44838,15.593539 3.20005,15.599939 h 9.59994 c 1.7538,0 3.1933,-1.3872 3.2,-3.2 0.0029,-0.7951 -0.3101,-1.5975 -0.925,-2.6247404 l -3.925,-7.22476 C 10.41339,1.1432476 9.34665,0.39926209 8.00002,0.40006209 Z m 0,1.59998651 c 0.70576,0 1.24175,0.3768 1.72495,1.3 l 3.97502,7.2751904 c 0.4942,0.8264 0.7016,1.3896 0.7,1.8247 -0.0034,0.9176 -0.7144,1.6 -1.6,1.6 H 3.20005 c -0.87807,-0.0032 -1.59351,-0.6976 -1.59999,-1.6 -0.0032,-0.4447 0.2064,-0.9888 0.7,-1.8495 L 6.25003,3.3000486 c 0.53304,-0.9408 1.0528,-1.3 1.74999,-1.3 z m 0,3.19998 c -0.44184,0 -0.79999,0.3584 -0.79999,0.8 v 3.19998 c 0,0.4416 0.35815,0.79999 0.79999,0.79999 0.44184,0 0.8,-0.35839 0.8,-0.79999 v -3.19998 c 0,-0.4416 -0.35816,-0.8 -0.8,-0.8 z m 0,5.6000104 c -0.44184,0 -0.79999,0.3584 -0.79999,0.8 0,0.4416 0.35815,0.7999 0.79999,0.7999 0.44184,0 0.8,-0.3583 0.8,-0.7999 0,-0.4416 -0.35816,-0.8 -0.8,-0.8 z"
  />
</svg>
