<svg
  viewBox="0 0 16 16"
  xmlns="http://www.w3.org/2000/svg"
>
  <path
    d="M8.00003 2.35327e-05C6.67156 0.000823528 5.67173 0.694419 4.87509 2.10001L0.900076 9.37516C0.28488 10.448 -0.00559829 11.2024 8.16761e-05 11.9999C0.0128816 13.7855 1.44839 15.1935 3.20006 15.1999H12.8C14.5538 15.1999 15.9933 13.8127 16 11.9999C16.0029 11.2048 15.6899 10.4024 15.075 9.37516L11.15 2.1504C10.4134 0.743209 9.34666 -0.000776462 8.00003 2.35327e-05ZM8.00003 1.60001C8.70579 1.60001 9.24178 1.97681 9.72498 2.90001L13.7 10.1752C14.1942 11.0016 14.4016 11.5648 14.4 11.9999C14.3966 12.9175 13.6856 13.5999 12.8 13.5999H3.20006C2.32199 13.5967 1.60655 12.9023 1.60007 11.9999C1.59687 11.5552 1.80647 11.0111 2.30007 10.1504L6.25004 2.90001C6.78308 1.95921 7.30284 1.60001 8.00003 1.60001ZM8.00003 4.79999C7.55819 4.79999 7.20004 5.15839 7.20004 5.59999V8.79997C7.20004 9.24157 7.55819 9.59996 8.00003 9.59996C8.44187 9.59996 8.80003 9.24157 8.80003 8.79997V5.59999C8.80003 5.15839 8.44187 4.79999 8.00003 4.79999ZM8.00003 10.4C7.55819 10.4 7.20004 10.7584 7.20004 11.2C7.20004 11.6416 7.55819 11.9999 8.00003 11.9999C8.44187 11.9999 8.80003 11.6416 8.80003 11.2C8.80003 10.7584 8.44187 10.4 8.00003 10.4Z"
  />
</svg>
