<svg
  viewBox="0 0 16 16"
  xmlns="http://www.w3.org/2000/svg"
>
  <path
    d=" M 8 0 C 3.582 0 0 3.582 0 8 C 0 12.418 3.582 16 8 16 C 12.418 16 16 12.418 16 8 C 16 3.582 12.418 0 8 0 Z  M 8 1.6 C 11.534 1.6 14.4 4.466 14.4 8 C 14.4 11.534 11.534 14.4 8 14.4 C 4.466 14.4 1.6 11.534 1.6 8 C 1.6 4.466 4.466 1.6 8 1.6 Z  M 5.292 5.28 C 5.488 5.086 5.757 5 6.012 5 C 6.268 5 6.506 5.086 6.701 5.28 L 7.984 6.559 L 9.268 5.28 C 9.462 5.086 9.732 5 9.988 5 C 10.243 5 10.512 5.086 10.708 5.28 C 11.097 5.67 11.097 6.326 10.708 6.716 L 9.424 7.994 L 10.708 9.273 C 11.097 9.662 11.097 10.319 10.708 10.708 C 10.318 11.097 9.657 11.097 9.268 10.708 L 7.984 9.429 L 6.701 10.708 C 6.311 11.097 5.682 11.097 5.292 10.708 C 4.903 10.319 4.903 9.662 5.292 9.273 L 6.544 7.994 L 5.292 6.716 C 4.903 6.326 4.903 5.67 5.292 5.28 Z "
  />
</svg>
