<?xml version="1.0" standalone="no"?>
<!DOCTYPE svg PUBLIC "-//W3C//DTD SVG 1.1//EN" "http://www.w3.org/Graphics/SVG/1.1/DTD/svg11.dtd" >
<svg xmlns="http://www.w3.org/2000/svg">
<metadata>Generated by IcoMoon</metadata>
<defs>
<font id="icomoon" horiz-adv-x="1024">
<font-face units-per-em="1024" ascent="960" descent="-64" />
<missing-glyph horiz-adv-x="1024" />
<glyph unicode="&#x20;" horiz-adv-x="512" d="" />
<glyph unicode="&#xe900;" glyph-name="fm-arrow-down" d="M490.667 960c-47.104 0-85.334-38.229-85.334-85.333v-512h-341.333l426.667-426.667 426.664 426.667h-341.331v512c0 47.104-38.229 85.333-85.333 85.333z" />
<glyph unicode="&#xe901;" glyph-name="fm-arrow-down-rectangle" d="M332.8 960c-113.106 0-204.8-91.699-204.8-204.8v-614.4c0-113.101 91.694-204.8 204.8-204.8h409.6c113.101 0 204.8 91.699 204.8 204.8v614.4c0 113.101-91.699 204.8-204.8 204.8h-409.6zM332.8 857.6h409.6c56.576 0 102.4-45.824 102.4-102.4v-614.4c0-56.576-45.824-102.4-102.4-102.4h-409.6c-56.556 0-102.4 45.824-102.4 102.4v614.4c0 56.576 45.844 102.4 102.4 102.4zM537.599 704c-28.262 0-51.2-22.938-51.2-51.2v-256h-153.599l204.799-204.8 204.801 204.8h-153.601v256c0 28.262-22.938 51.2-51.2 51.2z" />
<glyph unicode="&#xe902;" glyph-name="fm-arrow-left" horiz-adv-x="1092" d="M1092.267 468.389c0 50.244-40.687 90.931-90.931 90.931-43.506 0-552.049 0-687.671 0l269.969 272.794-127.887 127.886-429.077-426.257c-17.84-17.749-26.669-41.598-26.669-65.446 0-23.757 8.92-47.513 26.669-65.262l429.077-426.259 127.887 127.891-269.969 272.79c135.623 0 644.165 0 687.671 0 50.244 0 90.931 40.688 90.931 90.933z" />
<glyph unicode="&#xe903;" glyph-name="fm-arrow-left-outlined" d="M430.55 132.654c16.994 7.828 30.404 24.515 30.404 46.372v102.374c116.859 0 447.877 0 511.857 0 28.257 0 51.19 22.927 51.19 51.185v307.116c0 28.306-22.932 51.186-51.19 51.186h-511.857v102.372c0 43.764-51.596 66.849-84.764 38.389l-358.301-307.116c-23.853-20.423-23.853-56.356 0-76.778l358.301-307.118c16.584-14.228 37.417-15.764 54.36-7.982zM358.582 289.434l-228.75 196.709 228.75 196.759v-43.201c0-28.255 22.931-51.186 51.186-51.186h511.858v-204.745c-116.859 0-447.876 0-511.858 0-28.255 0-51.186-22.881-51.186-51.185v-43.151z" />
<glyph unicode="&#xe904;" glyph-name="fm-arrow-right" horiz-adv-x="1092" d="M0.004 468.389c0 50.244 40.714 90.931 90.931 90.931 43.491 0 552.050 0 687.673 0l-269.973 272.794 127.887 127.886 429.079-426.258c17.838-17.749 26.672-41.596 26.672-65.445 0-23.757-8.922-47.514-26.672-65.264l-429.079-426.258-127.887 127.891 269.973 272.792c-135.623 0-644.183 0-687.673 0-50.217 0-90.931 40.686-90.931 90.931z" />
<glyph unicode="&#xe905;" glyph-name="fm-arrow-right-arrow-left" d="M1024 230.4l-256 256v-204.8h-665.6c-28.262 0-51.2-22.938-51.2-51.2s22.938-51.2 51.2-51.2h665.6v-204.8l256 256zM972.8 640c0 28.262-22.938 51.2-51.2 51.2h-665.6v204.8l-256-256 256-256v204.8h665.6c28.262 0 51.2 22.938 51.2 51.2z" />
<glyph unicode="&#xe906;" glyph-name="fm-arrow-rotate" horiz-adv-x="1229" d="M614.4 960c-114.725 0-224.311-38.484-312.45-108.247-24.185-19.102-27.872-54.346-8.714-78.531s54.347-27.872 78.532-8.714c68.533 54.235 153.318 83.782 242.632 83.782 215.936 0 390.984-175.048 390.984-390.982h-111.713l167.567-223.417 167.562 223.417h-111.708c0 277.653-225.039 502.691-502.692 502.691zM167.564 680.727l-167.564-223.418h111.709c0-277.654 225.038-502.693 502.691-502.693 114.78 0 224.312 38.431 312.448 108.247 24.187 19.103 27.873 54.349 8.714 78.531-19.159 24.187-54.344 27.873-78.531 8.714-68.588-54.287-153.262-83.779-242.632-83.779-215.933 0-390.982 175.048-390.982 390.98h111.709l-167.563 223.418z" />
<glyph unicode="&#xe907;" glyph-name="fm-arrow-rotate-left" horiz-adv-x="960" d="M460.193 960v-146.286c242.38 0 438.86-196.481 438.86-438.857 0-242.396-196.48-438.857-438.86-438.857-242.376 0-438.857 196.461-438.857 438.857 0 78.409 20.855 154.585 59.426 220.95 13.536 23.284 43.769 30.296 67.048 16.765 23.284-13.532 30.301-43.764 16.764-67.048-29.979-51.576-45.714-109.617-45.714-170.667 0-188.515 152.82-341.334 341.333-341.334 188.517 0 341.336 152.819 341.336 341.334 0 188.513-152.819 341.333-341.336 341.333v-146.285l-195.048 195.048 195.048 195.048z" />
<glyph unicode="&#xe908;" glyph-name="fm-arrow-rotate-right" horiz-adv-x="960" d="M460.194 960v-146.286c-242.376 0-438.858-196.481-438.858-438.857 0-242.396 196.482-438.857 438.858-438.857 242.379 0 438.859 196.461 438.859 438.857 0 78.409-20.858 154.585-59.43 220.95-13.536 23.284-43.763 30.296-67.053 16.765-23.277-13.532-30.291-43.764-16.755-67.048 29.978-51.576 45.715-109.617 45.715-170.667 0-188.515-152.819-341.334-341.336-341.334-188.514 0-341.334 152.819-341.334 341.334 0 188.513 152.82 341.333 341.334 341.333v-146.285l195.044 195.048-195.044 195.048z" />
<glyph unicode="&#xe909;" glyph-name="fm-arrow-up" d="M490.669-64c47.104 0 85.333 38.227 85.333 85.331v512.002h341.335l-426.668 426.667-426.667-426.666 341.333-0.001v-512.002c0-47.104 38.23-85.331 85.334-85.331z" />
<glyph unicode="&#xe90a;" glyph-name="fm-arrow-up-rectangle" d="M332.8-64c-113.101 0-204.8 91.699-204.8 204.8v614.4c0 113.101 91.699 204.8 204.8 204.8h409.6c113.101 0 204.8-91.699 204.8-204.8v-614.4c0-113.101-91.699-204.8-204.8-204.8h-409.6zM332.8 38.4h409.6c56.576 0 102.4 45.824 102.4 102.4v614.4c0 56.576-45.824 102.4-102.4 102.4h-409.6c-56.576 0-102.4-45.824-102.4-102.4v-614.4c0-56.576 45.824-102.4 102.4-102.4zM537.599 192c-28.262 0-51.2 22.938-51.2 51.2v256h-153.599l204.799 204.8 204.801-204.8h-153.601v-256c0-28.262-22.938-51.2-51.2-51.2z" />
<glyph unicode="&#xe90b;" glyph-name="fm-backspace" horiz-adv-x="1280" d="M513.584 959.985c-53.183 0.576-100.543-15.040-142.015-41.984-24.448-15.872-43.457-33.472-53.953-46.016-6.656-7.232-254.27-280.191-264.062-292.031-76.864-92.928-65.728-184.705 0-269.95 16.576-21.44 61.055-68.422 126.015-137.99 2.304-2.432 127.808-135.424 136-144 6.976-9.28 26.367-28.544 52.031-46.010 42.304-28.928 90.496-45.568 145.984-46.016h510.013c141.184 0 256 114.624 256 256 0 64 0 447.997 0 511.997 0 141.376-114.752 256-256 256h-510.013zM513.584 831.985h510.013c70.656 0 128-57.344 128-128 0-64 0-447.997 0-511.997 0-70.656-57.344-128-128-128h-510.013c-27.584 0.256-51.264 8.512-73.984 24-13.888 9.472-24.639 19.712-28.031 24-12.032 12.992-135.744 143.616-137.984 145.984-61.248 65.661-105.088 113.278-118.016 129.982-32.768 42.56-35.2 69.887-1.984 110.015 7.872 9.472 55.808 64.192 128 144 0.448 0.512 125.695 136.897 134.015 145.985 4.608 5.44 13.249 13.759 25.985 22.015 21.631 14.080 45.375 22.272 71.999 22.016zM577.584 639.985c-16.32 0-33.535-5.505-46.015-17.985-24.896-24.96-24.896-67.071 0-92.031l80-81.984-80-81.985c-24.896-24.96-24.896-67.069 0-92.029s65.087-24.96 90.047 0l81.981 81.982 81.99-81.982c24.896-24.96 67.13-24.96 92.026 0s24.896 67.069 0 92.029l-82.042 81.985 82.042 81.984c24.896 24.96 24.896 67.071 0 92.031-12.48 12.48-29.696 17.985-46.016 17.985s-33.594-5.505-46.010-17.985l-81.99-81.984-81.981 81.984c-12.48 12.48-27.711 17.985-44.031 17.985z" />
<glyph unicode="&#xe90c;" glyph-name="fm-backward-fast" horiz-adv-x="1170" d="M58.512 935.613c-32.298 0-58.512-26.213-58.512-58.512v-819.165c0-32.3 26.213-58.507 58.512-58.507s58.512 26.207 58.512 58.507v303.56l318.187-318.188c0 0 8.718-10.24 16.441-16.443 20.011-16.267 46.283-27.26 74.954-27.436 63.602-0.41 116.555 51.778 117.023 117.021 0.059 6.671 0 135.745 0 245.045l318.185-318.188c0 0 8.719-10.24 16.443-16.443 20.012-16.267 46.285-27.26 74.957-27.436 63.598-0.41 116.553 51.778 117.021 117.021 0.117 19.076 0 686.4 0 702.139 0.702 64.304-51.668 116.438-117.021 117.023-25.103 0.234-47.163-7.372-65.829-20.128-8.485-5.734-15.038-10.884-20.129-16.442l-323.627-325.442c0 108.948 0 239.489 0 244.989 0.702 64.304-51.666 116.438-117.023 117.023-25.102 0.234-47.16-7.372-65.826-20.128-8.485-5.734-15.037-10.884-20.127-16.442l-323.629-325.442v303.5c0 32.298-26.214 58.512-58.512 58.512zM526.605 818.59v-702.139l-351.070 351.069 351.070 351.070zM1053.213 818.59v-702.139l-351.073 351.069 351.073 351.070z" />
<glyph unicode="&#xe90d;" glyph-name="fm-bell" horiz-adv-x="926" d="M487.177 911.292c-173.217 0-292.571-119.369-292.571-292.572 0-23.65 0-96.061 0-97.524 0-15.701-7.929-26.38-35.050-48.762-3.077-2.535-15.974-13.604-19.807-16.773-61.703-51.005-92.072-98.792-91.429-178.274 0.649-80.36 66.155-145.359 146.286-146.286h154.868c0 0-8.582-29.794-8.582-48.762 0-80.803 65.487-146.291 146.286-146.291 80.797 0 146.284 65.487 146.284 146.291 0 18.968-8.192 48.762-8.192 48.762h154.478c79.97-0.293 146.383 65.585 146.286 146.286-0.098 78.897-30.525 127.512-91.429 178.274-3.998 3.365-18.139 14.141-21.358 16.773-26.526 22.138-33.499 33.256-33.499 48.762 0 60.953 0 97.524 0 97.524 0 173.203-119.369 292.572-292.57 292.572zM487.177 813.768c119.368 0 195.046-75.678 195.046-195.048 0 0 0-36.571 0-97.524 0-51.784 21.845-84.455 68.559-123.415 3.706-3.072 19.358-15.36 22.869-18.286 40.862-34.085 54.808-57.149 54.857-102.107 0.049-26.526-22.674-48.859-48.762-48.762-9.216 0.049-151.162 0.049-292.57 0-141.395-0.049-282.21-0.098-292.571 0-27.219 0.341-48.542 21.699-48.762 48.762-0.361 44.861 13.58 67.974 54.857 102.107 3.369 2.779 17.788 15.36 21.333 18.286 47.455 39.205 70.095 71.144 70.095 123.415 0 1.463 0 73.875 0 97.524 0 119.37 75.693 195.048 195.048 195.048zM487.177 131.101c26.915 0 48.76-21.845 48.76-48.762s-21.845-48.762-48.76-48.762c-26.917 0-48.762 21.845-48.762 48.762s21.845 48.762 48.762 48.762z" />
<glyph unicode="&#xe90e;" glyph-name="fm-bell-slashed" d="M514.15 960c-181.878 0-307.2-125.338-307.2-307.2v-102.4c0-16.486-8.339-27.699-36.817-51.2-3.231-2.662-16.759-14.289-20.783-17.617-64.788-53.555-96.676-103.727-96-187.183 0.511-63.365 39.432-117.621 94.417-141.133l-90.433-95.2c-20.287-21.359-19.422-55.116 1.933-75.4 21.355-20.292 55.112-19.417 75.4 1.933l148.383 156.2h86.5c0 0-9-31.283-9-51.2 0-84.838 68.762-153.6 153.6-153.6s153.6 68.762 153.6 153.6c0 19.917-8.617 51.2-8.617 51.2h162.217c83.968-0.307 153.702 68.864 153.6 153.6-0.102 82.842-32.051 133.884-96 187.183-4.198 3.533-19.054 14.852-22.433 17.617-27.853 23.245-35.167 34.918-35.167 51.2v102.4c0 17.541-1.196 34.539-3.467 50.967l127.45 134.167c20.292 21.355 19.417 55.113-1.933 75.4-21.359 20.287-55.116 19.422-75.4-1.933l-88.65-93.317c-51.291 88.165-146.114 141.917-265.2 141.917zM514.15 857.6c93.506 0 161.422-44.26 189.917-118.767l-470.85-495.633c-2.848 0.007-25.336-0.009-26.267 0-28.58 0.358-50.97 22.784-51.2 51.2-0.379 47.104 14.259 71.377 57.6 107.217 3.538 2.918 18.678 16.128 22.4 19.2 49.828 41.165 73.6 74.697 73.6 129.583v102.4c0 125.337 79.478 204.8 204.8 204.8zM718.95 599.633v-49.233c0-54.374 22.934-88.675 71.983-129.583 3.891-3.226 20.33-16.128 24.017-19.2 42.906-35.789 57.549-60.010 57.6-107.217 0.051-27.853-23.808-51.302-51.2-51.2-9.677 0.051-158.721 0.051-307.2 0-64.671-0.022-80.648 0.009-133.817 0zM514.15 140.8c28.262 0 51.2-22.938 51.2-51.2s-22.938-51.2-51.2-51.2c-28.262 0-51.2 22.938-51.2 51.2s22.938 51.2 51.2 51.2z" />
<glyph unicode="&#xe90f;" glyph-name="fm-bookmark" horiz-adv-x="853" d="M204.908 960c-130.746 0-204.908-74.161-204.908-204.908v-768.404c0-36.774 36.632-60.911 70.437-46.421l339.378 145.677 337.79-145.677c33.809-14.49 72.026 9.647 72.026 46.421v768.404c0 134.388-66.85 204.908-204.907 204.908h-409.817zM204.908 857.546h409.817c80.218 0 102.451-23.457 102.451-102.454v-691.562l-288.149 123.26c-12.911 5.53-27.151 5.53-40.009 0l-286.563-123.26v691.562c0 74.161 28.293 102.454 102.454 102.454zM256.134 550.185c-28.293 0-51.227-22.936-51.227-51.228s22.934-51.226 51.227-51.226h307.36c28.279 0 51.23 22.933 51.23 51.226s-22.95 51.228-51.23 51.228h-307.36z" />
<glyph unicode="&#xe910;" glyph-name="fm-broom" horiz-adv-x="1078" d="M1058.094 940.286c-12.633 12.623-29.761 19.714-47.616 19.714-17.861 0-34.988-7.091-47.621-19.714l-213.946-213.947c-41.838 37.547-95.216 59.723-151.342 62.876s-111.655-12.905-157.436-45.529c-55.522-41.341-117.020-73.981-182.375-96.797l-80.317-23.534c-33.603-9.858-64.726-26.751-91.303-49.556s-47.999-51.002-62.846-82.719c-14.847-31.717-22.778-66.229-23.269-101.243-0.49-35.021 6.472-69.74 20.426-101.861 48.885-121.177 138.515-221.502 253.44-283.68 90.585-42.528 189.83-63.375 289.87-60.89h2.835c33.717-0.011 66.528 10.93 93.497 31.167 141.452 101.597 238.145 253.941 269.862 425.181 6.936 39.755 4.112 80.601-8.23 119.025-12.337 38.425-33.819 73.28-62.599 101.569l-12.956 12.548 212.157 212.213c12.574 12.66 19.612 29.792 19.569 47.636s-7.163 34.942-19.801 47.541zM578.619 81.952c-3.697-2.646-8.176-3.988-12.719-3.816-47.183 0.022-94.241 4.824-140.454 14.341 60.115 37.597 111.89 87.105 152.133 145.483l22.205 32.671c10.342 14.568 14.476 32.649 11.49 50.268-2.991 17.613-12.854 33.323-27.422 43.666s-32.649 14.476-50.265 11.49c-17.616-2.991-33.324-12.854-43.668-27.422l-1.504-2.253-22.204-32.558c-36.72-53.711-86.455-97.237-144.559-126.518l-46.606-23.126c-26.175 21.235-49.617 45.627-69.793 72.623 62.298 25.411 119.1 62.62 167.283 109.579 12.001 12.676 18.611 29.518 18.438 46.975s-7.116 34.165-19.367 46.603c-12.25 12.438-28.851 19.634-46.303 20.073s-34.392-5.915-47.252-17.723c-39.574-38.368-86.889-67.843-138.776-86.448-8.357 28.306-5.133 58.767 8.963 84.691 14.096 25.926 37.91 45.193 66.207 53.567h0.694l80.259 23.592c68.944 22.979 134.295 55.586 194.114 96.854l284.549-276.629c-38.837-102.535-106.765-191.499-195.444-255.984z" />
<glyph unicode="&#xe911;" glyph-name="fm-bullhorn" horiz-adv-x="1205" d="M1023.934 905.407c-89.57-0.181-149.624-66.561-156.25-71.5-35.479-26.684-74.029-51.199-114.808-71.558-85.655-42.827-178.537-69.271-271.059-84.691-32.407-5.421-61.68-9.396-88.485-11.324-15.661-1.084-26.866-1.867-31.986-1.867h-124.206c-132.819 0-237.206-107.581-237.206-240.942 0-133.058 107.881-240.939 240.941-240.939v-60.235c0-99.81 80.896-180.706 180.706-180.706s180.706 80.896 180.706 180.706l0.361 20.54c50.718-14.577 102.641-34.334 150.227-58.187 40.538-20.299 79.511-45.056 114.808-71.499 6.626-5 73.728-72.102 156.25-71.56 98.906 0.663 180.706 76.86 180.706 173.176v617.411c0 96.316-80.595 173.357-180.706 173.176zM1023.934 784.937c34.153 0 60.235-24.817 60.235-52.706v-617.411c0-27.889-26.082-52.706-60.235-52.706s-60.235 24.817-60.235 52.706c0 152.275 0 465.136 0 617.411 0 27.889 26.082 52.706 60.235 52.706zM843.228 675.247c0-151.492-0.542-350.447-0.542-501.938-12.408 6.927-22.408 12.288-35.238 18.673-97.4 48.851-201.306 80.595-304.911 97.882-62.404 10.421-111.917 13.192-141.192 13.192v240.94c29.274 0 78.848 2.77 141.192 13.191 103.544 17.227 207.571 49.212 304.911 97.882 12.89 6.445 23.311 13.191 35.78 20.178zM237.14 543.996h3.735v-240.94c-66.56 0-120.471 53.911-120.471 120.469 0 67.524 51.139 120.471 116.735 120.471zM361.346 182.585c5.12 0 16.324-0.783 31.986-1.867 26.805-1.928 56.078-5.903 88.485-11.324v-47.044c0-33.25-26.985-60.235-60.235-60.235s-60.235 26.985-60.235 60.235v60.235z" />
<glyph unicode="&#xe912;" glyph-name="fm-calendar" d="M269.472 960c-29.766 0-53.895-24.145-53.895-53.895-119.113 0-215.579-96.58-215.579-215.579v-538.948c0-118.995 96.52-215.578 215.579-215.578h538.945c119.059 0 215.584 96.525 215.584 215.578v538.948c0 118.838-96.582 215.579-215.584 215.579 0 29.75-24.141 53.895-53.894 53.895-29.747 0-53.894-24.145-53.894-53.895h-323.366c0 29.75-24.129 53.895-53.894 53.895zM215.577 798.316c0-29.75 24.129-53.894 53.895-53.894s53.894 24.145 53.894 53.894h323.366c0-29.75 24.147-53.894 53.894-53.894 29.754 0 53.894 24.145 53.894 53.894 59.341 0 107.795-48.074 107.795-107.789v-53.894c-103.802 0-650.749 0-754.529 0v53.894c0 59.392 48.095 107.789 107.789 107.789zM107.788 528.842c103.72 0 650.779 0 754.529 0v-377.265c0-59.443-48.237-107.789-107.795-107.789h-538.945c-59.532 0-107.789 48.237-107.789 107.789v377.265zM269.472 421.053c-29.766 0-53.895-24.145-53.895-53.895s24.129-53.897 53.895-53.897c29.766 0 53.894 24.147 53.894 53.897s-24.129 53.895-53.894 53.895zM485.051 421.053c-29.75 0-53.895-24.145-53.895-53.895s24.145-53.897 53.895-53.897c29.75 0 53.894 24.147 53.894 53.897s-24.145 53.895-53.894 53.895zM700.627 421.053c-29.747 0-53.894-24.145-53.894-53.895s24.147-53.897 53.894-53.897c29.754 0 53.894 24.147 53.894 53.897s-24.141 53.895-53.894 53.895zM269.472 259.366c-29.766 0-53.895-24.141-53.895-53.894 0-29.747 24.129-53.894 53.895-53.894s53.894 24.147 53.894 53.894c0 29.754-24.129 53.894-53.894 53.894zM485.051 259.366c-29.75 0-53.895-24.141-53.895-53.894 0-29.747 24.145-53.894 53.895-53.894s53.894 24.147 53.894 53.894c0 29.754-24.145 53.894-53.894 53.894zM700.627 259.366c-29.747 0-53.894-24.141-53.894-53.894 0-29.747 24.147-53.894 53.894-53.894 29.754 0 53.894 24.147 53.894 53.894 0 29.754-24.141 53.894-53.894 53.894z" />
<glyph unicode="&#xe913;" glyph-name="fm-calendar-day" d="M269.474 960c-29.766 0-53.895-24.145-53.895-53.895-119.059 0-215.579-96.526-215.579-215.579v-538.948c0-118.995 96.52-215.578 215.579-215.578h538.949c119.053 0 215.578 96.525 215.578 215.578v538.948c0 119.053-96.525 215.579-215.578 215.579 0 29.75-24.147 53.895-53.894 53.895-29.754 0-53.894-24.145-53.894-53.895h-323.371c0 29.75-24.129 53.895-53.894 53.895zM215.579 798.316c0-29.75 24.129-53.894 53.895-53.894s53.894 24.145 53.894 53.894h323.371c0-29.75 24.141-53.894 53.894-53.894 29.747 0 53.894 24.145 53.894 53.894 59.552 0 107.789-48.236 107.789-107.789v-53.894c-103.693 0-650.818 0-754.527 0v53.894c0 59.554 48.257 107.789 107.789 107.789zM107.789 528.842c103.709 0 650.835 0 754.527 0v-377.265c0-59.443-48.237-107.789-107.789-107.789h-538.949c-59.532 0-107.789 48.237-107.789 107.789v377.265zM584.435 421.053c-18.001 0-34.547-3.342-48.829-8.408-14.336-5.12-27.001-11.318-37.080-20.211-10.078-8.946-16.545-20.048-21.881-32.013-5.336-11.911-8.408-24.845-8.408-38.75-0.054-12.986 2.102-23.981 6.683-35.354 4.635-11.373 10.402-21.882 18.54-30.291 8.138-8.461 19.025-15.36 30.343-20.262 11.264-4.851 23.714-6.682 37.026-6.682 3.395-0.058 5.766 0.858 10.132 1.67 4.365 0.806 10.024 2.803 16.815 6.733h1.725l-77.501-85.907h82.513l64.028 74.106c14.336 16.71 25.062 33.254 31.955 50.502 6.957 17.299 10.138 34.003 10.138 48.88 0 13.204-3.072 25.331-8.41 37.027-5.338 11.749-11.859 21.503-21.882 30.342-10.080 8.785-22.746 15.091-37.079 20.211-14.336 5.066-30.612 8.408-48.829 8.408zM269.474 414.316v-58.96h40.42v-203.778h70.71v262.738h-111.13zM584.435 367.158c6.306 0 13.043-1.025 18.54-3.342 5.443-2.317 9.324-6.197 13.473-10.131 4.096-3.935 7.653-8.246 10.078-13.474s3.396-10.833 3.396-16.816c-0.054-6.038-0.97-11.638-3.396-16.867s-5.982-9.542-10.078-13.478c-4.15-3.93-8.030-7.757-13.473-10.074-5.498-2.317-12.234-3.398-18.54-3.398s-11.372 1.024-16.869 3.398c-5.443 2.317-10.995 6.144-15.144 10.074-4.15 3.936-7.653 8.25-10.132 13.478-2.426 5.229-3.341 10.829-3.341 16.867 0 5.983 0.916 11.588 3.341 16.816 2.479 5.228 5.983 9.539 10.132 13.474s9.701 7.76 15.144 10.131c5.497 2.317 10.563 3.342 16.869 3.342z" />
<glyph unicode="&#xe914;" glyph-name="fm-calendar-events" d="M269.472 960c-29.75 0-53.895-24.145-53.895-53.895-119.053 0-215.579-96.525-215.579-215.579v-538.948c0-119.002 96.525-215.578 215.579-215.578h538.945c119.059 0 215.584 96.525 215.584 215.578v538.948c0 119.053-96.525 215.579-215.584 215.579 0 29.75-24.141 53.895-53.894 53.895-29.747 0-53.894-24.145-53.894-53.895h-323.366c0 29.75-24.145 53.895-53.894 53.895zM215.577 798.316c0-29.75 24.145-53.895 53.895-53.895s53.894 24.145 53.894 53.895h323.366c0-29.75 24.147-53.895 53.894-53.895 29.754 0 53.894 24.145 53.894 53.895 59.558 0 107.795-48.236 107.795-107.789v-53.895c-103.699 0-650.836 0-754.529 0v53.895c0 59.553 48.236 107.789 107.789 107.789zM107.788 528.842c103.693 0 650.83 0 754.529 0v-377.264c0-59.443-48.237-107.789-107.795-107.789h-538.945c-59.554 0-107.789 48.237-107.789 107.789v377.264zM538.945 421.052c-29.75 0-53.894-24.145-53.894-53.895s24.145-53.896 53.894-53.896h161.682c29.754 0 53.894 24.147 53.894 53.896s-24.141 53.895-53.894 53.895h-161.682zM269.472 259.366c-29.75 0-53.895-24.141-53.895-53.894 0-29.747 24.145-53.894 53.895-53.894h161.684c29.75 0 53.895 24.147 53.895 53.894 0 29.754-24.145 53.894-53.895 53.894h-161.684z" />
<glyph unicode="&#xe915;" glyph-name="fm-camera" d="M358.4 960c-13.568 0-25.599-4.813-35.225-14.387l-87.962-88.013c-14.694 0-30.413 0-30.413 0-113.101 0-204.8-91.699-204.8-204.799v-460.801c0-113.101 91.699-204.8 204.8-204.8h614.4c113.101 0 204.8 91.699 204.8 204.8v460.801c0 113.1-91.699 204.799-204.8 204.799h-28.774l-88.013 88.013c-9.626 9.574-23.245 14.387-36.813 14.387h-307.2zM380.825 857.6h263.988l87.962-88.012c9.626-9.574 21.658-14.388 35.226-14.388h51.2c56.576 0 102.4-45.823 102.4-102.399v-460.801c0-56.576-45.824-102.4-102.4-102.4h-614.4c-56.576 0-102.4 45.824-102.4 102.4v460.801c0 56.576 45.824 102.399 102.4 102.399h51.2c13.568 0 27.187 4.813 36.813 14.388l88.012 88.012zM512 704.001c-141.363 0-256-114.637-256-256s114.637-256.001 256-256.001c141.363 0 256 114.637 256 256.001s-114.637 256-256 256zM819.2 704.001c-28.262 0-51.2-22.938-51.2-51.2s22.938-51.2 51.2-51.2c28.262 0 51.2 22.938 51.2 51.2s-22.938 51.2-51.2 51.2zM512 601.601c84.838 0 153.6-68.762 153.6-153.6s-68.762-153.601-153.6-153.601c-84.838 0-153.6 68.762-153.6 153.601s68.762 153.6 153.6 153.6z" />
<glyph unicode="&#xe916;" glyph-name="fm-can" d="M537.598 959.999c-226.764-0.307-409.598-51.2-409.598-153.6 0-2.458 0-6.4 0-6.4l92.774-686.387c20.070-100.762 114.688-177.613 214.425-177.613h204.799c99.74 0 193.282 76.851 212.789 174.387l94.406 689.612c0 0 0 3.942 0 6.4 0 102.4-182.829 153.856-409.596 153.6zM537.598 857.599c91.853 0 178.127-11.11 240.021-28.825 24.218-6.912 39.635-14.746 52.794-22.375-13.158-7.629-28.576-15.462-52.794-22.425-61.894-17.664-148.168-28.775-240.021-28.775s-178.124 11.111-240.024 28.775c-24.218 6.963-39.936 14.796-52.787 22.425 13.158 7.629 28.57 15.463 52.787 22.375 61.9 17.715 148.172 28.825 240.024 28.825zM246.374 691.199c73.83-25.651 176.792-38.4 291.224-38.4 114.434 0 217.397 12.749 291.221 38.4l-76.794-564.787c-9.37-46.336-60.877-88.013-112.028-88.013h-204.799c-51.149 0-103.679 41.677-113.612 91.187l-75.212 561.612z" />
<glyph unicode="&#xe917;" glyph-name="fm-caret-down" d="M237.112 640c-37.672 0-58.323-35.926-35.716-61.248 34.289-38.424 240.019-268.966 274.312-307.392 18.288-20.48 54.575-20.48 72.862 0l274.31 307.392c22.605 25.322 0.531 61.248-37.146 61.248h-548.623z" />
<glyph unicode="&#xe918;" glyph-name="fm-caret-up" d="M786.886 256c37.677 0 58.323 35.923 35.718 61.248-34.291 38.424-240.020 268.968-274.313 307.392-18.287 20.48-54.575 20.48-72.862 0l-274.312-307.392c-22.604-25.325-0.531-61.248 37.146-61.248h548.623z" />
<glyph unicode="&#xe919;" glyph-name="fm-case" d="M524.799 960c-113.1 0-204.799-91.699-204.799-204.8-75.981 0-198.4 0-204.8 0-28.262 0-51.2-22.938-51.2-51.2v-563.2c0-113.101 91.699-204.8 204.8-204.8h512c113.101 0 204.8 91.699 204.8 204.8v563.2c0 28.262-22.938 51.2-51.2 51.2-6.4 0-128.819 0-204.8 0 0 113.101-91.7 204.8-204.801 204.8zM524.799 857.6c56.576 0 102.4-45.824 102.4-102.4-93.389 0-111.411 0-204.799 0 0 56.576 45.823 102.4 102.399 102.4zM166.4 652.8c28.16 0 127.539 0 204.8 0 115.916 0 191.283 0 307.2 0 77.261 0 176.64 0 204.8 0v-512c0-56.576-45.824-102.4-102.4-102.4h-512c-56.576 0-102.4 45.824-102.4 102.4v512z" />
<glyph unicode="&#xe91a;" glyph-name="fm-check" d="M716.8 601.6c-13.12 0-26.816-4.416-36.8-14.4l-190.4-192c-13.184-13.184-26.432-10.752-36.8 4.8l-51.2 76.8c-15.68 23.552-48.448 30.080-72 14.4s-30.080-48.448-14.4-72l51.2-76.8c46.208-69.312 136.32-78.080 195.2-19.2l192 190.4c19.968 20.032 19.968 53.568 0 73.6-9.984 9.984-23.68 14.4-36.8 14.4z" />
<glyph unicode="&#xe91b;" glyph-name="fm-check-circle" d="M512.001 960c-282.767 0-512.001-229.222-512.001-512s229.233-512 512.001-512c282.771 0 511.999 229.222 511.999 512s-229.229 512-511.999 512zM512.001 857.6c226.22 0 409.599-183.398 409.599-409.6s-183.379-409.6-409.599-409.6c-226.217 0-409.601 183.398-409.601 409.6s183.384 409.6 409.601 409.6zM716.8 601.6c-13.101 0-26.803-4.403-36.8-14.387l-190.399-192.001c-13.199-13.21-26.445-10.751-36.797 4.763l-51.2 76.8c-15.688 23.552-48.471 30.105-72.003 14.438-23.526-15.718-30.085-48.487-14.403-71.988l51.2-76.8c46.203-69.324 136.31-78.131 195.205-19.25l192.003 190.412c19.994 20.019 19.994 53.606 0 73.626-10.003 9.984-23.706 14.387-36.806 14.387z" />
<glyph unicode="&#xe91c;" glyph-name="fm-chevron-down" d="M512 960c-282.8 0-512-229.2-512-512s229.2-512 512-512c282.799 0 512 229.201 512 512s-229.201 512-512 512zM270 477.999c-18.8 18.803-18.8 49.203 0 67.801 18.8 18.6 49.2 18.8 67.8 0l173.999-173.999 173.999 173.999c18.803 18.8 49.203 18.8 67.802 0 18.598-18.799 18.799-49.199 0-67.801l-207.599-208c-18.803-18.799-49.203-18.799-67.802 0l-208.2 208z" />
<glyph unicode="&#xe91d;" glyph-name="fm-chevron-left" d="M1024 448c0 282.8-229.201 512-512 512s-512-229.2-512-512c0-282.799 229.2-512 512-512s512 229.201 512 512zM541.999 690c18.803 18.8 49.199 18.8 67.802 0 18.598-18.8 18.799-49.2 0-67.8l-173.999-173.999 173.999-173.999c18.799-18.803 18.799-49.203 0-67.802s-49.199-18.799-67.802 0l-207.999 207.599c-18.8 18.803-18.8 49.199 0 67.802l207.999 208.2z" />
<glyph unicode="&#xe91e;" glyph-name="fm-chevron-right" d="M0 448c0-282.799 229.2-512 512-512s512 229.201 512 512c0 282.8-229.201 512-512 512s-512-229.2-512-512zM482.001 205.999c-18.799-18.799-49.199-18.799-67.801 0-18.6 18.799-18.8 49.199 0 67.802l173.999 173.999-173.999 174.001c-18.8 18.8-18.8 49.2 0 67.8 18.799 18.6 49.199 18.8 67.801 0l208-207.599c18.799-18.799 18.799-49.199 0-67.802l-208-208.201z" />
<glyph unicode="&#xe91f;" glyph-name="fm-chevron-up" d="M512-64c282.799 0 512 229.201 512 512s-229.201 512-512 512c-282.8 0-512-229.2-512-512s229.2-512 512-512zM754.001 418.001c18.799-18.803 18.799-49.203 0-67.802s-49.199-18.799-67.802 0l-173.999 173.999-174.001-173.999c-18.8-18.799-49.2-18.799-67.8 0s-18.8 49.199 0 67.802l207.599 207.999c18.803 18.8 49.203 18.8 67.802 0l208.201-207.999z" />
<glyph unicode="&#xe920;" glyph-name="fm-circle" d="M0 448c0 282.581 229.419 512 512 512s512-229.419 512-512c0-282.581-229.419-512-512-512s-512 229.419-512 512z" />
<glyph unicode="&#xe921;" glyph-name="fm-circle-check-outside" d="M511.706 960c-282.616 0-511.706-229.091-511.706-511.706 0-282.618 229.091-511.706 511.706-511.706 259.948 0 478.137 194.861 508.531 450.916 3.277 28.092-16.73 54.239-44.826 57.617-28.038 3.275-54.24-16.732-57.51-44.824-24.307-204.681-198.24-361.366-406.195-361.366-226.072 0-409.365 183.29-409.365 409.363s183.293 409.364 409.365 409.364c47.23 0 94-8.545 137.548-23.999 26.605-9.416 54.496 5.373 63.962 31.981 9.414 26.66-3.789 56.133-30.394 65.6-54.448 19.291-112.219 28.758-171.116 28.758zM972.243 857.659c-13.101 0-26.816-4.605-36.794-14.38l-446.157-439.759c-13.151-12.946-26.404-10.439-36.74 4.81l-51.171 75.169c-15.658 23.078-48.509 29.782-71.946 14.38-23.487-15.402-30.088-47.282-14.429-70.36l51.171-75.169c46.104-68.004 136.317-77.009 195.113-19.189l447.74 438.124c19.962 19.649 19.962 52.346 0 71.996-9.978 9.825-23.686 14.38-36.787 14.38z" />
<glyph unicode="&#xe922;" glyph-name="fm-circle-close" d="M512 960c-285.257 0-512-226.743-512-512s226.743-512 512-512c285.257 0 512 226.743 512 512s-226.743 512-512 512zM709.487 192l-197.487 197.487-197.486-197.487-58.514 58.513 197.487 197.487-197.487 197.486 58.514 58.514 197.486-197.487 197.487 197.487 58.513-58.514-197.487-197.486 197.487-197.487-58.513-58.513z" />
<glyph unicode="&#xe923;" glyph-name="fm-circle-inside" d="M512 960c-282.752 0-512-229.248-512-512s229.248-512 512-512c282.752 0 512 229.248 512 512s-229.248 512-512 512zM512 857.6c226.176 0 409.6-183.424 409.6-409.6s-183.424-409.6-409.6-409.6c-226.24 0-409.6 183.424-409.6 409.6s183.36 409.6 409.6 409.6zM256 448c0 141.312 114.688 256 256 256s256-114.688 256-256c0-141.312-114.688-256-256-256s-256 114.688-256 256z" />
<glyph unicode="&#xe924;" glyph-name="fm-circle-outlined" d="M512.001 960c-282.767 0-512.001-229.222-512.001-512s229.233-512 512.001-512c282.777 0 511.999 229.222 511.999 512s-229.222 512-511.999 512zM512.001 857.6c226.201 0 409.599-183.398 409.599-409.6s-183.398-409.6-409.599-409.6c-226.217 0-409.601 183.398-409.601 409.6s183.384 409.6 409.601 409.6z" />
<glyph unicode="&#xe925;" glyph-name="fm-clip" horiz-adv-x="878" d="M517.3 913.523c-92.014 0-183.296-35.108-253.514-105.178l-103.814-103.619c-19.115-19.017-19.115-49.493 0-68.559 19.066-19.017 49.64-19.017 68.706 0l103.816 103.619c102.254 102.058 267.312 102.009 369.566 0l1.512-1.512c102.254-102.009 102.254-266.726 0-368.785l-288.572-287.988c-61.83-61.635-159.744-59.49-220.598-1.317l-3.122 3.511c-61.781 61.684-60.805 161.304 0.976 222.988l280.771 279.21c21.357 21.309 54.954 21.309 76.312 0s21.358-54.857 0-76.214l-291.888-292.473c-19.115-19.066-19.115-51.054 0-70.12 19.066-19.017 51.054-17.213 68.949-0.049l293.204 292.571c59.538 59.391 59.538 156.964 0 216.356-29.745 29.745-69.437 44.226-108.446 44.226s-78.653-14.481-108.398-44.226l-287.89-289.548c-5.022-5.022-8.729-10.581-13.947-16.823-75.435-100.059-69.973-244.834 21.31-335.921 99.962-99.767 261.51-100.498 361.472-0.731l288.572 287.988c140.434 140.142 140.434 367.323 0 507.415-70.168 70.071-162.962 105.178-254.976 105.178z" />
<glyph unicode="&#xe926;" glyph-name="fm-clipboard" d="M512.001 960c-70.605 0-127.642-45.517-145.613-110.387-46.336-12.851-89.805-55.091-100.762-94.413h-60.825c-113.101 0-204.801-91.699-204.801-204.8v-409.6c0-113.101 91.699-204.8 204.801-204.8h614.399c113.101 0 204.8 91.699 204.8 204.8v409.6c0 113.101-91.699 204.8-204.8 204.8h-57.6c-19.2 46.182-56.064 83.149-102.4 96-17.971 64.87-76.595 108.8-147.199 108.8zM512.001 857.6c28.262 0 51.2-22.938 51.2-51.2s22.938-51.2 51.201-51.2c28.261 0 51.199-22.938 51.199-51.2s-22.938-51.2-51.199-51.2h-204.801c-28.262 0-51.2 22.938-51.2 51.2s22.938 51.2 51.2 51.2c28.262 0 51.2 22.938 51.2 51.2s22.938 51.2 51.2 51.2zM204.801 652.8h60.825c20.992-63.13 79.053-102.4 143.975-102.4h204.801c64.92 0 119.551 36.966 145.612 102.4h59.187c56.576 0 102.4-45.824 102.4-102.4v-409.6c0-56.576-45.824-102.4-102.4-102.4h-614.399c-56.577 0-102.401 45.824-102.401 102.4v409.6c0 56.576 45.824 102.4 102.401 102.4z" />
<glyph unicode="&#xe927;" glyph-name="fm-clipboard-check" d="M512.001 960c-70.605 0-127.642-45.517-145.613-110.387-46.336-12.851-89.805-55.091-100.762-94.413h-60.825c-113.101 0-204.801-91.699-204.801-204.8v-409.6c0-113.101 91.699-204.8 204.801-204.8h614.399c113.101 0 204.8 91.699 204.8 204.8v409.6c0 113.101-91.699 204.8-204.8 204.8h-57.6c-19.2 46.182-56.064 83.149-102.4 96-17.971 64.87-76.595 108.8-147.199 108.8zM512.001 857.6c28.262 0 51.2-22.938 51.2-51.2s22.938-51.2 51.201-51.2c28.261 0 51.199-22.938 51.199-51.2s-22.938-51.2-51.199-51.2h-204.801c-28.262 0-51.2 22.938-51.2 51.2s22.938 51.2 51.2 51.2c28.262 0 51.2 22.938 51.2 51.2s22.938 51.2 51.2 51.2zM204.801 652.8h60.825c20.992-63.13 79.053-102.4 143.975-102.4h204.801c64.92 0 119.551 36.966 145.612 102.4h59.187c56.576 0 102.4-45.824 102.4-102.4v-409.6c0-56.576-45.824-102.4-102.4-102.4h-614.399c-56.577 0-102.401 45.824-102.401 102.4v409.6c0 56.576 45.824 102.4 102.401 102.4zM665.6 448c-13.107 0-26.776-4.403-36.812-14.387l-167.988-167.987-65.587 65.587c-20.020 19.969-53.606 19.969-73.626 0-19.968-20.019-19.968-53.606 0-73.625l102.4-102.4c20.020-19.968 53.606-19.968 73.626 0l204.799 204.8c19.968 20.019 19.968 53.606 0 73.626-10.035 9.984-23.706 14.387-36.813 14.387z" />
<glyph unicode="&#xe928;" glyph-name="fm-clock" d="M512 960.002c-282.767 0-512-229.222-512-512 0-282.78 229.228-512.003 512-512.003 282.765 0 512 229.222 512 512.003 0 282.778-229.235 512-512 512zM512 857.603c226.214 0 409.6-183.398 409.6-409.6 0-226.204-183.386-409.603-409.6-409.603-226.217 0-409.6 183.398-409.6 409.603 0 226.202 183.383 409.6 409.6 409.6zM512 755.203c-28.278 0-51.2-22.938-51.2-51.2v-256c0-13.568 4.797-27.187 14.397-36.813l153.6-153.603c19.996-19.968 53.609-19.968 73.603 0 19.994 20.019 19.994 53.606 0 73.628l-139.2 139.213v233.575c0 28.262-22.922 51.2-51.2 51.2z" />
<glyph unicode="&#xe929;" glyph-name="fm-cog" d="M356.756 936.682c-72.602-23.040-135.219-60.621-190.412-112.026-17.050-15.872-22.271-41.882-11.212-62.362 41.011-75.827-1.895-156.979-94.413-161.638-22.631-1.126-42.65-17.921-47.974-39.988-9.165-38.144-12.8-70.092-12.8-111.974 0-35.172 3.788-75.006 11.212-110.436 4.608-22.118 23.86-38.042 46.387-39.987 93.082-8.038 139.162-79.053 97.588-169.574-9.216-20.122-5.018-44.186 11.212-59.238 54.374-50.278 116.838-85.76 190.412-108.8 20.992-6.554 44.698 1.382 57.6 19.2 56.934 78.797 139.521 79.053 193.588 0 12.749-18.586 36.096-27.546 57.6-20.787 71.014 22.374 137.165 60.416 192 110.387 16.896 15.411 21.35 40.346 11.213 60.826-42.598 85.965 6.4 164.864 94.362 166.4 23.347 0.41 44.134 15.718 49.613 38.4 8.858 36.71 11.213 68.659 11.213 113.611 0 38.605-4.557 76.646-12.8 113.562-5.222 23.398-25.651 39.987-49.613 40.038-86.579 0.154-135.117 85.248-92.774 160 11.776 20.787 8.090 46.285-9.626 62.362-55.808 50.688-123.853 90.317-195.174 112.026-21.914 6.656-45.21-1.536-57.6-20.788-49.459-76.851-141.824-78.182-190.413-1.638-12.442 19.661-37.069 29.44-59.188 22.426zM667.95 827.933c34.97-14.643 62.566-29.953 94.259-53.965-37.171-117.606 25.856-239.769 156.416-269.516 3.226-21.146 2.918-33.946 2.918-55.757 0-26.059 0.358-35.224-2.611-54.065-129.997-26.931-194.304-145.669-158.106-271.16-31.13-22.579-53.402-38.241-92.467-53.345-91.75 93.389-219.135 97.485-312.831-0.62-36.557 16.077-64.666 30.367-93.081 54.38 35.225 127.437-24.321 237.466-156.519 270.848-5.888 23.347-3.533 89.29-0.154 109.309 136.704 32.768 190.567 153.754 156.621 270.285 30.003 22.579 56.986 39.014 92.058 53.247 88.32-89.856 220.927-98.815 313.497 0.359zM511.944 653.494c-113.101 0-204.8-91.699-204.8-204.8 0-113.15 91.699-204.798 204.8-204.798s204.8 91.648 204.8 204.798c0 113.101-91.699 204.8-204.8 204.8zM511.944 551.094c56.576 0 102.4-45.875 102.4-102.4 0-56.574-45.824-102.398-102.4-102.398s-102.4 45.824-102.4 102.398c0 56.525 45.824 102.4 102.4 102.4z" />
<glyph unicode="&#xe92a;" glyph-name="fm-contract" d="M537.6 960c-28.262 0-51.2-22.938-51.2-51.2v-153.6h-153.6l204.8-204.8 204.8 204.8h-153.6v153.6c0 28.262-22.938 51.2-51.2 51.2zM179.2 499.2c-28.262 0-51.2-22.938-51.2-51.2s22.938-51.2 51.2-51.2h716.8c28.262 0 51.2 22.938 51.2 51.2s-22.938 51.2-51.2 51.2h-716.8zM537.6 345.6l-204.8-204.8h153.6v-153.6c0-28.262 22.938-51.2 51.2-51.2s51.2 22.938 51.2 51.2v153.6h153.6l-204.8 204.8z" />
<glyph unicode="&#xe92b;" glyph-name="fm-copy" d="M204.799 960c-113.101 0-204.8-91.694-204.8-204.8v-409.6c0-113.101 91.699-204.8 204.8-204.8l0.513-0.256c11.878-114.125 109.464-204.544 226.714-204.544 16.435 0 147.456 0 182.374 0 181.862 0 409.6 227.738 409.6 409.6 0 34.918 0 157.030 0 182.374 0 117.263-90.368 215.229-204.493 227.113l-0.307 0.113c0 113.106-91.699 204.8-204.8 204.8h-409.601zM204.799 857.6h409.601c56.576 0 102.4-45.844 102.4-102.4h-284.774c-125.237 0-227.227-101.975-227.227-227.226v-284.774c-56.576 0-102.4 45.824-102.4 102.4v409.6c0 56.556 45.824 102.4 102.4 102.4zM432.026 652.8h364.749c68.71 0 124.826-56.131 124.826-124.826 0-18.227 0-81.254 0-131.174-49.51 0-114.79 0-131.174 0-125.235 0-227.226-101.99-227.226-227.226v-131.174c-51.968 0-119.347 0-131.174 0-68.712 0-124.826 56.115-124.826 124.826v364.749c0 68.7 56.114 124.826 124.826 124.826zM790.426 294.4c14.387 0 74.086 0.102 122.010 0.102-31.693-101.222-144.589-212.48-246.477-247.398l-0.358 122.47c0 68.71 56.115 124.826 124.826 124.826z" />
<glyph unicode="&#xe92c;" glyph-name="fm-diamond-exclamation" d="M511.686 960c-53.998 0-107.689-21.209-148.879-62.451l-300.984-300.984c-82.431-82.38-82.431-215.377 0-297.756l300.984-300.986c82.38-82.432 215.377-82.432 297.756 0l300.986 300.986c82.432 82.378 82.432 215.375 0 297.756l-300.986 300.984c-41.188 41.241-94.879 62.451-148.877 62.451zM511.686 857.537c27.767 0 55.637-10.81 76.847-32.020l300.984-300.984c42.368-42.368 42.368-111.274 0-153.694l-300.984-300.983c-42.368-42.368-111.274-42.368-153.694 0l-300.984 300.983c-42.368 42.369-42.368 111.275 0 153.694l300.984 300.984c21.21 21.21 49.080 32.020 76.847 32.020zM511.686 703.843c-28.28 0-51.231-22.952-51.231-51.231v-256.157c0-28.28 22.952-51.231 51.231-51.231s51.231 22.952 51.231 51.231v256.157c0 28.28-22.952 51.231-51.231 51.231zM511.686 293.99c-28.28 0-51.231-22.95-51.231-51.232 0-28.275 22.952-51.226 51.231-51.226s51.231 22.95 51.231 51.226c0 28.282-22.952 51.232-51.231 51.232z" />
<glyph unicode="&#xe92d;" glyph-name="fm-doc" d="M310.374 960c-99.891 0-182.374-75.776-182.374-171.213v-681.574c0-95.437 82.483-171.213 182.374-171.213h454.452c99.891 0 182.374 75.776 182.374 171.213 0 33.331 0 399.258 0 494.387 0 0.512 0 1.075 0 1.587 0 182.426-176.077 356.813-358.401 356.813-215.756 0-216.268 0-278.425 0zM310.374 857.6c50.739 0 108.134 0 227.225 0v-135.987c0-95.437 82.483-171.213 182.376-171.213h124.826c0-129.894 0-413.286 0-443.187 0-36.557-34.509-68.813-79.974-68.813h-454.452c-45.466 0-79.974 32.256-79.974 68.813v681.574c0 36.557 34.508 68.813 79.974 68.813zM639.999 851.2c90.728-24.064 174.9-107.93 198.401-198.4h-118.426c-45.517 0-79.976 32.256-79.976 68.813v129.587zM383.999 652.8c-28.262 0-51.2-22.938-51.2-51.2s22.938-51.2 51.2-51.2h51.2c28.262 0 51.199 22.938 51.199 51.2s-22.938 51.2-51.199 51.2h-51.2zM383.999 448c-28.262 0-51.2-22.938-51.2-51.2s22.938-51.2 51.2-51.2h307.201c28.262 0 51.2 22.938 51.2 51.2s-22.938 51.2-51.2 51.2h-307.201zM383.999 243.2c-28.262 0-51.2-22.938-51.2-51.2s22.938-51.2 51.2-51.2h307.201c28.262 0 51.2 22.938 51.2 51.2s-22.938 51.2-51.2 51.2h-307.201z" />
<glyph unicode="&#xe92e;" glyph-name="fm-doc-alternative" horiz-adv-x="832" d="M182.376 960c-99.892 0-182.376-75.776-182.376-171.213v-681.574c0-95.437 82.484-171.213 182.376-171.213h454.451c99.89 0 182.373 75.776 182.373 171.213 0 33.331 0 399.258 0 494.387 0 0.512 0 1.075 0 1.587 0 182.426-176.077 356.813-358.399 356.813-215.757 0-216.269 0-278.426 0zM182.376 857.6c50.739 0 108.134 0 227.226 0v-135.987c0-95.437 82.484-171.213 182.376-171.213h124.823c0-30.003 0-59.853 0-102.4h-614.4v340.787c0 36.557 34.51 68.813 79.976 68.813zM512.001 844.8c90.727-24.064 170.085-101.53 193.586-192h-113.61c-45.517 0-79.976 32.256-79.976 68.813v123.187zM102.4 345.6h102.401v-102.4h-102.401v102.4zM307.201 345.6h409.599c0-44.339 0-67.021 0-102.4h-409.599v102.4zM102.4 140.8h102.401v-102.4h-22.425c-45.466 0-79.976 32.256-79.976 68.813v33.587zM307.201 140.8h409.599c0-5.171 0-31.334 0-33.587 0-36.557-34.509-68.813-79.973-68.813h-329.626v102.4z" />
<glyph unicode="&#xe92f;" glyph-name="fm-dot" d="M256 448c0 141.312 114.688 256 256 256s256-114.688 256-256c0-141.312-114.688-256-256-256s-256 114.688-256 256z" />
<glyph unicode="&#xe930;" glyph-name="fm-double-check" d="M575.885 661.333c-16.363 0-33.429-5.497-45.956-17.96l-301.597-303.581c-16.425-16.491-32.98-13.419-45.89 5.943l-63.912 95.868c-19.621 29.402-60.525 37.581-89.861 18.022-29.399-19.622-37.579-60.523-18.022-89.86l63.912-95.868c57.713-86.537 170.132-97.527 243.695-24.030l303.583 301.6c24.926 24.989 24.926 66.915 0 91.904-12.527 12.463-29.594 17.96-45.952 17.96zM959.351 661.333c-16.358 0-33.425-5.497-45.952-17.96l-301.598-303.581c-16.427-16.491-32.981-13.419-45.888 5.943l-27.994 41.988-93.824-93.884 13.935-19.942c57.711-86.537 170.133-97.527 243.695-24.030l303.582 301.6c24.922 24.989 24.922 66.915 0 91.904-12.527 12.463-29.594 17.96-45.956 17.96z" />
<glyph unicode="&#xe931;" glyph-name="fm-double-plane" d="M505.288 895.993c-38.749-0.307-78.334-10.7-108.79-31.997l-374.367-259.253c-29.535-20.324-29.483-62.817 0-83.244l124.789-86.418-124.789-86.417c-29.473-20.324-29.432-62.815 0-83.192l374.367-259.251c61.276-41.677 155.828-42.394 217.58-1.638l387.163 259.251c30.323 20.326 30.362 64.609 0 84.831l-127.987 84.83 127.987 86.418c30.234 20.325 30.285 66.144 0 86.417l-388.765 259.254c-30.558 20.785-68.438 30.717-107.188 30.41zM505.288 793.551c18.518 0.154 38.044-3.839 51.196-12.799l323.171-217.631-127.987-86.418-195.183-131.214c-27.072-17.918-76.122-17.867-102.39 0-23.161 16.076-165.187 114.78-188.783 131.214l-124.789 86.418 315.169 216.044c13.219 9.267 31.081 14.232 49.598 14.385zM234.91 374.262h1.603c45.677-31.741 139.937-98.089 159.986-112.015 61.347-41.722 155.839-42.387 217.58-1.587l166.382 112.015 99.194-67.222-323.171-216.045c-27.149-17.914-76.117-17.862-102.39 0l-313.572 217.632 94.389 67.222z" />
<glyph unicode="&#xe932;" glyph-name="fm-download" d="M485.052 960c-29.75 0-53.894-24.129-53.894-53.895v-538.948h-161.684l215.579-215.58 215.581 215.58h-161.686v538.948c0 29.766-24.145 53.9-53.895 53.895zM53.895 313.261c-29.766 0-53.895-24.141-53.895-53.894v-107.789c0-119.053 96.52-215.578 215.579-215.578h538.949c119.053 0 215.578 96.525 215.578 215.578v107.789c0 29.754-24.147 53.894-53.894 53.894-29.754 0-53.894-24.141-53.894-53.894v-107.789c0-59.552-48.237-107.789-107.789-107.789h-538.949c-59.532 0-107.789 48.237-107.789 107.789v107.789c0 29.754-24.129 53.894-53.895 53.894z" />
<glyph unicode="&#xe933;" glyph-name="fm-empty-folder" d="M161.571 934.4c-86.764 0-160.818-69.315-161.572-161.573v-592.433c0-59.997 24.398-114.070 63.983-153.17 19.281-19.012 41.955-34.739 67.322-45.457 26.013-10.932 54.826-16.804 84.125-16.804h484.717c56.767 0 109.87 21.812 149.779 60.59 21.435 20.79 45.994 81.971 89.242 208.698 3.447 10.234 81.379 250.6 82.455 254.154 10.664 34.63-15.941 68.992-52.188 68.992-6.732 0-42.331 0-53.857 0v53.857c0 89.242-72.33 161.572-161.572 161.572h-107.716c-45.509 0-57.789 10.072-89.188 57.197-49.388 74.054-90.966 104.376-180.1 104.376-47.124 0-168.305 0-215.43 0zM161.571 826.685c47.126 0 168.306 0 215.43 0 45.51 0 57.789-10.071 89.189-57.197 49.388-74.054 90.964-104.376 180.099-104.376h107.716c29.729 0 53.857-24.128 53.857-53.857v-53.857c-186.831 0-471.254 0-538.575 0-22.298 0-42.493-14.488-50.519-35.332 0 0-62.367-162.918-111.054-289.484v540.244c0.269 31.076 24.774 53.859 53.857 53.859zM306.34 449.682c104.161 0 590.764 0.215 590.764 0.215l-89.997-269.879c0 0-21.434-59.566-32.151-75.724-13.088-19.712-46.372-31.615-74.81-31.615h-484.717c-17.45 0-33.5 3.662-48.419 11.364 108.415 283.075 138.414 363.323 139.329 365.638z" />
<glyph unicode="&#xe934;" glyph-name="fm-empty-notification" d="M204.8 857.6c-20.48 0-38.349-11.571-46.387-30.413-19.2-44.8-134.4-313.599-153.6-358.399-3.174-7.322-4.813-20.787-4.813-20.787s0-176.536 0-204.799c0-113.101 91.699-204.8 204.8-204.8h614.4c113.101 0 204.8 91.699 204.8 204.8 0 11.52 0 204.799 0 204.799s-1.638 13.466-4.813 20.787l-153.6 358.399c-8.038 18.842-25.907 30.413-46.387 30.413h-614.4zM238.387 755.2h547.226l110.387-255.999h-230.4c-28.262 0-51.2-22.938-51.2-51.2 0-56.576-45.824-102.399-102.4-102.399s-102.4 45.823-102.4 102.399c0 28.262-22.938 51.2-51.2 51.2h-230.4c35.738 83.354 86.016 199.167 110.387 255.999zM102.4 396.801h211.2c23.091-87.807 103.322-153.599 198.4-153.599s173.722 64.204 196.813 152.012l212.787 1.587c0-50.994 0-132.402 0-153.599 0-56.576-45.824-102.4-102.4-102.4h-614.4c-56.576 0-102.4 45.824-102.4 102.4 0 9.574 0 98.97 0 153.599z" />
<glyph unicode="&#xe935;" glyph-name="fm-excel" d="M104.311 875.624l589.199 84.138c3.328 0.477 6.714 0.234 9.939-0.714s6.202-2.576 8.742-4.777c2.541-2.2 4.576-4.921 5.971-7.977s2.112-6.376 2.112-9.735v-977.13c0-3.354-0.717-6.669-2.112-9.722-1.389-3.053-3.424-5.766-5.958-7.968-2.528-2.202-5.504-3.827-8.723-4.781-3.219-0.947-6.598-1.197-9.92-0.73l-589.297 84.141c-11.174 1.587-21.398 7.162-28.795 15.686s-11.469 19.43-11.469 30.714v762.449c0 11.286 4.072 22.194 11.469 30.719s17.668 14.095 28.842 15.686zM157.794 788.533v-681.071l468.736-66.982v815.036l-468.736-66.982zM767.149 119.878h140.621v656.234h-140.621v93.747h187.494c12.435 0 24.358-4.939 33.146-13.729 8.794-8.79 13.728-20.713 13.728-33.144v-749.981c0-12.429-4.934-24.352-13.728-33.139-8.787-8.794-20.71-13.734-33.146-13.734h-187.494v93.747zM448.41 447.997l131.246-187.498h-112.497l-74.998 107.156-74.998-107.156h-112.497l131.246 187.498-131.246 187.494h112.497l74.998-107.153 74.998 107.153h112.497l-131.246-187.494z" />
<glyph unicode="&#xe936;" glyph-name="fm-expand" d="M537.6 960l-204.8-204.8h153.6v-153.6c0-28.262 22.938-51.2 51.2-51.2s51.2 22.938 51.2 51.2v153.6h153.6l-204.8 204.8zM179.2 499.2c-28.262 0-51.2-22.938-51.2-51.2s22.938-51.2 51.2-51.2h716.8c28.262 0 51.2 22.938 51.2 51.2s-22.938 51.2-51.2 51.2h-716.8zM537.6 345.6c-28.262 0-51.2-22.938-51.2-51.2v-153.6h-153.6l204.8-204.8 204.8 204.8h-153.6v153.6c0 28.262-22.938 51.2-51.2 51.2z" />
<glyph unicode="&#xe937;" glyph-name="fm-eye" horiz-adv-x="1260" d="M630.154 960c-186.705 0-344.006-91.743-473.231-242.545-44.231-51.551-82.91-106.635-114.396-161.656-18.992-33.315-30.602-59.058-37.417-74.958-6.815-15.837-6.815-35.398 0-51.236 6.815-15.9 18.425-41.643 37.417-74.958 31.486-55.021 70.164-110.105 114.396-161.656 129.224-150.801 286.525-242.544 473.231-242.544s344.009 91.743 473.23 242.544c44.166 51.551 82.912 106.635 114.334 161.656 19.054 33.315 30.665 59.058 37.478 74.958 6.814 15.838 6.814 35.399 0 51.236-6.814 15.9-18.424 41.643-37.478 74.958-31.421 55.021-70.168 110.105-114.334 161.656-129.221 150.802-286.523 242.545-473.23 242.545zM630.154 833.805c144.556 0 271.195-73.887 378.581-199.135 38.621-45.051 70.861-93.51 98.564-141.969 9.775-17.099 14.005-25.932 19.747-37.479-5.742-11.547-9.972-20.38-19.747-37.479-27.703-48.459-59.943-96.918-98.564-141.969-107.386-125.246-234.025-199.132-378.581-199.132s-271.192 73.886-378.585 199.132c-38.615 45.051-70.858 93.51-98.621 141.969-9.717 17.099-13.944 25.932-19.686 37.479 5.742 11.547 9.969 20.38 19.686 37.479 27.763 48.459 60.006 96.918 98.621 141.969 107.392 125.248 234.029 199.135 378.585 199.135zM630.154 707.612c-139.382 0-252.389-113.007-252.389-252.389s113.007-252.388 252.389-252.388c139.382 0 252.392 113.007 252.392 252.388 0 34.829-28.27 63.097-63.102 63.097-34.828 0-63.096-28.268-63.096-63.097 0-69.723-56.535-126.195-126.195-126.195-69.723 0-126.195 56.472-126.195 126.195s56.472 126.195 126.195 126.195c15.458 0 31.296-2.587 45.366-7.887 32.558-12.304 68.525 4.858 80.828 37.479 12.304 32.558-4.858 68.524-37.479 80.828-28.268 10.663-57.987 15.774-88.715 15.774z" />
<glyph unicode="&#xe938;" glyph-name="fm-eye-slashed" horiz-adv-x="1260" d="M630.154 960c-186.705 0-344.006-91.745-473.231-242.547-44.168-51.551-82.91-106.633-114.333-161.654-19.055-33.252-30.665-59.060-37.479-74.961-6.815-15.837-6.815-35.397 0-51.234 6.815-15.9 18.424-41.645 37.479-74.961 31.422-55.020 70.165-110.103 114.333-161.653 18.993-22.148 39.625-44.171 60.005-63.604l-70.732-70.16c-24.608-24.608-25.933-65.182-1.325-89.789 24.671-24.671 64.296-25.876 88.967-1.26l307.599 309.615 268.167 266.143 307.594 307.599c24.608 24.671 24.608 66.064 0 90.735-12.304 12.304-29.208 17.731-45.363 17.731s-32.933-7.762-45.308-20.066l-79.061-80.133c-94.2 62.719-203.865 100.199-317.314 100.199zM630.154 833.805c78.809 0 156.67-23.851 225.13-64.865l-95.466-96.854c-37.732 21.768-84.739 35.525-129.664 35.525-139.382 0-252.389-113.008-252.389-252.389 0-45.24 14.828-91.113 36.659-128.782l-109.096-106.95c-18.613 17.541-36.785 36.533-53.758 56.283-38.615 45.051-70.858 93.51-98.558 141.968-9.78 17.099-14.007 25.935-19.749 37.482 5.742 11.61 9.969 20.38 19.749 37.479 27.7 48.459 59.943 96.918 98.558 141.969 107.392 125.248 234.029 199.135 378.585 199.135zM1131.024 654.356c-15.904 3.029-32.941 0.002-47.325-9.841-28.837-19.624-35.462-57.987-15.777-86.759 21.394-31.423 39.944-63.667 55.209-92.692 2.402-4.543 1.961-5.993 3.915-9.841-5.742-11.547-9.972-20.382-19.684-37.482-27.766-48.458-60.006-96.917-98.627-141.968-107.386-125.245-234.025-199.13-378.581-199.13-15.648 0-48.838 3.088-80.828 7.885-34.451 5.175-65.81-18.739-70.984-53.256-5.174-34.454 18.74-65.812 53.254-70.987 38.238-5.742 74.519-9.838 98.559-9.838 186.707 0 344.009 91.743 473.23 242.544 44.229 51.551 82.912 106.633 114.397 161.653 18.991 33.315 30.602 59.060 37.415 74.961 6.814 15.837 6.814 35.397 0 51.234-14.509 33.946-41.141 86.76-82.786 147.902-9.838 14.386-25.553 22.65-41.385 25.616zM630.154 581.417c9.717 0 25.301-2.083 34.451-4.229l-155.472-154.65c-5.111 14.008-5.174 23.031-5.174 32.685 0 69.723 56.535 126.195 126.195 126.195z" />
<glyph unicode="&#xe939;" glyph-name="fm-file-pdf" d="M588.13 896c22.538-0.006 44.356-7.941 61.63-22.416l6.24-5.712 211.872-211.872c15.936-15.937 25.76-36.973 27.744-59.424l0.384-8.448v-556.128c0.013-24.218-9.139-47.546-25.606-65.306s-39.040-28.64-63.194-30.458l-7.2-0.237h-575.998c-24.22-0.006-47.547 9.139-65.306 25.606s-28.637 39.040-30.454 63.194l-0.24 7.2v768c-0.008 24.22 9.14 47.547 25.608 65.306s39.041 28.637 63.192 30.454l7.2 0.24h364.128zM512.002 800h-288v-768h575.998v480h-215.998c-17.898 0.001-35.155 6.668-48.404 18.701s-21.542 28.571-23.26 46.387l-0.336 6.912v216zM559.426 423.296c11.503-73.102 49.732-139.334 107.281-185.856 42.573-34.419 3.648-101.805-47.425-82.176-69.052 26.573-145.508 26.573-214.56 0-51.12-19.68-90.048 47.757-47.472 82.176 57.551 46.522 95.781 112.753 107.28 185.856 8.544 54.096 86.4 54.048 94.896 0zM511.906 312.704l-33.024-57.408h66.24l-33.216 57.408zM608.002 780.128v-172.128h172.126l-172.126 172.128z" />
<glyph unicode="&#xe93a;" glyph-name="fm-filter" d="M214.92 960.001c-71.833 0-129.587-57.753-129.587-129.535v-1.588c0-77.926 38.451-139.16 134.399-235.057-6.093 6.093 20.326-18.432 27.187-25.6 11.008-11.366 19.711-23.552 28.825-35.175 41.728-53.35 65.587-112.691 65.587-187.085 0-47.049 0-292.655 0-358.191 0-42.138 47.82-66.867 81.612-41.574 25.598 19.2 179.198 134.349 204.798 153.549 12.902 9.626 20.787 25.446 20.787 41.574 0 6.349 0 102.298 0 204.642 0 74.342 23.91 133.734 65.587 187.085 9.114 11.674 17.818 23.757 28.826 35.175 6.861 7.168 33.331 31.744 27.187 25.6 96 95.948 134.4 157.079 134.4 235.057v1.588c0 71.782-57.754 129.535-129.587 129.535h-560.022zM214.92 857.654h560.022c15.258 0 27.187-11.93 27.187-27.187v-1.588c0-42.803-25.856-84.991-103.987-163.121 7.066 7.066-20.89-18.944-28.826-27.187-13.261-13.773-25.344-26.88-36.762-41.574-54.989-70.298-86.426-152.115-86.426-251.034 0-89.545 0-155.029 0-179.093-24.576-18.432-58.931-44.186-102.4-76.749 0 98.253 0 222.208 0 255.842 0 98.97-31.435 180.736-86.423 251.034-11.418 14.643-23.501 27.801-36.761 41.574-7.936 8.243-35.839 34.202-28.825 27.187-78.13 78.080-103.987 120.37-103.987 163.121v1.588c0 15.257 11.93 27.187 27.188 27.187z" />
<glyph unicode="&#xe93b;" glyph-name="fm-fire" horiz-adv-x="768" d="M307.2 900.2l32 42.6c8 10.8 20.8 17.2 34.2 17.2 23.4 0 42.6-19.2 42.6-42.6v-44.4c0-26.2 10.8-51.4 29.8-69.4l169.4-161.6c97.6-93.2 152.8-222.4 152.8-357.398 0-192.602-156-348.602-348.6-348.602h-35.4c-212 0-384 172-384 384v7.6c0 97.6 38.8 191.2 107.8 260.2l7 7c8.4 8.4 20 13.2 32 13.2 25 0 45.2-20.2 45.2-45.2v-178.8c0-70.598 57.4-128 128-128s128 57.402 128 128v7.8c0 36-14.4 70.6-39.8 96l-77.2 77.2c-48 48-75 113.4-75 181.4 0 55.4 18 109.6 51.2 153.8z" />
<glyph unicode="&#xe93c;" glyph-name="fm-forward-fast" horiz-adv-x="1170" d="M1111.771 935.613c32.3 0 58.514-26.213 58.514-58.511v-819.151c0-32.3-26.214-58.514-58.514-58.514-32.293 0-58.507 26.214-58.507 58.514v303.553l-318.12-318.182c0 0-8.78-10.24-16.504-16.443-20.010-16.267-46.282-27.268-74.952-27.443-63.601-0.41-116.554 51.785-117.022 117.029-0.059 6.663 0 135.741 0 245.039l-318.152-318.182c0 0-8.771-10.24-16.453-16.443-20.017-16.267-46.3-27.268-74.971-27.443-63.607-0.41-116.542 51.785-117.021 117.029-0.14 19.068-0.029 686.386 0 702.126-0.72 64.304 51.665 116.436 117.021 117.022 25.089 0.234 47.131-7.372 65.825-20.127 8.466-5.734 15.014-10.883 20.116-16.442l323.634-325.438c0 108.947 0 239.485 0 244.985-0.702 64.304 51.665 116.436 117.022 117.022 25.101 0.234 47.16-7.372 65.824-20.127 8.485-5.734 15.037-10.883 20.128-16.442l323.623-325.438v303.496c0 32.298 26.214 58.511 58.507 58.511zM643.689 818.591v-702.126l351.062 351.062-351.062 351.065zM117.091 818.591v-702.126l351.065 351.062-351.065 351.065z" />
<glyph unicode="&#xe93d;" glyph-name="fm-frame" d="M227.556 960c-125.668 0-227.556-101.888-227.556-227.556v-170.667c0-31.403 25.486-56.888 56.889-56.888s56.889 25.486 56.889 56.888v170.667c0 62.863 50.916 113.778 113.778 113.778h170.667c31.403 0 56.888 25.486 56.888 56.889s-25.486 56.889-56.888 56.889h-170.667zM625.777 960c-31.403 0-56.888-25.486-56.888-56.889s25.486-56.889 56.888-56.889h170.667c62.863 0 113.781-50.916 113.781-113.778v-170.667c0-31.403 25.481-56.888 56.883-56.888s56.892 25.486 56.892 56.888v170.667c0 125.668-101.888 227.556-227.556 227.556h-170.667zM56.889 391.111c-31.403 0-56.889-25.486-56.889-56.888v-170.667c0-125.668 101.888-227.556 227.556-227.556h170.667c31.403 0 56.888 25.489 56.888 56.892s-25.486 56.883-56.888 56.883h-170.667c-62.863 0-113.778 50.918-113.778 113.781v170.667c0 31.403-25.486 56.888-56.889 56.888zM967.108 391.111c-31.403 0-56.883-25.486-56.883-56.888v-170.667c0-62.863-50.918-113.781-113.781-113.781h-170.667c-31.403 0-56.888-25.481-56.888-56.883s25.486-56.892 56.888-56.892h170.667c125.668 0 227.556 101.888 227.556 227.556v170.667c0 31.403-25.489 56.888-56.892 56.888z" />
<glyph unicode="&#xe93e;" glyph-name="fm-geo-pin" d="M537.6 960c-141.384 0-256-114.637-256-256 0-47.923 22.636-106.854 64-177.613 13.778-23.552 30.899-46.797 48-71.987 23.060-33.997 47.386-69.018 72.013-100.813 5.632-7.219 13.21-17.306 20.787-27.187v-134.4c0-28.262 22.938-51.2 51.2-51.2s51.2 22.938 51.2 51.2v134.4c7.578 9.882 15.155 19.968 20.787 27.187 24.627 31.744 48.947 66.816 71.987 100.813 17.101 25.19 34.253 48.435 48.026 71.987 41.37 70.758 64 129.69 64 177.613 0 141.363-114.637 256-256 256zM537.6 857.6c84.838 0 153.6-68.762 153.6-153.6 0-24.371-18.483-68.863-51.2-124.825-12.544-21.402-25.702-45.364-41.574-68.762-19.149-28.211-40.243-54.733-60.826-81.613-20.582 26.88-41.626 53.402-60.826 81.613-15.872 23.398-29.030 47.361-41.574 68.762-32.707 55.962-51.2 100.454-51.2 124.825 0 84.838 68.762 153.6 153.6 153.6zM537.6 755.2c-28.262 0-51.2-22.938-51.2-51.2s22.938-51.2 51.2-51.2c28.262 0 51.2 22.938 51.2 51.2s-22.938 51.2-51.2 51.2zM315.197 361.575c-113.444-39.68-187.197-109.108-187.197-195.175 0-136.909 187.013-230.4 409.6-230.4 222.566 0 409.6 93.491 409.6 230.4 0 86.272-75.008 155.546-188.826 195.175-26.675 9.318-54.682-5.275-64-31.95-9.267-26.726 3.738-54.732 30.413-63.999 77.363-26.982 120.013-66.765 120.013-99.226 0-61.030-133.888-128-307.2-128-173.292 0-307.2 66.97-307.2 128 0 32.358 41.37 72.243 118.4 99.226 26.691 9.318 41.339 37.274 32 63.999-9.339 26.675-38.912 41.32-65.603 31.95z" />
<glyph unicode="&#xe93f;" glyph-name="fm-hand-stop" d="M358.4 960c-67.482 0-124.626-42.342-145.249-102.81-5.274-0.256-1.654 0.41-8.351 0.41-113.106 0-204.8-91.699-204.8-204.8v-256c0-294.707 182.676-460.8 409.6-460.8 156.17 0 275.776 50.278 369.888 144.384 69.274 69.274 109.203 135.373 188.512 293.991 3.558 7.117 4.8 14.489 4.8 22.425 0 89.242-70.323 153.6-153.6 153.6-38.176 0-71.2-10.65-101.901-28.519l-0.499 182.119c0 113.101-91.694 204.8-204.8 204.8l-38.374-0.769c-28.093 30.822-70.236 51.969-115.226 51.969zM358.4 857.6c28.278 0 51.2-22.938 51.2-51.2v-256c0-28.262 22.922-51.2 51.2-51.2s51.2 22.938 51.2 51.2v256c56.556 0 102.4-45.824 102.4-102.4v-307.2c-0.159-33.075 28.595-51.2 51.2-51.2s38.099 13.517 46.4 28.775c4.422 8.141 14.003 23.654 28.787 38.4 23.13 23.142 48.691 35.225 78.413 35.225 25.536 0 46.477-16.077 50.675-41.267-134.221-273.562-243.372-368.794-460.275-368.333-166.758 0.358-307.2 122.522-307.2 358.4v256c0 56.576 45.844 102.4 102.4 102.4v-204.8c0-28.262 22.922-51.2 51.2-51.2s51.2 22.938 51.2 51.2v256c0 28.262 22.922 51.2 51.2 51.2z" />
<glyph unicode="&#xe940;" glyph-name="fm-hourglass-end" d="M334.396 960c-118.313 0-205.932-79.565-206.403-204.8-0.123-33.28 9.953-67.841 28.8-105.575 14.756-29.594 34.191-60.057 57.6-91.238 17.797-23.654 37.038-46.182 56.003-67.174 5.048-5.632 7.199-8.55 11.197-12.8v-60.826c-4.004-4.25-6.149-7.168-11.197-12.8-18.964-20.992-38.205-43.52-56.003-67.174-23.409-31.181-42.844-61.645-57.6-91.238-18.842-37.734-28.923-72.294-28.8-105.574 0.471-125.235 88.090-204.8 206.403-204.8h409.585c118.17 0 203.674 79.309 203.213 204.8-0.102 33.126-9.933 67.942-28.774 105.574-14.746 29.389-34.406 60.211-57.6 91.238-17.818 23.757-37.069 46.080-56.013 67.174-5.069 5.632-7.219 8.55-11.213 12.8v60.826c3.994 4.25 6.144 7.168 11.213 12.8 18.944 21.094 38.195 43.418 56.013 67.174 23.194 31.027 42.854 61.849 57.6 91.238 18.842 37.632 28.672 72.449 28.774 105.575 0.461 125.491-85.043 204.8-203.213 204.8h-409.585zM334.396 857.6h409.585c63.181 0 101.069-35.43 100.813-102.4-0.051-14.848-6.81-36.044-19.2-60.825-11.674-23.296-28.16-48.692-47.974-75.162-15.821-21.146-32.563-41.83-49.613-60.826-10.189-11.315-18.227-18.176-22.426-22.374-9.574-9.626-14.387-23.245-14.387-36.813v-102.4c0-13.568 4.813-27.187 14.387-36.813 4.198-4.198 12.237-11.059 22.426-22.374 17.050-18.995 33.792-39.68 49.613-60.826 19.814-26.47 36.301-51.866 47.974-75.162 12.39-24.781 19.149-45.978 19.2-60.826 0.256-66.97-37.632-102.4-100.813-102.4h-409.585c-63.949 0-103.752 35.84-104.003 102.4-0.056 14.746 6.886 36.147 19.2 60.826 11.674 23.347 28.032 48.589 48 75.162 15.805 21.043 32.563 41.933 49.603 60.826 10.158 11.264 18.202 18.227 22.4 22.374 9.626 9.626 14.397 23.194 14.397 36.813v102.4c0 13.619-4.767 27.187-14.397 36.813-4.198 4.147-12.242 11.11-22.4 22.374-17.039 18.893-33.797 39.782-49.603 60.826-19.968 26.573-36.332 51.815-48 75.162-12.314 24.678-19.251 46.079-19.2 60.825 0.251 66.56 40.059 102.4 104.003 102.4zM537.594 345.6c-51.2 0-153.6-102.4-204.8-204.8h409.6c-51.2 102.4-153.6 204.8-204.8 204.8z" />
<glyph unicode="&#xe941;" glyph-name="fm-house" d="M508.764 959.984c-52.015 0.614-102.926-16.572-139.066-52.732l-354.825-362.78c-15.262-15.599-19.349-38.051-9.59-57.589l46.348-92.677-1.596-292.504c-0.005-57.843 46.349-103.878 103.888-103.878h214.174c51.008 0 92.692 41.683 92.692 92.678v220.589c0 24.757 19.998 44.755 44.753 44.755h12.787c24.755 0 44.753-19.998 44.753-44.755v-220.589c0-50.995 41.684-92.678 92.728-92.678h214.15c57.536 0 103.878 46.336 103.878 103.878l-1.587 292.504 46.336 92.677c9.875 19.692 5.984 43.576-9.562 59.175-13.299 13.298-326.054 326.056-358.022 358.022-37.082 37.081-90.273 55.341-142.238 55.903zM508.764 857.692c25.727-0.511 51.402-9.871 68.689-27.159 29.716-29.665 283.142-283.093 332.448-332.449l-35.136-68.69c-3.578-7.212-4.858-14.371-4.806-22.401l1.581-305.29c0-0.717-0.506-1.587-1.581-1.587h-204.589v210.976c0 81.274-65.771 147.048-147.042 147.048h-12.787c-81.271 0-147.034-65.774-147.034-147.048v-210.976h-204.584c-1.043 0-1.596 0.563-1.596 1.587l1.596 305.29c0.051 8.030-1.197 15.19-4.792 22.401l-35.163 70.276 327.642 335.671c15.804 15.804 41.377 22.914 67.155 22.351z" />
<glyph unicode="&#xe942;" glyph-name="fm-image" d="M227.555 960c-125.667 0-227.555-101.888-227.555-227.555v-568.89c0-125.666 101.888-227.554 227.555-227.554h568.89c125.666 0 227.554 101.888 227.554 227.554v568.89c0 125.667-101.888 227.555-227.554 227.555h-568.89zM227.555 846.222h568.89c62.861 0 113.775-50.915 113.775-113.777l0.23-352.481c-44.262 41.071-89.374 66.786-138.923 68.036-1.766 0.055-1.707 0-3.529 0-64.683 0-136.589-49.719-184.887-112.013-12.348 27.874-24.806 55.407-39.142 81.805-67.127 123.96-140.457 200.704-231.081 200.875-77.027 0.171-143.132-62.805-199.566-149.047l0.455 262.825c0 62.862 50.915 113.777 113.777 113.777zM739.554 732.445c-31.403 0-56.887-25.487-56.887-56.889s25.485-56.889 56.887-56.889c31.403 0 56.892 25.486 56.892 56.889s-25.489 56.889-56.892 56.889zM312.889 504.887c33.109-0.055 83.4-51.597 131.527-140.459 19.115-35.157 36.237-73.899 51.597-112.013 9.216-22.754 16.329-40.162 19.516-49.719 15.531-46.481 78.562-53.077 103.138-10.697 2.445 4.211 6.882 12.288 14.221 23.095 12.288 18.206 26.283 36.638 40.905 53.363 36.523 41.869 71.735 65.762 94.208 65.762 22.699-0.567 57.741-24.405 94.208-65.762 14.793-16.781 28.446-35.157 40.905-53.363 3.925-5.687 4.493-8.363 7.108-12.399v-39.142c0-62.861-50.914-113.775-113.775-113.775h-568.89c-62.862 0-113.777 50.914-113.777 113.775v48.017c3.584 10.125 8.363 22.127 15.986 40.845 15.531 38.114 32.369 76.8 51.597 112.013 48.526 89.033 98.476 140.518 131.528 140.459z" />
<glyph unicode="&#xe943;" glyph-name="fm-image-frame" d="M227.555 960c-125.673 0-227.555-101.888-227.555-227.555v-341.332c0 0 0-196.156 0-227.558 0-125.666 101.882-227.554 227.555-227.554h568.89c125.666 0 227.554 101.888 227.554 227.554 0 15.189 0 227.558 0 227.558v341.332c0 125.667-101.888 227.555-227.554 227.555-71.113 0-497.779 0-568.89 0zM227.555 846.222c71.111 0 497.778 0 568.89 0 62.861 0 113.775-50.915 113.775-113.777v-284.445h-227.554c-31.403 0-56.887-25.485-56.887-56.887 0-62.865-50.918-113.779-113.779-113.779s-113.778 50.914-113.778 113.779c0 31.403-25.469 56.887-56.889 56.887h-227.555v284.445c0 62.862 50.938 113.777 113.777 113.777zM113.778 334.221h179.552c25.663-97.562 113.027-170.667 218.67-170.667s194.786 73.105 220.446 170.667h177.775c0-56.661 0-147.115 0-170.667 0-62.861-50.914-113.775-113.775-113.775h-568.89c-62.839 0-113.777 50.914-113.777 113.775 0 6.315 0 108.659 0 170.667z" />
<glyph unicode="&#xe944;" glyph-name="fm-image-plus" d="M884.361 337.455v-139.637h139.639v-93.088h-139.639v-139.639h-93.088v139.639h-139.637v93.088h139.637v139.637h93.088zM884.736 896c25.506 0 46.174-20.713 46.174-46.22v-419.234h-93.092v372.363h-744.727v-651.59l465.454 465.408 139.637-139.636v-131.677l-139.637 139.636-333.87-333.777h333.87v-93.093h-512.372c-12.25 0.017-23.994 4.89-32.652 13.559-8.658 8.661-13.521 20.412-13.521 32.666v745.375c0.085 12.224 4.976 23.924 13.615 32.572s20.334 13.55 32.558 13.648h838.563zM279.273 709.818c24.689 0 48.367-9.807 65.825-27.266s27.266-41.136 27.266-65.825c0-24.689-9.808-48.367-27.266-65.825s-41.137-27.266-65.825-27.266c-24.689 0-48.368 9.808-65.825 27.266s-27.266 41.137-27.266 65.825c0 24.689 9.807 48.368 27.266 65.825s41.136 27.266 65.825 27.266z" />
<glyph unicode="&#xe945;" glyph-name="fm-images" d="M398.223 960c-94.26 0-170.667-76.402-170.667-170.667v-56.889h-56.889c-94.259 0-170.667-76.402-170.667-170.667v-455.111c0-94.263 76.407-170.667 170.667-170.667h455.113c94.259 0 170.667 76.403 170.667 170.667v56.887h56.887c94.276 0 170.667 76.403 170.667 170.667v455.113c0 94.265-76.407 170.667-170.667 170.667h-455.111zM398.223 846.222h455.111c31.42 0 56.887-25.486 56.887-56.889v-455.113c0-31.403-25.468-56.887-56.887-56.887h-56.887v284.445c0 94.265-76.407 170.667-170.667 170.667h-284.446v56.889c0 31.232 25.469 56.889 56.889 56.889zM170.667 618.667h455.113c31.42 0 56.887-25.486 56.887-56.889v-257.765c-25.681 16.614-52.855 27.648-81.779 28.446-1.715 0-1.826 0-3.554 0-50.991 0-95.714-27.251-138.667-72.875-0.683-0.738-1.105-1.079-1.779-1.822-7.3 9.446-13.449 19.401-21.333 28.446-56.549 64.853-114.894 104.845-179.554 104.905-50.978-0.060-96.916-30.609-142.222-72.875v243.54c0 31.403 25.469 56.889 56.889 56.889zM512 504.887c-31.42 0-56.887-25.485-56.887-56.887s25.468-56.887 56.887-56.887c31.42 0 56.887 25.485 56.887 56.887s-25.468 56.887-56.887 56.887zM256 277.333c22.391 0 57.498-23.667 94.22-65.762 14.689-16.841 28.49-35.046 40.892-53.363 7.378-10.867 11.736-18.829 14.222-23.095 21.525-37.035 75.076-38.118 97.779-1.766 1.515 2.389 5.734 7.454 10.662 14.225 8.35 11.435 16.823 23.266 26.671 33.732 23.317 24.806 45.658 37.376 56.887 37.376 11.635-0.341 33.523-12.8 56.887-37.376 9.997-10.466 18.172-22.298 26.671-33.732 0.7-0.969 1.131-0.913 1.775-1.766v-39.138c0-31.403-25.468-56.887-56.887-56.887h-455.113c-31.42 0-56.889 25.485-56.889 56.887v39.138c2.588 4.041 3.214 6.656 7.111 12.403 12.407 18.377 26.192 36.467 40.892 53.363 36.727 42.21 71.834 65.762 94.22 65.762z" />
<glyph unicode="&#xe946;" glyph-name="fm-information-circle" d="M512 960c-282.778 0-512-229.222-512-512s229.222-512 512-512c282.778 0 512 229.222 512 512s-229.222 512-512 512zM512 857.6c226.202 0 409.6-183.398 409.6-409.6s-183.398-409.6-409.6-409.6c-226.202 0-409.6 183.398-409.6 409.6s183.398 409.6 409.6 409.6zM512 704c-28.262 0-51.2-22.938-51.2-51.2s22.938-51.2 51.2-51.2c28.262 0 51.2 22.938 51.2 51.2s-22.938 51.2-51.2 51.2zM460.8 550.4c-28.262 0-51.2-22.938-51.2-51.2 0-24.678 18.381-43.11 41.574-48.026l-30.362-147.149c-11.878-59.443 30.618-112.026 91.188-112.026h51.2c28.262 0 51.2 22.938 51.2 51.2s-22.938 51.2-51.2 51.2h-39.987l38.4 195.174c6.349 31.693-17.306 60.826-49.613 60.826-6.451 0-42.906 0-51.2 0z" />
<glyph unicode="&#xe947;" glyph-name="fm-line" d="M64.001 960c-35.348 0-64-28.672-64-64s28.653-64 64-64h214.003l368.012-857.984c10.048-23.552 32.384-38.016 57.984-38.016h256c35.328 0 64 28.672 64 64s-28.672 64-64 64h-214.016l-367.98 857.984c-10.086 23.552-32.397 38.016-58.003 38.016h-256z" />
<glyph unicode="&#xe948;" glyph-name="fm-link" d="M738.863 959.93c-65.946-1.69-129.587-32.153-185.344-87.961l-78.285-78.336c-19.968-19.968-19.968-51.968 0-71.936s53.555-19.968 73.523 0l76.646 78.336c74.189 74.24 156.467 81.664 238.029 0 81.613-81.612 74.189-163.942 0-238.182l-154.931-155.086c-74.189-74.24-156.467-81.609-238.029 0l-22.374 22.374c-48.177 48.23-120.113-23.706-71.882-71.936l22.374-22.37c124.721-124.826 270.283-111.565 381.796 0l154.931 155.081c111.514 111.565 124.774 257.229 0 382.054-62.362 62.413-130.56 89.599-196.454 87.961zM419.326 649.763c-61.491-3.994-121.344-33.485-175.718-87.91l-154.931-155.086c-124.774-124.821-111.513-270.485 0-382.050 111.462-111.565 257.074-124.826 381.795 0l78.285 78.336c19.968 19.968 19.968 51.968 0 71.936s-53.555 19.968-73.523 0l-76.644-78.336c-81.612-81.664-163.839-74.24-238.028 0s-81.612 156.518 0 238.182l154.931 155.081c37.632 37.632 74.803 55.245 110.233 57.549 42.852 2.816 87.806-17.511 127.793-57.549l22.374-22.374c19.968-19.968 51.917-19.968 71.885 0s19.968 51.968 0 71.936l-22.374 22.375c-59.238 59.289-130.611 92.877-206.078 87.91z" />
<glyph unicode="&#xe949;" glyph-name="fm-list" d="M227.556 960c-125.668 0-227.556-101.888-227.556-227.556v-568.886c0-125.67 101.888-227.558 227.556-227.558h568.886c125.67 0 227.558 101.888 227.558 227.558v568.886c0 125.668-101.888 227.556-227.558 227.556h-568.886zM227.556 846.222h568.886c62.867 0 113.779-50.915 113.779-113.778v-568.886c0-62.867-50.912-113.779-113.779-113.779h-568.886c-62.863 0-113.778 50.912-113.778 113.779v568.886c0 62.863 50.915 113.778 113.778 113.778zM284.444 732.444c-31.402 0-56.888-25.486-56.888-56.888s25.486-56.889 56.888-56.889c31.403 0 56.889 25.486 56.889 56.889s-25.486 56.888-56.889 56.888zM455.111 732.444c-31.403 0-56.889-25.486-56.889-56.888s25.486-56.889 56.889-56.889h284.447c31.398 0 56.883 25.486 56.883 56.889s-25.485 56.888-56.883 56.888h-284.447zM284.444 504.889c-31.402 0-56.888-25.486-56.888-56.889s25.486-56.889 56.888-56.889c31.403 0 56.889 25.486 56.889 56.889s-25.486 56.889-56.889 56.889zM455.111 504.889c-31.403 0-56.889-25.486-56.889-56.889s25.486-56.889 56.889-56.889h284.447c31.398 0 56.883 25.486 56.883 56.889s-25.485 56.889-56.883 56.889h-284.447zM284.444 277.331c-31.402 0-56.888-25.485-56.888-56.89 0-31.398 25.486-56.883 56.888-56.883s56.889 25.485 56.889 56.883c0 31.405-25.486 56.89-56.889 56.89zM455.111 277.331c-31.403 0-56.889-25.485-56.889-56.89 0-31.398 25.486-56.883 56.889-56.883h284.447c31.398 0 56.883 25.485 56.883 56.883 0 31.405-25.485 56.89-56.883 56.89h-284.447z" />
<glyph unicode="&#xe94a;" glyph-name="fm-lock" d="M537.6 960c-141.363 0-256-114.637-256-256v-102.4c-84.838 0-153.6-68.762-153.6-153.6v-358.4c0-84.838 68.762-153.6 153.6-153.6h512c84.838 0 153.6 68.762 153.6 153.6v358.4c0 84.838-68.762 153.6-153.6 153.6v102.4c0 141.363-114.637 256-256 256zM537.6 857.6c84.838 0 153.6-68.762 153.6-153.6v-102.4h-307.2v102.4c0 84.838 68.762 153.6 153.6 153.6zM281.6 499.2h512c28.262 0 51.2-22.938 51.2-51.2v-358.4c0-28.262-22.938-51.2-51.2-51.2h-512c-28.262 0-51.2 22.938-51.2 51.2v358.4c0 28.262 22.938 51.2 51.2 51.2zM537.6 448c-84.838 0-153.6-68.762-153.6-153.6v-51.2c0-84.838 68.762-153.6 153.6-153.6s153.6 68.762 153.6 153.6v51.2c0 84.838-68.762 153.6-153.6 153.6zM537.6 345.6c28.262 0 51.2-22.938 51.2-51.2v-51.2c0-28.262-22.938-51.2-51.2-51.2s-51.2 22.938-51.2 51.2v51.2c0 28.262 22.938 51.2 51.2 51.2z" />
<glyph unicode="&#xe94b;" glyph-name="fm-lock-shield" d="M518.516 955.852c-2.765-1.178-355.384-148.883-355.281-148.832 0.461 0.205 0.82-0.717 3.176 0 1.997 0.563 2.202 0.717 7.99 1.588 0.922 0.102 2.509-0.051 3.226 0-25.096-0.666-49.628-17.772-49.628-51.215 0-231.135 7.836-325.167 48.040-440.093 52.751-151.034 157.59-272.57 336.075-374.541 15.724-9.011 35.441-9.011 51.215 0 178.385 101.92 283.326 222.125 336.075 372.902 40.154 114.721 48.038 210.135 48.038 440.143 0 20.435-11.622 38.309-30.419 46.401l-356.87 153.646c-12.906 5.531-28.731 5.531-41.638 0zM537.722 653.373c56.593 0 102.431-45.838 102.431-102.431 0-36.363-22.689-61.869-51.216-79.999v-124.863c0-28.27-22.944-51.214-51.215-51.214s-51.215 22.944-51.215 51.214v124.863c-28.527 18.181-51.215 43.636-51.215 79.999 0 56.593 45.837 102.431 102.43 102.431z" />
<glyph unicode="&#xe94c;" glyph-name="fm-magnify-glass" d="M465.455 820.364c86.412 0 169.285-34.327 230.385-95.43 61.107-61.103 95.43-143.976 95.43-230.388 0-85.75-33.798-168.015-94.029-228.977-0.397-0.384-0.794-0.768-1.19-1.165-0.442-0.442-0.883-0.89-1.312-1.344-60.994-60.416-143.391-94.33-229.284-94.33-86.413 0-169.286 34.323-230.388 95.43-61.103 61.1-95.43 143.973-95.43 230.385s34.327 169.286 95.43 230.388c61.103 61.103 143.976 95.43 230.388 95.43zM840.352 218.675c58.47 79.456 90.56 176.010 90.56 275.87 0 123.446-49.043 241.837-136.333 329.126s-205.678 136.328-329.124 136.328c-123.446 0-241.837-49.039-329.126-136.328s-136.328-205.68-136.328-329.126c0-123.446 49.039-241.835 136.328-329.124s205.68-136.333 329.126-136.333c100 0 196.683 32.186 276.203 90.81l163.11-163.405c27.245-27.29 71.45-27.328 98.739-0.090 27.29 27.245 27.328 71.45 0.090 98.739l-163.245 163.533z" />
<glyph unicode="&#xe94d;" glyph-name="fm-mail" d="M204.8 832c-113.101 0-204.8-91.699-204.8-204.799v-409.601c0-113.101 91.699-204.8 204.8-204.8h614.4c113.101 0 204.8 91.699 204.8 204.8v409.601c0 113.1-91.699 204.799-204.8 204.799h-614.4zM204.8 729.6h614.4c51.61 0 94.259-37.888 101.325-87.552-49.050-45.722-121.958-101.836-170.138-136.447-110.848-79.615-208.384-134.399-238.387-134.399s-127.539 54.733-238.387 134.399c-48.179 34.611-95.539 72.038-131.226 102.4-15.206 12.954-26.47 23.398-35.174 32 7.066 49.664 45.978 89.599 97.587 89.599zM102.913 506.676c129.946-105.114 320.358-237.261 409.087-237.876 57.805-0.41 156.672 54.785 257.536 124.468 52.173 36.096 110.234 78.95 152.115 114.125l-0.051-289.793c0-56.576-45.824-102.4-102.4-102.4h-614.4c-56.576 0-102.4 45.824-102.4 102.4l0.513 289.076z" />
<glyph unicode="&#xe94e;" glyph-name="fm-map-marker" horiz-adv-x="829" d="M438.75 959.309c-215.445 0-390.095-174.665-390.095-390.095 0-169.059 109.607-361.42 257.521-521.164 4.779-5.12 8.645-9.118 13.717-13.702 41.838-37.498 85.241-50.761 118.857-50.274 0.424 0 1.18 0 1.521 0 34.987 0 84.324 15.75 131.052 62.464 141.897 141.897 257.521 351.13 257.521 522.676 0 215.43-174.651 390.095-390.095 390.095zM438.75 861.785c161.582 0 292.571-130.974 292.571-292.571 0-140.729-104.726-327.194-230.098-452.561-26.414-26.429-50.039-35.055-62.474-35.055-1.034 0-1.77 0-1.521 0-11.088-0.146-30.442 5.218-51.814 24.381-2.828 2.536-6.407 6.188-9.138 9.162-132.671 143.214-230.098 315.928-230.098 454.073 0 161.597 130.989 292.571 292.571 292.571zM438.75 715.5c-80.794 0-146.286-65.487-146.286-146.286s65.492-146.288 146.286-146.288c80.794 0 146.286 65.489 146.286 146.288s-65.492 146.286-146.286 146.286zM438.75 617.976c26.931 0 48.762-21.845 48.762-48.762s-21.831-48.762-48.762-48.762c-26.931 0-48.762 21.845-48.762 48.762s21.831 48.762 48.762 48.762z" />
<glyph unicode="&#xe94f;" glyph-name="fm-minus-circle" d="M512 960c-282.778 0-512-229.222-512-512s229.222-512 512-512c282.778 0 512 229.222 512 512s-229.222 512-512 512zM512 857.6c226.202 0 409.6-183.398 409.6-409.6s-183.398-409.6-409.6-409.6c-226.202 0-409.6 183.398-409.6 409.6s183.398 409.6 409.6 409.6zM307.2 499.2c-28.262 0-51.2-22.938-51.2-51.2s22.938-51.2 51.2-51.2h409.6c28.262 0 51.2 22.938 51.2 51.2s-22.938 51.2-51.2 51.2h-409.6z" />
<glyph unicode="&#xe950;" glyph-name="fm-move" horiz-adv-x="1075" d="M537.6 960l-204.799-204.8h153.6v-153.6c0-28.262 22.938-51.2 51.199-51.2s51.2 22.938 51.2 51.2v153.6h153.6l-204.8 204.8zM230.401 652.8l-204.8-204.8 204.8-204.8v153.6h153.6c28.262 0 51.2 22.938 51.2 51.2s-22.938 51.2-51.2 51.2h-153.6v153.6zM844.8 652.8v-153.6h-153.6c-28.262 0-51.2-22.938-51.2-51.2s22.938-51.2 51.2-51.2h153.6v-153.6l204.8 204.8-204.8 204.8zM537.6 345.6c-28.262 0-51.199-22.938-51.199-51.2v-153.6h-153.6l204.799-204.8 204.8 204.8h-153.6v153.6c0 28.262-22.938 51.2-51.2 51.2z" />
<glyph unicode="&#xe951;" glyph-name="fm-paper-plane" d="M945.623 905.925c-18.586 4.557-39.711 3.839-65.597-3.175-149.98-40.654-746.16-234.398-795.221-256.108-53.47-23.655-84.323-65.333-84.8-120.015-0.635-73.115 58.297-130.513 128.003-128.055 2.243 0.051 88.49-1.126 137.603-1.638 0 0 43.838-219.192 44.898-221.804 12.795-31.437 42.809-40.806 68.702-29.491l145.604 64.051c16.481-16.23 127.304-123.29 139.203-132.864 35.461-28.467 66.104-37.432 104.003-38.405 61.020-1.587 114.319 34.309 142.403 92.831 17.628 36.71 99.789 550.821 107.203 601.818 11.776 80.949 9.114 112.745-24.003 145.668-13.307 13.21-29.409 22.682-48 27.188zM921.62 806.646c0 0 2.488-9.062-4.797-59.137-26.066-179.307-87.839-546.165-100.797-576.219-8.852-20.582-26.598-30.976-46.408-30.413-17.434 0.461-26.112 3.533-41.6 15.974-7.967 6.4-43.812 40.448-94.397 89.651-0.635 0.614-100.9 98.463-100.9 98.463-9.774 9.728-18.959 15.514-38.204 15.718-11.193 0-25.964-8.499-25.964-8.499l-76.997-65.183-26.742 130.77 321.605 137.629c25.979 11.162 38.374 41.269 27.203 67.228-11.167 26.011-41.221 38.4-67.2 27.238l-348.809-150.48c-19.861 0.102-167.858 1.793-172.804 1.588-11.392-0.358-22.529 10.804-22.401 25.652 0.102 11.878 5.341 18.943 23.998 27.187 43.245 19.149 632.225 210.182 777.597 249.556 13.711 3.738 17.618 3.276 17.618 3.276z" />
<glyph unicode="&#xe952;" glyph-name="fm-pause" d="M409.6 652.8c-28.288 0-51.2-22.912-51.2-51.2v-307.2c0-28.288 22.912-51.2 51.2-51.2s51.2 22.912 51.2 51.2v307.2c0 28.288-22.912 51.2-51.2 51.2zM614.4 652.8c-28.288 0-51.2-22.912-51.2-51.2v-307.2c0-28.288 22.912-51.2 51.2-51.2s51.2 22.912 51.2 51.2v307.2c0 28.288-22.912 51.2-51.2 51.2z" />
<glyph unicode="&#xe953;" glyph-name="fm-pause-circle" d="M512 960c-282.778 0-512-229.223-512-512s229.222-511.999 512-511.999c282.778 0 512 229.222 512 511.999s-229.222 512-512 512zM512 857.599c226.202 0 409.6-183.398 409.6-409.6s-183.398-409.599-409.6-409.599c-226.202 0-409.6 183.398-409.6 409.599s183.398 409.6 409.6 409.6zM409.6 652.799c-28.262 0-51.2-22.938-51.2-51.2v-307.199c0-28.262 22.938-51.2 51.2-51.2s51.2 22.938 51.2 51.2v307.199c0 28.262-22.938 51.2-51.2 51.2zM614.4 652.799c-28.262 0-51.2-22.938-51.2-51.2v-307.199c0-28.262 22.938-51.2 51.2-51.2s51.2 22.938 51.2 51.2v307.199c0 28.262-22.938 51.2-51.2 51.2z" />
<glyph unicode="&#xe954;" glyph-name="fm-pencil" horiz-adv-x="975" d="M731.209 913.524c-12.922 0-25.893-4.584-35.060-13.702-27.112-27.112-124.684-124.685-146.334-146.384l-487.914-487.865c-6.778-6.827-10.289-16.482-12.19-25.941l-48.762-243.956c-6.827-34.133 22.236-63.191 56.369-56.413 30.525 6.144 213.479 42.711 243.955 48.806 9.46 1.902 19.115 5.413 25.942 12.19l487.865 487.913c21.699 21.651 119.272 119.274 146.383 146.337 9.118 9.167 13.702 22.137 13.702 35.059 0 79.824-20.334 136.875-62.513 179.932-42.569 43.447-99.426 64.024-181.443 64.024zM750.421 815.074c44.032-2.584 72.558-12.681 92.111-32.673 19.992-20.382 32.622-48.664 35.352-91.819-26.722-26.673-65.829-65.193-97.865-97.229-38.668 38.668-86.357 86.356-125.026 125.024 32.085 32.037 68.754 70.024 95.427 96.697zM584.875 648.258l125.026-125.027-368.984-368.978-125.025 125.021 368.983 368.984zM145.772 209.154l125.025-125.021-4.583-4.588c-32.183-6.437-97.182-20.041-157.062-32.037l32.037 157.062 4.584 4.584z" />
<glyph unicode="&#xe955;" glyph-name="fm-pin" d="M665.466 960c-13.581 0-27.54-7.091-37.345-16.476-79.288-75.918-103.566-139.406-74.577-226.373-67.639-51.844-110.36-64.568-194.798-64.568-115.428 0-190.794-13.916-242.076-65.162v-1.597c-47.984-47.964-47.984-124.763 0-172.685l143.368-144.487-244.277-244.166c-19.993-19.968-21.483-53.504-1.49-73.472 19.998-20.019 53.606-20.019 73.604 0l245.183 245.242 143.609-142.893c47.989-47.974 124.808-47.974 172.798 0h1.6c51.302 51.251 65.6 116.941 65.6 241.453 0 79.156 16.243 135.014 65.434 193.791 94.662-27.75 149.734-1.178 227.366 76.426 9.6 9.599 14.394 23.208 14.394 36.781 0 18.006-4.544 45.608-16 79.953-18.445 55.3-50.202 110.939-100.794 161.503-50.598 50.559-106.272 82.303-161.6 100.74-34.368 11.448-61.984 15.99-80 15.99zM685.293 854.806c54.394-10.097 109.165-46.105 148.166-85.093 39.008-38.983 72.23-86.732 85.978-149.313-48.864-46.878-78.758-50.585-127.635-24.858-19.494 10.266-44.198 6.636-59.776-8.94-93.235-93.183-117.76-177.713-117.76-291.787 0-99.322-5.842-136.237-36.802-169.517-8.74-9.421-20.797-7.987-28.795 0l-359.997 359.775c-7.997 7.987-7.752 18.227-1.306 26.061 18.288 22.271 58.992 39.572 170.903 39.51 133.784-0.077 204.905 34.375 292.797 116.73 15.584 15.574 19.456 39.464 9.6 59.166-26.33 52.628-22.223 80.367 24.627 128.264z" />
<glyph unicode="&#xe956;" glyph-name="fm-play-circle" d="M512 960c-282.767 0-512-229.222-512-512s229.233-512.001 512-512.001c282.765 0 512 229.222 512 512.001s-229.235 512-512 512zM512 857.601c226.214 0 409.6-183.398 409.6-409.6s-183.386-409.601-409.6-409.601c-226.217 0-409.6 183.398-409.6 409.601s183.383 409.6 409.6 409.6zM390.4 644.813c-18.877-10.138-32-29.132-32-56.012v-281.601c0-53.709 53.448-79.462 97.597-54.374l208.003 118.375c70.579 43.776 68.026 111.36 0 153.6l-208.003 118.374c-22.072 12.544-46.72 11.776-65.597 1.638z" />
<glyph unicode="&#xe957;" glyph-name="fm-plus-bag" d="M524.799 960c-113.105 0-204.799-91.699-204.799-204.8-76.001 0-198.399 0-204.799 0-28.278 0-51.2-22.938-51.2-51.2v-563.2c0-113.101 91.694-204.8 204.799-204.8h512.001c113.101 0 204.8 91.699 204.8 204.8v563.2c0 28.262-22.938 51.2-51.2 51.2-6.4 0-128.819 0-204.8 0 0 113.101-91.7 204.8-204.801 204.8zM524.799 857.6c56.576 0 102.4-45.824 102.4-102.4-93.389 0-111.411 0-204.799 0 0 56.576 45.823 102.4 102.399 102.4zM166.4 652.8c28.149 0 127.528 0 204.799 0 115.916 0 191.283 0 307.201 0 77.261 0 176.64 0 204.8 0v-512c0-56.576-45.824-102.4-102.4-102.4h-512.001c-56.556 0-102.399 45.824-102.399 102.4v512zM524.799 499.2c-28.262 0-51.2-22.938-51.2-51.2v-51.2h-51.199c-28.278 0-51.2-22.938-51.2-51.2s22.922-51.2 51.2-51.2h51.199v-51.2c0-28.262 22.938-51.2 51.2-51.2s51.2 22.938 51.2 51.2v51.2h51.2c28.264 0 51.201 22.938 51.201 51.2s-22.938 51.2-51.201 51.2h-51.2v51.2c0 28.262-22.938 51.2-51.2 51.2z" />
<glyph unicode="&#xe958;" glyph-name="fm-plus-circle" d="M488.311 913.522c-269.304 0-487.621-218.307-487.621-487.62s218.317-487.619 487.621-487.619c269.312 0 487.619 218.307 487.619 487.619s-218.307 487.62-487.619 487.62zM488.311 815.998c215.43 0 390.095-174.665 390.095-390.097 0-215.43-174.665-390.095-390.095-390.095-215.447 0-390.097 174.665-390.097 390.095 0 215.432 174.651 390.097 390.097 390.097zM488.311 669.712c-26.919 0-48.764-21.845-48.764-48.762v-146.286h-146.286c-26.931 0-48.762-21.847-48.762-48.763s21.831-48.762 48.762-48.762h146.286v-146.286c0-26.917 21.845-48.762 48.764-48.762 26.917 0 48.762 21.845 48.762 48.762v146.286h146.286c26.917 0 48.762 21.845 48.762 48.762s-21.845 48.763-48.762 48.763h-146.286v146.286c0 26.917-21.845 48.762-48.762 48.762z" />
<glyph unicode="&#xe959;" glyph-name="fm-plus-doc" d="M310.375 960c-99.891 0-182.375-75.776-182.375-171.213v-681.574c0-95.437 82.484-171.213 182.375-171.213h454.451c99.891 0 182.374 75.776 182.374 171.213 0 33.331 0 399.258 0 494.387 0 0.512 0 1.075 0 1.587 0 182.426-176.077 356.813-358.4 356.813-215.757 0-216.268 0-278.425 0zM310.375 857.6c50.739 0 108.134 0 227.225 0v-135.987c0-95.437 82.484-171.213 182.374-171.213h124.826c0-129.894 0-413.286 0-443.187 0-36.557-34.509-68.813-79.974-68.813h-454.451c-45.466 0-79.975 32.256-79.975 68.813v681.574c0 36.557 34.509 68.813 79.975 68.813zM640 844.8c90.726-24.064 170.086-101.53 193.587-192h-113.613c-45.517 0-79.974 32.256-79.974 68.813v123.187zM435.2 652.8c-28.262 0-51.2-22.938-51.2-51.2-28.262 0-51.2-22.938-51.2-51.2s22.938-51.2 51.2-51.2c0-28.262 22.938-51.2 51.2-51.2s51.2 22.938 51.2 51.2c28.262 0 51.2 22.938 51.2 51.2s-22.938 51.2-51.2 51.2c0 28.262-22.938 51.2-51.2 51.2zM384 396.8c-28.262 0-51.2-22.938-51.2-51.2s22.938-51.2 51.2-51.2h307.2c28.262 0 51.2 22.938 51.2 51.2s-22.938 51.2-51.2 51.2h-307.2zM384 243.2c-28.262 0-51.2-22.938-51.2-51.2s22.938-51.2 51.2-51.2h307.2c28.262 0 51.2 22.938 51.2 51.2s-22.938 51.2-51.2 51.2h-307.2z" />
<glyph unicode="&#xe95a;" glyph-name="fm-plus-square" d="M268.974 909.891c-119.054 0-215.579-96.525-215.579-215.579v-538.95c0-119.053 96.525-215.579 215.579-215.579h538.946c119.053 0 215.579 96.525 215.579 215.579v538.95c0 119.053-96.525 215.579-215.579 215.579h-538.946zM268.974 802.101h538.946c59.554 0 107.789-48.236 107.789-107.789v-538.95c0-59.554-48.236-107.789-107.789-107.789h-538.946c-59.554 0-107.79 48.236-107.79 107.789v538.95c0 59.554 48.236 107.789 107.79 107.789zM538.448 694.312c-29.75 0-53.895-24.145-53.895-53.895v-161.684h-161.684c-29.75 0-53.895-24.145-53.895-53.895 0-29.752 24.145-53.897 53.895-53.897h161.684v-161.684c0-29.75 24.145-53.895 53.895-53.895 29.748 0 53.893 24.145 53.893 53.895v161.684h161.684c29.75 0 53.895 24.145 53.895 53.897 0 29.75-24.145 53.895-53.895 53.895h-161.684v161.684c0 29.75-24.145 53.895-53.893 53.895z" />
<glyph unicode="&#xe95b;" glyph-name="fm-power" horiz-adv-x="991" d="M495.5 960c-37.67 0-68.25-30.509-68.25-68v-462.75c0-37.478 30.58-68 68.25-68 37.657 0 68.25 30.522 68.25 68v462.75c0 37.491-30.593 68-68.25 68zM253.25 848c-13.138-0.095-26.35-4.037-38-12-134.835-92.121-215.25-244.126-215.25-406.75 0-271.949 222.284-493.25 495.5-493.25 273.203 0 495.5 221.302 495.5 493.25 0 162.47-80.306 314.475-215 406.75-11.405 7.795-24.926 12-38.75 12h-0.25c-37.696 0-68-30.509-68-68 0-23.706 12.228-44.603 30.75-56.75 96.998-66.995 154.75-176.727 154.75-294 0-197.056-161.023-357.5-359-357.5s-359 160.406-359 357.5c0 117.901 58.285 227.985 156 294.75 31.065 21.222 39.087 63.588 17.75 94.5-13.32 19.312-35.104 29.659-57 29.5z" />
<glyph unicode="&#xe95c;" glyph-name="fm-printer" horiz-adv-x="1117" d="M390.982 960c-61.697 0-111.709-49.99-111.709-111.709v-55.855h-111.709c-92.54 0-167.564-75.013-167.564-167.564v-335.127c0-92.551 75.018-167.564 167.564-167.564h111.709v-55.855c0-61.719 50.012-111.709 111.709-111.709h335.127c61.696 0 111.709 49.99 111.709 111.709v55.855h111.709c92.542 0 167.564 75.013 167.564 167.564v279.273c0 92.551-75.017 167.564-167.564 167.564h-111.709v111.709c0 61.719-50.013 111.709-111.709 111.709h-335.127zM390.982 848.291h335.127v-111.709h-321.164l-13.964 6.982v104.727zM167.564 680.727h97.745l101.236-50.605c7.758-3.91 15.768-5.25 24.436-5.25h558.545c30.85 0 55.855-25.023 55.855-55.855v-279.273c0-30.832-25.004-55.855-55.855-55.855h-111.709v111.709c30.85 0 55.855 25.023 55.855 55.855s-25.004 55.855-55.855 55.855h-558.545c-30.848 0-55.855-25.023-55.855-55.855s25.006-55.855 55.855-55.855v-111.709h-111.709c-30.848 0-55.855 25.023-55.855 55.855v335.127c0 30.832 25.006 55.855 55.855 55.855zM223.418 624.873c-30.848 0-55.855-25.023-55.855-55.855s25.006-55.855 55.855-55.855c30.848 0 55.855 25.023 55.855 55.855s-25.006 55.855-55.855 55.855zM390.982 345.6h335.127v-279.273h-335.127v279.273z" />
<glyph unicode="&#xe95d;" glyph-name="fm-recycle" d="M998.477 271.392l-42.234 76.041-90.79-50.486 42.176-75.891c2.49-4.416 4.256-8.986 5.402-13.709 1.907-8.589 1.658-17.51-0.73-25.971-1.261-4.288-3.078-8.39-5.402-12.211-4.384-7.501-10.579-13.792-18.022-18.278-8.058-4.787-17.28-7.251-26.65-7.117h-238.982v103.885l-207.768-155.827 207.768-155.827v103.885h238.982c14.445 0 28.672 1.92 42.125 5.664 25.99 7.168 49.626 21.069 68.512 40.301 9.248 9.299 17.248 19.744 23.686 30.803 20.499 34.643 26.758 75.891 17.453 115.053-3.43 13.843-8.653 27.187-15.526 39.686zM200.541 505.336l-119.986-239.973c-6.213-12.422-10.771-25.606-13.557-39.213-5.075-25.491-3.689-51.84 4.031-76.653 7.721-24.819 21.532-47.302 40.172-65.408 9.245-9.043 19.53-16.934 30.906-23.533 23.713-13.549 50.55-20.672 77.861-20.672h91.626v103.885h-91.626c-9.094-0.026-18.041 2.298-25.971 6.752-7.575 4.358-13.892 10.605-18.335 18.125-4.561 7.334-7.22 15.693-7.74 24.314-0.251 4.262 0.063 8.538 0.935 12.723 0.935 4.518 2.493 8.986 4.623 13.299l117.181 234.36 83.055-47.943-31.061 257.788-238.829-102.014 96.716-55.837zM862.074 405.348l31.059 257.84-85.075-49.085-147.674 265.787c-10.31 18.905-24.486 35.424-41.606 48.482s-36.802 22.361-57.759 27.302c-13.144 3.046-26.608 4.493-40.099 4.311-27.464-0.515-54.305-8.273-77.809-22.491-25.089-15.228-45.308-37.303-58.279-63.629l-38.021-76.043 92.924-46.488 38.022 76.095c2.337 4.675 5.246 8.883 8.622 12.57 6.19 6.756 14.168 11.619 23.011 14.024 8.977 2.535 18.454 2.732 27.529 0.572 6.934-1.628 13.439-4.717 19.083-9.061s10.294-9.844 13.641-16.131l148.452-267.293-94.848-54.747 238.829-102.014z" />
<glyph unicode="&#xe95e;" glyph-name="fm-recycle-alternative" horiz-adv-x="1071" d="M633.018 936.727l18.232-29.091 123.732-198.012 97.941 56.436 23.273-40.339-62.45-233.117-233.114 62.45-23.273 40.34 90.182 51.975-103.177 165.236h-68.655l-64.97-103.951-107.636 62.060 103.757 166.012h206.158zM825.405 394.668l107.636 62.059 103.759-166.014-18.618-32.386-109.964-190.45h-254.059v-108.605h-46.545l-170.668 170.668 170.668 170.664h46.545v-108.605h182.3l12.218 21.141 43.446 75.245-66.523 106.282h-0.195zM159.030 507.927l-94.449 54.497 23.273 40.34 233.115 62.449 62.449-233.117-23.273-40.336-93.673 54.109-98.521-157.673 55.661-96.195h120.242v-124.123h-192l-17.842 31.032-92.121 159.614-18.618 32.386 19.782 31.614 115.976 185.599v-0.194z" />
<glyph unicode="&#xe95f;" glyph-name="fm-sad-face" d="M512 960c-282.767 0-512-229.222-512-512s229.233-512 512-512c282.778 0 512 229.222 512 512s-229.222 512-512 512zM512 857.6c226.202 0 409.6-183.398 409.6-409.6s-183.398-409.6-409.6-409.6c-226.217 0-409.6 183.398-409.6 409.6s183.383 409.6 409.6 409.6zM358.4 601.6c-28.278 0-51.2-22.938-51.2-51.2v-51.2c0-28.262 22.922-51.2 51.2-51.2s51.2 22.938 51.2 51.2v51.2c0 28.262-22.922 51.2-51.2 51.2zM665.6 601.6c-28.262 0-51.2-22.938-51.2-51.2v-51.2c0-28.262 22.938-51.2 51.2-51.2s51.2 22.938 51.2 51.2v51.2c0 28.262-22.938 51.2-51.2 51.2zM512 353.587c-68.71 0-133.14-25.958-180.797-73.574-20.009-20.019-19.988-53.606 0-73.626 19.983-19.968 51.994-19.968 71.997 0 28.672 28.621 67.482 44.8 108.8 44.8 41.165 0 80.179-14.746 108.8-43.213 20.070-19.917 52.070-20.019 71.987 0 19.968 20.070 20.070 52.070 0 72.038-47.616 47.309-112.282 73.574-180.787 73.574z" />
<glyph unicode="&#xe960;" glyph-name="fm-send" d="M823.625 830.563c-20.181 1.963-43.605-1.408-69.333-11.99 0 0-542.505-223.488-559.999-230.698-43.136-16.768-66.688-35.030-66.688-77.313v-5.333c0-43.093 34.902-72.789 75.99-78.677l230.697-55.979 54.656-229.376c5.248-41.899 36.267-77.312 80-77.312h5.333c42.283 0 60.245 24.107 77.312 68.011l230.699 558.678c31.787 77.227 1.749 134.059-58.667 139.99zM810.27 746.553c1.749-1.749 0.085-7.595-6.656-23.979l-230.656-560.044c-0.384-0.939-1.024-0.469-1.365-1.323l-61.312 254.677c-3.755 15.531-15.147 26.923-30.677 30.677l-253.311 61.312c18.261 7.509 559.999 232.022 559.999 232.022 16.384 6.741 22.229 8.406 23.979 6.656z" />
<glyph unicode="&#xe961;" glyph-name="fm-square-and-circle" d="M808.422 960c-119.053 0-215.58-96.52-215.58-215.579s96.527-215.579 215.58-215.579c119.053 0 215.578 96.52 215.578 215.579s-96.525 215.579-215.578 215.579zM215.579 852.211c-119.053 0-215.579-96.52-215.579-215.579v-485.054c0-119.053 96.525-215.578 215.579-215.578h485.055c119.053 0 215.578 96.525 215.578 215.578v215.58c0 29.75-24.147 53.895-53.894 53.895-29.754 0-53.894-24.145-53.894-53.895v-215.58c0-59.552-48.237-107.789-107.789-107.789h-485.055c-59.553 0-107.789 48.237-107.789 107.789v485.054c0 59.532 48.236 107.789 107.789 107.789h215.579c29.75 0 53.895 24.129 53.895 53.894s-24.145 53.895-53.895 53.895h-215.579zM808.422 852.211c59.552 0 107.789-48.257 107.789-107.789s-48.237-107.789-107.789-107.789c-59.552 0-107.789 48.257-107.789 107.789s48.237 107.789 107.789 107.789z" />
<glyph unicode="&#xe962;" glyph-name="fm-square-check" d="M227.556 960c-125.674 0-227.556-101.888-227.556-227.556v-568.886c0-125.67 101.882-227.558 227.556-227.558h568.892c125.67 0 227.552 101.888 227.552 227.558v568.886c0 125.668-101.882 227.556-227.552 227.556h-568.892zM739.558 629.361c14.554-0.057 29.779-4.892 40.89-16.042 22.214-22.187 22.214-57.743 0-79.987l-213.333-213.333c-65.439-65.421-165.558-55.635-216.895 21.333l-56.889 85.334c-17.425 26.112-10.138 62.578 16.003 79.986 26.147 17.465 62.572 10.183 80.003-15.986l56.889-85.334c11.503-17.237 26.22-18.205 40.886-3.528l211.551 211.514c11.11 11.093 26.336 16.042 40.896 16.042z" />
<glyph unicode="&#xe963;" glyph-name="fm-square-outlined" d="M227.56 960c-125.674 0-227.556-101.888-227.556-227.556v-568.886c0-125.67 101.882-227.558 227.556-227.558h568.888c125.67 0 227.558 101.888 227.558 227.558v568.886c0 125.668-101.888 227.556-227.558 227.556h-568.888zM227.56 846.222h568.888c62.867 0 113.779-50.915 113.779-113.778v-568.886c0-62.867-50.912-113.779-113.779-113.779h-568.888c-62.84 0-113.778 50.912-113.778 113.779v568.886c0 62.863 50.938 113.778 113.778 113.778z" />
<glyph unicode="&#xe964;" glyph-name="fm-target" d="M0 448c0-135.68 54.187-266.24 149.76-362.24 96-95.573 226.56-149.76 362.24-149.76s266.24 54.187 362.24 149.76c95.573 96 149.76 226.56 149.76 362.24s-54.187 266.24-149.76 362.24c-96 95.573-226.56 149.76-362.24 149.76s-266.24-54.187-362.24-149.76c-95.573-96-149.76-226.56-149.76-362.24zM213.333 448c0 79.36 31.573 155.307 87.467 211.2s131.84 87.467 211.2 87.467c79.36 0 155.307-31.573 211.2-87.467s87.467-131.84 87.467-211.2c0-79.36-31.573-155.307-87.467-211.2s-131.84-87.467-211.2-87.467c-79.36 0-155.307 31.573-211.2 87.467s-87.467 131.84-87.467 211.2zM341.333 448c0 94.208 76.459 170.667 170.667 170.667s170.667-76.459 170.667-170.667c0-94.208-76.459-170.667-170.667-170.667s-170.667 76.459-170.667 170.667z" />
<glyph unicode="&#xe965;" glyph-name="fm-thumb-up" d="M345.6 960c138.721 0 224.579-36.71 254.403-139.213 6.717-23.091 9.687-48.794 11.197-76.8 1.603-29.747 0.287-59.648-2.627-90.317l197.827-0.87c84.832 0 153.6-68.762 153.6-153.6 0-37.478-16.371-73.676-41.261-101.222 26.323-27.597 41.261-62.465 41.261-103.578 0-41.882-21.664-82.586-52.205-111.258 0-12.544 1.005-34.355 1.005-42.342 0-94.157-47.603-154.522-131.2-182.374-55.341-18.483-105.856-22.426-227.2-22.426-233.078 0-409.6 176.538-409.6 409.6 0 116.378 20.751 182.323 81.603 304.025 54.349 108.698 71.997 162.202 71.997 259.175 0 28.262 22.922 51.2 51.2 51.2zM394.982 855.501c-7.148-81.766-30.582-152.32-79.785-250.726-54.349-108.698-71.997-162.202-71.997-259.175 0-176.538 130.678-307.2 307.2-307.2 202.253 0 256 17.92 256 102.4-7.866 0-44.762 0-51.2 0-28.275 0-51.2 22.938-51.2 51.2s22.925 51.2 51.2 51.2c6.438 0 43.334 0 51.2 0 23.354 0 51.2 27.648 51.2 51.2 0 28.262-22.925 51.2-51.2 51.2-7.565 0-44.781 0-51.2 0-28.275 0-51.2 22.938-51.2 51.2s22.925 51.2 51.2 51.2c6.419 0 43.635 0 51.2 0 23.757 0 51.2 27.085 51.2 51.2 0 28.262-22.925 51.2-51.2 51.2h-256c-2.34 0-23.096 0.154-39.997 20.787-16.906 20.685-9.82 38.911-9.605 40.038 1.101 5.632 3 15.873 4.803 30.362 4.055 32.614 4.828 65.792 3.2 96-1.116 20.736-3.686 39.578-8.003 54.426-10.808 37.171-42.245 60.058-105.815 63.489z" />
<glyph unicode="&#xe966;" glyph-name="fm-trash-can" d="M332.801 960c-111.632 0-204.801-103.064-204.801-216.319v-40.091c0-28.314 22.922-51.25 51.205-51.25l-0.005-511.54c0-112.282 92.401-204.8 204.801-204.8h307.199c112.384 0 204.8 92.211 204.8 204.8l0.051 511.54c28.262 0 51.2 22.936 51.2 51.25v51.303c0 112.435-92.57 205.107-204.851 205.107h-409.599zM332.801 857.6l411.238-1.741c55.706 0 100.762-44.851 100.762-100.659-92.365 0-515.768 0-614.399 0 6.349 53.197 52.977 102.4 102.4 102.4zM281.601 652.8h511.999v-512c0-56.269-47.155-102.4-102.4-102.4h-307.199c-56.412 0-102.4 47.053-102.4 102.4v512zM435.196 551.066c-28.278 0-51.206-22.989-51.201-51.303v-307.66c0-28.365 22.922-51.302 51.201-51.302 28.268 0 51.205 22.938 51.205 51.302v307.66c0 28.314-22.938 51.303-51.205 51.303zM640 551.066c-28.261 0-51.199-22.989-51.199-51.303v-307.66c0-28.365 22.938-51.302 51.199-51.302s51.2 22.938 51.2 51.302v307.66c0 28.314-22.938 51.303-51.2 51.303z" />
<glyph unicode="&#xe967;" glyph-name="fm-trash-can-alternative" horiz-adv-x="829" d="M438.75 913.518c-53.882 0-97.524-43.642-97.524-97.523h-243.81c-26.917 0-48.762-21.845-48.762-48.762s21.845-48.761 48.762-48.761v-585.141c0-106.789 88.015-195.048 195.048-195.048h292.571c107.032 0 195.048 88.015 195.048 195.048v585.141c26.917 0 48.762 21.845 48.762 48.761s-21.845 48.762-48.762 48.762h-243.81c0 53.882-43.642 97.523-97.524 97.523zM194.94 718.471h487.619v-585.141c0-53.492-43.398-97.524-96.012-97.524l-294.083 1.512c-53.736 0-97.524 43.398-97.524 96.012v585.141zM341.226 620.947c-26.917 0-48.762-21.845-48.762-48.762v-390.094c0-26.917 21.845-48.762 48.762-48.762s48.762 21.845 48.762 48.762v390.094c0 26.917-21.845 48.762-48.762 48.762zM536.274 620.947c-26.917 0-48.762-21.845-48.762-48.762v-390.094c0-26.917 21.846-48.762 48.762-48.762s48.762 21.845 48.762 48.762v390.094c0 26.917-21.845 48.762-48.762 48.762z" />
<glyph unicode="&#xe968;" glyph-name="fm-truck" d="M204.8 832c-113.106 0-204.8-91.699-204.8-204.8v-307.2c0-77.619 38.497-140.595 105.042-178.022 11.361-73.626 74.158-129.178 150.958-129.178 64.911 0 122.839 40.653 144.333 102.451l171.894 0.051c23.214-61.133 79.665-102.502 144.573-102.502 66.726 0 122.918 41.574 145.856 105.216 98.624 13.824 161.344 83.354 161.344 201.984 0 0 0 0 0 51.2 0 130.662-125.325 256-256 256 0 113.101-91.693 204.8-204.8 204.8-44.8 0-313.6 0-358.4 0zM204.8 729.6c44.8 0 313.6 0 358.4 0 56.556 0 102.406-45.824 102.4-102.4 0 0 0-39.936 0-51.2 0-61.030 0.269-214.886 0.269-264.704-39.995-13.414-78.426-47.821-94.062-93.389 0 0-159.34-0.154-171.141-0.717-25.564 73.318-93.839 103.424-144.666 102.81s-97.516-24.678-127.58-68.506c-14.326 10.957-26.020 39.117-26.020 68.506v307.2c0 56.576 45.844 102.4 102.4 102.4zM768 524.8c74.125 0 153.6-79.462 153.6-153.6 0-51.2 0-51.2 0-51.2 0-61.286-18.221-87.91-61.427-98.15-13.082 37.939-52.358 76.595-91.853 88.781l-0.32 214.17zM256 217.6c27.305 0.41 51.159-22.733 51.2-51.2 0-28.262-22.922-51.2-51.2-51.2s-51.2 22.938-51.2 51.2c4.234 28.211 24.637 50.79 51.2 51.2zM716.8 217.6c28.275 0 51.2-22.938 51.2-51.2s-22.925-51.2-51.2-51.2c-28.275 0-51.2 22.938-51.2 51.2 0 14.131 5.133 27.546 14.4 36.813s22.662 14.387 36.8 14.387z" />
<glyph unicode="&#xe969;" glyph-name="fm-user" horiz-adv-x="829" d="M438.75 913.521c-134.651 0-243.81-109.158-243.81-243.809s109.158-243.811 243.81-243.811c134.651 0 243.81 109.16 243.81 243.811s-109.158 243.809-243.81 243.809zM438.75 815.998c80.794 0 146.286-65.492 146.286-146.286s-65.492-146.286-146.286-146.286c-80.794 0-146.286 65.492-146.286 146.286s65.492 146.286 146.286 146.286zM266.562 361.901c-127.478-34.84-217.907-145.686-217.907-277.333v-97.524c0-26.931 21.831-48.762 48.762-48.762h682.667c26.931 0 48.762 21.831 48.762 48.762v97.524c0 131.647-90.429 242.493-217.907 277.333-10.928 2.989-21.665 1.609-31.998-3.048-44.642-20.119-92.165-30.476-140.19-30.476s-95.549 10.357-140.19 30.476c-10.333 4.657-21.070 6.037-31.998 3.048zM286.369 264.377c49.24-18.622 99.703-33.524 152.381-33.524s103.141 14.902 152.381 33.524c83.061-25.161 140.19-95.276 140.19-179.81v-48.762h-585.143v48.762c0 84.534 57.129 154.648 140.19 179.81z" />
<glyph unicode="&#xe96a;" glyph-name="fm-user-circle" d="M511.21 960c-282.34 0-510.236-228.867-511.207-511.207-0.971-281.932 229.123-512.23 511.207-512.793s511.721 232.858 511.209 512.793c-0.512 282.34-228.87 511.207-511.209 511.207zM511.21 857.759c225.852 0 408.963-183.114 408.963-408.966 0-115.021-47.898-218.694-124.32-293.023-37.677 81.434-118.502 139.661-211.181 139.661-18.353 0-128.569 0-146.972 0-92.529 0-173.197-57.51-210.873-138.995-76.374 74.33-124.582 177.336-124.582 292.358 0 225.852 183.114 408.966 408.966 408.966zM511.21 755.517c-112.925 0-204.483-91.557-204.483-204.483s91.558-204.483 204.483-204.483c112.925 0 204.483 91.557 204.483 204.483s-91.557 204.483-204.483 204.483zM511.21 653.276c56.488 0 102.241-45.753 102.241-102.241s-45.753-102.241-102.241-102.241c-56.488 0-102.241 45.753-102.241 102.241s45.753 102.241 102.241 102.241zM437.699 193.19c18.403 0 128.62 0 146.972 0 57.050 0 108.679-41.613 126.778-100.25-73-43.091-154.538-53.114-200.239-53.114-46.929 0-124.786 10.528-199.626 51.782 17.943 59.149 69.576 101.581 126.115 101.581z" />
<glyph unicode="&#xe96b;" glyph-name="fm-user-list" horiz-adv-x="1132" d="M351.077 909.891c-133.945 0-242.526-108.582-242.526-242.526s108.582-242.526 242.526-242.526c133.928 0 242.525 108.582 242.525 242.526s-108.596 242.526-242.525 242.526zM351.077 802.102c74.412 0 134.737-60.324 134.737-134.737s-60.324-134.731-134.737-134.737c-74.412 0-134.737 60.324-134.737 134.737s60.324 134.731 134.737 134.737zM755.286 694.312c-29.75 0-53.895-24.129-53.895-53.895s24.145-53.895 53.895-53.895h269.474c29.75 0 53.895 24.129 53.895 53.895s-24.145 53.895-53.895 53.895h-269.474zM701.391 478.733c-29.75 0-53.895-24.129-53.895-53.895 0-29.769 24.145-53.897 53.895-53.897h323.368c29.75 0 53.895 24.129 53.895 53.897 0 29.766-24.145 53.895-53.895 53.895h-323.368zM165.814 352.412c-98.848-40.788-165.053-140.789-165.053-250.945v-107.789c0-29.766 24.129-53.895 53.895-53.895h592.84c29.75 0 53.895 24.129 53.895 53.895v107.789c0 107.563-66.56 205.14-165.024 247.582-13.905 5.972-30.019 6.155-43.816 0-47.697-21.375-94.143-31.992-141.474-32.003-47.169 0-93.788 11.21-143.155 33.684-13.576 6.176-28.322 7.357-42.108 1.682zM863.076 263.152c-29.75 0-53.895-24.129-53.895-53.895s24.145-53.895 53.895-53.895h161.684c29.75 0 53.895 24.129 53.895 53.895s-24.145 53.895-53.895 53.895h-161.684zM186.025 242.941c50.92-19.321 112.823-33.695 165.053-33.684 51.82 0 110.107 11.878 160.013 30.316 48.611-27.745 82.511-78.789 82.511-138.105v-53.895h-485.051v53.895c0 62.771 34.843 116.493 77.474 141.474z" />
<glyph unicode="&#xe96c;" glyph-name="fm-user-rectangle-and-line" d="M332.8 960c-113.101 0-204.8-91.699-204.8-204.8v-614.4c0-109.363 86.835-205.005 204.8-204.8h409.6c113.408 0.512 204.8 91.648 204.8 204.8v614.4c0 113.101-91.699 204.8-204.8 204.8h-409.6zM332.8 857.6h409.6c56.576 0 102.4-45.824 102.4-102.4v-614.4c0-33.229-15.053-56.883-30.874-73.318-42.598 78.182-116.941 124.518-202.752 124.518-18.381 0-128.768 0-147.2 0-85.76 0-163.686-51.098-202.956-124.006-15.616 14.438-30.618 39.578-30.618 72.806v614.4c0 56.576 45.824 102.4 102.4 102.4zM435.2 755.2c-28.262 0-51.2-22.938-51.2-51.2s22.938-51.2 51.2-51.2h204.8c28.262 0 51.2 22.938 51.2 51.2s-22.938 51.2-51.2 51.2h-204.8zM537.6 550.4c-84.838 0-153.6-68.762-153.6-153.6s68.762-153.6 153.6-153.6c84.838 0 153.6 68.762 153.6 153.6s-68.762 153.6-153.6 153.6z" />
<glyph unicode="&#xe96d;" glyph-name="fm-user-square" d="M227.556 960c-125.668 0-227.556-101.882-227.556-227.556v-568.886c0-125.677 101.888-227.558 227.556-227.558h568.892c125.664 0 227.552 101.882 227.552 227.558v568.886c0 125.674-101.888 227.556-227.552 227.556h-568.892zM227.556 846.222h568.892c62.861 0 113.773-50.938 113.773-113.778v-568.886c0-41.811-23.61-78.643-57.171-98.413-10.925 134.349-155.251 212.186-341.049 212.186-185.8 0-332.971-79.93-341.903-212.57-33.621 19.776-56.32 56.986-56.32 98.797v568.886c0 62.84 50.916 113.778 113.778 113.778zM512.001 732.444c-109.967 0-199.112-89.144-199.112-199.111s89.145-199.111 199.112-199.111c109.966 0 199.11 89.145 199.11 199.111s-89.144 199.111-199.11 199.111zM512.001 618.667c47.104 0 85.333-38.207 85.333-85.334s-38.229-85.333-85.333-85.333c-47.104 0-85.334 38.207-85.334 85.333s38.23 85.334 85.334 85.334zM512.001 163.558c138.694 0 227.558-51.763 227.558-104.896v-8.883h-455.114v8.883c0 53.133 88.86 104.896 227.556 104.896z" />
</font>
</defs>
</svg>
